<svg width="24" height="25" viewBox="0 0 24 25" fill="none" xmlns="http://www.w3.org/2000/svg">
<circle cx="12" cy="12.5" r="10" fill="#FF9143"/>
<path fill-rule="evenodd" clip-rule="evenodd" d="M12.0943 6.75C12.5086 6.75 12.8443 7.08579 12.8443 7.5V11.75H17C17.4142 11.75 17.75 12.0858 17.75 12.5C17.75 12.9142 17.4142 13.25 17 13.25H12.8443V17.5C12.8443 17.9142 12.5086 18.25 12.0943 18.25C11.6801 18.25 11.3443 17.9142 11.3443 17.5V13.25H7C6.58579 13.25 6.25 12.9142 6.25 12.5C6.25 12.0858 6.58579 11.75 7 11.75H11.3443V7.5C11.3443 7.08579 11.6801 6.75 12.0943 6.75Z" fill="white"/>
</svg>
