<svg width="80" height="80" viewBox="0 0 80 80" fill="none" xmlns="http://www.w3.org/2000/svg">
<path d="M36.6666 50.0001H43.3333V56.6668H36.6666V50.0001ZM36.6666 23.3334H43.3333V43.3334H36.6666V23.3334ZM40 6.66675C21.5666 6.66675 6.66663 21.6667 6.66663 40.0001C6.66663 48.8406 10.1785 57.3191 16.4297 63.5703C19.525 66.6656 23.1997 69.1209 27.2438 70.7961C31.288 72.4712 35.6226 73.3334 40 73.3334C48.8405 73.3334 57.319 69.8215 63.5702 63.5703C69.8214 57.3191 73.3333 48.8406 73.3333 40.0001C73.3333 35.6227 72.4711 31.2882 70.796 27.244C69.1208 23.1998 66.6655 19.5251 63.5702 16.4299C60.4749 13.3346 56.8003 10.8793 52.7561 9.2041C48.7119 7.52894 44.3774 6.66675 40 6.66675ZM40 66.6668C32.9275 66.6668 26.1448 63.8572 21.1438 58.8563C16.1428 53.8553 13.3333 47.0725 13.3333 40.0001C13.3333 32.9276 16.1428 26.1449 21.1438 21.1439C26.1448 16.1429 32.9275 13.3334 40 13.3334C47.0724 13.3334 53.8552 16.1429 58.8561 21.1439C63.8571 26.1449 66.6666 32.9276 66.6666 40.0001C66.6666 47.0725 63.8571 53.8553 58.8561 58.8563C53.8552 63.8572 47.0724 66.6668 40 66.6668Z" fill="#121211"/>
</svg>
