<svg width="270" height="243" viewBox="0 0 270 243" fill="none" xmlns="http://www.w3.org/2000/svg">
<g filter="url(#filter0_i_2989_161339)">
<path d="M47.4675 108.204L61.3529 107.784C64.394 107.692 66.1179 104.236 64.3753 101.724L64.3714 101.718C64.3079 101.626 61.0608 96.924 58.7156 94.1055C56.9326 91.9627 56.6384 89.4169 53.9278 88.8141C53.8699 88.8012 53.8111 88.79 53.7513 88.7805C51.9529 88.4928 52.8371 91.8341 51.4191 92.9848C49.3049 94.7004 47.8611 92.3055 46.8354 90.4846C45.149 87.4905 43.8506 83.6758 40.5185 82.9099C39.8359 82.753 39.1728 82.7737 38.6127 83.1026C37.0148 84.0409 34.5549 85.0727 33.1322 83.8821C31.2233 82.2845 28.7674 80.7551 26.4912 80.9184C25.7301 80.973 24.6548 81.2409 24.244 81.349C24.131 81.3787 24.0183 81.4062 23.904 81.4301C19.7971 82.2874 18.3135 87.348 21.4781 90.1202C23.1723 91.6043 24.9548 93.0708 26.5635 94.2049C32.5445 98.4211 42.2775 102.38 46.5512 104.018C47.4309 104.356 47.5721 105.563 46.792 106.093C45.84 106.74 46.3196 108.239 47.4675 108.204Z" fill="#778C56"/>
</g>
<path d="M25.462 86.992V86.992C30.6802 90.7813 36.2313 94.0835 42.0456 96.8573L43.6659 97.6303L63.6379 104.981" stroke="#61783D" stroke-width="1.05" stroke-linecap="round"/>
<g filter="url(#filter1_i_2989_161339)">
<path d="M45.0585 97.8612L60.8308 103.324C64.3949 104.558 65.1785 109.282 62.2064 111.616L57.6987 114.926C54.4301 117.327 51.6784 120.538 48.0583 122.356C47.126 122.825 46.1507 123.116 45.2282 123.036C42.0421 122.759 42.7672 118.482 43.6976 115.401C43.9033 114.719 43.8932 114.057 43.5187 113.487C42.0486 111.248 38.3762 115.627 36.9681 117.465C36.5841 117.966 36.2563 118.503 35.9569 119.06C34.3843 121.984 31.9926 124.675 28.7133 125.066C27.3485 125.229 26.0179 125.075 25.2166 124.184C23.6973 122.494 21.1921 120.38 19.1041 121.26C16.2814 122.45 12.8431 123.36 10.2414 122.335C8.47667 121.64 7.50925 119.762 7.63384 117.858C7.78602 115.531 8.27423 112.415 9.72557 110.564C10.5645 109.495 12.0014 108.496 13.1977 107.778C14.5174 106.987 16.0086 106.562 17.528 106.335L42.4635 102.613C43.5939 102.444 44.1197 101.107 43.4106 100.204C42.4899 99.0329 43.6555 97.3753 45.0585 97.8612Z" fill="#677C47"/>
<path fill-rule="evenodd" clip-rule="evenodd" d="M61.8334 111.119C64.4091 109.087 63.7259 104.986 60.6294 103.913L44.857 98.4508C44.0385 98.1673 43.3583 99.1345 43.8955 99.8181C44.9001 101.096 44.1552 102.991 42.554 103.23L17.6185 106.952C16.1486 107.171 14.7422 107.578 13.514 108.314C12.3263 109.026 10.9747 109.977 10.2109 110.951C9.56244 111.778 9.10509 112.923 8.79265 114.184C8.48209 115.437 8.32569 116.758 8.25104 117.899C8.14066 119.586 8.99948 121.177 10.4666 121.755C11.627 122.212 13.0145 122.251 14.4918 122.013C15.9645 121.775 17.4803 121.269 18.8651 120.685C20.1737 120.134 21.541 120.552 22.6841 121.22C23.8395 121.895 24.8951 122.899 25.6751 123.766C26.263 124.42 27.3184 124.606 28.6404 124.448C31.6122 124.093 33.8687 121.634 35.4126 118.763C35.7224 118.187 36.0678 117.62 36.478 117.084C37.1866 116.16 38.493 114.556 39.83 113.463C40.4895 112.924 41.2233 112.452 41.9424 112.296C42.3134 112.216 42.7072 112.213 43.0876 112.355C43.4729 112.499 43.7899 112.77 44.0346 113.143C44.5437 113.918 44.5286 114.79 44.2894 115.582C43.8279 117.111 43.4437 118.859 43.5363 120.228C43.5824 120.909 43.7426 121.43 44.0078 121.784C44.2556 122.115 44.6386 122.359 45.2813 122.415C46.0445 122.482 46.9008 122.242 47.782 121.799C49.5219 120.925 51.068 119.709 52.6087 118.386C53.0008 118.049 53.3942 117.704 53.7906 117.356C54.9338 116.353 56.1016 115.328 57.334 114.423L61.8334 111.119ZM61.0318 102.735C65.0604 104.13 65.9461 109.47 62.5867 112.108C62.5814 112.112 62.5761 112.116 62.5707 112.12L58.063 115.43C56.8778 116.301 55.7693 117.273 54.638 118.266C54.2336 118.621 53.8263 118.978 53.4116 119.334C51.8542 120.672 50.2144 121.97 48.3343 122.915C47.3508 123.408 46.2563 123.751 45.1747 123.657C44.2243 123.574 43.5031 123.18 43.0199 122.535C42.554 121.913 42.3563 121.121 42.3017 120.313C42.1929 118.704 42.6365 116.773 43.1054 115.22C43.2777 114.649 43.2423 114.196 43.0024 113.831C42.8797 113.644 42.7603 113.562 42.6579 113.524C42.5505 113.484 42.4052 113.471 42.2032 113.515C41.7762 113.607 41.2282 113.926 40.6099 114.431C39.3911 115.427 38.1573 116.933 37.4578 117.846C37.1 118.313 36.7898 118.819 36.5008 119.357C34.8995 122.335 32.3727 125.258 28.7859 125.686C27.3782 125.854 25.7725 125.731 24.7578 124.603C24.0184 123.78 23.0617 122.882 22.0628 122.298C21.0514 121.706 20.1221 121.507 19.3428 121.835C17.9048 122.441 16.2902 122.985 14.6876 123.244C13.0896 123.501 11.4572 123.483 10.0159 122.916C7.95345 122.103 6.87742 119.939 7.01622 117.817C7.09376 116.632 7.25755 115.231 7.59199 113.882C7.92453 112.54 8.43696 111.202 9.23981 110.178C10.1538 109.013 11.676 107.966 12.881 107.243C14.2922 106.397 15.8683 105.953 17.437 105.719L42.3726 101.997C43.0321 101.898 43.339 101.118 42.9252 100.592C41.621 98.9319 43.2722 96.584 45.2595 97.2722L61.0318 102.735Z" fill="#677C47"/>
</g>
<path d="M18.0355 113.418L31.6027 109.125L38.0793 107.649C42.3009 106.687 46.6211 106.222 50.9529 106.264V106.264C54.5324 106.298 58.1014 106.677 61.6109 107.397L63.6228 107.81" stroke="#546737" stroke-width="1.05" stroke-linecap="round"/>
<g filter="url(#filter2_i_2989_161339)">
<path d="M61.3903 108.212C68.623 94.7616 86.1594 91.0902 98.2025 100.505L173.275 159.193C180.721 165.015 174.456 176.822 165.513 173.82L75.3542 143.562C60.7861 138.673 54.105 121.76 61.3903 108.212Z" fill="url(#paint0_linear_2989_161339)"/>
</g>
<path d="M87.4137 102V102C83.7008 104.631 80.8098 108.269 79.0764 112.491L78.8908 112.943" stroke="#FDCD7A" stroke-width="1.05" stroke-linecap="round"/>
<path d="M110.914 136.81V136.81C107.953 138.898 105.648 141.793 104.269 145.156L104.124 145.51" stroke="#E97C11" stroke-width="1.05" stroke-linecap="round"/>
<path d="M155.1 148.847V148.847C152.891 150.392 151.173 152.544 150.15 155.047L150.045 155.304" stroke="#CB6F15" stroke-width="1.05" stroke-linecap="round"/>
<path d="M93.249 103.097V103.097C89.4492 105.686 86.4663 109.313 84.6498 113.553L84.4585 113.999" stroke="#F1D79E" stroke-width="1.05" stroke-linecap="round"/>
<path d="M115.38 137.853V137.853C112.387 139.893 110.036 142.751 108.605 146.091L108.455 146.443" stroke="#DC791A" stroke-width="1.05" stroke-linecap="round"/>
<path d="M157.306 152.15V152.15C155.26 153.751 153.712 155.906 152.845 158.363L152.753 158.622" stroke="#B8610D" stroke-width="1.05" stroke-linecap="round"/>
<g filter="url(#filter3_i_2989_161339)">
<path d="M113.86 57.7534L128.218 63.6801C131.363 64.9782 134.681 62.2401 134.037 58.8794L134.035 58.8718C134.012 58.7488 132.82 52.4643 131.699 48.515C130.846 45.5124 131.695 42.7799 129.201 40.9242C129.147 40.8846 129.092 40.8463 129.036 40.8092C127.33 39.6925 126.725 43.5068 124.759 44.032C121.828 44.815 121.435 41.7104 121.21 39.3829C120.84 35.5559 121.236 31.069 118.181 28.7625C117.556 28.29 116.87 28.0076 116.15 28.0869C114.096 28.313 111.12 28.2402 110.206 26.3741C108.978 23.8702 107.163 21.1856 104.766 20.3105C103.965 20.0179 102.747 19.7991 102.279 19.7214C102.15 19.7 102.023 19.6765 101.895 19.6486C97.3176 18.6438 93.5204 23.1288 95.4988 27.4059C96.558 29.6957 97.7153 32.008 98.8451 33.9014C103.046 40.9411 111.192 49.4353 114.813 53.0631C115.559 53.8098 115.158 55.1065 114.123 55.2905C112.86 55.5151 112.673 57.2634 113.86 57.7534Z" fill="#778C56"/>
</g>
<path d="M100.973 26.0351V26.0351C104.589 32.2902 108.763 38.1999 113.444 43.6909L114.749 45.222L131.813 61.863" stroke="#61783D" stroke-width="1.05" stroke-linecap="round"/>
<g filter="url(#filter4_i_2989_161339)">
<path d="M116.065 46.0954L129.695 58.888C132.775 61.7788 131.443 66.9577 127.357 67.9794L121.264 69.2942C116.845 70.2476 112.588 72.2655 108.074 72.464C106.911 72.5151 105.785 72.3661 104.879 71.862C101.753 70.1208 104.423 66.0891 106.763 63.3703C107.28 62.769 107.568 62.0885 107.444 61.3352C106.954 58.3779 101.23 61.1655 98.9643 62.3967C98.3463 62.7325 97.7695 63.1304 97.2128 63.5615C94.2886 65.8259 90.6339 67.4774 87.1111 66.3757C85.645 65.9172 84.3567 65.1511 83.9411 63.8751C83.1531 61.4555 81.5507 58.1513 79.0231 58.0937C75.606 58.0158 71.6868 57.3709 69.4944 55.1344C68.0072 53.6173 67.8672 51.2586 68.8536 49.3724C70.0585 47.0682 71.9628 44.1115 74.2788 42.8872C75.6174 42.1796 77.5344 41.8178 79.0789 41.6333C80.7826 41.4298 82.496 41.6787 84.1487 42.1426L111.273 49.7566C112.503 50.1017 113.642 48.9778 113.326 47.7324C112.915 46.1154 114.852 44.9575 116.065 46.0954Z" fill="#677C47"/>
<path fill-rule="evenodd" clip-rule="evenodd" d="M127.201 67.3014C130.746 66.4066 131.899 61.909 129.223 59.3975L115.593 46.6049C114.886 45.941 113.756 46.6166 113.995 47.56C114.444 49.3242 112.829 50.9163 111.087 50.4274L83.9628 42.8134C82.3638 42.3646 80.7455 42.1355 79.1599 42.3249C77.6266 42.508 75.8185 42.8596 74.5996 43.5039C73.5648 44.0509 72.5813 45.0104 71.6937 46.1538C70.8114 47.2904 70.0558 48.5668 69.4648 49.697C68.5909 51.368 68.7495 53.3844 69.9859 54.6456C70.9637 55.6431 72.3618 56.3183 73.9769 56.7511C75.5868 57.1826 77.362 57.3598 79.0384 57.398C80.6225 57.4342 81.8294 58.486 82.6942 59.6912C83.5685 60.9094 84.1929 62.4164 84.5975 63.6584C84.9024 64.5946 85.8956 65.267 87.3157 65.7112C90.5082 66.7096 93.9203 65.2331 96.7912 63.0099C97.3671 62.5638 97.9756 62.143 98.6357 61.7843C99.7761 61.1647 101.833 60.1267 103.69 59.6233C104.606 59.375 105.568 59.2295 106.372 59.3993C106.787 59.4869 107.19 59.6647 107.514 59.9835C107.842 60.3065 108.043 60.7285 108.125 61.2209C108.295 62.2449 107.886 63.1274 107.284 63.8265C106.124 65.1751 104.943 66.7827 104.42 68.2223C104.16 68.9382 104.088 69.5436 104.199 70.0263C104.302 70.4774 104.583 70.9019 105.214 71.2531C105.962 71.6703 106.945 71.8171 108.043 71.7688C110.213 71.6734 112.34 71.1397 114.509 70.4948C115.061 70.3307 115.618 70.1584 116.179 69.9849C117.799 69.4845 119.453 68.9733 121.118 68.6138L127.201 67.3014ZM130.166 58.379C133.647 61.6465 132.142 67.5004 127.523 68.6552C127.516 68.657 127.509 68.6587 127.501 68.6603L121.408 69.9751C119.806 70.3208 118.236 70.806 116.634 71.3011C116.061 71.4781 115.484 71.6564 114.9 71.83C112.707 72.482 110.448 73.0566 108.104 73.1596C106.877 73.2136 105.606 73.0626 104.545 72.4714C103.612 71.952 103.054 71.2196 102.852 70.34C102.657 69.4922 102.813 68.5931 103.122 67.7437C103.737 66.0524 105.061 64.2848 106.24 62.9146C106.673 62.4111 106.842 61.9325 106.762 61.45C106.721 61.2031 106.636 61.0653 106.548 60.9795C106.457 60.8895 106.315 60.8096 106.089 60.7618C105.611 60.661 104.908 60.7349 104.049 60.9677C102.356 61.4266 100.418 62.3979 99.292 63.0096C98.7162 63.3225 98.1711 63.6974 97.6337 64.1136C94.6562 66.4193 90.7589 68.2458 86.9058 67.0407C85.3936 66.5678 83.8103 65.7081 83.284 64.0923C82.9005 62.9148 82.3297 61.5599 81.5739 60.5067C80.8087 59.4404 79.9506 58.8114 79.0071 58.7899C77.2663 58.7502 75.3734 58.566 73.6214 58.0965C71.8744 57.6283 70.2168 56.8627 69.0022 55.6237C67.2642 53.8508 67.1428 51.1497 68.2417 49.0482C68.8556 47.8743 69.6545 46.5203 70.6047 45.2963C71.5494 44.0793 72.6761 42.9483 73.9572 42.2711C75.4157 41.5002 77.4415 41.1282 78.9971 40.9423C80.819 40.7247 82.6274 40.9933 84.3339 41.4723L111.458 49.0863C112.176 49.2877 112.841 48.6319 112.656 47.9052C112.074 45.6148 114.818 43.9746 116.536 45.5864L130.166 58.379Z" fill="#677C47"/>
</g>
<path d="M81.475 49.6012L97.2564 51.4297L104.516 52.885C109.268 53.8377 113.893 55.3424 118.299 57.3689V57.3689C121.932 59.0401 125.397 61.0576 128.648 63.394L130.524 64.7425" stroke="#546737" stroke-width="1.05" stroke-linecap="round"/>
<g filter="url(#filter5_i_2989_161339)">
<path d="M128.07 64.135C141.524 53.7164 161.028 57.918 169.027 72.9582L221.87 172.312C226.313 180.666 215.777 188.919 208.832 182.524L126.235 106.473C113.641 94.8779 114.519 74.6287 128.07 64.135Z" fill="url(#paint1_linear_2989_161339)"/>
</g>
<path d="M157.417 69.698V69.698C152.442 70.6829 147.847 73.0747 144.17 76.593L143.782 76.9635" stroke="#FDCD7A" stroke-width="1.05" stroke-linecap="round"/>
<path d="M165.694 115.978V115.978C161.731 116.753 158.07 118.655 155.144 121.457L154.841 121.748" stroke="#E97C11" stroke-width="1.05" stroke-linecap="round"/>
<path d="M205.349 148.482V148.482C202.398 149.047 199.671 150.459 197.496 152.546L197.278 152.756" stroke="#CB6F15" stroke-width="1.05" stroke-linecap="round"/>
<path d="M162.881 73.4928V73.4928C157.836 74.3959 153.151 76.7348 149.381 80.2326L148.991 80.5949" stroke="#F1D79E" stroke-width="1.05" stroke-linecap="round"/>
<path d="M169.777 119.086V119.086C165.802 119.797 162.111 121.64 159.141 124.396L158.834 124.681" stroke="#DC791A" stroke-width="1.05" stroke-linecap="round"/>
<path d="M206.113 152.866V152.866C203.304 153.563 200.75 155.056 198.754 157.167L198.547 157.386" stroke="#B8610D" stroke-width="1.05" stroke-linecap="round"/>
<defs>
<filter id="filter0_i_2989_161339" x="19.772" y="80.9064" width="45.2993" height="27.2981" filterUnits="userSpaceOnUse" color-interpolation-filters="sRGB">
<feFlood flood-opacity="0" result="BackgroundImageFix"/>
<feBlend mode="normal" in="SourceGraphic" in2="BackgroundImageFix" result="shape"/>
<feColorMatrix in="SourceAlpha" type="matrix" values="0 0 0 0 0 0 0 0 0 0 0 0 0 0 0 0 0 0 127 0" result="hardAlpha"/>
<feOffset dy="-0.7"/>
<feComposite in2="hardAlpha" operator="arithmetic" k2="-1" k3="1"/>
<feColorMatrix type="matrix" values="0 0 0 0 0 0 0 0 0 0 0 0 0 0 0 0 0 0 0.25 0"/>
<feBlend mode="normal" in2="shape" result="effect1_innerShadow_2989_161339"/>
</filter>
<filter id="filter1_i_2989_161339" x="7.00439" y="97.1492" width="57.6504" height="28.5975" filterUnits="userSpaceOnUse" color-interpolation-filters="sRGB">
<feFlood flood-opacity="0" result="BackgroundImageFix"/>
<feBlend mode="normal" in="SourceGraphic" in2="BackgroundImageFix" result="shape"/>
<feColorMatrix in="SourceAlpha" type="matrix" values="0 0 0 0 0 0 0 0 0 0 0 0 0 0 0 0 0 0 127 0" result="hardAlpha"/>
<feOffset dx="-0.7" dy="-0.35"/>
<feComposite in2="hardAlpha" operator="arithmetic" k2="-1" k3="1"/>
<feColorMatrix type="matrix" values="0 0 0 0 0 0 0 0 0 0 0 0 0 0 0 0 0 0 0.25 0"/>
<feBlend mode="normal" in2="shape" result="effect1_innerShadow_2989_161339"/>
</filter>
<filter id="filter2_i_2989_161339" x="58.4219" y="95.2594" width="118.153" height="79.0416" filterUnits="userSpaceOnUse" color-interpolation-filters="sRGB">
<feFlood flood-opacity="0" result="BackgroundImageFix"/>
<feBlend mode="normal" in="SourceGraphic" in2="BackgroundImageFix" result="shape"/>
<feColorMatrix in="SourceAlpha" type="matrix" values="0 0 0 0 0 0 0 0 0 0 0 0 0 0 0 0 0 0 127 0" result="hardAlpha"/>
<feOffset dx="-1.4" dy="-2.8"/>
<feComposite in2="hardAlpha" operator="arithmetic" k2="-1" k3="1"/>
<feColorMatrix type="matrix" values="0 0 0 0 0 0 0 0 0 0 0 0 0 0 0 0 0 0 0.25 0"/>
<feBlend mode="normal" in2="shape" result="effect1_innerShadow_2989_161339"/>
</filter>
<filter id="filter3_i_2989_161339" x="94.9624" y="19.506" width="39.1553" height="44.5032" filterUnits="userSpaceOnUse" color-interpolation-filters="sRGB">
<feFlood flood-opacity="0" result="BackgroundImageFix"/>
<feBlend mode="normal" in="SourceGraphic" in2="BackgroundImageFix" result="shape"/>
<feColorMatrix in="SourceAlpha" type="matrix" values="0 0 0 0 0 0 0 0 0 0 0 0 0 0 0 0 0 0 127 0" result="hardAlpha"/>
<feOffset dy="-0.7"/>
<feComposite in2="hardAlpha" operator="arithmetic" k2="-1" k3="1"/>
<feColorMatrix type="matrix" values="0 0 0 0 0 0 0 0 0 0 0 0 0 0 0 0 0 0 0.25 0"/>
<feBlend mode="normal" in2="shape" result="effect1_innerShadow_2989_161339"/>
</filter>
<filter id="filter4_i_2989_161339" x="67.5322" y="40.8658" width="64.5449" height="32.304" filterUnits="userSpaceOnUse" color-interpolation-filters="sRGB">
<feFlood flood-opacity="0" result="BackgroundImageFix"/>
<feBlend mode="normal" in="SourceGraphic" in2="BackgroundImageFix" result="shape"/>
<feColorMatrix in="SourceAlpha" type="matrix" values="0 0 0 0 0 0 0 0 0 0 0 0 0 0 0 0 0 0 127 0" result="hardAlpha"/>
<feOffset dx="-0.7" dy="-0.35"/>
<feComposite in2="hardAlpha" operator="arithmetic" k2="-1" k3="1"/>
<feColorMatrix type="matrix" values="0 0 0 0 0 0 0 0 0 0 0 0 0 0 0 0 0 0 0.25 0"/>
<feBlend mode="normal" in2="shape" result="effect1_innerShadow_2989_161339"/>
</filter>
<filter id="filter5_i_2989_161339" x="117.322" y="58.3826" width="105.608" height="126.418" filterUnits="userSpaceOnUse" color-interpolation-filters="sRGB">
<feFlood flood-opacity="0" result="BackgroundImageFix"/>
<feBlend mode="normal" in="SourceGraphic" in2="BackgroundImageFix" result="shape"/>
<feColorMatrix in="SourceAlpha" type="matrix" values="0 0 0 0 0 0 0 0 0 0 0 0 0 0 0 0 0 0 127 0" result="hardAlpha"/>
<feOffset dx="-1.4" dy="-2.8"/>
<feComposite in2="hardAlpha" operator="arithmetic" k2="-1" k3="1"/>
<feColorMatrix type="matrix" values="0 0 0 0 0 0 0 0 0 0 0 0 0 0 0 0 0 0 0.25 0"/>
<feBlend mode="normal" in2="shape" result="effect1_innerShadow_2989_161339"/>
</filter>
<linearGradient id="paint0_linear_2989_161339" x1="137.92" y1="116.734" x2="127.918" y2="202.128" gradientUnits="userSpaceOnUse">
<stop stop-color="#F9A730"/>
<stop offset="1" stop-color="#F97A2E"/>
</linearGradient>
<linearGradient id="paint1_linear_2989_161339" x1="202.318" y1="107.856" x2="153.204" y2="190.189" gradientUnits="userSpaceOnUse">
<stop stop-color="#F9A730"/>
<stop offset="1" stop-color="#F97A2E"/>
</linearGradient>
</defs>
</svg>
