<svg width="18" height="18" viewBox="0 0 18 18" fill="none" xmlns="http://www.w3.org/2000/svg">
<path fill-rule="evenodd" clip-rule="evenodd" d="M0.96967 0.96967C1.26256 0.676777 1.73744 0.676777 2.03033 0.96967L9 7.93934L15.9697 0.96967C16.2626 0.676777 16.7374 0.676777 17.0303 0.96967C17.3232 1.26256 17.3232 1.73744 17.0303 2.03033L10.0607 9L17.0303 15.9697C17.3232 16.2626 17.3232 16.7374 17.0303 17.0303C16.7374 17.3232 16.2626 17.3232 15.9697 17.0303L9 10.0607L2.03033 17.0303C1.73744 17.3232 1.26256 17.3232 0.96967 17.0303C0.676777 16.7374 0.676777 16.2626 0.96967 15.9697L7.93934 9L0.96967 2.03033C0.676777 1.73744 0.676777 1.26256 0.96967 0.96967Z" fill="#131310"/>
</svg>
