<svg width="120" height="120" viewBox="0 0 120 120" fill="none" xmlns="http://www.w3.org/2000/svg">
<rect width="120" height="120" rx="60" fill="#DEDCD7"/>
<path fill-rule="evenodd" clip-rule="evenodd" d="M24 108.004V104C24 90.7452 34.7452 80 48 80H72C85.2548 80 96 90.7452 96 104V108.004C85.9721 115.537 73.5073 120 60 120C46.4927 120 34.0279 115.537 24 108.004ZM82 54C82 66.1503 72.1503 76 60 76C47.8497 76 38 66.1503 38 54C38 41.8497 47.8497 32 60 32C72.1503 32 82 41.8497 82 54Z" fill="white"/>
</svg>
