
<svg width="320" height="320" viewBox="0 0 320 320" fill="none" xmlns="http://www.w3.org/2000/svg">
<rect width="320" height="320" rx="20" fill="#F6F5F4"/>
<rect x="120.499" y="104.75" width="79" height="79" rx="12" stroke="#91908D" stroke-width="6"/>
<path d="M122.5 154.25L130.864 147.641C134.04 145.132 138.635 145.596 141.246 148.69L141.649 149.167C144.096 152.068 148.324 152.683 151.497 150.601L171.732 137.318C174.505 135.498 178.145 135.715 180.681 137.853L197.5 152.028" stroke="#91908D" stroke-width="6" stroke-linecap="round" stroke-linejoin="round"/>
<circle cx="139.999" cy="124.25" r="5" fill="#91908D" stroke="#91908D" stroke-width="5"/>
<path d="M129.482 212.41V229.949H127.627V212.41H129.482ZM120.127 213.719C122.725 213.719 124.639 216.102 124.639 219.852C124.639 223.621 122.725 226.004 120.127 226.004C117.49 226.004 115.596 223.621 115.596 219.852C115.596 216.102 117.49 213.719 120.127 213.719ZM120.127 215.379C118.506 215.379 117.393 217.098 117.393 219.852C117.393 222.625 118.506 224.344 120.127 224.344C121.729 224.344 122.842 222.625 122.842 219.852C122.842 217.098 121.729 215.379 120.127 215.379ZM141.455 214.09V225.594H133.252V214.09H141.455ZM135.088 215.555V224.09H139.658V215.555H135.088ZM146.768 212.41V229.949H144.912V212.41H146.768ZM156.006 217.566C156.006 220.496 157.92 223.523 160.615 224.676L159.6 226.121C157.539 225.213 155.898 223.289 155.088 220.945C154.277 223.445 152.627 225.574 150.596 226.57L149.521 225.105C152.158 223.875 154.111 220.574 154.131 217.566V215.711H150.127V214.168H159.99V215.711H156.006V217.566ZM164.053 212.41V229.91H162.197V212.41H164.053ZM181.748 214.207V215.73H179.951V223.875C180.82 223.826 181.67 223.738 182.49 223.641L182.588 224.988C178.916 225.594 174.795 225.652 171.729 225.672L171.514 224.129L173.74 224.109V215.73H171.943V214.207H181.748ZM185.361 212.41V219.305H188.174V220.828H185.361V229.91H183.506V212.41H185.361ZM175.537 224.07C176.396 224.061 177.275 224.031 178.154 223.992V215.73H175.537V224.07ZM193.975 212.996C196.611 213.016 198.545 214.637 198.564 216.922C198.545 219.227 196.611 220.828 193.975 220.828C191.318 220.828 189.365 219.227 189.365 216.922C189.365 214.637 191.318 213.016 193.975 212.996ZM193.975 214.559C192.354 214.539 191.162 215.496 191.182 216.922C191.162 218.367 192.354 219.324 193.975 219.324C195.576 219.324 196.768 218.367 196.768 216.922C196.768 215.496 195.576 214.539 193.975 214.559ZM203.525 212.41V221.316H201.67V212.41H203.525ZM203.525 222.117V226.531H193.877V228.211H204.111V229.695H192.08V225.145H201.689V223.602H192.021V222.117H203.525Z" fill="#91908D"/>
</svg>
