<svg width="20" height="20" viewBox="0 0 20 20" fill="none" xmlns="http://www.w3.org/2000/svg">
<path d="M6.72656 5.76041C7.5277 3.71666 9.89726 2.3865 11.4582 1.70564C11.8782 1.52241 12.2643 2.02484 12.0371 2.41539C11.9363 2.58858 11.8348 2.7755 11.7373 2.97338C11.014 4.44186 10.8663 6.89263 12.682 8.06855C14.9373 9.52912 16.2962 11.8179 15.6884 14.4944C15.0805 17.171 11.9833 18.3336 10.0792 18.3334C7.47644 18.3332 4.80799 17.0053 3.8325 14.7951C2.77109 12.3903 3.63338 10.219 4.29477 9.07469C4.43657 8.82935 4.73982 8.95421 4.68653 9.23105C4.57618 9.8043 4.61524 10.8493 5.37318 11.3368C5.53272 11.4394 5.69379 11.5091 5.84868 11.555C6.39493 11.7172 6.69905 11.1089 6.54048 10.5735C6.22819 9.51904 5.95259 7.73483 6.72656 5.76041Z" fill="#FF9143"/>
</svg>
