<svg width="20" height="20" viewBox="0 0 20 20" fill="none" xmlns="http://www.w3.org/2000/svg">
<path d="M7.42875 5.90813C8.14978 4.0238 10.2824 2.79739 11.6872 2.16965C12.0653 2.00071 12.4127 2.46395 12.2082 2.82403C12.1175 2.98372 12.0262 3.15605 11.9384 3.3385C11.2875 4.69243 11.1545 6.95203 12.7887 8.03623C14.8184 9.38287 16.0415 11.4931 15.4944 13.9609C14.9473 16.4287 12.1599 17.5005 10.4462 17.5004C8.10365 17.5002 5.70205 16.2759 4.82411 14.2381C3.86884 12.0209 4.6449 10.019 5.24015 8.96388C5.36776 8.73768 5.64069 8.8528 5.59273 9.10805C5.49342 9.63658 5.52857 10.6001 6.21071 11.0496C6.3543 11.1442 6.49926 11.2084 6.63866 11.2508C7.13029 11.4003 7.40399 10.8395 7.26129 10.3458C6.98022 9.37357 6.73219 7.72854 7.42875 5.90813Z" fill="#FF9143"/>
</svg>
