<svg width="20" height="20" viewBox="0 0 20 20" fill="none" xmlns="http://www.w3.org/2000/svg">
<path fill-rule="evenodd" clip-rule="evenodd" d="M5.58535 12.8522C5.33416 12.7823 5.07446 12.6812 4.8171 12.5398C4.82836 13.0851 4.94655 13.6644 5.22634 14.2587C5.96903 15.8362 8.16444 16.9775 10.5291 16.9777C11.2808 16.9777 12.3549 16.7516 13.2876 16.2493C14.2042 15.7556 14.8548 15.0717 15.0657 14.201C15.5464 12.2166 14.531 10.4397 12.4862 9.19828C11.0615 8.33323 10.4519 7.00992 10.3121 5.76971C10.2483 5.2027 10.2782 4.63241 10.3784 4.08999C10.2781 4.15564 10.1789 4.22318 10.0812 4.29259C9.25136 4.88257 8.63088 5.54066 8.33641 6.24492C7.66374 7.85366 7.89927 9.31632 8.17748 10.197C8.36328 10.7852 8.30643 11.4715 7.93113 12.0332C7.73504 12.3266 7.42498 12.6207 6.97978 12.7935C6.51941 12.9722 6.02988 12.9758 5.58535 12.8522ZM11.1226 2.09313C9.55109 2.8418 7.66722 4.0517 6.95276 5.76041C6.1272 7.73483 6.42117 9.51904 6.75428 10.5735C6.92341 11.1089 6.59903 11.7172 6.01635 11.555C5.85114 11.5091 5.67933 11.4394 5.50915 11.3368C5.32969 11.2286 5.188 11.0929 5.07746 10.941C4.9319 10.741 4.84034 10.5128 4.78761 10.2823C4.70552 9.92337 4.71752 9.55865 4.76637 9.28508C4.76966 9.26665 4.77312 9.24863 4.77673 9.23105C4.83358 8.95421 4.5101 8.82935 4.35886 9.07469C4.34343 9.0997 4.32791 9.1252 4.31231 9.15119C4.15301 9.41653 3.9855 9.73216 3.83498 10.0893C3.70725 10.3923 3.59175 10.7252 3.50388 11.0825C3.24148 12.1497 3.22545 13.4351 3.86577 14.7951C4.90629 17.0053 7.75263 18.3332 10.529 18.3334C12.56 18.3336 15.8637 17.171 16.512 14.4944C17.1604 11.8179 15.7109 9.52912 13.3053 8.06855C11.4234 6.92595 11.5188 4.57971 12.2335 3.10052C12.2467 3.07323 12.2601 3.04625 12.2737 3.01957C12.2816 3.00407 12.2895 2.98867 12.2976 2.97338C12.3534 2.86712 12.4105 2.76401 12.468 2.6645C12.5176 2.5787 12.5676 2.49557 12.6173 2.41539C12.8597 2.02484 12.4479 1.52241 11.9998 1.70564C11.8675 1.75976 11.7297 1.81798 11.5877 1.88034C11.4664 1.93362 11.342 1.98992 11.2154 2.04926C11.1846 2.0637 11.1537 2.07833 11.1226 2.09313Z" fill="#FF9143"/>
</svg>
