<svg width="20" height="20" viewBox="0 0 20 20" fill="none" xmlns="http://www.w3.org/2000/svg">
<path fill-rule="evenodd" clip-rule="evenodd" d="M6.27501 12.4467C6.06306 12.3822 5.84394 12.2891 5.62679 12.1587C5.63629 12.6615 5.73602 13.1956 5.97209 13.7435C6.59873 15.198 8.4511 16.2502 10.4463 16.2504C11.0805 16.2505 11.9868 16.042 12.7738 15.5788C13.5471 15.1237 14.0961 14.4931 14.274 13.6903C14.6796 11.8607 13.8229 10.2225 12.0976 9.07783C10.8955 8.28026 10.3811 7.06017 10.2632 5.91671C10.2093 5.39392 10.2346 4.86812 10.3192 4.36801C10.2345 4.42854 10.1508 4.49081 10.0684 4.5548C9.36819 5.09877 8.84466 5.70552 8.5962 6.35485C8.02865 7.8381 8.22737 9.18667 8.46212 9.99867C8.61888 10.541 8.57092 11.1738 8.25426 11.6916C8.0888 11.9622 7.82719 12.2333 7.45155 12.3926C7.06311 12.5574 6.65007 12.5607 6.27501 12.4467ZM10.947 2.52691C9.6211 3.21718 8.03158 4.33271 7.42875 5.90813C6.73218 7.72854 6.98022 9.37357 7.26129 10.3458C7.40399 10.8395 7.13029 11.4003 6.63866 11.2508C6.49926 11.2084 6.3543 11.1442 6.21071 11.0496C6.05928 10.9498 5.93974 10.8247 5.84647 10.6846C5.72365 10.5002 5.6464 10.2898 5.60191 10.0773C5.53265 9.74636 5.54277 9.41009 5.58399 9.15786C5.58677 9.14087 5.58968 9.12426 5.59273 9.10805C5.64069 8.8528 5.36776 8.73768 5.24015 8.96388C5.22714 8.98694 5.21404 9.01046 5.20087 9.03442C5.06646 9.27906 4.92513 9.57007 4.79813 9.89931C4.69035 10.1787 4.59291 10.4856 4.51877 10.8151C4.29736 11.799 4.28383 12.9841 4.8241 14.2381C5.70205 16.2759 8.10365 17.5002 10.4462 17.5004C12.1599 17.5005 14.9473 16.4287 15.4944 13.9609C16.0415 11.4931 14.8184 9.38287 12.7887 8.03623C11.2008 6.98275 11.2814 4.81953 11.8844 3.45572C11.8955 3.43056 11.9068 3.40568 11.9183 3.38108C11.9249 3.36679 11.9317 3.3526 11.9384 3.3385C11.9855 3.24052 12.0337 3.14546 12.0823 3.05371C12.1241 2.97461 12.1662 2.89796 12.2082 2.82403C12.4127 2.46395 12.0653 2.00071 11.6872 2.16965C11.5755 2.21955 11.4593 2.27323 11.3395 2.33072C11.2371 2.37985 11.1322 2.43176 11.0254 2.48647C10.9994 2.49978 10.9733 2.51326 10.947 2.52691Z" fill="#FF9143"/>
</svg>
