<svg width="44" height="45" viewBox="0 0 44 45" fill="none" xmlns="http://www.w3.org/2000/svg">
<path d="M14.2047 15.6459V8.75106C14.2047 7.73854 15.0255 6.91772 16.038 6.91772C17.0505 6.91772 17.8713 7.73854 17.8713 8.75106V15.6459H19.2342V8.7516C19.2342 7.73908 20.055 6.91827 21.0675 6.91827C22.0801 6.91827 22.9009 7.73908 22.9009 8.7516V15.6459H22.9109C22.9106 18.8162 20.7777 21.4867 17.8731 22.2917V36.2489C17.8731 37.2615 17.0523 38.0823 16.0398 38.0823C15.0273 38.0823 14.2065 37.2615 14.2065 36.2489L14.2065 22.2919C11.3015 21.4871 9.16825 18.8165 9.16797 15.6459H9.18459C9.18429 15.6316 9.18416 15.6173 9.18419 15.6029L9.19984 8.74733C9.20215 7.73481 10.0248 6.916 11.0373 6.91848C12.0499 6.92095 12.8688 7.74377 12.8665 8.75628L12.8508 15.6118C12.8508 15.6232 12.8507 15.6346 12.8505 15.6459H14.2047Z" fill="#FF9143"/>
<path d="M34.8281 6.91626C33.7447 6.91626 32.6719 7.0994 31.671 7.45522C30.6701 7.81105 29.7606 8.33259 28.9945 8.99007C28.2284 9.64754 27.6207 10.4281 27.2061 11.2871C26.807 12.114 26.5944 12.9981 26.579 13.8924L26.5781 13.9967V25.9151H31.0676L31.0676 36.2503C31.0676 37.2628 31.9094 38.0836 32.9479 38.0836C33.9863 38.0836 34.8281 37.2628 34.8281 36.2503V6.91626Z" fill="#FF9143"/>
</svg>
