<svg width="32" height="32" viewBox="0 0 32 32" fill="none" xmlns="http://www.w3.org/2000/svg">
<g clip-path="url(#clip0_1055_17523)">
<path fill-rule="evenodd" clip-rule="evenodd" d="M0 16.4059C0 23.6531 4.58406 29.8026 10.942 31.9719C11.7425 32.123 12.0343 31.6164 12.0343 31.1813C12.0343 30.7915 12.0205 29.7603 12.0126 28.3916C7.56217 29.3826 6.62316 26.1921 6.62316 26.1921C5.89533 24.2967 4.84631 23.7921 4.84631 23.7921C3.3936 22.7739 4.95632 22.7951 4.95632 22.7951C6.56226 22.9109 7.40698 24.486 7.40698 24.486C8.83514 26.9927 11.1522 26.2686 12.0637 25.8486C12.2091 24.7881 12.6226 24.066 13.0793 23.6551C9.52663 23.2412 5.79122 21.8343 5.79122 15.5478C5.79122 13.7562 6.41493 12.2918 7.43841 11.1447C7.27438 10.7298 6.72531 9.06203 7.59557 6.80407C7.59557 6.80407 8.93926 6.36195 11.995 8.48495C13.2719 8.12138 14.6401 7.93909 16.0005 7.93305C17.3599 7.93909 18.7281 8.12138 20.007 8.48495C23.0607 6.36195 24.4025 6.80407 24.4025 6.80407C25.2747 9.06203 24.7256 10.7298 24.5616 11.1447C25.587 12.2918 26.2058 13.7562 26.2058 15.5478C26.2058 21.8494 22.4655 23.2362 18.901 23.643C19.4756 24.1496 19.9864 25.1507 19.9864 26.6805C19.9864 28.874 19.9677 30.6435 19.9677 31.1813C19.9677 31.6204 20.2555 32.13 21.0678 31.9699C27.4199 29.7965 32 23.6521 32 16.4059C32 7.34489 24.8356 0 15.9985 0C7.16437 0 0 7.34489 0 16.4059Z" fill="#121211"/>
</g>
<defs>
<clipPath id="clip0_1055_17523">
<rect width="32" height="32" fill="white"/>
</clipPath>
</defs>
</svg>
