<svg width="48" height="48" viewBox="0 0 48 48" fill="none" xmlns="http://www.w3.org/2000/svg">
<rect x="0.5" y="0.5" width="47" height="47" rx="23.5" fill="white"/>
<rect x="0.5" y="0.5" width="47" height="47" rx="23.5" stroke="#F6F5F4"/>
<path d="M15.0921 27.3392L13.9782 31.4976L9.90688 31.5837C8.69015 29.327 8 26.7449 8 24.0011C8 21.3478 8.64527 18.8457 9.78907 16.6426H9.78994L13.4146 17.3071L15.0024 20.91C14.6701 21.8788 14.4889 22.9189 14.4889 24.0011C14.489 25.1756 14.7018 26.301 15.0921 27.3392Z" fill="#FBBB00"/>
<path d="M39.7208 21.0117C39.9046 21.9796 40.0004 22.9792 40.0004 24.0008C40.0004 25.1464 39.8799 26.2638 39.6505 27.3416C38.8716 31.0095 36.8363 34.2122 34.0169 36.4787L34.016 36.4778L29.4506 36.2448L28.8045 32.2113C30.6753 31.1141 32.1373 29.3971 32.9075 27.3416H24.3516V21.0117H33.0323H39.7208Z" fill="#518EF8"/>
<path d="M34.0181 36.4774L34.019 36.4783C31.2769 38.6823 27.7937 40.001 24.0019 40.001C17.9085 40.001 12.6107 36.5952 9.9082 31.5832L15.0935 27.3386C16.4447 30.9449 19.9235 33.512 24.0019 33.512C25.7549 33.512 27.3972 33.0381 28.8065 32.2109L34.0181 36.4774Z" fill="#28B446"/>
<path d="M34.2117 11.6836L29.0282 15.9273C27.5698 15.0156 25.8457 14.489 23.9986 14.489C19.8279 14.489 16.284 17.1739 15.0005 20.9095L9.78798 16.6421H9.78711C12.4501 11.5078 17.8147 8 23.9986 8C27.881 8 31.4406 9.38293 34.2117 11.6836Z" fill="#F14336"/>
</svg>
