
<svg width="24" height="24" viewBox="0 0 24 24" fill="none" xmlns="http://www.w3.org/2000/svg">
<g id="Icon/image">
<g id="Union">
<path d="M8 9.5C8.82843 9.5 9.5 8.82843 9.5 8C9.5 7.17157 8.82843 6.5 8 6.5C7.17157 6.5 6.5 7.17157 6.5 8C6.5 8.82843 7.17157 9.5 8 9.5Z" fill="#121211"/>
<path fill-rule="evenodd" clip-rule="evenodd" d="M6.5 3.5C4.84315 3.5 3.5 4.84315 3.5 6.5V17.5C3.5 19.1569 4.84315 20.5 6.5 20.5H17.5C19.1569 20.5 20.5 19.1569 20.5 17.5V6.5C20.5 4.84315 19.1569 3.5 17.5 3.5H6.5ZM17.5 5H6.5C5.67157 5 5 5.67157 5 6.5V12.6492L6.08777 11.7897C6.82893 11.2041 7.90107 11.3124 8.5102 12.0343L9.18896 12.8387C9.27053 12.9354 9.41147 12.9559 9.51722 12.8865L14.2465 9.78215C14.8936 9.35742 15.7428 9.40819 16.3346 9.90699L19 12.1534V6.5C19 5.67157 18.3284 5 17.5 5ZM5 17.5V14.5609L7.01771 12.9667C7.12358 12.883 7.27675 12.8985 7.36377 13.0016L8.04252 13.806C8.61354 14.4828 9.60009 14.6264 10.3403 14.1405L15.0697 11.0361C15.1621 10.9755 15.2834 10.9827 15.368 11.054L19 14.115V17.5C19 18.3284 18.3284 19 17.5 19H6.5C5.67157 19 5 18.3284 5 17.5Z" fill="#121211"/>
</g>
</g>
</svg>
