<svg width="32" height="33" viewBox="0 0 32 33" fill="none" xmlns="http://www.w3.org/2000/svg">
<rect y="0.266113" width="32" height="32" rx="16" fill="#FFDA6A"/>
<path d="M12 13.7661C12.8284 13.7661 13.5 13.0945 13.5 12.2661C13.5 11.4377 12.8284 10.7661 12 10.7661C11.1716 10.7661 10.5 11.4377 10.5 12.2661C10.5 13.0945 11.1716 13.7661 12 13.7661Z" fill="#FBFBFB"/>
<path fill-rule="evenodd" clip-rule="evenodd" d="M10.5 7.76611C8.84315 7.76611 7.5 9.10926 7.5 10.7661V21.7661C7.5 23.423 8.84315 24.7661 10.5 24.7661H21.5C23.1569 24.7661 24.5 23.423 24.5 21.7661V10.7661C24.5 9.10926 23.1569 7.76611 21.5 7.76611H10.5ZM21.5 9.26611H10.5C9.67157 9.26611 9 9.93769 9 10.7661V16.9153L10.0878 16.0558C10.8289 15.4702 11.9011 15.5785 12.5102 16.3004L13.189 17.1049C13.2705 17.2015 13.4115 17.222 13.5172 17.1526L18.2465 14.0483C18.8936 13.6235 19.7428 13.6743 20.3346 14.1731L23 16.4195V10.7661C23 9.93769 22.3284 9.26611 21.5 9.26611ZM9 21.7661V18.827L11.0177 17.2328C11.1236 17.1491 11.2767 17.1646 11.3638 17.2677L12.0425 18.0722C12.6135 18.7489 13.6001 18.8925 14.3403 18.4066L19.0697 15.3022C19.1621 15.2416 19.2834 15.2488 19.368 15.3201L23 18.3812V21.7661C23 22.5945 22.3284 23.2661 21.5 23.2661H10.5C9.67157 23.2661 9 22.5945 9 21.7661Z" fill="#FBFBFB"/>
</svg>
