<svg width="21" height="20" viewBox="0 0 21 20" fill="none" xmlns="http://www.w3.org/2000/svg">
<path d="M10.1373 17.0337C10.1373 17.0337 10.1376 17.0339 10.3345 16.6667C10.5313 17.0339 10.532 17.0335 10.532 17.0335C10.4091 17.0994 10.2603 17.0997 10.1373 17.0337Z" fill="#FF746D"/>
<path d="M10.1373 17.0337L10.3345 16.6667L10.532 17.0335L10.5334 17.0328L10.538 17.0303L10.5547 17.0212C10.5691 17.0133 10.5901 17.0018 10.6171 16.9867C10.6711 16.9565 10.7495 16.9121 10.8488 16.8542C11.0472 16.7385 11.3294 16.5685 11.6674 16.35C12.3426 15.9136 13.2448 15.2809 14.1491 14.4972C15.9302 12.9533 17.8345 10.7243 17.8345 8.18452C17.8345 8.13887 17.8342 8.0933 17.8336 8.04781C17.8342 8.01905 17.8345 7.99021 17.8345 7.96131C17.8345 5.63876 15.9664 3.75 13.6548 3.75C12.3 3.75 11.0975 4.3993 10.3345 5.40309C9.57148 4.3993 8.36891 3.75 7.01416 3.75C4.7025 3.75 2.83447 5.63876 2.83447 7.96131C2.83447 7.99021 2.83476 8.01906 2.83534 8.04783C2.83476 8.09332 2.83447 8.13888 2.83447 8.18452C2.83447 10.7243 4.73876 12.9533 6.51989 14.4972C7.42412 15.2809 8.32634 15.9136 9.00152 16.35C9.33953 16.5685 9.6217 16.7385 9.82015 16.8542C9.91941 16.9121 9.9978 16.9565 10.0518 16.9867C10.0789 17.0018 10.0998 17.0133 10.1143 17.0212L10.131 17.0303L10.1356 17.0328L10.1373 17.0337Z" fill="#FF746D"/>
</svg>
