<svg width="20" height="19" viewBox="0 0 20 19" fill="none" xmlns="http://www.w3.org/2000/svg">
<g clip-path="url(#clip0_1345_24964)">
<path fill-rule="evenodd" clip-rule="evenodd" d="M9.0844 5.73073L8.00216 4.36309C7.34704 3.53522 6.35856 3.01951 5.26037 3.01951C3.33611 3.01951 1.72385 4.62333 1.72385 6.66692V7.22553C1.72385 8.96206 2.89688 10.7579 4.61064 12.3966C6.23655 13.9512 8.10684 15.133 9.0844 15.7015C10.062 15.133 11.9323 13.9512 13.5582 12.3966C15.2719 10.7579 16.445 8.96206 16.445 7.22553V6.66692C16.445 4.62333 14.8327 3.01951 12.9084 3.01951C11.8102 3.01951 10.8218 3.53522 10.1666 4.36309L9.0844 5.73073ZM8.08312 2.55006C7.28424 1.97625 6.31073 1.6394 5.26037 1.6394C2.54505 1.6394 0.34375 3.89029 0.34375 6.66692V7.22553C0.34375 11.8752 6.47148 15.7878 8.46552 16.9379C8.85189 17.1607 9.31691 17.1607 9.70328 16.9379C11.6973 15.7878 17.8251 11.8752 17.8251 7.22553V6.66692C17.8251 3.89029 15.6238 1.6394 12.9084 1.6394C11.8581 1.6394 10.8846 1.97625 10.0857 2.55006C9.70989 2.81997 9.37274 3.14231 9.0844 3.50669C8.79606 3.14231 8.45891 2.81997 8.08312 2.55006Z" fill="#ABA9A5"/>
</g>
<defs>
<clipPath id="clip0_1345_24964">
<rect width="18.9587" height="18.9587" fill="white" transform="translate(0.0859375)"/>
</clipPath>
</defs>
</svg>
