<svg width="21" height="20" viewBox="0 0 21 20" fill="none" xmlns="http://www.w3.org/2000/svg">
<path fill-rule="evenodd" clip-rule="evenodd" d="M10.3338 17.2178L10.186 17.2177L10.0381 17.2176L10.0361 17.2165L10.0311 17.2138L10.0137 17.2043C9.9987 17.1962 9.97722 17.1843 9.94965 17.1689C9.89452 17.1382 9.81498 17.0931 9.71453 17.0345C9.51368 16.9174 9.22878 16.7457 8.88778 16.5253C8.20703 16.0853 7.29642 15.4468 6.38279 14.6549C4.59651 13.1065 2.62549 10.8234 2.62549 8.18485C2.62549 8.13946 2.62577 8.09414 2.62633 8.0489C2.62577 8.01987 2.62549 7.99078 2.62549 7.96163C2.62549 5.52567 4.58515 3.54199 7.01351 3.54199C8.34194 3.54199 9.53035 4.13642 10.3338 5.07217C11.1373 4.13642 12.3257 3.54199 13.6541 3.54199C16.0825 3.54199 18.0422 5.52567 18.0422 7.96163C18.0422 7.99079 18.0419 8.01988 18.0413 8.04889C18.0419 8.09414 18.0422 8.13946 18.0422 8.18485C18.0422 10.8234 16.0711 13.1065 14.2849 14.6549C13.3712 15.4468 12.4606 16.0853 11.7799 16.5253C11.4389 16.7457 11.154 16.9174 10.9531 17.0345C10.8527 17.0931 10.7731 17.1382 10.718 17.1689C10.6904 17.1843 10.6689 17.1962 10.654 17.2043L10.6365 17.2138L10.6315 17.2165L10.63 17.2174L10.3338 17.2178ZM7.01351 4.79199C5.28535 4.79199 3.87549 6.20615 3.87549 7.96163C3.87549 7.98547 3.87575 8.00923 3.87626 8.03292C3.87642 8.04023 3.87645 8.04755 3.87636 8.05486C3.87578 8.0981 3.87549 8.14143 3.87549 8.18485C3.87549 10.2308 5.44614 12.1888 7.20152 13.7104C8.05872 14.4534 8.91894 15.0571 9.56632 15.4755C9.88333 15.6804 10.1478 15.8399 10.3338 15.9486C10.5199 15.8399 10.7843 15.6804 11.1013 15.4755C11.7487 15.0571 12.6089 14.4534 13.4661 13.7104C15.2215 12.1888 16.7922 10.2308 16.7922 8.18485C16.7922 8.14143 16.7919 8.09811 16.7913 8.05487C16.7912 8.05126 16.7912 8.04765 16.7912 8.04405C16.7913 8.04034 16.7913 8.03663 16.7914 8.03293C16.7919 8.00923 16.7922 7.98546 16.7922 7.96163C16.7922 6.20615 15.3823 4.79199 13.6541 4.79199C12.459 4.79199 11.4165 5.46707 10.8859 6.46722C10.7775 6.67157 10.5651 6.79934 10.3338 6.79934C10.1025 6.79934 9.8901 6.67157 9.78169 6.46722C9.25115 5.46707 8.20863 4.79199 7.01351 4.79199Z" fill="#787774"/>
<path d="M10.3338 17.2178H10.4815H10.6291C10.4447 17.3167 10.2226 17.3165 10.0381 17.2176L10.186 17.2177L10.3338 17.2178Z" fill="#787774"/>
</svg>
