<svg width="20" height="20" viewBox="0 0 20 20" fill="none" xmlns="http://www.w3.org/2000/svg">
<path fill-rule="evenodd" clip-rule="evenodd" d="M6.84649 16.8413C6.9705 16.8005 7.0832 16.7312 7.1755 16.6389L17.0888 6.72553C18.0651 5.74922 18.0651 4.16631 17.0888 3.19C16.1125 2.21369 14.5296 2.21369 13.5533 3.19L13.3972 3.34609L13.3843 3.3332L12.5004 4.21708L12.5133 4.22997L3.63997 13.1033C3.54767 13.1956 3.47834 13.3083 3.43757 13.4323L2.28331 16.9436C2.06985 17.593 2.68587 18.209 3.3352 17.9955L6.84649 16.8413ZM5.30377 13.2073L13.3972 5.11386L15.165 6.88163L7.07153 14.9751L5.30377 13.2073ZM4.50787 14.1792L3.72836 16.5505L6.09966 15.771L4.50787 14.1792ZM14.4372 4.07388L14.2811 4.22997L16.0488 5.99774L16.2049 5.84165C16.6931 5.35349 16.6931 4.56203 16.2049 4.07388C15.7168 3.58572 14.9253 3.58572 14.4372 4.07388Z" fill="#FBFBFB"/>
</svg>
