<svg width="230" height="54" viewBox="0 0 230 54" fill="none" xmlns="http://www.w3.org/2000/svg">
<path fill-rule="evenodd" clip-rule="evenodd" d="M19.2513 23.8099L19.2547 23.8081L19.2755 23.7967C19.2954 23.7858 19.3273 23.7686 19.371 23.7454C19.4583 23.699 19.5928 23.6287 19.7728 23.538C20.1328 23.3564 20.6747 23.093 21.3857 22.7749C22.8079 22.1386 24.9045 21.2842 27.5727 20.428C32.9114 18.7148 40.5215 17 49.5877 17C58.654 17 66.2641 18.7148 71.6028 20.428C74.271 21.2842 76.3676 22.1386 77.7898 22.7749C78.5008 23.093 79.0427 23.3564 79.4027 23.538C79.5827 23.6287 79.7172 23.699 79.8045 23.7454C79.8482 23.7686 79.8801 23.7858 79.9 23.7967L79.9208 23.8081L79.9235 23.8096M79.9235 23.8096C80.6482 24.213 81.5643 23.9545 81.9691 23.2315C82.3739 22.5082 82.1146 21.5944 81.3897 21.1904L81.3888 21.1899L81.3842 21.1874L81.3741 21.1818L81.34 21.1632C81.3113 21.1475 81.2704 21.1254 81.2175 21.0974C81.1119 21.0412 80.9584 20.9611 80.7589 20.8605C80.3597 20.6592 79.7758 20.3757 79.0201 20.0376C77.5089 19.3614 75.3087 18.4658 72.5233 17.572C66.955 15.7852 59.0306 14 49.5877 14C40.1449 14 32.2205 15.7852 26.6521 17.572C23.8668 18.4658 21.6666 19.3614 20.1554 20.0376C19.3997 20.3757 18.8158 20.6592 18.4166 20.8605C18.217 20.9611 18.0636 21.0412 17.9579 21.0974C17.9051 21.1254 17.8642 21.1475 17.8354 21.1632L17.8014 21.1818L17.7913 21.1874L17.7867 21.1899C17.7867 21.1899 17.7913 21.1874 17.7858 21.1904C17.0609 21.5944 16.8015 22.5082 17.2064 23.2315C17.6112 23.9545 18.5266 24.2134 19.2513 23.8099" fill="#FF9143"/>
<path fill-rule="evenodd" clip-rule="evenodd" d="M44.0755 11.5C44.0755 10.6716 44.7486 10 45.5789 10H53.5966C54.4269 10 55.1 10.6716 55.1 11.5C55.1 12.3284 54.4269 13 53.5966 13H45.5789C44.7486 13 44.0755 12.3284 44.0755 11.5Z" fill="#FF9143"/>
<path fill-rule="evenodd" clip-rule="evenodd" d="M10 27.5C10 26.6716 10.6731 26 11.5033 26H16.3186C17.6466 26 18.6974 27.0808 18.6974 28.3824V33.6765C18.6974 37.7353 21.9583 41 25.9491 41H73.2263C77.2172 41 80.4781 37.7353 80.4781 33.6765V29.5C80.4781 27.567 82.0485 26 83.9858 26H87.6722C88.5024 26 89.1755 26.6716 89.1755 27.5C89.1755 28.3284 88.5024 29 87.6722 29H83.9858C83.7091 29 83.4847 29.2239 83.4847 29.5V33.6765C83.4847 39.3638 78.906 44 73.2263 44H25.9491C20.2694 44 15.6908 39.3638 15.6908 33.6765V29H11.5033C10.6731 29 10 28.3284 10 27.5Z" fill="#FF9143"/>
<path d="M201.872 12.596C204.157 12.596 205.299 14.306 205.299 16.054C205.299 23.806 198.787 27.72 190.865 28.214C190.104 28.252 189.304 27.606 189.266 26.922C189.152 26.314 189.799 25.364 190.599 25.326C196.959 24.832 201.986 22.172 202.253 16.814C202.253 15.978 202.215 15.408 200.425 15.408H190.751C190.18 15.408 189.532 14.686 189.532 14.002C189.532 13.318 190.142 12.596 190.789 12.596H201.872ZM215.278 13.356C215.468 15.104 215.582 17.042 215.582 19.056H218.705C219.276 19.056 220 19.664 220 20.462C220 21.146 219.391 21.868 218.743 21.868H215.582C215.544 23.882 215.43 25.858 215.278 27.53C215.239 28.29 214.325 28.822 213.564 28.746C212.764 28.708 212.155 28.062 212.193 27.264C212.574 22.59 212.535 18.372 212.193 13.622C212.155 12.824 212.726 12.254 213.526 12.14C214.325 12.064 215.163 12.52 215.278 13.356ZM211.964 33.306H195.664C195.169 33.306 195.017 33.686 194.979 33.952C194.788 35.396 194.712 37.486 195.017 38.968C195.055 39.12 195.131 39.196 195.321 39.272C196.54 39.766 200.805 40.184 204.005 40.184C207.242 40.184 210.555 39.994 212.345 39.31C212.535 39.234 212.612 39.158 212.65 38.854C212.916 37.41 212.878 35.358 212.688 33.952C212.65 33.686 212.497 33.306 211.964 33.306ZM213.564 41.97C210.822 42.844 207.127 43.034 203.7 43.072C200.234 43.072 196.045 42.768 194.065 41.97C193.15 41.59 192.313 40.982 192.084 39.88C191.703 38.132 191.818 34.598 192.084 32.622C192.198 31.558 193.074 30.532 194.065 30.532H213.602C214.592 30.532 215.468 31.558 215.582 32.622C215.849 34.598 215.963 38.132 215.582 39.88C215.354 40.944 214.554 41.666 213.564 41.97Z" fill="#FF9143"/>
<path d="M163.66 26.8082C163.698 27.0362 163.774 27.3022 164.041 27.4542C165.26 27.9482 168.002 28.3662 172.305 28.3662C175.504 28.3662 178.894 27.8722 181.484 27.0362C182.055 26.8082 182.969 27.1882 183.198 27.9482C183.464 28.7082 183.083 29.4302 182.588 29.6582C179.846 30.8362 175.466 31.1782 172.001 31.2162C168.535 31.2162 164.765 30.9122 162.784 30.1142C161.87 29.7342 161.032 29.1262 160.804 28.0242C160.233 25.2882 160.423 18.6382 160.766 16.1682C160.956 15.1422 161.756 14.1162 162.708 14.1162H181.027C181.56 14.1162 182.322 14.6862 182.322 15.4842C182.322 16.1682 181.712 16.8902 181.103 16.8902H164.27C163.736 16.8902 163.736 17.2702 163.698 17.5362C163.508 19.5122 163.127 23.9202 163.66 26.8082ZM158.557 39.6522C157.757 39.5382 157.148 38.8162 157.262 38.0562C157.376 37.2202 158.1 36.6882 158.862 36.8022C161.566 37.0682 165.793 37.2202 170.211 37.2582V33.1922C170.211 32.6222 170.82 31.9002 171.696 31.9002C172.534 31.9002 173.334 32.5082 173.334 33.1542V37.2582C177.751 37.2582 181.979 37.1062 184.645 36.8022C185.483 36.6882 186.244 37.2962 186.282 38.0562C186.359 38.8162 185.711 39.5382 184.987 39.6522C180.57 40.2222 163.698 40.3742 158.557 39.6522Z" fill="#FF9143"/>
<path d="M137.007 20.4244H129.81C129.81 21.7164 129.886 22.9704 130.076 23.9584C130.114 24.1864 130.19 24.4524 130.533 24.6424C131.066 24.9844 132.666 25.3644 134.76 25.3644C137.312 25.3644 138.379 24.9844 139.064 24.6424C139.331 24.4904 139.445 24.4144 139.483 24.1484C139.978 21.4504 139.788 16.7004 139.407 13.6984C139.293 12.9384 139.978 12.2164 140.778 12.1024C141.578 12.0264 142.339 12.5204 142.492 13.2424C142.758 14.7624 143.139 20.8044 142.53 24.5284C142.377 25.5164 141.997 26.3904 140.968 26.9604C139.521 27.7584 137.198 28.2144 134.76 28.2144C132.171 28.2144 129.657 27.6064 128.591 26.9604C127.753 26.4664 127.334 25.8584 127.067 24.5284C126.572 21.8304 126.763 16.0164 127.106 13.2804C127.22 12.5204 128.02 12.0264 128.781 12.1024C129.657 12.2164 130.267 12.9384 130.19 13.6984C130.038 14.6484 129.924 16.0544 129.848 17.6124H136.969C137.541 17.6124 138.264 18.2204 138.264 19.0184C138.264 19.7024 137.655 20.4244 137.007 20.4244ZM152.051 13.3564C152.241 15.1044 152.355 17.0424 152.355 19.0564H155.478C156.05 19.0564 156.773 19.6644 156.773 20.4624C156.773 21.1464 156.164 21.8684 155.517 21.8684H152.355C152.317 23.8824 152.203 25.8584 152.051 27.5304C152.013 28.2904 151.099 28.8224 150.337 28.7464C149.537 28.7084 148.928 28.0624 148.966 27.2644C149.347 22.5904 149.309 18.3724 148.966 13.6224C148.928 12.8244 149.499 12.2544 150.299 12.1404C151.099 12.0644 151.937 12.5204 152.051 13.3564ZM132.514 31.3684C132.399 32.1284 132.247 32.9264 132.171 33.7244H146.491C147.214 33.7244 147.785 34.3324 147.785 35.1304C147.785 35.8144 147.328 36.5364 146.529 36.5364H132.018C132.057 37.3344 132.133 38.1704 132.285 38.9684C132.323 39.1204 132.361 39.2344 132.628 39.3484C133.885 39.8804 137.541 40.1844 140.968 40.1844C144.701 40.1844 147.633 39.8804 149.042 39.3104C149.233 39.2344 149.347 39.1204 149.385 38.8544C149.728 36.6504 149.613 34.2944 149.118 31.7864C148.966 30.9884 149.575 30.2284 150.413 30.1144C151.213 30.0004 151.937 30.5324 152.089 31.2544C152.66 33.8004 152.851 37.4104 152.279 39.8804C152.013 41.0204 151.251 41.5904 150.337 41.9704C148.471 42.7684 144.434 43.0724 140.778 43.0724C136.855 43.0724 133.123 42.6544 131.371 41.9704C130.457 41.6284 129.771 41.2104 129.353 39.9184C128.857 38.2464 128.896 33.8384 129.505 30.8744C129.657 30.1524 130.381 29.6204 131.142 29.7344C132.018 29.8484 132.666 30.5704 132.514 31.3684Z" fill="#FF9143"/>
<path d="M111.804 15.408H105.748V16.054C105.748 21.64 101.864 26.124 96.6842 27.758C95.9606 27.986 95.1227 27.644 94.818 26.96C94.5134 26.238 94.9323 25.326 95.6178 25.098C100.188 23.35 102.625 20.5 102.625 16.13V15.408H96.5699C95.9606 15.408 95.3131 14.686 95.3131 14.002C95.3131 13.318 95.9225 12.596 96.5318 12.596H111.766C112.337 12.596 113.06 13.204 113.06 14.002C113.06 14.686 112.451 15.408 111.804 15.408ZM108.3 20.69L113.327 25.06C113.936 25.63 113.898 26.618 113.365 27.188C112.794 27.796 111.88 27.796 111.194 27.188L106.167 22.856C105.634 22.4 105.52 21.374 106.167 20.728C106.7 20.196 107.691 20.158 108.3 20.69ZM122.125 13.356C122.62 17.612 122.505 23.35 122.125 27.53C122.086 28.29 121.172 28.822 120.411 28.746C119.611 28.708 119.002 28.062 119.04 27.264C119.421 22.59 119.382 18.372 119.04 13.622C119.002 12.824 119.573 12.254 120.373 12.14C121.172 12.064 122.01 12.52 122.125 13.356ZM102.397 31.368C102.244 32.128 102.13 32.926 102.054 33.724H116.374C117.097 33.724 117.669 34.332 117.669 35.13C117.669 35.814 117.212 36.536 116.412 36.536H101.94C101.94 37.334 102.016 38.17 102.168 38.968C102.206 39.12 102.244 39.234 102.511 39.348C103.768 39.88 107.424 40.184 110.852 40.184C114.584 40.184 117.516 39.88 118.925 39.31C119.116 39.234 119.23 39.12 119.268 38.854C119.611 36.65 119.497 34.294 119.002 31.786C118.849 30.988 119.459 30.228 120.297 30.114C121.096 30 121.82 30.532 121.972 31.254C122.543 33.8 122.734 37.41 122.163 39.88C121.896 41.02 121.134 41.59 120.22 41.97C118.354 42.768 114.317 43.072 110.661 43.072C106.738 43.072 103.006 42.654 101.254 41.97C100.34 41.628 99.6548 41.21 99.2358 39.918C98.7407 38.246 98.7788 33.838 99.3882 30.874C99.5405 30.152 100.264 29.62 101.026 29.734C101.902 29.848 102.549 30.57 102.397 31.368Z" fill="#FF9143"/>
</svg>
