<svg class="w-full h-auto" viewBox="0 0 1440 580" fill="none" xmlns="http://www.w3.org/2000/svg">
<path d="M109.924 570.324L108.258 571.771C96.2214 582.227 78.3241 582.227 66.2875 571.771L56.0159 562.849C48.9153 556.68 38.3574 556.68 31.2568 562.849C19.0369 573.463 0 564.784 0 548.597V0H1440V537.505C1440 546.773 1435.98 555.585 1428.99 561.663L1417.35 571.771C1405.31 582.227 1387.42 582.227 1375.38 571.771L1373.71 570.324C1361.68 559.868 1343.78 559.868 1331.74 570.324L1330.08 571.771C1318.04 582.227 1300.14 582.227 1288.11 571.771L1286.44 570.324C1274.4 559.868 1256.51 559.868 1244.47 570.324L1242.8 571.771C1230.77 582.227 1212.87 582.227 1200.83 571.771L1199.17 570.324C1187.13 559.868 1169.23 559.868 1157.2 570.324L1155.53 571.771C1143.49 582.227 1125.6 582.227 1113.56 571.771L1111.89 570.324C1099.86 559.868 1081.96 559.868 1069.92 570.324L1068.26 571.771C1056.22 582.227 1038.32 582.227 1026.29 571.771L1024.62 570.324C1012.59 559.868 994.688 559.868 982.651 570.324L980.985 571.771C968.949 582.227 951.051 582.227 939.015 571.771L937.349 570.324C925.312 559.868 907.415 559.868 895.378 570.324L893.713 571.771C881.676 582.227 863.779 582.227 851.742 571.771L850.076 570.324C838.04 559.868 820.142 559.868 808.106 570.324L806.44 571.771C794.403 582.227 776.506 582.227 764.469 571.771L762.803 570.324C750.767 559.868 732.87 559.868 720.833 570.324L719.167 571.771C707.13 582.227 689.233 582.227 677.197 571.771L675.531 570.324C663.494 559.868 645.597 559.868 633.56 570.324L631.894 571.771C619.858 582.227 601.961 582.227 589.924 571.771L588.258 570.324C576.221 559.868 558.324 559.868 546.288 570.324L544.622 571.771C532.585 582.227 514.688 582.227 502.651 571.771L500.985 570.324C488.949 559.868 471.051 559.868 459.015 570.324L457.349 571.771C445.312 582.227 427.415 582.227 415.378 571.771L413.713 570.324C401.676 559.868 383.779 559.868 371.742 570.324L370.076 571.771C358.04 582.227 340.142 582.227 328.106 571.771L326.44 570.324C314.403 559.868 296.506 559.868 284.469 570.324L282.803 571.771C270.767 582.227 252.87 582.227 240.833 571.771L239.167 570.324C227.13 559.868 209.233 559.868 197.197 570.324L195.531 571.771C183.494 582.227 165.597 582.227 153.56 571.771L151.894 570.324C139.858 559.868 121.96 559.868 109.924 570.324Z" fill="#FFE79E"/>
</svg>
