<svg width="24" height="24" viewBox="0 0 24 24" fill="none" xmlns="http://www.w3.org/2000/svg">
<path d="M10.4995 16.4995C11.2875 16.4995 12.0677 16.3443 12.7956 16.0428C13.5236 15.7413 14.185 15.2993 14.7422 14.7422C15.2993 14.185 15.7413 13.5236 16.0428 12.7956C16.3443 12.0677 16.4995 11.2875 16.4995 10.4995C16.4995 9.7116 16.3443 8.93138 16.0428 8.20343C15.7413 7.47547 15.2993 6.81404 14.7422 6.25689C14.185 5.69973 13.5236 5.25778 12.7956 4.95625C12.0677 4.65472 11.2875 4.49953 10.4995 4.49953C8.90823 4.49953 7.3821 5.13167 6.25689 6.25689C5.13167 7.3821 4.49953 8.90823 4.49953 10.4995C4.49953 12.0908 5.13167 13.6169 6.25689 14.7422C7.3821 15.8674 8.90823 16.4995 10.4995 16.4995V16.4995ZM16.8195 15.4055L20.3995 18.9855C20.495 19.0778 20.5711 19.1882 20.6234 19.3103C20.6757 19.4323 20.7032 19.5636 20.7043 19.6963C20.7053 19.8291 20.6799 19.9608 20.6296 20.0836C20.5792 20.2065 20.5049 20.3181 20.4109 20.4119C20.3169 20.5057 20.2052 20.5799 20.0823 20.6301C19.9594 20.6803 19.8277 20.7055 19.6949 20.7043C19.5621 20.703 19.4309 20.6753 19.309 20.6229C19.187 20.5704 19.0767 20.4941 18.9845 20.3985L15.4045 16.8185C13.797 18.0664 11.7743 18.6547 9.74828 18.4637C7.72224 18.2728 5.84513 17.3168 4.49908 15.7906C3.15302 14.2643 2.43921 12.2825 2.50295 10.2485C2.56669 8.21443 3.4032 6.28115 4.84217 4.84217C6.28115 3.4032 8.21443 2.56669 10.2485 2.50295C12.2825 2.43921 14.2643 3.15302 15.7906 4.49908C17.3168 5.84513 18.2728 7.72224 18.4637 9.74828C18.6547 11.7743 18.0664 13.797 16.8185 15.4045L16.8195 15.4055Z" fill="#697077"/>
</svg>
