<svg width="591" height="522" viewBox="0 0 591 522" fill="none" xmlns="http://www.w3.org/2000/svg">
<path fill-rule="evenodd" clip-rule="evenodd" d="M63.793 291.513C63.793 270.07 53.385 249.396 41.9733 231.242C33.7891 218.223 29 202.46 29 185.476C29 140.755 62.2059 104.501 103.167 104.501C107.002 104.501 110.769 104.819 114.447 105.432C142.192 110.054 172.874 117.26 200.434 111.641C210.469 109.594 220.818 108.524 231.397 108.524C323.962 108.524 399.001 190.451 399.001 291.513C399.001 392.574 323.962 474.501 231.397 474.501C138.832 474.501 63.793 392.574 63.793 291.513Z" fill="#FFDA6A"/>
<path fill-rule="evenodd" clip-rule="evenodd" d="M29.7022 401.979C41.1854 401.979 50.4943 392.917 50.4943 381.738C50.4943 370.559 41.1854 361.497 29.7022 361.497C18.2191 361.497 8.91016 370.559 8.91016 381.738C8.91016 392.917 18.2191 401.979 29.7022 401.979ZM50 521.497C77.6142 521.497 100 499.705 100 472.822C100 445.94 77.6142 424.148 50 424.148C22.3858 424.148 0 445.94 0 472.822C0 499.705 22.3858 521.497 50 521.497Z" fill="#FFE79E"/>
<g filter="url(#filter0_d_3178_66016)">
<path d="M418.928 97.8818L450.403 66.4063C459.911 56.899 475.325 56.899 484.832 66.4063L511.266 92.8397C520.773 102.347 520.773 117.761 511.266 127.269L479.79 158.744" stroke="#3A3A3A" stroke-width="19.476"/>
</g>
<g filter="url(#filter1_d_3178_66016)">
<path d="M248.518 390.023L217.042 421.498C207.535 431.005 192.12 431.005 182.613 421.498L156.18 395.065C146.672 385.557 146.672 370.143 156.18 360.636L187.655 329.16" stroke="#3A3A3A" stroke-width="19.476"/>
</g>
<g filter="url(#filter2_d_3178_66016)">
<circle cx="333.725" cy="243.952" r="194.76" fill="#3A3A3A"/>
<circle cx="333.725" cy="243.952" r="182.587" stroke="#4E4E4E" stroke-width="24.345"/>
</g>
<path fill-rule="evenodd" clip-rule="evenodd" d="M181.386 261.375C181.386 314.846 236.17 369.64 286.354 388.099C296.518 391.837 307.566 393.887 319.117 393.887C329.875 393.887 340.197 392.109 349.776 388.844C354.914 387.093 360.33 386.253 365.758 386.253C424.5 386.253 487.081 328.567 496.182 270.534C497.009 265.266 497.441 259.823 497.441 254.255C497.441 226.859 486.962 202.496 470.7 186.988C467.735 184.16 466.001 180.24 466.001 176.141C466.001 129.064 428.431 90.901 382.087 90.901C374.714 90.901 367.562 91.867 360.749 93.6812C336.347 100.179 308.351 103.287 283.099 103.287C238.091 103.287 201.605 141.45 201.605 188.527C201.605 202.057 197.103 215.606 190.371 227.343C184.666 237.29 181.386 248.931 181.386 261.375Z" fill="#A8957E"/>
<g filter="url(#filter3_i_3178_66016)">
<rect width="88.631" height="92.5115" rx="17.0415" transform="matrix(0.981251 0.192735 0.192735 -0.981251 278.9 396.987)" fill="#FEF4E3"/>
</g>
<g filter="url(#filter4_i_3178_66016)">
<rect width="99.6445" height="95.692" rx="17.0415" transform="matrix(1 0 0 -1 209.959 385.312)" fill="#FEF4E3"/>
</g>
<g filter="url(#filter5_i_3178_66016)">
<path fill-rule="evenodd" clip-rule="evenodd" d="M400.987 99.4692L401.003 99.4612L373.627 48.0465L361.42 87.078L361.42 87.0779L340.372 154.377L379.944 166.753L400.987 99.4692Z" fill="#8CD25F"/>
</g>
<g filter="url(#filter6_i_3178_66016)">
<path fill-rule="evenodd" clip-rule="evenodd" d="M418.778 152.033L418.788 152.031L393.508 108.397L381.278 134.386L381.266 134.38L360.184 179.178L397.701 196.833L418.782 152.035L418.778 152.033Z" fill="#64964B"/>
</g>
<g filter="url(#filter7_i_3178_66016)">
<path fill-rule="evenodd" clip-rule="evenodd" d="M429.894 128.316L429.867 128.321L429.889 128.33L382.143 229.789L382.131 229.784L422.042 144.974L422.021 144.964L422.048 144.96L396.468 101.194L404.307 84.5371L429.894 128.316Z" fill="#64964B"/>
</g>
<g filter="url(#filter8_i_3178_66016)">
<path fill-rule="evenodd" clip-rule="evenodd" d="M441.277 104.187L441.25 104.191L441.271 104.201L393.525 205.66L393.505 205.651L433.415 120.843L433.394 120.833L433.421 120.829L407.847 77.073L415.689 60.4078L441.277 104.187Z" fill="#64964B"/>
</g>
<g filter="url(#filter9_i_3178_66016)">
<path fill-rule="evenodd" clip-rule="evenodd" d="M463.148 144.395L463.153 144.393L443.041 89.7267L408.211 163.739L408.235 163.731L395.616 190.546L433.132 208.201L463.157 144.399L463.148 144.395Z" fill="#8CD25F"/>
</g>
<g filter="url(#filter10_d_3178_66016)">
<g filter="url(#filter11_d_3178_66016)">
<path d="M324.769 62.2698C328.446 61.3449 332.016 64.1129 332.036 67.9044L332.053 71.0273C332.079 75.7437 333.246 80.3838 335.454 84.5511L337.044 87.5512C339.253 91.7184 340.42 96.3585 340.446 101.075L340.464 104.47C340.489 109.187 341.656 113.827 343.865 117.994L345.455 120.994C347.664 125.162 348.831 129.802 348.856 134.518L348.875 137.914C348.9 142.63 350.067 147.27 352.276 151.437L353.866 154.438C356.075 158.605 357.242 163.245 357.267 167.961L357.286 171.357C357.311 176.073 358.478 180.713 360.687 184.881L362.149 187.64C363.925 190.99 362.089 195.118 358.412 196.043L309.031 208.464C306.669 209.058 304.187 208.125 302.802 206.123L299.864 201.88C296.486 196.999 294.991 191.058 295.659 185.158C296.327 179.259 294.832 173.318 291.454 168.437C288.075 163.555 286.581 157.614 287.248 151.715C287.916 145.816 286.422 139.875 283.043 134.994C279.664 130.112 278.17 124.171 278.837 118.272C279.505 112.373 278.011 106.432 274.632 101.55C271.253 96.669 269.759 90.728 270.427 84.8288L271.007 79.7006C271.281 77.2812 273.026 75.2851 275.388 74.6912L324.769 62.2698Z" fill="#FA5046"/>
</g>
<path fill-rule="evenodd" clip-rule="evenodd" d="M270.222 86.902L332.011 71.3599C332.093 75.9499 333.256 80.4577 335.408 84.5168L335.479 84.6508L273.716 100.187C271.308 96.1791 270.098 91.5685 270.222 86.902Z" fill="#FF695F"/>
<path fill-rule="evenodd" clip-rule="evenodd" d="M278.596 120.352L340.384 104.809C340.466 109.4 341.629 113.907 343.781 117.966L343.852 118.1L282.089 133.636C279.681 129.629 278.471 125.018 278.596 120.352Z" fill="#FF695F"/>
<path fill-rule="evenodd" clip-rule="evenodd" d="M287.004 153.729L348.792 138.187C348.874 142.777 350.038 147.285 352.189 151.344L352.26 151.478L290.497 167.014C288.089 163.006 286.879 158.396 287.004 153.729Z" fill="#FF695F"/>
<path fill-rule="evenodd" clip-rule="evenodd" d="M295.375 187.109L357.163 171.567C357.245 176.157 358.409 180.664 360.56 184.723L360.631 184.858L298.868 200.393C296.461 196.386 295.25 191.775 295.375 187.109Z" fill="#FF695F"/>
</g>
<g filter="url(#filter12_d_3178_66016)">
<path d="M219.854 120.68C222.451 117.908 226.959 118.312 229.023 121.5L230.673 124.049C233.262 128.05 236.792 131.357 240.953 133.681L243.791 135.266C247.952 137.59 251.481 140.897 254.071 144.899L255.837 147.627C258.427 151.629 261.956 154.936 266.117 157.26L268.955 158.845C273.116 161.169 276.645 164.476 279.235 168.477L281.001 171.206C283.591 175.207 287.12 178.514 291.281 180.838L294.119 182.423C298.28 184.747 301.81 188.054 304.399 192.056L306.165 194.785C308.755 198.786 312.285 202.093 316.446 204.417L319.097 205.898C322.412 207.749 323.108 212.222 320.511 214.994L285.236 252.645C283.576 254.416 280.994 254.977 278.75 254.054L273.951 252.08C268.457 249.821 263.981 245.627 261.369 240.291C258.757 234.955 254.281 230.761 248.787 228.502C243.293 226.242 238.817 222.048 236.205 216.712C233.593 211.377 229.116 207.183 223.622 204.923C218.129 202.664 213.652 198.47 211.04 193.134C208.428 187.798 203.952 183.604 198.458 181.345C192.964 179.085 188.488 174.891 185.876 169.555L183.595 164.895C182.527 162.715 182.919 160.102 184.578 158.331L219.854 120.68Z" fill="#FA5046"/>
<path fill-rule="evenodd" clip-rule="evenodd" d="M186.793 171.43L230.829 124.428C233.395 128.261 236.833 131.434 240.863 133.685L240.939 133.727L196.922 180.709C192.721 178.653 189.205 175.429 186.793 171.43Z" fill="#FF695F"/>
<path fill-rule="evenodd" clip-rule="evenodd" d="M211.991 195.037L256.027 148.036C258.592 151.868 262.03 155.041 266.06 157.292L266.136 157.335L222.119 204.316C217.918 202.26 214.402 199.036 211.991 195.037Z" fill="#FF695F"/>
<path fill-rule="evenodd" clip-rule="evenodd" d="M237.1 218.547L281.136 171.545C283.701 175.378 287.139 178.551 291.17 180.802L291.246 180.844L247.229 227.826C243.027 225.77 239.511 222.546 237.1 218.547Z" fill="#FF695F"/>
<path fill-rule="evenodd" clip-rule="evenodd" d="M262.204 242.086L306.24 195.084C308.805 198.917 312.243 202.09 316.273 204.341L316.349 204.383L272.332 251.364C268.131 249.309 264.615 246.085 262.204 242.086Z" fill="#FF695F"/>
</g>
<g filter="url(#filter13_d_3178_66016)">
<path d="M248.17 85.2915C250.757 82.5303 255.246 82.9189 257.32 86.0836L259.092 88.7882C261.643 92.6795 265.086 95.9054 269.134 98.1974L272.251 99.9618C276.3 102.254 279.743 105.48 282.293 109.371L284.257 112.367C286.807 116.258 290.25 119.484 294.299 121.776L297.416 123.54C301.464 125.832 304.907 129.058 307.458 132.95L309.421 135.945C311.971 139.837 315.414 143.063 319.463 145.355L322.58 147.119C326.629 149.411 330.072 152.637 332.622 156.528L334.585 159.524C337.136 163.415 340.578 166.641 344.627 168.933L347.441 170.526C350.734 172.39 351.414 176.845 348.827 179.606L314.604 216.133C312.933 217.917 310.327 218.472 308.074 217.523L303.35 215.535C297.883 213.234 293.42 209.052 290.768 203.746C288.117 198.44 283.653 194.258 278.186 191.957C272.719 189.656 268.256 185.474 265.604 180.168C262.952 174.861 258.489 170.679 253.022 168.378C247.554 166.077 243.091 161.895 240.44 156.589C237.788 151.283 233.325 147.101 227.857 144.8C222.39 142.499 217.927 138.317 215.275 133.01L212.984 128.426C211.891 126.239 212.275 123.603 213.947 121.819L248.17 85.2915Z" fill="#FF8F82"/>
<path fill-rule="evenodd" clip-rule="evenodd" d="M216.298 134.896L259.252 89.0497C261.786 92.836 265.172 95.9782 269.139 98.2238L269.361 98.3496L226.425 144.178C222.241 142.096 218.732 138.877 216.298 134.896Z" fill="#FF695F"/>
<path fill-rule="evenodd" clip-rule="evenodd" d="M241.495 158.481L284.449 112.634C286.983 116.421 290.369 119.563 294.336 121.809L294.558 121.934L251.622 167.762C247.438 165.681 243.929 162.462 241.495 158.481Z" fill="#FF695F"/>
<path fill-rule="evenodd" clip-rule="evenodd" d="M266.601 182.016L309.555 136.17C312.089 139.956 315.474 143.098 319.442 145.344L319.664 145.47L276.727 191.298C272.544 189.216 269.034 185.997 266.601 182.016Z" fill="#FF695F"/>
<path fill-rule="evenodd" clip-rule="evenodd" d="M291.699 205.53L334.652 159.683C337.187 163.47 340.572 166.612 344.539 168.857L344.761 168.983L301.825 214.811C297.641 212.73 294.132 209.511 291.699 205.53Z" fill="#FF695F"/>
</g>
<g filter="url(#filter14_di_3178_66016)">
<rect x="382.533" y="199.793" width="102.192" height="67.1289" rx="12.2699" transform="rotate(-27.1216 382.533 199.793)" fill="#D28B53"/>
<path fill-rule="evenodd" clip-rule="evenodd" d="M393.425 196.861L391.736 195.046L407.93 186.752C423.108 203.693 433.636 224.288 438.475 246.524L422.292 254.813L421.621 251.548C417.416 231.078 407.661 212.159 393.425 196.861Z" fill="#E4A777"/>
<path fill-rule="evenodd" clip-rule="evenodd" d="M420.408 183.037L418.719 181.222L434.913 172.928C450.098 189.876 460.628 210.48 465.464 232.727L449.281 241.016L448.605 237.724C444.399 217.254 434.645 198.335 420.408 183.037Z" fill="#E4A777"/>
<path fill-rule="evenodd" clip-rule="evenodd" d="M446.039 169.899L444.35 168.084L460.543 159.79C475.724 176.733 486.253 197.332 491.091 219.572L474.908 227.861L474.235 224.586C470.03 204.116 460.275 185.197 446.039 169.899Z" fill="#E4A777"/>
</g>
<g filter="url(#filter15_di_3178_66016)">
<rect x="409.365" y="233.678" width="102.192" height="67.1289" rx="12.2699" transform="rotate(-9.74326 409.365 233.678)" fill="#D28B53"/>
<path fill-rule="evenodd" clip-rule="evenodd" d="M420.63 234.119L419.566 231.894L437.497 228.815C446.923 249.521 450.817 272.326 448.788 294.998L430.868 298.075L431.206 294.732C433.306 273.94 429.648 252.972 420.63 234.119Z" fill="#E4A777"/>
<path fill-rule="evenodd" clip-rule="evenodd" d="M450.538 228.984L449.473 226.758L467.405 223.679C476.831 244.385 480.724 267.189 478.696 289.86L460.776 292.937L461.113 289.596C463.214 268.805 459.555 247.836 450.538 228.984Z" fill="#E4A777"/>
<path fill-rule="evenodd" clip-rule="evenodd" d="M478.917 224.116L477.852 221.89L495.783 218.811C505.209 239.517 509.103 262.321 507.074 284.991L489.155 288.068L489.492 284.729C491.592 263.937 487.934 242.968 478.917 224.116Z" fill="#E4A777"/>
</g>
<g filter="url(#filter16_di_3178_66016)">
<rect x="408.012" y="250.056" width="102.192" height="63.8542" rx="12.2699" transform="rotate(12.0618 408.012 250.056)" fill="#D28B53"/>
<path fill-rule="evenodd" clip-rule="evenodd" d="M404.738 314.529C415.026 295.444 419.652 273.825 418.082 252.211L435.834 256.004C436.568 277.595 431.968 299.042 422.436 318.44L404.675 314.645L404.738 314.529Z" fill="#E4A777"/>
<path fill-rule="evenodd" clip-rule="evenodd" d="M434.397 320.872C444.685 301.787 449.312 280.168 447.741 258.553L465.494 262.347C466.227 283.937 461.628 305.383 452.097 324.78L434.336 320.985L434.397 320.872Z" fill="#E4A777"/>
<path fill-rule="evenodd" clip-rule="evenodd" d="M462.584 326.89C472.872 307.805 477.498 286.186 475.928 264.572L493.68 268.365C494.414 289.961 489.812 311.412 480.276 330.814L462.514 327.019L462.584 326.89Z" fill="#E4A777"/>
</g>
<path d="M185.004 223.017C200.504 221.965 216.211 223.166 231.599 224.12C245.308 224.97 259.017 226.116 272.806 225.948C293.211 225.7 313.546 224.724 333.893 225.684C346.311 226.269 360.106 228.484 372.735 226.093" stroke="#E8DFC6" stroke-width="11.6859" stroke-linecap="round"/>
<path d="M171.107 211.51C186.607 210.458 202.315 211.659 217.703 212.613C231.411 213.463 245.121 214.61 258.91 214.442C279.314 214.193 299.65 213.218 319.997 214.177C332.414 214.763 346.21 216.977 358.838 214.587" stroke="#E8DFC6" stroke-width="11.6859" stroke-linecap="round"/>
<path d="M173.539 219.308C189.039 218.256 204.746 219.457 220.134 220.411C233.843 221.261 247.552 222.407 261.341 222.239C281.746 221.991 302.081 221.015 322.429 221.975C334.846 222.56 348.641 224.775 361.27 222.384" stroke="#F6F0DF" stroke-width="11.6859" stroke-linecap="round"/>
<path d="M184.403 199.239C185.71 193.582 186.635 191.217 192.287 190.46C195.973 189.967 199.993 191.693 194.69 194.934C192.085 196.526 186.233 198.866 184.176 195.352C183.172 193.638 186.562 192.374 187.412 191.891" stroke="#F0E7CF" stroke-width="11.6859" stroke-linecap="round"/>
<path d="M194.127 194.752C241.602 210.083 292.205 210.113 341.458 216.676" stroke="#F0E7CF" stroke-width="11.6859" stroke-linecap="round"/>
<path d="M162.375 214.308C160.204 213.92 158.63 220.115 161.213 221.405C164.1 222.848 167.72 215.848 165.082 213.796" stroke="#F6F0DF" stroke-width="11.6859" stroke-linecap="round"/>
<path d="M162.075 232.946C161.233 234.561 157.816 238.922 160.495 240.024C161.755 240.542 163.802 241.25 164.88 239.783C166.135 238.076 164.02 235.654 162.618 235.201" stroke="#EBE5D6" stroke-width="11.6859" stroke-linecap="round"/>
<path d="M162.079 232.949C175.907 235.937 189.985 234.45 204.162 233.597C238.772 231.514 273.313 228.787 307.921 227.891C321.453 227.541 336.484 228.724 349.889 224.958C351.776 224.428 352.989 223.879 354.813 224.468" stroke="#F1EBD9" stroke-width="11.6859" stroke-linecap="round"/>
<g filter="url(#filter17_i_3178_66016)">
<path fill-rule="evenodd" clip-rule="evenodd" d="M350.821 222.784C352.365 222.908 355.084 223.147 357.515 224.252C358.306 224.612 359.449 225.348 360.254 226.792C361.111 228.33 361.202 229.979 360.976 231.285C360.614 233.372 359.438 234.748 359.131 235.106L359.124 235.114C358.239 236.15 357.111 237.006 356.412 237.511C355.588 238.106 354.724 238.662 354.021 239.088C353.474 239.42 352.602 239.933 351.922 240.213C349.697 241.131 347.527 241.142 346.32 241.138C345.942 241.137 345.631 241.134 345.371 241.132C344.533 241.124 344.228 241.122 343.913 241.181C342.677 241.415 341.388 241.785 339.808 242.251C339.719 242.277 339.628 242.304 339.536 242.332C338.101 242.756 336.408 243.256 334.678 243.616C333.028 243.96 331.297 244.559 329.197 245.332C328.975 245.414 328.747 245.498 328.515 245.584C326.679 246.264 324.538 247.057 322.367 247.635C316.969 249.073 311.557 249.533 306.45 249.712C304.062 249.795 301.678 249.818 299.385 249.84L298.906 249.845C296.438 249.869 294.075 249.897 291.757 249.996C273.732 250.77 255.887 251.935 237.971 253.106C224.241 254.003 210.469 254.902 196.544 255.63C192.254 255.855 187.978 256.247 183.561 256.652C181.466 256.845 179.339 257.04 177.164 257.221C170.539 257.774 163.683 258.176 156.883 257.802C156.839 257.8 156.738 257.796 156.602 257.79C156.198 257.774 155.486 257.745 155.045 257.711C154.33 257.655 153.156 257.53 151.967 257.077C150.754 256.616 148.871 255.556 147.829 253.163C146.787 250.77 147.161 248.364 147.696 246.706C148.272 244.924 148.986 243.265 149.571 241.913L149.637 241.761C150.231 240.389 150.693 239.321 151.065 238.246C152.215 234.919 155.616 233.085 158.662 234.151C161.495 235.142 163.023 238.292 162.298 241.405C171.406 238.83 180.316 238.436 188.921 238.054L188.96 238.053C191.617 237.935 194.334 237.788 197.08 237.641C198.837 237.546 200.606 237.451 202.378 237.362C202.477 237.306 202.58 237.247 202.686 237.187C203.981 236.456 205.709 235.543 207.835 234.992C215.702 232.951 224.13 233.069 231.415 233.171C233.132 233.195 234.785 233.218 236.353 233.212C248.039 233.165 259.133 231.794 270.675 228.971C289.251 224.428 307.305 222.243 326.194 222.271C327.55 222.273 328.926 222.269 330.316 222.266C336.983 222.251 343.988 222.235 350.821 222.784Z" fill="#F0E7CF"/>
</g>
<path d="M255.49 250.639C290.014 247.172 324.459 251.29 358.682 242.863C360.796 242.343 355.777 242.087 355.526 239.957" stroke="#EBE5D6" stroke-width="11.6859" stroke-linecap="round"/>
<path d="M157.692 268.263C165.003 267.83 172.343 266.408 179.667 265.807C198.201 264.285 216.723 263.725 235.255 263.112C269.62 261.975 303.623 260.334 337.837 255.37C342.675 254.668 347.516 253.904 352.343 253.083C355.265 252.585 363.924 253.048 361.151 252.152" stroke="#F1EBD9" stroke-width="11.6859" stroke-linecap="round"/>
<path d="M168.584 259.991C173.736 260.286 179.055 259.362 184.226 258.995C197.945 258.023 211.657 257.746 225.372 257.298C243.291 256.714 261.215 257.528 279.115 256.164" stroke="#F7F0DF" stroke-width="11.6859" stroke-linecap="round"/>
<g filter="url(#filter18_i_3178_66016)">
<path fill-rule="evenodd" clip-rule="evenodd" d="M335.978 264.271C339.198 264.055 341.632 261.269 341.416 258.049C341.199 254.829 338.413 252.395 335.194 252.612C304.836 254.654 274.617 257.202 244.475 262.325C236.737 263.64 228.918 264.687 220.973 265.752L220.973 265.752C218.479 266.086 215.973 266.422 213.452 266.768C202.982 268.207 192.37 269.815 181.978 272.207C181.064 272.417 180.25 272.831 179.572 273.39C176.708 272.828 173.812 274.484 172.893 277.33C171.922 280.338 173.518 283.558 176.469 284.622C178.108 287.192 181.483 288.087 184.197 286.602C185.634 285.817 186.609 284.515 187.019 283.053C196.119 281.074 205.487 279.658 215.043 278.345C217.474 278.011 219.923 277.683 222.382 277.354L222.383 277.354C230.372 276.283 238.473 275.198 246.433 273.845C275.972 268.825 305.71 266.307 335.978 264.271Z" fill="#F6F0DF"/>
</g>
<g filter="url(#filter19_i_3178_66016)">
<path fill-rule="evenodd" clip-rule="evenodd" d="M342.678 208.928C345.815 208.914 348.201 211.585 348.006 214.894C347.812 218.203 345.111 220.896 341.974 220.909C311.651 221.041 281.496 220.656 251.504 217.689C243.794 216.927 235.992 216.438 228.072 215.941L228.072 215.941L228.071 215.941C225.586 215.786 223.09 215.629 220.581 215.463C210.148 214.774 199.588 213.925 189.276 212.278C188.369 212.133 187.56 211.765 186.888 211.234C184.049 212.036 181.183 210.486 180.319 207.577C179.402 204.487 181.089 201.032 184.088 199.855C185.79 197.111 189.174 196.097 191.775 197.599C193.018 198.316 193.863 199.482 194.247 200.818C203.262 202.137 212.559 202.879 222.038 203.505C224.463 203.666 226.906 203.819 229.358 203.972L229.358 203.972C237.32 204.471 245.387 204.976 253.306 205.76C282.732 208.67 312.437 209.059 342.678 208.928Z" fill="#F1EBD9"/>
</g>
<path d="M187.86 286.577C200.078 282.137 212.973 279.486 225.556 276.708C236.766 274.233 248.043 271.999 259.087 268.675C275.428 263.757 291.549 258.262 308.119 254.342C318.231 251.95 329.82 250.567 339.426 245.7" stroke="#E8DFC6" stroke-width="11.6859" stroke-linecap="round"/>
<path d="M174.123 280.394C186.341 275.954 199.237 273.304 211.82 270.526C223.029 268.051 234.307 265.817 245.35 262.493C261.692 257.575 277.813 252.08 294.383 248.16C304.495 245.768 316.084 244.385 325.69 239.518" stroke="#E8DFC6" stroke-width="11.6859" stroke-linecap="round"/>
<path d="M177.823 286.22C190.041 281.78 202.936 279.129 215.519 276.351C226.729 273.876 238.006 271.642 249.049 268.319C265.391 263.4 281.512 257.905 298.082 253.985C308.194 251.593 319.783 250.21 329.389 245.343" stroke="#F6F0DF" stroke-width="11.6859" stroke-linecap="round"/>
<path d="M182.026 267.334C181.793 262.419 182 260.277 186.37 258.354C189.221 257.1 192.843 257.578 189.316 261.447C187.584 263.347 183.412 266.606 180.962 264.217C179.766 263.052 182.203 261.237 182.777 260.647" stroke="#F0E7CF" stroke-width="11.6859" stroke-linecap="round"/>
<path d="M188.803 261.442C230.434 262.971 271.108 251.301 312.178 245.269" stroke="#F0E7CF" stroke-width="11.6859" stroke-linecap="round"/>
<path d="M167.709 284.722C165.877 284.907 166.017 290.321 168.385 290.777C171.033 291.286 172.354 284.742 169.769 283.678" stroke="#F6F0DF" stroke-width="11.6859" stroke-linecap="round"/>
<path d="M171.723 299.97C171.413 301.482 169.656 305.827 172.059 306.106C173.189 306.237 174.995 306.342 175.529 304.897C176.15 303.215 173.9 301.728 172.671 301.683" stroke="#EBE5D6" stroke-width="11.6859" stroke-linecap="round"/>
<path d="M171.726 299.973C183.516 299.213 194.492 294.747 205.692 290.775C233.034 281.078 260.174 270.873 287.783 262.144C298.579 258.731 310.927 256.222 320.845 250.053C322.242 249.185 323.092 248.457 324.691 248.516" stroke="#F1EBD9" stroke-width="11.6859" stroke-linecap="round"/>
<g filter="url(#filter20_i_3178_66016)">
<path fill-rule="evenodd" clip-rule="evenodd" d="M321.071 248.068C322.34 247.813 324.58 247.379 326.783 247.719C327.501 247.829 328.586 248.165 329.561 249.156C330.599 250.212 331.046 251.536 331.16 252.653C331.343 254.438 330.71 255.832 330.545 256.195L330.541 256.203C330.064 257.252 329.352 258.21 328.905 258.784C328.378 259.46 327.809 260.113 327.341 260.622C326.977 261.019 326.392 261.639 325.909 262.025C324.33 263.287 322.589 263.798 321.617 264.073C321.313 264.16 321.063 264.229 320.853 264.288C320.179 264.475 319.933 264.544 319.693 264.665C318.753 265.141 317.801 265.74 316.637 266.486C316.571 266.528 316.504 266.571 316.436 266.614C315.379 267.292 314.132 268.091 312.824 268.785C311.575 269.446 310.32 270.335 308.808 271.451C308.648 271.569 308.484 271.69 308.317 271.814C306.996 272.792 305.455 273.933 303.842 274.906C299.83 277.326 295.585 278.952 291.521 280.278C289.621 280.898 287.711 281.468 285.873 282.016L285.488 282.13C283.511 282.72 281.618 283.289 279.778 283.906C265.468 288.702 251.391 293.777 237.258 298.871C226.428 302.776 215.565 306.692 204.538 310.504C201.142 311.678 197.794 312.986 194.337 314.337C192.697 314.978 191.031 315.629 189.325 316.28C184.126 318.261 178.707 320.173 173.158 321.44C173.122 321.449 173.04 321.469 172.929 321.496C172.601 321.575 172.022 321.716 171.66 321.79C171.073 321.91 170.101 322.079 169.043 321.985C167.964 321.889 166.21 321.46 164.83 319.75C163.449 318.039 163.204 315.992 163.258 314.516C163.316 312.93 163.514 311.412 163.678 310.175L163.696 310.035C163.862 308.78 163.992 307.802 164.046 306.84C164.215 303.861 166.533 301.58 169.223 301.745C171.724 301.898 173.666 304.114 173.79 306.819C180.526 302.615 187.597 300.234 194.425 297.935L194.456 297.924C196.565 297.214 198.716 296.467 200.889 295.712C202.279 295.229 203.679 294.742 205.083 294.26C205.15 294.191 205.219 294.12 205.291 294.046C206.165 293.151 207.347 292.008 208.931 291.067C214.791 287.585 221.59 285.733 227.467 284.133C228.853 283.755 230.187 283.392 231.445 283.025C240.826 280.286 249.43 276.604 258.066 271.635C271.964 263.638 285.977 257.684 301.164 253.341C302.254 253.029 303.359 252.709 304.475 252.385C309.829 250.831 315.455 249.199 321.071 248.068Z" fill="#F0E7CF"/>
</g>
<path d="M250.812 292.816C277.771 282.01 306.386 277.407 331.978 262.628C333.559 261.715 329.467 262.666 328.782 260.987" stroke="#EBE5D6" stroke-width="11.6859" stroke-linecap="round"/>
<path d="M176.2 329.791C181.977 327.748 187.553 324.892 193.303 322.709C207.852 317.185 222.61 312.448 237.365 307.665C264.723 298.797 291.677 289.6 318.047 277.646C321.776 275.956 325.493 274.214 329.186 272.429C331.422 271.348 338.485 269.724 336.054 269.634" stroke="#F1EBD9" stroke-width="11.6859" stroke-linecap="round"/>
<path d="M183.067 320.524C187.274 319.573 191.339 317.59 195.412 316.096C206.216 312.133 217.173 308.738 228.093 305.204C242.361 300.586 256.95 297.108 271.026 291.859" stroke="#F7F0DF" stroke-width="11.6859" stroke-linecap="round"/>
<g filter="url(#filter21_di_3178_66016)">
<path fill-rule="evenodd" clip-rule="evenodd" d="M318.917 286.182C321.951 285.082 323.518 281.73 322.418 278.697C321.317 275.663 317.966 274.096 314.933 275.196C290.992 283.88 267.245 292.955 244.136 304.121C238.234 306.973 232.21 309.625 226.07 312.327C224.139 313.177 222.196 314.032 220.242 314.9C212.149 318.495 203.952 322.273 196.102 326.648C195.417 327.03 194.839 327.529 194.379 328.106C191.685 328.541 189.582 330.828 189.479 333.66C189.367 336.699 191.598 339.282 194.555 339.667C196.817 341.488 200.134 341.382 202.276 339.311C203.327 338.294 203.914 336.979 204.034 335.628C210.733 332.024 217.764 328.788 224.986 325.58C226.857 324.749 228.746 323.917 230.645 323.081C236.826 320.361 243.113 317.594 249.22 314.643C271.773 303.746 295.062 294.835 318.917 286.182Z" fill="#F6F0DF"/>
</g>
<g filter="url(#filter22_i_3178_66016)">
<path fill-rule="evenodd" clip-rule="evenodd" d="M311.202 237.742C314.198 236.866 317.191 238.795 317.888 242.05C318.584 245.306 316.72 248.655 313.724 249.531C289.379 256.647 265.023 263.313 240.202 267.834C233.85 268.991 227.49 270.39 221.016 271.815L221.014 271.816C218.98 272.263 216.934 272.714 214.873 273.16C206.328 275.01 197.617 276.765 188.916 277.81C188.151 277.902 187.411 277.82 186.727 277.595C184.293 278.878 181.357 278.12 179.828 275.666C178.186 273.032 178.762 269.403 181.086 267.381C182.076 264.457 184.917 262.692 187.702 263.382C188.904 263.68 189.912 264.39 190.635 265.347C198.003 264.343 205.472 262.833 213.079 261.186C215.058 260.758 217.051 260.319 219.054 259.878L219.055 259.878C225.569 258.444 232.188 256.987 238.746 255.792C263.009 251.373 286.935 244.835 311.202 237.742Z" fill="#F1EBD9"/>
</g>
<g filter="url(#filter23_di_3178_66016)">
<path fill-rule="evenodd" clip-rule="evenodd" d="M431.462 265.136C426.154 298.931 382.023 319.688 347.879 321.806C342.946 322.112 337.924 321.89 332.87 321.096C330.317 320.695 327.817 320.158 325.374 319.492C312.905 316.091 299.119 315.813 286.35 313.808C263.631 310.239 248.619 285.667 252.82 258.924C256.942 232.682 274.078 207.925 291.438 187.818C307.935 168.711 332.468 158.291 357.817 162.273C375.795 165.097 391.162 174.69 402.09 188.322C419.1 209.541 435.683 238.27 431.462 265.136Z" fill="#F5FCFC"/>
<g filter="url(#filter24_i_3178_66016)">
<ellipse cx="340.111" cy="242.105" rx="38.0949" ry="38.0908" transform="rotate(8.92692 340.111 242.105)" fill="#FFCB1E"/>
</g>
<ellipse cx="328.156" cy="223.047" rx="5.01015" ry="5.00961" transform="rotate(8.92692 328.156 223.047)" fill="#FFFADC"/>
</g>
<g filter="url(#filter25_d_3178_66016)">
<path d="M396.296 276.765C396.229 267.966 403.104 260.369 410.752 256.016C411.322 255.692 411.922 255.365 412.554 255.036C412.846 254.885 413.133 254.739 413.415 254.599C421.56 250.547 432.277 248.939 439.681 254.226C444.658 257.78 449.281 261.727 448.451 267.707C447.973 271.147 444.472 274.074 441.846 275.818C440.569 276.666 439.007 275.659 439.092 274.128C439.288 270.635 436.147 267.919 432.769 268.829C429.194 269.793 424.9 271.15 421.77 272.776C418.64 274.402 415.061 277.135 412.218 279.506C409.531 281.747 409.948 285.878 412.918 287.726C414.22 288.536 414.145 290.393 412.717 290.951C409.78 292.096 405.372 293.279 402.283 291.692C396.913 288.933 396.342 282.881 396.296 276.765Z" fill="#E8E3D1"/>
<path fill-rule="evenodd" clip-rule="evenodd" d="M413.885 289.068C413.982 289.126 414.109 289.049 414.069 288.942C413.952 288.627 413.722 288.34 413.378 288.147L413.111 287.997C410.321 286.425 409.902 282.607 412.396 280.596C415.317 278.24 419.064 275.448 422.297 273.769C425.53 272.089 429.968 270.629 433.575 269.593C436.654 268.709 439.537 271.246 439.219 274.433L439.188 274.738C439.149 275.13 439.251 275.483 439.442 275.76C439.51 275.859 439.652 275.796 439.66 275.677C439.678 275.432 439.736 275.192 439.807 274.957C440.867 271.482 438.467 267.202 434.643 267.483C430.072 267.943 424.897 269.592 421.145 271.541C417.394 273.49 413.07 276.776 410.066 280.252C407.637 283.219 409.759 287.643 413.211 288.774C413.445 288.851 413.674 288.942 413.885 289.068Z" fill="#705D50"/>
<path d="M416.855 282.866C414.673 278.423 416.274 272.986 420.667 270.704C425.06 268.422 430.429 270.237 432.81 274.577C433.048 275.01 433.281 275.427 433.505 275.818C434.358 277.305 435.547 279.065 436.64 280.61C438.09 282.659 437.449 285.552 435.222 286.709C434.88 286.886 434.517 287.013 434.141 287.097C433.174 287.316 431.184 287.815 429.902 288.481C428.621 289.146 427.068 290.488 426.333 291.154C426.048 291.412 425.736 291.637 425.394 291.814C423.167 292.971 420.431 291.833 419.589 289.469C418.954 287.686 418.196 285.701 417.47 284.148C417.28 283.74 417.072 283.31 416.855 282.866Z" fill="#E8E3D1"/>
</g>
<g filter="url(#filter26_i_3178_66016)">
<circle cx="375.553" cy="362.434" r="43.1548" fill="#916548"/>
<path d="M367.026 335.463C367.043 334.285 368.595 333.869 369.198 334.881L381.378 355.309C381.586 355.657 381.96 355.873 382.365 355.879L406.146 356.213C407.324 356.23 407.74 357.782 406.728 358.385L386.301 370.565C385.952 370.773 385.736 371.146 385.731 371.552L385.396 395.333C385.38 396.511 383.828 396.927 383.224 395.915L371.044 375.487C370.837 375.139 370.463 374.923 370.057 374.917L346.276 374.583C345.098 374.567 344.682 373.014 345.694 372.411L366.122 360.231C366.471 360.023 366.686 359.65 366.692 359.244L367.026 335.463Z" fill="#FDF8E7"/>
</g>
<g filter="url(#filter27_di_3178_66016)">
<circle cx="431.461" cy="325.526" r="36.8281" fill="#916548"/>
<path d="M440.647 303.38C441.393 302.468 442.867 303.108 442.709 304.276L440.39 321.46C440.336 321.862 440.494 322.264 440.808 322.521L454.228 333.502C455.139 334.248 454.499 335.722 453.331 335.565L436.147 333.246C435.745 333.192 435.343 333.35 435.086 333.664L424.105 347.083C423.359 347.995 421.885 347.354 422.042 346.187L424.361 329.003C424.416 328.6 424.257 328.199 423.943 327.942L410.524 316.96C409.612 316.214 410.253 314.74 411.421 314.898L428.605 317.217C429.007 317.271 429.408 317.113 429.665 316.799L440.647 303.38Z" fill="#FDF8E7"/>
</g>
<g filter="url(#filter28_d_3178_66016)">
<path d="M368.375 286.862C375.706 280.13 387.295 280.134 396.749 283.246C397.453 283.478 398.183 283.734 398.939 284.015C399.287 284.144 399.627 284.274 399.958 284.405C409.537 288.164 419.017 295.934 420.199 306.155C420.994 313.028 421.191 319.9 415.545 323.74C412.297 325.95 407.185 325.233 403.73 324.354C402.05 323.926 401.709 321.851 403.058 320.762C406.136 318.276 406.032 313.58 402.705 311.437C399.185 309.169 394.788 306.597 391.05 305.205C387.311 303.813 382.303 302.884 378.156 302.298C374.238 301.744 371.089 305.228 371.792 309.122C372.1 310.829 370.486 312.175 368.935 311.4C365.746 309.806 361.409 307.005 360.397 303.209C358.637 296.612 363.28 291.541 368.375 286.862Z" fill="#E8E3D1"/>
<path fill-rule="evenodd" clip-rule="evenodd" d="M371.357 310.966C371.377 311.067 371.506 311.101 371.553 311.01C371.731 310.672 371.797 310.26 371.699 309.823L371.622 309.485C370.823 305.952 373.709 302.704 377.287 303.27C381.48 303.933 386.665 304.958 390.526 306.396C394.388 307.833 398.981 310.449 402.587 312.689C405.664 314.6 405.723 318.944 402.808 321.095L402.529 321.301C402.17 321.566 401.951 321.92 401.864 322.292C401.827 322.449 402.019 322.528 402.146 322.429C402.365 322.258 402.61 322.124 402.861 322.006C406.58 320.258 408.35 314.998 405.213 312.003C401.359 308.518 396.049 305.427 391.568 303.759C387.087 302.091 381.05 300.957 375.855 301.074C371.522 301.288 369.421 306.425 371.092 310.179C371.205 310.432 371.303 310.694 371.357 310.966Z" fill="#705D50"/>
<path d="M378.912 308.759C380.985 303.558 386.76 300.777 392.007 302.73C397.254 304.684 399.805 310.565 397.971 315.855C397.788 316.383 397.615 316.895 397.458 317.379C396.858 319.223 396.282 321.556 395.816 323.645C395.198 326.416 392.284 328.073 389.624 327.082C389.216 326.931 388.834 326.721 388.479 326.471C387.562 325.825 385.632 324.534 384.102 323.965C382.571 323.395 380.267 323.11 379.152 322.999C378.719 322.956 378.293 322.864 377.885 322.712C375.225 321.722 374.104 318.563 375.448 316.063C376.462 314.177 377.552 312.036 378.304 310.248C378.501 309.779 378.706 309.279 378.912 308.759Z" fill="#E8E3D1"/>
</g>
<g filter="url(#filter29_d_3178_66016)">
<path d="M468.951 263.304C473.032 267.651 473.107 274.593 471.305 280.277C471.171 280.7 471.023 281.139 470.859 281.594C470.784 281.803 470.708 282.008 470.632 282.207C468.444 287.97 463.852 293.7 457.737 294.476C453.626 294.998 449.51 295.162 447.172 291.805C445.827 289.874 446.222 286.807 446.726 284.731C446.971 283.722 448.212 283.504 448.873 284.305C450.383 286.132 453.195 286.039 454.457 284.032C455.793 281.908 457.304 279.257 458.113 277.009C458.922 274.76 459.445 271.754 459.769 269.266C460.075 266.915 457.967 265.051 455.639 265.498C454.619 265.694 453.801 264.736 454.255 263.802C455.189 261.881 456.838 259.265 459.105 258.633C463.046 257.535 466.114 260.283 468.951 263.304Z" fill="#E8E3D1"/>
<path fill-rule="evenodd" clip-rule="evenodd" d="M454.525 265.273C454.449 265.289 454.422 265.385 454.491 265.42C454.694 265.523 454.941 265.56 455.202 265.498L455.404 265.45C457.515 264.948 459.48 266.655 459.164 268.803C458.795 271.318 458.215 274.431 457.38 276.754C456.544 279.077 455.008 281.846 453.69 284.02C452.565 285.876 449.963 285.941 448.656 284.209L448.531 284.043C448.369 283.83 448.156 283.701 447.933 283.651C447.854 283.633 447.812 283.73 447.863 283.793C447.966 283.923 448.048 284.069 448.121 284.218C449.192 286.435 452.355 287.46 454.128 285.561C456.191 283.229 458.007 280.028 458.976 277.333C459.946 274.637 460.585 271.013 460.481 267.902C460.324 265.308 457.233 264.083 454.995 265.109C454.844 265.179 454.688 265.239 454.525 265.273Z" fill="#705D50"/>
</g>
<defs>
<filter id="filter0_d_3178_66016" x="412.041" y="49.5378" width="120.594" height="120.592" filterUnits="userSpaceOnUse" color-interpolation-filters="sRGB">
<feFlood flood-opacity="0" result="BackgroundImageFix"/>
<feColorMatrix in="SourceAlpha" type="matrix" values="0 0 0 0 0 0 0 0 0 0 0 0 0 0 0 0 0 0 127 0" result="hardAlpha"/>
<feOffset dx="4.5" dy="4.5"/>
<feComposite in2="hardAlpha" operator="out"/>
<feColorMatrix type="matrix" values="0 0 0 0 0 0 0 0 0 0 0 0 0 0 0 0 0 0 0.25 0"/>
<feBlend mode="normal" in2="BackgroundImageFix" result="effect1_dropShadow_3178_66016"/>
<feBlend mode="normal" in="SourceGraphic" in2="effect1_dropShadow_3178_66016" result="shape"/>
</filter>
<filter id="filter1_d_3178_66016" x="139.311" y="322.274" width="120.594" height="120.592" filterUnits="userSpaceOnUse" color-interpolation-filters="sRGB">
<feFlood flood-opacity="0" result="BackgroundImageFix"/>
<feColorMatrix in="SourceAlpha" type="matrix" values="0 0 0 0 0 0 0 0 0 0 0 0 0 0 0 0 0 0 127 0" result="hardAlpha"/>
<feOffset dx="4.5" dy="4.5"/>
<feComposite in2="hardAlpha" operator="out"/>
<feColorMatrix type="matrix" values="0 0 0 0 0 0 0 0 0 0 0 0 0 0 0 0 0 0 0.25 0"/>
<feBlend mode="normal" in2="BackgroundImageFix" result="effect1_dropShadow_3178_66016"/>
<feBlend mode="normal" in="SourceGraphic" in2="effect1_dropShadow_3178_66016" result="shape"/>
</filter>
<filter id="filter2_d_3178_66016" x="138.965" y="49.1918" width="394.02" height="394.02" filterUnits="userSpaceOnUse" color-interpolation-filters="sRGB">
<feFlood flood-opacity="0" result="BackgroundImageFix"/>
<feColorMatrix in="SourceAlpha" type="matrix" values="0 0 0 0 0 0 0 0 0 0 0 0 0 0 0 0 0 0 127 0" result="hardAlpha"/>
<feOffset dx="4.5" dy="4.5"/>
<feComposite in2="hardAlpha" operator="out"/>
<feColorMatrix type="matrix" values="0 0 0 0 0 0 0 0 0 0 0 0 0 0 0 0 0 0 0.25 0"/>
<feBlend mode="normal" in2="BackgroundImageFix" result="effect1_dropShadow_3178_66016"/>
<feBlend mode="normal" in="SourceGraphic" in2="effect1_dropShadow_3178_66016" result="shape"/>
</filter>
<filter id="filter3_i_3178_66016" x="281.861" y="309.172" width="98.877" height="101.936" filterUnits="userSpaceOnUse" color-interpolation-filters="sRGB">
<feFlood flood-opacity="0" result="BackgroundImageFix"/>
<feBlend mode="normal" in="SourceGraphic" in2="BackgroundImageFix" result="shape"/>
<feColorMatrix in="SourceAlpha" type="matrix" values="0 0 0 0 0 0 0 0 0 0 0 0 0 0 0 0 0 0 127 0" result="hardAlpha"/>
<feOffset dx="-14.607" dy="-14.607"/>
<feComposite in2="hardAlpha" operator="arithmetic" k2="-1" k3="1"/>
<feColorMatrix type="matrix" values="0 0 0 0 0.988235 0 0 0 0 0.898039 0 0 0 0 0.733333 0 0 0 1 0"/>
<feBlend mode="normal" in2="shape" result="effect1_innerShadow_3178_66016"/>
</filter>
<filter id="filter4_i_3178_66016" x="209.959" y="289.62" width="99.6445" height="95.692" filterUnits="userSpaceOnUse" color-interpolation-filters="sRGB">
<feFlood flood-opacity="0" result="BackgroundImageFix"/>
<feBlend mode="normal" in="SourceGraphic" in2="BackgroundImageFix" result="shape"/>
<feColorMatrix in="SourceAlpha" type="matrix" values="0 0 0 0 0 0 0 0 0 0 0 0 0 0 0 0 0 0 127 0" result="hardAlpha"/>
<feOffset dx="-14.607" dy="-14.607"/>
<feComposite in2="hardAlpha" operator="arithmetic" k2="-1" k3="1"/>
<feColorMatrix type="matrix" values="0 0 0 0 0.988235 0 0 0 0 0.898039 0 0 0 0 0.733333 0 0 0 1 0"/>
<feBlend mode="normal" in2="shape" result="effect1_innerShadow_3178_66016"/>
</filter>
<filter id="filter5_i_3178_66016" x="340.371" y="48.0465" width="60.6328" height="118.707" filterUnits="userSpaceOnUse" color-interpolation-filters="sRGB">
<feFlood flood-opacity="0" result="BackgroundImageFix"/>
<feBlend mode="normal" in="SourceGraphic" in2="BackgroundImageFix" result="shape"/>
<feColorMatrix in="SourceAlpha" type="matrix" values="0 0 0 0 0 0 0 0 0 0 0 0 0 0 0 0 0 0 127 0" result="hardAlpha"/>
<feOffset dx="-4.869" dy="-7.3035"/>
<feComposite in2="hardAlpha" operator="arithmetic" k2="-1" k3="1"/>
<feColorMatrix type="matrix" values="0 0 0 0 0.455698 0 0 0 0 0.683333 0 0 0 0 0.350208 0 0 0 1 0"/>
<feBlend mode="normal" in2="shape" result="effect1_innerShadow_3178_66016"/>
</filter>
<filter id="filter6_i_3178_66016" x="360.184" y="108.397" width="58.6035" height="88.4359" filterUnits="userSpaceOnUse" color-interpolation-filters="sRGB">
<feFlood flood-opacity="0" result="BackgroundImageFix"/>
<feBlend mode="normal" in="SourceGraphic" in2="BackgroundImageFix" result="shape"/>
<feColorMatrix in="SourceAlpha" type="matrix" values="0 0 0 0 0 0 0 0 0 0 0 0 0 0 0 0 0 0 127 0" result="hardAlpha"/>
<feOffset dx="-4.869" dy="-7.3035"/>
<feComposite in2="hardAlpha" operator="arithmetic" k2="-1" k3="1"/>
<feColorMatrix type="matrix" values="0 0 0 0 0 0 0 0 0 0 0 0 0 0 0 0 0 0 0.25 0"/>
<feBlend mode="normal" in2="shape" result="effect1_innerShadow_3178_66016"/>
</filter>
<filter id="filter7_i_3178_66016" x="382.131" y="84.5371" width="47.7637" height="145.252" filterUnits="userSpaceOnUse" color-interpolation-filters="sRGB">
<feFlood flood-opacity="0" result="BackgroundImageFix"/>
<feBlend mode="normal" in="SourceGraphic" in2="BackgroundImageFix" result="shape"/>
<feColorMatrix in="SourceAlpha" type="matrix" values="0 0 0 0 0 0 0 0 0 0 0 0 0 0 0 0 0 0 127 0" result="hardAlpha"/>
<feOffset dx="-4.869" dy="-7.3035"/>
<feComposite in2="hardAlpha" operator="arithmetic" k2="-1" k3="1"/>
<feColorMatrix type="matrix" values="0 0 0 0 0 0 0 0 0 0 0 0 0 0 0 0 0 0 0.25 0"/>
<feBlend mode="normal" in2="shape" result="effect1_innerShadow_3178_66016"/>
</filter>
<filter id="filter8_i_3178_66016" x="393.506" y="60.4078" width="47.7715" height="145.252" filterUnits="userSpaceOnUse" color-interpolation-filters="sRGB">
<feFlood flood-opacity="0" result="BackgroundImageFix"/>
<feBlend mode="normal" in="SourceGraphic" in2="BackgroundImageFix" result="shape"/>
<feColorMatrix in="SourceAlpha" type="matrix" values="0 0 0 0 0 0 0 0 0 0 0 0 0 0 0 0 0 0 127 0" result="hardAlpha"/>
<feOffset dx="-4.869" dy="-7.3035"/>
<feComposite in2="hardAlpha" operator="arithmetic" k2="-1" k3="1"/>
<feColorMatrix type="matrix" values="0 0 0 0 0 0 0 0 0 0 0 0 0 0 0 0 0 0 0.25 0"/>
<feBlend mode="normal" in2="shape" result="effect1_innerShadow_3178_66016"/>
</filter>
<filter id="filter9_i_3178_66016" x="395.617" y="89.7267" width="67.5391" height="118.474" filterUnits="userSpaceOnUse" color-interpolation-filters="sRGB">
<feFlood flood-opacity="0" result="BackgroundImageFix"/>
<feBlend mode="normal" in="SourceGraphic" in2="BackgroundImageFix" result="shape"/>
<feColorMatrix in="SourceAlpha" type="matrix" values="0 0 0 0 0 0 0 0 0 0 0 0 0 0 0 0 0 0 127 0" result="hardAlpha"/>
<feOffset dx="-4.869" dy="-7.3035"/>
<feComposite in2="hardAlpha" operator="arithmetic" k2="-1" k3="1"/>
<feColorMatrix type="matrix" values="0 0 0 0 0.455698 0 0 0 0 0.683333 0 0 0 0 0.350208 0 0 0 1 0"/>
<feBlend mode="normal" in2="shape" result="effect1_innerShadow_3178_66016"/>
</filter>
<filter id="filter10_d_3178_66016" x="270.213" y="62.0905" width="92.6191" height="150.15" filterUnits="userSpaceOnUse" color-interpolation-filters="sRGB">
<feFlood flood-opacity="0" result="BackgroundImageFix"/>
<feColorMatrix in="SourceAlpha" type="matrix" values="0 0 0 0 0 0 0 0 0 0 0 0 0 0 0 0 0 0 127 0" result="hardAlpha"/>
<feOffset dy="3.6"/>
<feComposite in2="hardAlpha" operator="out"/>
<feColorMatrix type="matrix" values="0 0 0 0 0.35 0 0 0 0 0.35 0 0 0 0 0.35 0 0 0 0.25 0"/>
<feBlend mode="normal" in2="BackgroundImageFix" result="effect1_dropShadow_3178_66016"/>
<feBlend mode="normal" in="SourceGraphic" in2="effect1_dropShadow_3178_66016" result="shape"/>
</filter>
<filter id="filter11_d_3178_66016" x="270.271" y="62.0905" width="92.5605" height="150.15" filterUnits="userSpaceOnUse" color-interpolation-filters="sRGB">
<feFlood flood-opacity="0" result="BackgroundImageFix"/>
<feColorMatrix in="SourceAlpha" type="matrix" values="0 0 0 0 0 0 0 0 0 0 0 0 0 0 0 0 0 0 127 0" result="hardAlpha"/>
<feOffset dy="3.6"/>
<feComposite in2="hardAlpha" operator="out"/>
<feColorMatrix type="matrix" values="0 0 0 0 0.35 0 0 0 0 0.35 0 0 0 0 0.35 0 0 0 0.25 0"/>
<feBlend mode="normal" in2="BackgroundImageFix" result="effect1_dropShadow_3178_66016"/>
<feBlend mode="normal" in="SourceGraphic" in2="effect1_dropShadow_3178_66016" result="shape"/>
</filter>
<filter id="filter12_d_3178_66016" x="183" y="118.831" width="139.092" height="139.262" filterUnits="userSpaceOnUse" color-interpolation-filters="sRGB">
<feFlood flood-opacity="0" result="BackgroundImageFix"/>
<feColorMatrix in="SourceAlpha" type="matrix" values="0 0 0 0 0 0 0 0 0 0 0 0 0 0 0 0 0 0 127 0" result="hardAlpha"/>
<feOffset dy="3.6"/>
<feComposite in2="hardAlpha" operator="out"/>
<feColorMatrix type="matrix" values="0 0 0 0 0.35 0 0 0 0 0.35 0 0 0 0 0.35 0 0 0 0.25 0"/>
<feBlend mode="normal" in2="BackgroundImageFix" result="effect1_dropShadow_3178_66016"/>
<feBlend mode="normal" in="SourceGraphic" in2="effect1_dropShadow_3178_66016" result="shape"/>
</filter>
<filter id="filter13_d_3178_66016" x="212.367" y="83.4434" width="138.039" height="138.138" filterUnits="userSpaceOnUse" color-interpolation-filters="sRGB">
<feFlood flood-opacity="0" result="BackgroundImageFix"/>
<feColorMatrix in="SourceAlpha" type="matrix" values="0 0 0 0 0 0 0 0 0 0 0 0 0 0 0 0 0 0 127 0" result="hardAlpha"/>
<feOffset dy="3.6"/>
<feComposite in2="hardAlpha" operator="out"/>
<feColorMatrix type="matrix" values="0 0 0 0 0.35 0 0 0 0 0.35 0 0 0 0 0.35 0 0 0 0.25 0"/>
<feBlend mode="normal" in2="BackgroundImageFix" result="effect1_dropShadow_3178_66016"/>
<feBlend mode="normal" in="SourceGraphic" in2="effect1_dropShadow_3178_66016" result="shape"/>
</filter>
<filter id="filter14_di_3178_66016" x="386.775" y="155.648" width="116.674" height="99.6511" filterUnits="userSpaceOnUse" color-interpolation-filters="sRGB">
<feFlood flood-opacity="0" result="BackgroundImageFix"/>
<feColorMatrix in="SourceAlpha" type="matrix" values="0 0 0 0 0 0 0 0 0 0 0 0 0 0 0 0 0 0 127 0" result="hardAlpha"/>
<feOffset dx="3.6" dy="-1.8"/>
<feComposite in2="hardAlpha" operator="out"/>
<feColorMatrix type="matrix" values="0 0 0 0 0 0 0 0 0 0 0 0 0 0 0 0 0 0 0.25 0"/>
<feBlend mode="normal" in2="BackgroundImageFix" result="effect1_dropShadow_3178_66016"/>
<feBlend mode="normal" in="SourceGraphic" in2="effect1_dropShadow_3178_66016" result="shape"/>
<feColorMatrix in="SourceAlpha" type="matrix" values="0 0 0 0 0 0 0 0 0 0 0 0 0 0 0 0 0 0 127 0" result="hardAlpha"/>
<feOffset dx="-4.5" dy="-3.6"/>
<feComposite in2="hardAlpha" operator="arithmetic" k2="-1" k3="1"/>
<feColorMatrix type="matrix" values="0 0 0 0 0 0 0 0 0 0 0 0 0 0 0 0 0 0 0.25 0"/>
<feBlend mode="normal" in2="shape" result="effect2_innerShadow_3178_66016"/>
</filter>
<filter id="filter15_di_3178_66016" x="411.264" y="214.681" width="111.883" height="83.3944" filterUnits="userSpaceOnUse" color-interpolation-filters="sRGB">
<feFlood flood-opacity="0" result="BackgroundImageFix"/>
<feColorMatrix in="SourceAlpha" type="matrix" values="0 0 0 0 0 0 0 0 0 0 0 0 0 0 0 0 0 0 127 0" result="hardAlpha"/>
<feOffset dx="3.6" dy="-3.6"/>
<feComposite in2="hardAlpha" operator="out"/>
<feColorMatrix type="matrix" values="0 0 0 0 0 0 0 0 0 0 0 0 0 0 0 0 0 0 0.25 0"/>
<feBlend mode="normal" in2="BackgroundImageFix" result="effect1_dropShadow_3178_66016"/>
<feBlend mode="normal" in="SourceGraphic" in2="effect1_dropShadow_3178_66016" result="shape"/>
<feColorMatrix in="SourceAlpha" type="matrix" values="0 0 0 0 0 0 0 0 0 0 0 0 0 0 0 0 0 0 127 0" result="hardAlpha"/>
<feOffset dx="-4.5" dy="-3.6"/>
<feComposite in2="hardAlpha" operator="arithmetic" k2="-1" k3="1"/>
<feColorMatrix type="matrix" values="0 0 0 0 0 0 0 0 0 0 0 0 0 0 0 0 0 0 0.25 0"/>
<feBlend mode="normal" in2="shape" result="effect2_innerShadow_3178_66016"/>
</filter>
<filter id="filter16_di_3178_66016" x="396.959" y="250.411" width="112.297" height="81.1541" filterUnits="userSpaceOnUse" color-interpolation-filters="sRGB">
<feFlood flood-opacity="0" result="BackgroundImageFix"/>
<feColorMatrix in="SourceAlpha" type="matrix" values="0 0 0 0 0 0 0 0 0 0 0 0 0 0 0 0 0 0 127 0" result="hardAlpha"/>
<feOffset dx="3.6" dy="-1.8"/>
<feComposite in2="hardAlpha" operator="out"/>
<feColorMatrix type="matrix" values="0 0 0 0 0 0 0 0 0 0 0 0 0 0 0 0 0 0 0.25 0"/>
<feBlend mode="normal" in2="BackgroundImageFix" result="effect1_dropShadow_3178_66016"/>
<feBlend mode="normal" in="SourceGraphic" in2="effect1_dropShadow_3178_66016" result="shape"/>
<feColorMatrix in="SourceAlpha" type="matrix" values="0 0 0 0 0 0 0 0 0 0 0 0 0 0 0 0 0 0 127 0" result="hardAlpha"/>
<feOffset dx="-4.5" dy="-3.6"/>
<feComposite in2="hardAlpha" operator="arithmetic" k2="-1" k3="1"/>
<feColorMatrix type="matrix" values="0 0 0 0 0 0 0 0 0 0 0 0 0 0 0 0 0 0 0.25 0"/>
<feBlend mode="normal" in2="shape" result="effect2_innerShadow_3178_66016"/>
</filter>
<filter id="filter17_i_3178_66016" x="147.168" y="222.261" width="213.914" height="35.6866" filterUnits="userSpaceOnUse" color-interpolation-filters="sRGB">
<feFlood flood-opacity="0" result="BackgroundImageFix"/>
<feBlend mode="normal" in="SourceGraphic" in2="BackgroundImageFix" result="shape"/>
<feColorMatrix in="SourceAlpha" type="matrix" values="0 0 0 0 0 0 0 0 0 0 0 0 0 0 0 0 0 0 127 0" result="hardAlpha"/>
<feOffset dy="2.04503"/>
<feComposite in2="hardAlpha" operator="arithmetic" k2="-1" k3="1"/>
<feColorMatrix type="matrix" values="0 0 0 0 0.862745 0 0 0 0 0.819608 0 0 0 0 0.678431 0 0 0 1 0"/>
<feBlend mode="normal" in2="shape" result="effect1_innerShadow_3178_66016"/>
</filter>
<filter id="filter18_i_3178_66016" x="172.609" y="252.598" width="168.82" height="34.7218" filterUnits="userSpaceOnUse" color-interpolation-filters="sRGB">
<feFlood flood-opacity="0" result="BackgroundImageFix"/>
<feBlend mode="normal" in="SourceGraphic" in2="BackgroundImageFix" result="shape"/>
<feColorMatrix in="SourceAlpha" type="matrix" values="0 0 0 0 0 0 0 0 0 0 0 0 0 0 0 0 0 0 127 0" result="hardAlpha"/>
<feOffset dy="2.04503"/>
<feComposite in2="hardAlpha" operator="arithmetic" k2="-1" k3="1"/>
<feColorMatrix type="matrix" values="0 0 0 0 0.862745 0 0 0 0 0.819608 0 0 0 0 0.678431 0 0 0 0.7 0"/>
<feBlend mode="normal" in2="shape" result="effect1_innerShadow_3178_66016"/>
</filter>
<filter id="filter19_i_3178_66016" x="180.068" y="196.904" width="167.949" height="24.0272" filterUnits="userSpaceOnUse" color-interpolation-filters="sRGB">
<feFlood flood-opacity="0" result="BackgroundImageFix"/>
<feBlend mode="normal" in="SourceGraphic" in2="BackgroundImageFix" result="shape"/>
<feColorMatrix in="SourceAlpha" type="matrix" values="0 0 0 0 0 0 0 0 0 0 0 0 0 0 0 0 0 0 127 0" result="hardAlpha"/>
<feOffset dy="2.04503"/>
<feComposite in2="hardAlpha" operator="arithmetic" k2="-1" k3="1"/>
<feColorMatrix type="matrix" values="0 0 0 0 0.862745 0 0 0 0 0.819608 0 0 0 0 0.678431 0 0 0 0.7 0"/>
<feBlend mode="normal" in2="shape" result="effect1_innerShadow_3178_66016"/>
</filter>
<filter id="filter20_i_3178_66016" x="163.252" y="247.594" width="167.941" height="74.4186" filterUnits="userSpaceOnUse" color-interpolation-filters="sRGB">
<feFlood flood-opacity="0" result="BackgroundImageFix"/>
<feBlend mode="normal" in="SourceGraphic" in2="BackgroundImageFix" result="shape"/>
<feColorMatrix in="SourceAlpha" type="matrix" values="0 0 0 0 0 0 0 0 0 0 0 0 0 0 0 0 0 0 127 0" result="hardAlpha"/>
<feOffset dy="2.04503"/>
<feComposite in2="hardAlpha" operator="arithmetic" k2="-1" k3="1"/>
<feColorMatrix type="matrix" values="0 0 0 0 0.862745 0 0 0 0 0.819608 0 0 0 0 0.678431 0 0 0 1 0"/>
<feBlend mode="normal" in2="shape" result="effect1_innerShadow_3178_66016"/>
</filter>
<filter id="filter21_di_3178_66016" x="189.475" y="274.845" width="133.295" height="67.9091" filterUnits="userSpaceOnUse" color-interpolation-filters="sRGB">
<feFlood flood-opacity="0" result="BackgroundImageFix"/>
<feColorMatrix in="SourceAlpha" type="matrix" values="0 0 0 0 0 0 0 0 0 0 0 0 0 0 0 0 0 0 127 0" result="hardAlpha"/>
<feOffset dy="1.8"/>
<feComposite in2="hardAlpha" operator="out"/>
<feColorMatrix type="matrix" values="0 0 0 0 0.558333 0 0 0 0 0.528207 0 0 0 0 0.472257 0 0 0 0.25 0"/>
<feBlend mode="normal" in2="BackgroundImageFix" result="effect1_dropShadow_3178_66016"/>
<feBlend mode="normal" in="SourceGraphic" in2="effect1_dropShadow_3178_66016" result="shape"/>
<feColorMatrix in="SourceAlpha" type="matrix" values="0 0 0 0 0 0 0 0 0 0 0 0 0 0 0 0 0 0 127 0" result="hardAlpha"/>
<feOffset dy="2.04503"/>
<feComposite in2="hardAlpha" operator="arithmetic" k2="-1" k3="1"/>
<feColorMatrix type="matrix" values="0 0 0 0 0.862745 0 0 0 0 0.819608 0 0 0 0 0.678431 0 0 0 0.7 0"/>
<feBlend mode="normal" in2="shape" result="effect2_innerShadow_3178_66016"/>
</filter>
<filter id="filter22_i_3178_66016" x="178.891" y="237.531" width="139.143" height="40.6803" filterUnits="userSpaceOnUse" color-interpolation-filters="sRGB">
<feFlood flood-opacity="0" result="BackgroundImageFix"/>
<feBlend mode="normal" in="SourceGraphic" in2="BackgroundImageFix" result="shape"/>
<feColorMatrix in="SourceAlpha" type="matrix" values="0 0 0 0 0 0 0 0 0 0 0 0 0 0 0 0 0 0 127 0" result="hardAlpha"/>
<feOffset dy="2.04503"/>
<feComposite in2="hardAlpha" operator="arithmetic" k2="-1" k3="1"/>
<feColorMatrix type="matrix" values="0 0 0 0 0.862745 0 0 0 0 0.819608 0 0 0 0 0.678431 0 0 0 0.7 0"/>
<feBlend mode="normal" in2="shape" result="effect1_innerShadow_3178_66016"/>
</filter>
<filter id="filter23_di_3178_66016" x="252.115" y="161.432" width="186.312" height="165.006" filterUnits="userSpaceOnUse" color-interpolation-filters="sRGB">
<feFlood flood-opacity="0" result="BackgroundImageFix"/>
<feColorMatrix in="SourceAlpha" type="matrix" values="0 0 0 0 0 0 0 0 0 0 0 0 0 0 0 0 0 0 127 0" result="hardAlpha"/>
<feOffset dx="6.3" dy="4.5"/>
<feComposite in2="hardAlpha" operator="out"/>
<feColorMatrix type="matrix" values="0 0 0 0 0 0 0 0 0 0 0 0 0 0 0 0 0 0 0.25 0"/>
<feBlend mode="normal" in2="BackgroundImageFix" result="effect1_dropShadow_3178_66016"/>
<feBlend mode="normal" in="SourceGraphic" in2="effect1_dropShadow_3178_66016" result="shape"/>
<feColorMatrix in="SourceAlpha" type="matrix" values="0 0 0 0 0 0 0 0 0 0 0 0 0 0 0 0 0 0 127 0" result="hardAlpha"/>
<feOffset dx="-3.6" dy="-6.3"/>
<feComposite in2="hardAlpha" operator="arithmetic" k2="-1" k3="1"/>
<feColorMatrix type="matrix" values="0 0 0 0 0.645833 0 0 0 0 0.645833 0 0 0 0 0.645833 0 0 0 0.25 0"/>
<feBlend mode="normal" in2="shape" result="effect2_innerShadow_3178_66016"/>
</filter>
<filter id="filter24_i_3178_66016" x="302.012" y="204.009" width="76.1992" height="76.1929" filterUnits="userSpaceOnUse" color-interpolation-filters="sRGB">
<feFlood flood-opacity="0" result="BackgroundImageFix"/>
<feBlend mode="normal" in="SourceGraphic" in2="BackgroundImageFix" result="shape"/>
<feColorMatrix in="SourceAlpha" type="matrix" values="0 0 0 0 0 0 0 0 0 0 0 0 0 0 0 0 0 0 127 0" result="hardAlpha"/>
<feOffset dx="-1.8" dy="-3.6"/>
<feComposite in2="hardAlpha" operator="arithmetic" k2="-1" k3="1"/>
<feColorMatrix type="matrix" values="0 0 0 0 0.345833 0 0 0 0 0.29612 0 0 0 0 0.246406 0 0 0 0.25 0"/>
<feBlend mode="normal" in2="shape" result="effect1_innerShadow_3178_66016"/>
</filter>
<filter id="filter25_d_3178_66016" x="396.295" y="250.872" width="54.9539" height="44.2886" filterUnits="userSpaceOnUse" color-interpolation-filters="sRGB">
<feFlood flood-opacity="0" result="BackgroundImageFix"/>
<feColorMatrix in="SourceAlpha" type="matrix" values="0 0 0 0 0 0 0 0 0 0 0 0 0 0 0 0 0 0 127 0" result="hardAlpha"/>
<feOffset dx="2.7" dy="2.7"/>
<feComposite in2="hardAlpha" operator="out"/>
<feColorMatrix type="matrix" values="0 0 0 0 0 0 0 0 0 0 0 0 0 0 0 0 0 0 0.25 0"/>
<feBlend mode="normal" in2="BackgroundImageFix" result="effect1_dropShadow_3178_66016"/>
<feBlend mode="normal" in="SourceGraphic" in2="effect1_dropShadow_3178_66016" result="shape"/>
</filter>
<filter id="filter26_i_3178_66016" x="332.398" y="319.279" width="86.3086" height="86.3096" filterUnits="userSpaceOnUse" color-interpolation-filters="sRGB">
<feFlood flood-opacity="0" result="BackgroundImageFix"/>
<feBlend mode="normal" in="SourceGraphic" in2="BackgroundImageFix" result="shape"/>
<feColorMatrix in="SourceAlpha" type="matrix" values="0 0 0 0 0 0 0 0 0 0 0 0 0 0 0 0 0 0 127 0" result="hardAlpha"/>
<feOffset dx="-8.7642" dy="-8.7642"/>
<feComposite in2="hardAlpha" operator="arithmetic" k2="-1" k3="1"/>
<feColorMatrix type="matrix" values="0 0 0 0 0 0 0 0 0 0 0 0 0 0 0 0 0 0 0.25 0"/>
<feBlend mode="normal" in2="shape" result="effect1_innerShadow_3178_66016"/>
</filter>
<filter id="filter27_di_3178_66016" x="394.633" y="288.698" width="77.2562" height="75.4561" filterUnits="userSpaceOnUse" color-interpolation-filters="sRGB">
<feFlood flood-opacity="0" result="BackgroundImageFix"/>
<feColorMatrix in="SourceAlpha" type="matrix" values="0 0 0 0 0 0 0 0 0 0 0 0 0 0 0 0 0 0 127 0" result="hardAlpha"/>
<feOffset dx="3.6" dy="1.8"/>
<feComposite in2="hardAlpha" operator="out"/>
<feColorMatrix type="matrix" values="0 0 0 0 0 0 0 0 0 0 0 0 0 0 0 0 0 0 0.25 0"/>
<feBlend mode="normal" in2="BackgroundImageFix" result="effect1_dropShadow_3178_66016"/>
<feBlend mode="normal" in="SourceGraphic" in2="effect1_dropShadow_3178_66016" result="shape"/>
<feColorMatrix in="SourceAlpha" type="matrix" values="0 0 0 0 0 0 0 0 0 0 0 0 0 0 0 0 0 0 127 0" result="hardAlpha"/>
<feOffset dx="-8.7642" dy="-8.7642"/>
<feComposite in2="hardAlpha" operator="arithmetic" k2="-1" k3="1"/>
<feColorMatrix type="matrix" values="0 0 0 0 0 0 0 0 0 0 0 0 0 0 0 0 0 0 0.25 0"/>
<feBlend mode="normal" in2="shape" result="effect2_innerShadow_3178_66016"/>
</filter>
<filter id="filter28_d_3178_66016" x="360.018" y="281.235" width="63.2957" height="48.836" filterUnits="userSpaceOnUse" color-interpolation-filters="sRGB">
<feFlood flood-opacity="0" result="BackgroundImageFix"/>
<feColorMatrix in="SourceAlpha" type="matrix" values="0 0 0 0 0 0 0 0 0 0 0 0 0 0 0 0 0 0 127 0" result="hardAlpha"/>
<feOffset dx="2.7" dy="2.7"/>
<feComposite in2="hardAlpha" operator="out"/>
<feColorMatrix type="matrix" values="0 0 0 0 0 0 0 0 0 0 0 0 0 0 0 0 0 0 0.25 0"/>
<feBlend mode="normal" in2="BackgroundImageFix" result="effect1_dropShadow_3178_66016"/>
<feBlend mode="normal" in="SourceGraphic" in2="effect1_dropShadow_3178_66016" result="shape"/>
</filter>
<filter id="filter29_d_3178_66016" x="446.256" y="258.386" width="28.8738" height="39.0779" filterUnits="userSpaceOnUse" color-interpolation-filters="sRGB">
<feFlood flood-opacity="0" result="BackgroundImageFix"/>
<feColorMatrix in="SourceAlpha" type="matrix" values="0 0 0 0 0 0 0 0 0 0 0 0 0 0 0 0 0 0 127 0" result="hardAlpha"/>
<feOffset dx="2.7" dy="2.7"/>
<feComposite in2="hardAlpha" operator="out"/>
<feColorMatrix type="matrix" values="0 0 0 0 0 0 0 0 0 0 0 0 0 0 0 0 0 0 0.25 0"/>
<feBlend mode="normal" in2="BackgroundImageFix" result="effect1_dropShadow_3178_66016"/>
<feBlend mode="normal" in="SourceGraphic" in2="effect1_dropShadow_3178_66016" result="shape"/>
</filter>
</defs>
</svg>
