<svg width="164" height="80" viewBox="0 0 164 80" fill="none" xmlns="http://www.w3.org/2000/svg">
<path fill-rule="evenodd" clip-rule="evenodd" d="M27.5657 28.2301L27.5665 28.2297L27.5728 28.226L27.6079 28.2058C27.6409 28.1869 27.6931 28.1574 27.7642 28.1179C27.9066 28.0388 28.1251 27.9199 28.4187 27.7667C29.0058 27.4604 29.893 27.0173 31.072 26.4827C33.4302 25.4135 36.955 23.9788 41.5798 22.541C50.8286 19.6657 64.4784 16.7778 82 16.7778C99.5216 16.7778 113.171 19.6657 122.42 22.541C127.045 23.9788 130.57 25.4135 132.928 26.4827C134.107 27.0173 134.994 27.4604 135.581 27.7667C135.875 27.9199 136.093 28.0388 136.236 28.1179C136.307 28.1574 136.359 28.1869 136.392 28.2058L136.427 28.226L136.434 28.2297L136.434 28.2301C137.175 28.665 138.128 28.4178 138.563 27.6776C138.999 26.9371 138.751 25.9837 138.011 25.5481L138.01 25.5474L138.003 25.5436L137.988 25.5348L137.936 25.505C137.892 25.4797 137.829 25.4438 137.746 25.3979C137.581 25.306 137.338 25.1743 137.02 25.0085C136.385 24.6767 135.446 24.2084 134.213 23.6492C131.746 22.5309 128.101 21.049 123.344 19.5701C113.829 16.6121 99.8673 13.6667 82 13.6667C64.1327 13.6667 50.1714 16.6121 40.6563 19.5701C35.8992 21.049 32.2538 22.5309 29.7873 23.6492C28.5541 24.2084 27.6153 24.6767 26.9796 25.0085C26.6617 25.1743 26.4195 25.306 26.2541 25.3979C26.1714 25.4438 26.1078 25.4797 26.0636 25.505L26.0118 25.5348L25.9968 25.5436L25.9903 25.5474C25.9903 25.5474 25.9891 25.5481 26.7778 26.8889L25.9891 25.5481C25.2486 25.9837 25.0014 26.9371 25.437 27.6776C25.8724 28.4178 26.8253 28.6651 27.5657 28.2301Z" fill="#FF9C56"/>
<path d="M116.958 31.8972C118.732 31.8972 119.618 33.2272 119.618 34.5867C119.618 40.6161 114.564 43.6603 108.417 44.0445C107.826 44.0741 107.205 43.5716 107.176 43.0396C107.087 42.5667 107.589 41.8278 108.21 41.7983C113.146 41.4141 117.047 39.3452 117.254 35.1778C117.254 34.5276 117.224 34.0843 115.835 34.0843H108.328C107.885 34.0843 107.382 33.5227 107.382 32.9907C107.382 32.4587 107.855 31.8972 108.358 31.8972H116.958ZM127.362 32.4883C127.51 33.8478 127.598 35.3552 127.598 36.9216H130.022C130.465 36.9216 131.027 37.3945 131.027 38.0152C131.027 38.5472 130.554 39.1087 130.052 39.1087H127.598C127.569 40.6752 127.48 42.2121 127.362 43.5125C127.332 44.1036 126.623 44.5174 126.032 44.4583C125.411 44.4287 124.938 43.9263 124.968 43.3056C125.264 39.6703 125.234 36.3896 124.968 32.6952C124.938 32.0745 125.382 31.6312 126.002 31.5425C126.623 31.4834 127.273 31.838 127.362 32.4883ZM124.791 48.0049H112.141C111.757 48.0049 111.638 48.3005 111.609 48.5074C111.461 49.6305 111.402 51.2561 111.638 52.4087C111.668 52.5269 111.727 52.586 111.875 52.6452C112.821 53.0294 116.131 53.3545 118.614 53.3545C121.126 53.3545 123.697 53.2067 125.086 52.6747C125.234 52.6156 125.293 52.5565 125.323 52.32C125.53 51.1969 125.5 49.6009 125.352 48.5074C125.323 48.3005 125.204 48.0049 124.791 48.0049ZM126.032 54.7436C123.904 55.4234 121.037 55.5712 118.377 55.6007C115.688 55.6007 112.436 55.3643 110.9 54.7436C110.19 54.4481 109.54 53.9752 109.363 53.118C109.067 51.7585 109.156 49.0098 109.363 47.4729C109.451 46.6454 110.131 45.8474 110.9 45.8474H126.062C126.83 45.8474 127.51 46.6454 127.598 47.4729C127.805 49.0098 127.894 51.7585 127.598 53.118C127.421 53.9456 126.8 54.5072 126.032 54.7436Z" fill="#FF9C56"/>
<path d="M87.305 42.9509C87.3345 43.1283 87.3936 43.3352 87.6005 43.4534C88.5463 43.8376 90.6743 44.1627 94.0141 44.1627C96.4967 44.1627 99.1272 43.7785 101.137 43.1283C101.58 42.9509 102.29 43.2465 102.467 43.8376C102.674 44.4287 102.378 44.9903 101.994 45.1676C99.8661 46.0838 96.4672 46.3498 93.7776 46.3794C91.0881 46.3794 88.1621 46.1429 86.6252 45.5223C85.9159 45.2267 85.2656 44.7538 85.0883 43.8967C84.645 41.7687 84.7927 36.5965 85.0588 34.6754C85.2065 33.8774 85.8272 33.0794 86.5661 33.0794H100.782C101.196 33.0794 101.787 33.5227 101.787 34.1434C101.787 34.6754 101.314 35.2369 100.841 35.2369H87.7779C87.3641 35.2369 87.3641 35.5325 87.3345 35.7394C87.1868 37.2763 86.8912 40.7047 87.305 42.9509ZM83.3445 52.9407C82.7239 52.8521 82.251 52.2905 82.3396 51.6994C82.4283 51.0492 82.9899 50.6354 83.581 50.724C85.6794 50.9309 88.9601 51.0492 92.3885 51.0787V47.9163C92.3885 47.4729 92.8614 46.9114 93.5412 46.9114C94.1914 46.9114 94.8121 47.3843 94.8121 47.8867V51.0787C98.2405 51.0787 101.521 50.9605 103.59 50.724C104.24 50.6354 104.831 51.1083 104.861 51.6994C104.92 52.2905 104.418 52.8521 103.856 52.9407C100.428 53.3841 87.3345 53.5023 83.3445 52.9407Z" fill="#FF9C56"/>
<path d="M66.6207 37.9856H61.0347C61.0347 38.9905 61.0938 39.9658 61.2416 40.7343C61.2711 40.9116 61.3303 41.1185 61.5963 41.2663C62.01 41.5323 63.2514 41.8278 64.8769 41.8278C66.8572 41.8278 67.6847 41.5323 68.2167 41.2663C68.4236 41.148 68.5123 41.0889 68.5418 40.882C68.926 38.7836 68.7783 35.0892 68.4827 32.7543C68.394 32.1632 68.926 31.6016 69.5467 31.5129C70.1674 31.4538 70.7585 31.838 70.8767 32.3996C71.0836 33.5818 71.3791 38.2812 70.9063 41.1776C70.788 41.946 70.4925 42.6258 69.6945 43.0692C68.5714 43.6898 66.7685 44.0445 64.8769 44.0445C62.8671 44.0445 60.9165 43.5716 60.0889 43.0692C59.4387 42.6849 59.1136 42.212 58.9067 41.1776C58.5225 39.0792 58.6703 34.5572 58.9363 32.4292C59.0249 31.838 59.6456 31.4538 60.2367 31.5129C60.9165 31.6016 61.3894 32.1632 61.3303 32.7543C61.212 33.4932 61.1234 34.5867 61.0643 35.7985H66.5912C67.0345 35.7985 67.596 36.2714 67.596 36.892C67.596 37.424 67.1232 37.9856 66.6207 37.9856ZM78.2952 32.4883C78.4429 33.8478 78.5316 35.3552 78.5316 36.9216H80.9551C81.3985 36.9216 81.96 37.3945 81.96 38.0152C81.96 38.5472 81.4872 39.1087 80.9847 39.1087H78.5316C78.502 40.6752 78.4134 42.212 78.2952 43.5125C78.2656 44.1036 77.5563 44.5174 76.9652 44.4583C76.3445 44.4287 75.8716 43.9263 75.9011 43.3056C76.1967 39.6703 76.1671 36.3896 75.9011 32.6952C75.8716 32.0745 76.3149 31.6312 76.9356 31.5425C77.5563 31.4834 78.2065 31.838 78.2952 32.4883ZM63.1331 46.4976C63.0445 47.0887 62.9263 47.7094 62.8671 48.3301H73.98C74.5416 48.3301 74.9849 48.8029 74.9849 49.4236C74.9849 49.9556 74.6303 50.5172 74.0096 50.5172H62.7489C62.7785 51.1378 62.8376 51.7881 62.9558 52.4087C62.9854 52.5269 63.0149 52.6156 63.2218 52.7043C64.1972 53.118 67.0345 53.3545 69.6945 53.3545C72.5909 53.3545 74.8667 53.118 75.9603 52.6747C76.108 52.6156 76.1967 52.5269 76.2263 52.32C76.4923 50.6058 76.4036 48.7734 76.0194 46.8227C75.9012 46.202 76.374 45.6109 77.0243 45.5223C77.6449 45.4336 78.2065 45.8474 78.3247 46.4089C78.768 48.3892 78.9158 51.1969 78.4725 53.118C78.2656 54.0047 77.6745 54.4481 76.9652 54.7436C75.5169 55.3643 72.384 55.6007 69.5467 55.6007C66.5025 55.6007 63.606 55.2756 62.2465 54.7436C61.5371 54.4776 61.0051 54.1525 60.68 53.1476C60.2958 51.8472 60.3254 48.4187 60.7983 46.1134C60.9165 45.5518 61.478 45.1381 62.0691 45.2267C62.7489 45.3154 63.2514 45.8769 63.1331 46.4976Z" fill="#FF9C56"/>
<path d="M47.0607 34.0843H42.3614V34.5867C42.3614 38.9314 39.3467 42.4189 35.3271 43.6898C34.7656 43.8672 34.1154 43.6012 33.8789 43.0692C33.6425 42.5076 33.9676 41.7983 34.4996 41.6209C38.0463 40.2614 39.9378 38.0447 39.9378 34.6458V34.0843H35.2385C34.7656 34.0843 34.2631 33.5227 34.2631 32.9907C34.2631 32.4587 34.736 31.8972 35.2089 31.8972H47.0311C47.4745 31.8972 48.036 32.3701 48.036 32.9907C48.036 33.5227 47.5631 34.0843 47.0607 34.0843ZM44.3416 38.1925L48.2429 41.5914C48.7158 42.0347 48.6863 42.8032 48.2725 43.2465C47.8291 43.7194 47.1198 43.7194 46.5878 43.2465L42.6865 39.8772C42.2727 39.5225 42.184 38.7245 42.6865 38.222C43.1003 37.8083 43.8687 37.7787 44.3416 38.1925ZM55.0703 32.4883C55.4545 35.7985 55.3658 40.2614 55.0703 43.5125C55.0407 44.1036 54.3314 44.5174 53.7403 44.4583C53.1196 44.4287 52.6467 43.9263 52.6763 43.3056C52.9718 39.6703 52.9423 36.3896 52.6763 32.6952C52.6467 32.0745 53.09 31.6312 53.7107 31.5425C54.3314 31.4834 54.9816 31.838 55.0703 32.4883ZM39.7605 46.4976C39.6423 47.0887 39.5536 47.7094 39.4945 48.3301H50.6074C51.1689 48.3301 51.6123 48.8029 51.6123 49.4236C51.6123 49.9556 51.2576 50.5172 50.6369 50.5172H39.4058C39.4058 51.1378 39.4649 51.7881 39.5831 52.4087C39.6127 52.5269 39.6423 52.6156 39.8491 52.7043C40.8245 53.118 43.6618 53.3545 46.3218 53.3545C49.2183 53.3545 51.494 53.118 52.5876 52.6747C52.7354 52.6156 52.824 52.5269 52.8536 52.32C53.1196 50.6058 53.0309 48.7734 52.6467 46.8227C52.5285 46.202 53.0014 45.6109 53.6516 45.5223C54.2723 45.4336 54.8338 45.8474 54.952 46.4089C55.3954 48.3892 55.5431 51.1969 55.0998 53.118C54.8929 54.0047 54.3018 54.4481 53.5925 54.7436C52.1443 55.3643 49.0114 55.6007 46.174 55.6007C43.1298 55.6007 40.2334 55.2756 38.8738 54.7436C38.1645 54.4776 37.6325 54.1525 37.3074 53.1476C36.9231 51.8472 36.9527 48.4187 37.4256 46.1134C37.5438 45.5518 38.1054 45.1381 38.6965 45.2267C39.3763 45.3154 39.8787 45.8769 39.7605 46.4976Z" fill="#FF9C56"/>
<path fill-rule="evenodd" clip-rule="evenodd" d="M72.6669 10.5556C72.6669 9.69645 73.3633 9 74.2225 9H89.5634C90.4226 9 91.119 9.69645 91.119 10.5556C91.119 11.4147 90.4226 12.1111 89.5634 12.1111H74.2225C73.3633 12.1111 72.6669 11.4147 72.6669 10.5556Z" fill="#FF9C56"/>
<path fill-rule="evenodd" clip-rule="evenodd" d="M12 36.6053C12 35.7462 12.6964 35.0498 13.5556 35.0498H22.2095C23.9425 35.0498 25.3384 36.458 25.3384 38.1841V47.6567C25.3384 55.5219 31.6915 61.8889 39.5172 61.8889H124.483C132.309 61.8889 138.662 55.5219 138.662 47.6567V38.1609C138.662 36.4426 140.054 35.0498 141.773 35.0498H150.444C151.304 35.0498 152 35.7462 152 36.6053C152 37.4644 151.304 38.1609 150.444 38.1609H141.773V47.6567C141.773 57.2302 134.037 65 124.483 65H39.5172C29.9633 65 22.2273 57.2302 22.2273 47.6567V38.1841C22.2273 38.1801 22.2267 38.1767 22.2267 38.1767L22.2258 38.1738C22.225 38.1718 22.2232 38.1688 22.2202 38.1658C22.2172 38.1628 22.2142 38.1613 22.2142 38.1613C22.2142 38.1613 22.2123 38.1609 22.2095 38.1609H13.5556C12.6964 38.1609 12 37.4644 12 36.6053Z" fill="#FF9C56"/>
</svg>
