<svg width="440" height="338" viewBox="0 0 440 338" fill="none" xmlns="http://www.w3.org/2000/svg">
<path d="M261.904 268.804C261.368 263.053 265.595 257.951 271.345 257.408L427.646 242.651C433.397 242.108 438.493 246.33 439.029 252.081V252.081C439.566 257.832 435.339 262.934 429.588 263.477L273.287 278.234C267.537 278.777 262.44 274.555 261.904 268.804V268.804Z" fill="#484242"/>
<path d="M62.8941 293.564C61.4581 286.032 66.8209 278.892 74.4559 278.171L281.718 258.603C289.362 257.881 295.956 263.907 295.923 271.586L295.915 273.67C295.816 297.266 277.885 316.983 254.406 319.311L113.066 333.327C89.3913 335.675 67.8538 319.581 63.3991 296.213L62.8941 293.564Z" fill="#484242"/>
<path fill-rule="evenodd" clip-rule="evenodd" d="M144.305 117.714V117.714C143.312 113.191 143.946 107.979 146.885 104.391C153.889 95.8415 157.053 84.2521 154.493 72.5939C150.075 52.4786 130.289 39.7756 110.3 44.2211V44.2211C104.694 45.4679 98.4003 43.3949 94.7126 39.0003C85.6776 28.2333 71.1582 22.7486 56.5351 26.0007C35.5381 30.6704 22.2783 51.5847 26.9187 72.7143V72.7143C27.5901 75.7717 26.9497 79.0149 25.0879 81.5363C17.653 91.6049 14.4074 104.178 17.1567 116.697C22.5023 141.038 48.487 155.955 75.1952 150.016C78.4428 149.293 81.5516 148.296 84.4977 147.057C95.8119 142.3 117.048 144.482 129.023 141.818V141.818C139.858 139.409 146.7 128.617 144.305 117.714Z" fill="white"/>
<path d="M258.033 28.1797C260.448 19.9357 272.126 19.9357 274.541 28.1797V28.1797C276.085 33.4527 282.111 35.9447 286.929 33.3037V33.3037C294.45 29.1808 302.655 37.5076 298.572 45.0508V45.0508C295.955 49.885 298.43 55.9421 303.7 57.5053V57.5053C311.959 59.9548 311.959 71.6524 303.7 74.1019V74.1019C298.43 75.665 295.955 81.7222 298.572 86.5564V86.5564C302.655 94.0996 294.45 102.426 286.929 98.3035V98.3035C282.111 95.6625 276.085 98.1545 274.541 103.427V103.427C272.126 111.672 260.448 111.672 258.033 103.427V103.427C256.489 98.1545 250.463 95.6625 245.645 98.3035V98.3035C238.123 102.426 229.918 94.0996 234.001 86.5564V86.5564C236.618 81.7222 234.143 75.665 228.873 74.1019V74.1019C220.615 71.6524 220.615 59.9548 228.873 57.5053V57.5053C234.143 55.9421 236.618 49.885 234.001 45.0508V45.0508C229.918 37.5076 238.123 29.1808 245.645 33.3037V33.3037C250.463 35.9447 256.489 33.4526 258.033 28.1797V28.1797Z" fill="#89C0FF"/>
<path d="M226.075 152.157L212.018 225.676L155.777 176.666L226.075 152.157Z" fill="#43A574"/>
<ellipse cx="144.367" cy="100.353" rx="23.5219" ry="23.6703" fill="#FFAF71"/>
<path fill-rule="evenodd" clip-rule="evenodd" d="M99.2409 199.605C99.2408 199.605 99.2406 199.605 99.2405 199.606C90.6785 209.437 91.6576 224.392 101.428 233.008C111.197 241.624 126.058 240.639 134.62 230.807C134.621 230.807 134.621 230.807 134.621 230.807L99.2409 199.605Z" fill="#89C0FF"/>
<path d="M318.153 137.1L326.539 159.906L349.201 168.344L326.539 176.783L318.153 199.589L309.767 176.783L287.104 168.344L309.767 159.906L318.153 137.1Z" fill="#FF9098"/>
</svg>
