<svg width="132" height="64" viewBox="0 0 132 64" fill="none" xmlns="http://www.w3.org/2000/svg">
<g id="Logo/1">
<g id="Vector">
<path fill-rule="evenodd" clip-rule="evenodd" d="M22.0522 22.5841L22.0528 22.5837L22.0578 22.5808L22.0859 22.5646C22.1123 22.5496 22.1541 22.5259 22.211 22.4943C22.3249 22.431 22.4997 22.3359 22.7345 22.2134C23.2042 21.9683 23.914 21.6138 24.8572 21.1862C26.7438 20.3308 29.5636 19.183 33.2635 18.0328C40.6625 15.7326 51.5823 13.4222 65.5996 13.4222C79.6169 13.4222 90.5367 15.7326 97.9357 18.0328C101.636 19.183 104.455 20.3308 106.342 21.1862C107.285 21.6138 107.995 21.9683 108.465 22.2134C108.7 22.3359 108.874 22.431 108.988 22.4943C109.045 22.5259 109.087 22.5496 109.113 22.5646L109.141 22.5808L109.146 22.5837L109.147 22.5841C109.739 22.932 110.502 22.7342 110.85 22.1421C111.198 21.5497 111.001 20.7869 110.408 20.4385L110.407 20.4379L110.402 20.4349L110.39 20.4279L110.349 20.404C110.313 20.3838 110.263 20.355 110.196 20.3183C110.064 20.2448 109.87 20.1394 109.616 20.0068C109.107 19.7414 108.356 19.3667 107.37 18.9194C105.397 18.0247 102.48 16.8392 98.6746 15.6561C91.0625 13.2896 79.8934 10.9333 65.5996 10.9333C51.3058 10.9333 40.1367 13.2896 32.5246 15.6561C28.7189 16.8392 25.8027 18.0247 23.8295 18.9194C22.8429 19.3667 22.0919 19.7414 21.5833 20.0068C21.3289 20.1394 21.1352 20.2448 21.0029 20.3183C20.9367 20.355 20.8859 20.3838 20.8505 20.404L20.8091 20.4279L20.7971 20.4349L20.7919 20.4379C20.7919 20.4379 20.7909 20.4385 21.4218 21.5111L20.7909 20.4385C20.1985 20.7869 20.0007 21.5497 20.3492 22.1421C20.6975 22.7343 21.4598 22.9321 22.0522 22.5841Z" fill="#C4C3BE"/>
<path d="M93.5664 25.5177C94.985 25.5177 95.6944 26.5817 95.6944 27.6694C95.6944 32.4928 91.6512 34.9282 86.7331 35.2356C86.2602 35.2592 85.7637 34.8573 85.7401 34.4317C85.6691 34.0534 86.0711 33.4623 86.5676 33.4386C90.5162 33.1312 93.6373 31.4761 93.8028 28.1423C93.8028 27.6221 93.7792 27.2674 92.6679 27.2674H86.6622C86.3075 27.2674 85.9056 26.8182 85.9056 26.3926C85.9056 25.967 86.2839 25.5177 86.6858 25.5177H93.5664ZM101.889 25.9906C102.007 27.0783 102.078 28.2841 102.078 29.5373H104.017C104.372 29.5373 104.821 29.9156 104.821 30.4121C104.821 30.8377 104.443 31.287 104.041 31.287H102.078C102.055 32.5401 101.984 33.7696 101.889 34.81C101.866 35.2829 101.298 35.6139 100.825 35.5666C100.329 35.543 99.9504 35.141 99.974 34.6445C100.21 31.7362 100.187 29.1117 99.974 26.1561C99.9504 25.6596 100.305 25.3049 100.802 25.234C101.298 25.1867 101.818 25.4704 101.889 25.9906ZM99.8321 38.4039H89.7123C89.4049 38.4039 89.3104 38.6404 89.2867 38.8059C89.1685 39.7044 89.1212 41.0048 89.3104 41.927C89.334 42.0215 89.3813 42.0688 89.4995 42.1161C90.2561 42.4235 92.9043 42.6836 94.8904 42.6836C96.9002 42.6836 98.9573 42.5654 100.069 42.1398C100.187 42.0925 100.234 42.0452 100.258 41.856C100.423 40.9575 100.4 39.6807 100.281 38.8059C100.258 38.6404 100.163 38.4039 99.8321 38.4039ZM100.825 43.7949C99.1228 44.3387 96.8293 44.4569 94.7013 44.4806C92.5497 44.4806 89.9488 44.2914 88.7193 43.7949C88.1518 43.5584 87.6316 43.1801 87.4897 42.4944C87.2533 41.4068 87.3242 39.2079 87.4897 37.9783C87.5607 37.3163 88.1045 36.6779 88.7193 36.6779H100.849C101.464 36.6779 102.007 37.3163 102.078 37.9783C102.244 39.2079 102.315 41.4068 102.078 42.4944C101.936 43.1565 101.44 43.6057 100.825 43.7949Z" fill="#C4C3BE"/>
<path d="M69.8436 34.3607C69.8672 34.5026 69.9145 34.6681 70.08 34.7627C70.8367 35.0701 72.5391 35.3302 75.2109 35.3302C77.197 35.3302 79.3014 35.0228 80.9092 34.5026C81.2639 34.3607 81.8313 34.5972 81.9732 35.0701C82.1387 35.543 81.9023 35.9922 81.5949 36.1341C79.8925 36.8671 77.1734 37.0799 75.0217 37.1035C72.8701 37.1035 70.5293 36.9143 69.2998 36.4178C68.7323 36.1814 68.2121 35.8031 68.0703 35.1174C67.7156 33.415 67.8338 29.2772 68.0466 27.7403C68.1648 27.1019 68.6614 26.4635 69.2525 26.4635H80.6255C80.9565 26.4635 81.4294 26.8182 81.4294 27.3147C81.4294 27.7403 81.0511 28.1895 80.6727 28.1895H70.2219C69.8909 28.1895 69.8909 28.426 69.8672 28.5915C69.749 29.821 69.5126 32.5638 69.8436 34.3607ZM66.6752 42.3526C66.1787 42.2816 65.8004 41.8324 65.8713 41.3595C65.9423 40.8393 66.3915 40.5083 66.8644 40.5792C68.5431 40.7447 71.1677 40.8393 73.9104 40.863V38.333C73.9104 37.9783 74.2887 37.5291 74.8326 37.5291C75.3527 37.5291 75.8493 37.9074 75.8493 38.3094V40.863C78.592 40.863 81.2166 40.7684 82.8717 40.5792C83.3919 40.5083 83.8647 40.8866 83.8884 41.3595C83.9357 41.8324 83.5337 42.2816 83.0845 42.3526C80.3417 42.7072 69.8672 42.8018 66.6752 42.3526Z" fill="#C4C3BE"/>
<path d="M53.2962 30.3885H48.8274C48.8274 31.1924 48.8747 31.9727 48.9929 32.5874C49.0165 32.7293 49.0638 32.8948 49.2766 33.013C49.6076 33.2258 50.6007 33.4623 51.9012 33.4623C53.4853 33.4623 54.1474 33.2258 54.573 33.013C54.7385 32.9184 54.8094 32.8711 54.8331 32.7056C55.1404 31.0269 55.0222 28.0713 54.7858 26.2034C54.7148 25.7305 55.1404 25.2813 55.637 25.2103C56.1335 25.1631 56.6064 25.4704 56.701 25.9197C56.8665 26.8655 57.1029 30.6249 56.7246 32.9421C56.63 33.5568 56.3936 34.1007 55.7552 34.4553C54.8567 34.9519 53.4144 35.2356 51.9012 35.2356C50.2933 35.2356 48.7328 34.8573 48.0708 34.4553C47.5506 34.1479 47.2905 33.7696 47.125 32.9421C46.8176 31.2633 46.9358 27.6457 47.1486 25.9433C47.2196 25.4704 47.7161 25.1631 48.189 25.2103C48.7328 25.2813 49.1111 25.7305 49.0638 26.2034C48.9692 26.7945 48.8983 27.6694 48.851 28.6388H53.2725C53.6272 28.6388 54.0764 29.0171 54.0764 29.5136C54.0764 29.9392 53.6981 30.3885 53.2962 30.3885ZM62.6357 25.9906C62.754 27.0783 62.8249 28.2841 62.8249 29.5373H64.7637C65.1184 29.5373 65.5676 29.9156 65.5676 30.4121C65.5676 30.8377 65.1893 31.287 64.7874 31.287H62.8249C62.8012 32.5401 62.7303 33.7696 62.6357 34.81C62.6121 35.2829 62.0446 35.6139 61.5717 35.5666C61.0752 35.543 60.6969 35.141 60.7205 34.6445C60.957 31.7362 60.9333 29.1117 60.7205 26.1561C60.6969 25.6596 61.0516 25.3049 61.5481 25.234C62.0446 25.1867 62.5648 25.4704 62.6357 25.9906ZM50.5061 37.1981C50.4352 37.671 50.3406 38.1675 50.2933 38.664H59.1836C59.6329 38.664 59.9876 39.0423 59.9876 39.5389C59.9876 39.9645 59.7038 40.4137 59.2073 40.4137H50.1988C50.2224 40.9103 50.2697 41.4304 50.3643 41.927C50.3879 42.0215 50.4116 42.0925 50.5771 42.1634C51.3573 42.4944 53.6272 42.6836 55.7552 42.6836C58.0724 42.6836 59.893 42.4944 60.7678 42.1398C60.886 42.0925 60.957 42.0215 60.9806 41.856C61.1934 40.4847 61.1225 39.0187 60.8151 37.4582C60.7205 36.9616 61.0988 36.4887 61.619 36.4178C62.1156 36.3469 62.5648 36.6779 62.6594 37.1271C63.014 38.7113 63.1323 40.9575 62.7776 42.4944C62.6121 43.2038 62.1392 43.5584 61.5717 43.7949C60.4132 44.2914 57.9068 44.4806 55.637 44.4806C53.2016 44.4806 50.8844 44.2205 49.7968 43.7949C49.2293 43.5821 48.8037 43.322 48.5436 42.5181C48.2363 41.4777 48.2599 38.735 48.6382 36.8907C48.7328 36.4415 49.182 36.1104 49.6549 36.1814C50.1987 36.2523 50.6007 36.7015 50.5061 37.1981Z" fill="#C4C3BE"/>
<path d="M37.6482 27.2674H33.8887V27.6694C33.8887 31.1451 31.477 33.9351 28.2613 34.9519C27.8121 35.0937 27.2919 34.8809 27.1027 34.4553C26.9136 34.0061 27.1737 33.4386 27.5993 33.2967C30.4366 32.2091 31.9499 30.4358 31.9499 27.7167V27.2674H28.1904C27.8121 27.2674 27.4101 26.8182 27.4101 26.3926C27.4101 25.967 27.7884 25.5177 28.1667 25.5177H37.6245C37.9792 25.5177 38.4284 25.896 38.4284 26.3926C38.4284 26.8182 38.0501 27.2674 37.6482 27.2674ZM35.4729 30.554L38.594 33.2731C38.9723 33.6278 38.9486 34.2425 38.6176 34.5972C38.2629 34.9755 37.6955 34.9755 37.2699 34.5972L34.1488 31.9017C33.8178 31.618 33.7468 30.9796 34.1488 30.5776C34.4798 30.2466 35.0946 30.223 35.4729 30.554ZM44.0558 25.9906C44.3632 28.6388 44.2923 32.2091 44.0558 34.81C44.0322 35.2829 43.4647 35.6139 42.9918 35.5666C42.4953 35.543 42.117 35.141 42.1406 34.6445C42.3771 31.7362 42.3534 29.1117 42.1406 26.1561C42.117 25.6596 42.4716 25.3049 42.9682 25.234C43.4647 25.1867 43.9849 25.4704 44.0558 25.9906ZM31.808 37.1981C31.7134 37.671 31.6425 38.1675 31.5952 38.664H40.4855C40.9347 38.664 41.2894 39.0423 41.2894 39.5389C41.2894 39.9645 41.0057 40.4137 40.5091 40.4137H31.5243C31.5243 40.9103 31.5715 41.4304 31.6661 41.927C31.6898 42.0215 31.7134 42.0925 31.8789 42.1634C32.6592 42.4944 34.9291 42.6836 37.0571 42.6836C39.3742 42.6836 41.1948 42.4944 42.0697 42.1398C42.1879 42.0925 42.2588 42.0215 42.2825 41.856C42.4953 40.4847 42.4244 39.0187 42.117 37.4582C42.0224 36.9616 42.4007 36.4887 42.9209 36.4178C43.4174 36.3469 43.8667 36.6779 43.9612 37.1271C44.3159 38.7113 44.4341 40.9575 44.0795 42.4944C43.914 43.2038 43.4411 43.5584 42.8736 43.7949C41.715 44.2914 39.2087 44.4806 36.9388 44.4806C34.5035 44.4806 32.1863 44.2205 31.0987 43.7949C30.5312 43.5821 30.1056 43.322 29.8455 42.5181C29.5381 41.4777 29.5618 38.735 29.9401 36.8907C30.0347 36.4415 30.4839 36.1104 30.9568 36.1814C31.5006 36.2523 31.9026 36.7015 31.808 37.1981Z" fill="#C4C3BE"/>
<path fill-rule="evenodd" clip-rule="evenodd" d="M58.1331 8.44444C58.1331 7.75715 58.6903 7.2 59.3776 7.2H71.6504C72.3377 7.2 72.8948 7.75715 72.8948 8.44444C72.8948 9.13173 72.3377 9.68889 71.6504 9.68889H59.3776C58.6903 9.68889 58.1331 9.13173 58.1331 8.44444Z" fill="#C4C3BE"/>
<path fill-rule="evenodd" clip-rule="evenodd" d="M9.59961 29.2842C9.59961 28.597 10.1568 28.0398 10.8441 28.0398H17.7672C19.1536 28.0398 20.2704 29.1664 20.2704 30.5473V38.1254C20.2704 44.4175 25.3528 49.5111 31.6134 49.5111H99.5858C105.846 49.5111 110.929 44.4175 110.929 38.1254V30.5287C110.929 29.1541 112.043 28.0398 113.418 28.0398H120.355C121.042 28.0398 121.6 28.597 121.6 29.2842C121.6 29.9715 121.042 30.5287 120.355 30.5287H113.418V38.1254C113.418 45.7841 107.229 52 99.5858 52H31.6134C23.9703 52 17.7815 45.7841 17.7815 38.1254V30.5473C17.7815 30.5441 17.781 30.5414 17.781 30.5414L17.7803 30.539C17.7796 30.5374 17.7782 30.535 17.7758 30.5326C17.7734 30.5302 17.771 30.529 17.771 30.529C17.771 30.529 17.7695 30.5287 17.7672 30.5287H10.8441C10.1568 30.5287 9.59961 29.9715 9.59961 29.2842Z" fill="#C4C3BE"/>
</g>
</g>
</svg>
