<svg width="79" height="20" viewBox="0 0 79 20" fill="none" xmlns="http://www.w3.org/2000/svg">
<path d="M67.5411 0.591967C68.9755 0.591967 69.6927 1.66538 69.6927 2.76264C69.6927 7.62877 65.6047 10.0857 60.6321 10.3958C60.154 10.4196 59.6519 10.0141 59.628 9.58476C59.5563 9.2031 59.9627 8.60676 60.4648 8.58291C64.4572 8.27281 67.6128 6.60307 67.7802 3.23971C67.7802 2.71493 67.7563 2.35713 66.6327 2.35713H60.5604C60.2018 2.35713 59.7954 1.90391 59.7954 1.47455C59.7954 1.04518 60.1779 0.591967 60.5843 0.591967H67.5411ZM75.9562 1.06904C76.0757 2.1663 76.1475 3.38283 76.1475 4.64707H78.1078C78.4664 4.64707 78.9206 5.02873 78.9206 5.52965C78.9206 5.95902 78.5381 6.41224 78.1317 6.41224H76.1475C76.1236 7.67648 76.0518 8.91686 75.9562 9.96642C75.9323 10.4435 75.3585 10.7774 74.8804 10.7297C74.3784 10.7059 73.9959 10.3004 74.0198 9.79944C74.2589 6.86545 74.2349 4.21771 74.0198 1.23601C73.9959 0.735088 74.3545 0.377285 74.8565 0.305724C75.3585 0.258016 75.8845 0.544259 75.9562 1.06904ZM73.8763 13.5922H63.6443C63.3336 13.5922 63.2379 13.8307 63.214 13.9977C63.0945 14.9041 63.0467 16.2161 63.2379 17.1463C63.2618 17.2418 63.3096 17.2895 63.4292 17.3372C64.1942 17.6473 66.8717 17.9097 68.8799 17.9097C70.9119 17.9097 72.9918 17.7904 74.1154 17.361C74.2349 17.3133 74.2827 17.2656 74.3067 17.0748C74.474 16.1683 74.4501 14.8803 74.3306 13.9977C74.3067 13.8307 74.211 13.5922 73.8763 13.5922ZM74.8804 19.0308C73.1591 19.5794 70.8402 19.6987 68.6886 19.7225C66.5131 19.7225 63.8834 19.5317 62.6403 19.0308C62.0665 18.7922 61.5406 18.4106 61.3971 17.7188C61.1581 16.6216 61.2298 14.4032 61.3971 13.1628C61.4688 12.4949 62.0187 11.8508 62.6403 11.8508H74.9043C75.5259 11.8508 76.0757 12.4949 76.1475 13.1628C76.3148 14.4032 76.3865 16.6216 76.1475 17.7188C76.004 18.3867 75.502 18.8399 74.8804 19.0308Z" fill="#FF9143"/>
<path d="M43.5547 9.51331C43.5786 9.65643 43.6264 9.82341 43.7938 9.91882C44.5588 10.2289 46.2801 10.4913 48.9815 10.4913C50.9896 10.4913 53.1173 10.1812 54.743 9.65643C55.1016 9.51331 55.6753 9.75185 55.8188 10.2289C55.9861 10.706 55.7471 11.1592 55.4363 11.3023C53.715 12.0418 50.9657 12.2565 48.7902 12.2803C46.6147 12.2803 44.248 12.0895 43.0049 11.5886C42.4311 11.35 41.9052 10.9684 41.7617 10.2766C41.4031 8.55917 41.5227 4.38479 41.7378 2.83431C41.8573 2.19027 42.3594 1.54622 42.9571 1.54622H54.4561C54.7908 1.54622 55.2689 1.90402 55.2689 2.40495C55.2689 2.83431 54.8864 3.28753 54.5039 3.28753H43.9372C43.6025 3.28753 43.6025 3.52607 43.5786 3.69304C43.4591 4.93343 43.22 7.70044 43.5547 9.51331ZM40.3512 17.5758C39.8492 17.5043 39.4667 17.051 39.5384 16.574C39.6101 16.0492 40.0644 15.7152 40.5425 15.7868C42.2398 15.9538 44.8935 16.0492 47.6666 16.073V13.5207C47.6666 13.1629 48.0491 12.7097 48.599 12.7097C49.1249 12.7097 49.627 13.0913 49.627 13.4969V16.073C52.4001 16.073 55.0538 15.9776 56.7272 15.7868C57.2532 15.7152 57.7313 16.0969 57.7552 16.574C57.803 17.051 57.3966 17.5043 56.9424 17.5758C54.1692 17.9336 43.5786 18.029 40.3512 17.5758Z" fill="#FF9143"/>
<path d="M26.8241 5.50605H22.3058C22.3058 6.31707 22.3536 7.10424 22.4731 7.72443C22.497 7.86755 22.5448 8.03453 22.76 8.15379C23.0947 8.36848 24.0988 8.60701 25.4136 8.60701C27.0154 8.60701 27.6847 8.36848 28.1151 8.15379C28.2824 8.05838 28.3541 8.01067 28.378 7.8437C28.6888 6.1501 28.5693 3.1684 28.3302 1.28397C28.2585 0.806896 28.6888 0.353679 29.1909 0.282119C29.6929 0.234411 30.171 0.544508 30.2667 0.997725C30.434 1.95187 30.6731 5.74459 30.2906 8.08223C30.1949 8.70243 29.9559 9.25106 29.3104 9.60886C28.4019 10.1098 26.9436 10.396 25.4136 10.396C23.788 10.396 22.2101 10.0144 21.5408 9.60886C21.0148 9.29877 20.7518 8.91711 20.5845 8.08223C20.2737 6.38863 20.3932 2.73904 20.6084 1.02158C20.6801 0.544508 21.1822 0.234411 21.6603 0.282119C22.2101 0.353679 22.5926 0.806896 22.5448 1.28397C22.4492 1.88031 22.3775 2.76289 22.3297 3.74089H26.8002C27.1588 3.74089 27.613 4.12254 27.613 4.62347C27.613 5.05283 27.2305 5.50605 26.8241 5.50605ZM36.2672 1.06929C36.3867 2.16655 36.4584 3.38308 36.4584 4.64732H38.4188C38.7774 4.64732 39.2316 5.02898 39.2316 5.5299C39.2316 5.95927 38.8491 6.41249 38.4427 6.41249H36.4584C36.4345 7.67672 36.3628 8.91711 36.2672 9.96667C36.2433 10.4437 35.6695 10.7777 35.1914 10.73C34.6894 10.7061 34.3069 10.3006 34.3308 9.79969C34.5698 6.8657 34.5459 4.21796 34.3308 1.23626C34.3069 0.735337 34.6654 0.377534 35.1675 0.305973C35.6695 0.258265 36.1955 0.544508 36.2672 1.06929ZM24.0031 12.3759C23.9314 12.8529 23.8358 13.3539 23.788 13.8548H32.7768C33.2311 13.8548 33.5897 14.2365 33.5897 14.7374C33.5897 15.1667 33.3028 15.62 32.8008 15.62H23.6924C23.7163 16.1209 23.7641 16.6457 23.8597 17.1466C23.8836 17.242 23.9075 17.3136 24.0749 17.3851C24.8638 17.7191 27.1588 17.9099 29.3104 17.9099C31.6532 17.9099 33.494 17.7191 34.3786 17.3613C34.4981 17.3136 34.5698 17.242 34.5937 17.075C34.8089 15.6915 34.7372 14.2126 34.4264 12.6383C34.3308 12.1373 34.7133 11.6603 35.2392 11.5887C35.7413 11.5171 36.1955 11.8511 36.2911 12.3043C36.6497 13.9025 36.7692 16.1686 36.4106 17.7191C36.2433 18.4347 35.7652 18.7925 35.1914 19.031C34.02 19.5319 31.4859 19.7228 29.1909 19.7228C26.7285 19.7228 24.3856 19.4604 23.2859 19.031C22.7122 18.8163 22.2819 18.5539 22.0189 17.7429C21.7081 16.6934 21.732 13.9264 22.1145 12.0658C22.2101 11.6126 22.6644 11.2786 23.1425 11.3502C23.6924 11.4217 24.0988 11.875 24.0031 12.3759Z" fill="#FF9143"/>
<path d="M11.003 2.35713H7.2019V2.76264C7.2019 6.26912 4.76344 9.08384 1.51215 10.1095C1.05792 10.2527 0.531978 10.038 0.340726 9.60861C0.149473 9.1554 0.412442 8.58291 0.842759 8.43979C3.71155 7.34253 5.24157 5.55351 5.24157 2.81035V2.35713H1.44043C1.05792 2.35713 0.651509 1.90391 0.651509 1.47455C0.651509 1.04518 1.03401 0.591967 1.41652 0.591967H10.9791C11.3377 0.591967 11.792 0.973624 11.792 1.47455C11.792 1.90391 11.4095 2.35713 11.003 2.35713ZM8.80364 5.67278L11.9593 8.41594C12.3418 8.77374 12.3179 9.39393 11.9832 9.75174C11.6246 10.1334 11.0509 10.1334 10.6205 9.75174L7.46488 7.03243C7.13018 6.74619 7.05846 6.10214 7.46488 5.69663C7.79957 5.36268 8.42114 5.33883 8.80364 5.67278ZM17.4817 1.06904C17.7925 3.74064 17.7208 7.34253 17.4817 9.96642C17.4578 10.4435 16.8841 10.7774 16.4059 10.7297C15.9039 10.7059 15.5214 10.3004 15.5453 9.79944C15.7844 6.86545 15.7604 4.21771 15.5453 1.23601C15.5214 0.735088 15.88 0.377285 16.382 0.305724C16.8841 0.258016 17.41 0.544259 17.4817 1.06904ZM5.09813 12.3756C5.0025 12.8527 4.93078 13.3536 4.88297 13.8545H13.8718C14.3261 13.8545 14.6847 14.2362 14.6847 14.7371C14.6847 15.1665 14.3978 15.6197 13.8957 15.6197H4.81125C4.81125 16.1206 4.85906 16.6454 4.95469 17.1463C4.97859 17.2418 5.0025 17.3133 5.16985 17.3849C5.95876 17.7188 8.25379 17.9097 10.4054 17.9097C12.7482 17.9097 14.589 17.7188 15.4736 17.361C15.5931 17.3133 15.6648 17.2418 15.6887 17.0748C15.9039 15.6913 15.8322 14.2124 15.5214 12.638C15.4258 12.1371 15.8083 11.66 16.3342 11.5885C16.8362 11.5169 17.2905 11.8508 17.3861 12.3041C17.7447 13.9023 17.8642 16.1683 17.5056 17.7188C17.3383 18.4344 16.8601 18.7922 16.2864 19.0308C15.115 19.5317 12.5809 19.7225 10.2858 19.7225C7.82347 19.7225 5.48063 19.4601 4.38093 19.0308C3.80717 18.8161 3.37685 18.5537 3.11388 17.7427C2.8031 16.6931 2.827 13.9261 3.20951 12.0655C3.30513 11.6123 3.75936 11.2784 4.23749 11.3499C4.78734 11.4215 5.19375 11.8747 5.09813 12.3756Z" fill="#FF9143"/>
</svg>
