<svg width="24" height="25" viewBox="0 0 24 25" fill="none" xmlns="http://www.w3.org/2000/svg">
<g id="Image/pen">
<path id="Union" fill-rule="evenodd" clip-rule="evenodd" d="M8.21501 20.7097C8.36382 20.6607 8.49906 20.5775 8.60982 20.4668L20.5058 8.57079C21.6774 7.39921 21.6774 5.49972 20.5058 4.32814C19.3342 3.15657 17.4347 3.15657 16.2632 4.32814L16.0759 4.51546L16.0604 4.49998L14.9997 5.56064L15.0152 5.57612L4.36718 16.2241C4.25642 16.3349 4.17322 16.4701 4.1243 16.6189L2.73919 20.8325C2.48304 21.6117 3.22226 22.3509 4.00146 22.0948L8.21501 20.7097ZM6.36374 16.3489L16.0759 6.63678L18.1972 8.7581L8.48506 18.4702L6.36374 16.3489ZM5.40867 17.5151L4.47325 20.3607L7.31881 19.4253L5.40867 17.5151ZM17.3238 5.3888L17.1365 5.57612L19.2578 7.69744L19.4452 7.51013C20.0309 6.92434 20.0309 5.97459 19.4452 5.3888C18.8594 4.80302 17.9096 4.80302 17.3238 5.3888Z" fill="#121211"/>
</g>
</svg>
