<svg width="21" height="20" viewBox="0 0 21 20" fill="none" xmlns="http://www.w3.org/2000/svg">
<g id="Image/pen">
<path id="Union" fill-rule="evenodd" clip-rule="evenodd" d="M7.34649 16.8413C7.4705 16.8005 7.5832 16.7312 7.6755 16.6389L17.5888 6.72553C18.5651 5.74922 18.5651 4.16631 17.5888 3.19C16.6125 2.21369 15.0296 2.21369 14.0533 3.19L13.8972 3.34609L13.8843 3.3332L13.0004 4.21708L13.0133 4.22997L4.13997 13.1033C4.04767 13.1956 3.97834 13.3083 3.93757 13.4323L2.78331 16.9436C2.56985 17.593 3.18587 18.209 3.8352 17.9955L7.34649 16.8413ZM5.80377 13.2073L13.8972 5.11386L15.665 6.88163L7.57153 14.9751L5.80377 13.2073ZM5.00787 14.1792L4.22836 16.5505L6.59966 15.771L5.00787 14.1792ZM14.9372 4.07388L14.7811 4.22997L16.5488 5.99774L16.7049 5.84165C17.1931 5.35349 17.1931 4.56203 16.7049 4.07388C16.2168 3.58573 15.4253 3.58572 14.9372 4.07388Z" fill="#FF9143"/>
</g>
</svg>
