<svg width="21" height="21" viewBox="0 0 21 21" fill="none" xmlns="http://www.w3.org/2000/svg">
<g id="Image/pen">
<path id="Union" fill-rule="evenodd" clip-rule="evenodd" d="M7.34454 17.3413C7.46855 17.3005 7.58125 17.2312 7.67355 17.1389L17.5869 7.22553C18.5632 6.24922 18.5632 4.66631 17.5869 3.69C16.6106 2.71369 15.0277 2.71369 14.0513 3.69L13.8952 3.84609L13.8824 3.8332L12.9985 4.71708L13.0114 4.72997L4.13802 13.6033C4.04571 13.6956 3.97638 13.8083 3.93562 13.9323L2.78136 17.4436C2.5679 18.093 3.18391 18.709 3.83325 18.4955L7.34454 17.3413ZM5.80181 13.7073L13.8952 5.61386L15.663 7.38163L7.56958 15.4751L5.80181 13.7073ZM5.00592 14.6792L4.2264 17.0505L6.59771 16.271L5.00592 14.6792ZM14.9352 4.57388L14.7791 4.72997L16.5469 6.49774L16.703 6.34165C17.1911 5.85349 17.1911 5.06203 16.703 4.57388C16.2148 4.08572 15.4234 4.08572 14.9352 4.57388Z" fill="white"/>
</g>
</svg>
