<svg width="14" height="16" viewBox="0 0 14 16" fill="none" xmlns="http://www.w3.org/2000/svg">
<path fill-rule="evenodd" clip-rule="evenodd" d="M3.19087 2.09488C2.95742 2.09488 2.73353 2.18591 2.56846 2.34793C2.40338 2.50995 2.31064 2.72969 2.31064 2.95882V14.0881L6.76331 11.5908C6.97379 11.4727 7.23217 11.4727 7.44265 11.5908L11.8953 14.0881V2.95882C11.8953 2.72969 11.8026 2.50995 11.6375 2.34793C11.4724 2.18591 11.2485 2.09488 11.0151 2.09488H3.19087ZM1.60026 1.39764C2.02211 0.983588 2.59427 0.750977 3.19087 0.750977H11.0151C11.6117 0.750977 12.1838 0.983588 12.6057 1.39764C13.0276 1.81169 13.2646 2.37327 13.2646 2.95882V15.246C13.2646 15.4855 13.1346 15.7069 12.9236 15.8272C12.7125 15.9474 12.4522 15.9482 12.2403 15.8294L7.10298 12.9481L1.96569 15.8294C1.7538 15.9482 1.49347 15.9474 1.2824 15.8272C1.07132 15.7069 0.941406 15.4855 0.941406 15.246V2.95882C0.941406 2.37327 1.1784 1.81169 1.60026 1.39764Z" fill="#ABA9A5"/>
</svg>
