<svg xmlns="http://www.w3.org/2000/svg" width="24" height="24" viewBox="0 0 24 24" fill="none">
<path fill-rule="evenodd" clip-rule="evenodd" d="M7.35714 5.75C7.0532 5.75 6.76794 5.86589 6.56257 6.06248C6.35832 6.258 6.25 6.51603 6.25 6.77778V19.3132C6.25 19.5031 6.45337 19.6236 6.61998 19.5325L11.1602 17.049C11.6835 16.7627 12.3165 16.7627 12.8398 17.049L17.38 19.5325C17.5466 19.6236 17.75 19.5031 17.75 19.3132V6.77778C17.75 6.51603 17.6417 6.258 17.4374 6.06248C17.2321 5.86589 16.9468 5.75 16.6429 5.75H7.35714ZM5.52532 4.97892C6.01651 4.50871 6.676 4.25 7.35714 4.25H16.6429C17.324 4.25 17.9835 4.50871 18.4747 4.97892C18.967 5.45019 19.25 6.09654 19.25 6.77778V19.3132C19.25 20.6424 17.8264 21.4864 16.6602 20.8485L12.12 18.3649C12.0452 18.3241 11.9548 18.3241 11.88 18.3649L7.33983 20.8485C6.17363 21.4864 4.75 20.6424 4.75 19.3132V6.77778C4.75 6.09654 5.03301 5.45019 5.52532 4.97892Z" fill="#121211"/>
</svg>