<svg width="20" height="19" viewBox="0 0 20 19" fill="none" xmlns="http://www.w3.org/2000/svg">
<path fill-rule="evenodd" clip-rule="evenodd" d="M6.19233 3.09488C5.95888 3.09488 5.735 3.18591 5.56992 3.34793C5.40485 3.50995 5.31211 3.72969 5.31211 3.95882V15.0881L9.76478 12.5908C9.97525 12.4727 10.2336 12.4727 10.4441 12.5908L14.8968 15.0881V3.95882C14.8968 3.72969 14.804 3.50995 14.639 3.34793C14.4739 3.18591 14.25 3.09488 14.0166 3.09488H6.19233ZM4.60172 2.39764C5.02358 1.98359 5.59574 1.75098 6.19233 1.75098H14.0166C14.6131 1.75098 15.1853 1.98359 15.6072 2.39764C16.029 2.81169 16.266 3.37327 16.266 3.95882V16.246C16.266 16.4855 16.1361 16.7069 15.925 16.8272C15.7139 16.9474 15.4536 16.9482 15.2417 16.8294L10.1044 13.9481L4.96716 16.8294C4.75526 16.9482 4.49494 16.9474 4.28386 16.8272C4.07278 16.7069 3.94287 16.4855 3.94287 16.246V3.95882C3.94287 3.37327 4.17987 2.81169 4.60172 2.39764Z" fill="#ABA9A5"/>
</svg>
