<svg width="16" height="18" viewBox="0 0 16 18" fill="none" xmlns="http://www.w3.org/2000/svg">
<path fill-rule="evenodd" clip-rule="evenodd" d="M3.35714 1.75C3.0532 1.75 2.76794 1.86589 2.56257 2.06248C2.35832 2.258 2.25 2.51603 2.25 2.77778V15.3132C2.25 15.5031 2.45337 15.6236 2.61998 15.5325L7.16017 13.049C7.68347 12.7627 8.31653 12.7627 8.83983 13.049L13.38 15.5325C13.5466 15.6236 13.75 15.5031 13.75 15.3132V2.77778C13.75 2.51603 13.6417 2.258 13.4374 2.06248C13.2321 1.86589 12.9468 1.75 12.6429 1.75H3.35714ZM1.52532 0.978919C2.01651 0.508713 2.676 0.25 3.35714 0.25H12.6429C13.324 0.25 13.9835 0.508713 14.4747 0.978919C14.967 1.45019 15.25 2.09654 15.25 2.77778V15.3132C15.25 16.6424 13.8264 17.4864 12.6602 16.8485L8.11998 14.3649C8.04522 14.3241 7.95478 14.3241 7.88002 14.3649L3.33983 16.8485C2.17363 17.4864 0.75 16.6424 0.75 15.3132V2.77778C0.75 2.09654 1.03301 1.45019 1.52532 0.978919Z" fill="#121211"/>
</svg>
