<svg width="20" height="19" viewBox="0 0 20 19" fill="none" xmlns="http://www.w3.org/2000/svg">
<path fill-rule="evenodd" clip-rule="evenodd" d="M5.85884 3.09488C5.62539 3.09488 5.4015 3.18591 5.23643 3.34793C5.07135 3.50995 4.97861 3.72969 4.97861 3.95882V15.0881L9.43128 12.5908C9.64176 12.4727 9.90014 12.4727 10.1106 12.5908L14.5633 15.0881V3.95882C14.5633 3.72969 14.4705 3.50995 14.3055 3.34793C14.1404 3.18591 13.9165 3.09488 13.6831 3.09488H5.85884ZM4.26823 2.39764C4.69008 1.98359 5.26224 1.75098 5.85884 1.75098H13.6831C14.2797 1.75098 14.8518 1.98359 15.2737 2.39764C15.6955 2.81169 15.9325 3.37327 15.9325 3.95882V16.246C15.9325 16.4855 15.8026 16.7069 15.5915 16.8272C15.3805 16.9474 15.1201 16.9482 14.9082 16.8294L9.77095 13.9481L4.63366 16.8294C4.42177 16.9482 4.16144 16.9474 3.95037 16.8272C3.73929 16.7069 3.60938 16.4855 3.60938 16.246V3.95882C3.60938 3.37327 3.84637 2.81169 4.26823 2.39764Z" fill="#ABA9A5"/>
</svg>
