<svg width="21" height="20" viewBox="0 0 21 20" fill="none" xmlns="http://www.w3.org/2000/svg">
<path fill-rule="evenodd" clip-rule="evenodd" d="M7.34454 16.8413C7.46855 16.8005 7.58125 16.7312 7.67355 16.6389L17.5869 6.72553C18.5632 5.74922 18.5632 4.16631 17.5869 3.19C16.6106 2.21369 15.0277 2.21369 14.0513 3.19L13.8952 3.34609L13.8824 3.3332L12.9985 4.21708L13.0114 4.22997L4.13802 13.1033C4.04571 13.1956 3.97638 13.3083 3.93562 13.4323L2.78136 16.9436C2.5679 17.593 3.18391 18.209 3.83325 17.9955L7.34454 16.8413ZM5.80181 13.2073L13.8952 5.11386L15.663 6.88163L7.56958 14.9751L5.80181 13.2073ZM5.00592 14.1792L4.2264 16.5505L6.59771 15.771L5.00592 14.1792ZM14.9352 4.07388L14.7791 4.22997L16.5469 5.99774L16.703 5.84165C17.1911 5.35349 17.1911 4.56203 16.703 4.07388C16.2148 3.58572 15.4234 3.58572 14.9352 4.07388Z" fill="white"/>
</svg>
