<svg width="548" height="152" viewBox="0 0 548 152" fill="none" xmlns="http://www.w3.org/2000/svg">
<rect width="548" height="152" rx="24" fill="#F6F5F4"/>
<path d="M36.7539 32.6406C36.7363 36.7363 34.0469 39.6016 29.4238 40.9023L28.6328 39.373C32.1924 38.3975 34.3018 36.543 34.6621 34.2227H29.4941V32.6406H36.7539ZM41.834 31.6914V40.6387H39.8828V37.1758H36.8242V35.5762H39.8828V31.6914H41.834ZM41.834 41.2715V47.3535H31.375V41.2715H41.834ZM33.291 42.8184V45.8066H39.9004V42.8184H33.291ZM49.041 34.5566C49.041 36.332 50.0254 38.0898 52.1172 38.916L51.0625 40.4102C49.665 39.8477 48.6895 38.8105 48.127 37.5273C47.5293 38.9688 46.4922 40.1816 44.9805 40.832L43.9434 39.3203C46.123 38.3535 47.1426 36.3496 47.1602 34.5566V32.623H49.041V34.5566ZM57.6719 31.6914V41.3066H55.8086V37.2637H54.2266V41.2188H52.3984V31.9551H54.2266V35.6465H55.8086V31.6914H57.6719ZM57.6719 42.0625V47.5645H55.7207V43.627H46.791V42.0625H57.6719ZM64 35.1895V33.2734H74.1426V35.1895H70.2227V46H67.9375V35.1895H64ZM75.8301 46V36.4551H78.0801V46H75.8301ZM76.9727 35.1016C76.2695 35.1016 75.6719 34.5566 75.6719 33.8711C75.6719 33.2031 76.2695 32.6582 76.9727 32.6582C77.6934 32.6582 78.2734 33.2031 78.2734 33.8711C78.2734 34.5566 77.6934 35.1016 76.9727 35.1016ZM80.2246 49.5859V36.4551H82.4219V38.0195H82.5625C82.9141 37.334 83.6172 36.332 85.3047 36.332C87.502 36.332 89.2422 38.0547 89.2422 41.2363C89.2422 44.3828 87.5547 46.1758 85.3047 46.1758C83.6523 46.1758 82.9141 45.1914 82.5625 44.4883H82.4746V49.5859H80.2246ZM82.4219 41.2188C82.4219 43.082 83.2305 44.3301 84.6895 44.3301C86.166 44.3301 86.957 43.0293 86.957 41.2188C86.957 39.4434 86.1836 38.1602 84.6895 38.1602C83.2305 38.1602 82.4219 39.373 82.4219 41.2188ZM93.7246 33.2734L93.5312 42.2559H91.5449L91.334 33.2734H93.7246ZM92.5469 46.1406C91.791 46.1406 91.1758 45.5254 91.1758 44.7695C91.1758 44.0312 91.791 43.416 92.5469 43.416C93.2676 43.416 93.9004 44.0312 93.9004 44.7695C93.9004 45.5254 93.2676 46.1406 92.5469 46.1406Z" fill="#FF9143"/>
<path d="M39.9453 77.2656C38.9766 77.2656 38.1797 76.4688 38.1797 75.4844C38.1797 74.5156 38.9766 73.7188 39.9453 73.7188C40.9297 73.7188 41.7266 74.5156 41.7266 75.4844C41.7266 76.4688 40.9297 77.2656 39.9453 77.2656ZM57.9375 68.8281V73.8125H54.3906V76.6875C55.9141 76.6797 57.3672 76.625 59.0938 76.3125L59.2188 77.5312C57.2812 77.875 55.6875 77.9219 53.9219 77.9375H52.9531V72.625H56.5156V70.0312H52.9375V68.8281H57.9375ZM64.5312 67.3281V81.3281H63.1094V67.3281H64.5312ZM61.6562 67.6406V80.6094H60.25V73.4844H58.5938V72.2812H60.25V67.6406H61.6562ZM71.4844 70.8906C71.4688 73.4531 73.0156 76.0156 75.1875 76.9844L74.2969 78.1562C72.6875 77.3906 71.4141 75.8203 70.7656 73.9062C70.1094 75.9531 68.8203 77.6484 67.1406 78.4688L66.2344 77.2188C68.4375 76.2344 69.9844 73.5625 69.9844 70.8906V68.5H71.4844V70.8906ZM77.9375 67.3281V81.3594H76.4531V67.3281H77.9375ZM91.8125 67.3281V81.3281H90.3125V67.3281H91.8125ZM88.4844 68.7656V69.9844H87.0312V76.4844C87.7578 76.4375 88.4766 76.375 89.1719 76.2969L89.25 77.3906C86.2188 77.875 82.8906 77.9219 80.3125 77.9375L80.1406 76.7031L81.9844 76.6875V69.9844H80.5156V68.7656H88.4844ZM83.4219 76.6562C84.125 76.6406 84.8516 76.6172 85.5781 76.5781V69.9844H83.4219V76.6562ZM105.672 67.3281V75.5938H104.188V73.5156H101.141V74.6562H94.6406V68.375H101.141V69.5312H104.188V67.3281H105.672ZM96.1094 69.5625V73.4688H99.6875V69.5625H96.1094ZM100.984 75.9844C103.922 75.9844 105.719 76.9531 105.719 78.6562C105.719 80.3438 103.922 81.3125 100.984 81.2969C98.0469 81.3125 96.2344 80.3438 96.25 78.6562C96.2344 76.9531 98.0469 75.9844 100.984 75.9844ZM100.984 77.125C98.9375 77.1406 97.7188 77.6719 97.7188 78.6562C97.7188 79.5938 98.9375 80.1562 100.984 80.1562C103.031 80.1562 104.25 79.5938 104.25 78.6562C104.25 77.6719 103.031 77.1406 100.984 77.125ZM101.141 72.3125H104.188V70.7188H101.141V72.3125ZM114.203 67.5625C117.359 67.5625 119.203 68.4062 119.203 69.9688C119.203 71.5312 117.359 72.3906 114.203 72.3906C111.047 72.3906 109.203 71.5312 109.203 69.9688C109.203 68.4062 111.047 67.5625 114.203 67.5625ZM114.203 68.6562C111.969 68.6562 110.734 69.1406 110.75 69.9688C110.734 70.8281 111.969 71.2812 114.203 71.2812C116.438 71.2812 117.672 70.8281 117.672 69.9688C117.672 69.1406 116.438 68.6562 114.203 68.6562ZM120.594 73.25V74.4375H107.828V73.25H120.594ZM118.984 75.5156V78.7969H110.828V80.0469H119.375V81.1875H109.375V77.7188H117.516V76.625H109.359V75.5156H118.984ZM136.469 67.3281V72.75H138.719V73.9688H136.469V81.3594H134.984V67.3281H136.469ZM132.703 68.6719V69.875H127.641V76.6406C129.992 76.6328 131.758 76.5312 133.75 76.1719L133.938 77.4219C131.75 77.8125 129.891 77.8906 127.281 77.875H126.156V68.6719H132.703ZM144.531 70.8906C144.516 73.4531 146.062 76.0156 148.234 76.9844L147.344 78.1562C145.734 77.3906 144.461 75.8203 143.812 73.9062C143.156 75.9531 141.867 77.6484 140.188 78.4688L139.281 77.2188C141.484 76.2344 143.031 73.5625 143.031 70.8906V68.5H144.531V70.8906ZM150.984 67.3281V81.3594H149.5V67.3281H150.984ZM168.141 67.3438V71.5H170.141V72.7188H168.141V76.7656H166.656V67.3438H168.141ZM157.031 75.2031C158.117 75.2031 159.375 75.2031 160.688 75.1562V74.2188C159.094 74.0547 158.078 73.3047 158.094 72.1719C158.078 70.8906 159.406 70.0938 161.422 70.1094C163.422 70.0938 164.75 70.8906 164.75 72.1719C164.75 73.2969 163.75 74.0469 162.172 74.2188V75.1094C163.422 75.0469 164.688 74.9453 165.859 74.7812L165.984 75.8438C162.969 76.375 159.656 76.3906 157.188 76.3906L157.031 75.2031ZM168.141 77.4219V81.3281H166.656V78.5781H158.781V77.4219H168.141ZM165.469 68.5312V69.6406H157.391V68.5312H160.688V67.2188H162.172V68.5312H165.469ZM161.422 71.125C160.219 71.1094 159.5 71.5 159.5 72.1719C159.5 72.8281 160.219 73.25 161.422 73.25C162.609 73.25 163.328 72.8281 163.328 72.1719C163.328 71.5 162.609 71.1094 161.422 71.125ZM182.562 67.3438V77.5156H181.078V67.3438H182.562ZM182.984 79.8281V81.0312H173.406V76.4844H174.906V79.8281H182.984ZM174.969 68.2812C177.078 68.2812 178.688 69.7188 178.688 71.75C178.688 73.8125 177.078 75.2344 174.969 75.2344C172.859 75.2344 171.234 73.8125 171.234 71.75C171.234 69.7188 172.859 68.2812 174.969 68.2812ZM174.969 69.5781C173.656 69.5781 172.688 70.4688 172.688 71.75C172.688 73.0625 173.656 73.9375 174.969 73.9375C176.25 73.9375 177.234 73.0625 177.234 71.75C177.234 70.4688 176.25 69.5781 174.969 69.5781ZM191.703 69.6406V70.8438H184.75V69.6406H187.5V67.7344H188.969V69.6406H191.703ZM188.234 71.6875C190.016 71.6875 191.266 73.0156 191.281 74.9062C191.266 76.8125 190.016 78.1562 188.234 78.1562C186.484 78.1562 185.188 76.8125 185.203 74.9062C185.188 73.0156 186.484 71.6875 188.234 71.6875ZM188.234 72.9219C187.219 72.9219 186.516 73.75 186.516 74.9062C186.516 76.0938 187.219 76.8906 188.234 76.8906C189.234 76.8906 189.969 76.0938 189.969 74.9062C189.969 73.75 189.234 72.9219 188.234 72.9219ZM196.766 67.3281V81.3281H195.359V74.375H193.75V80.6719H192.344V67.6406H193.75V73.1562H195.359V67.3281H196.766ZM215.281 75.2188V76.4219H209.594V81.3125H208.141V76.4219H202.516V75.2188H215.281ZM214.078 68.1562V69.3438H209.75C209.773 71.0781 211.93 72.625 214.578 72.9844L214.031 74.1562C211.734 73.7969 209.75 72.6641 208.906 71.0625C208.039 72.6641 206.062 73.7969 203.797 74.1562L203.234 72.9844C205.852 72.625 208.008 71.0781 208.062 69.3438H203.703V68.1562H214.078ZM220.609 71.1562C220.609 73.3906 221.547 75.7812 223.422 76.9219L222.594 78.0625C221.281 77.2734 220.391 75.875 219.922 74.25C219.398 76.0312 218.438 77.5469 217.078 78.375L216.156 77.2656C218.141 76.0781 219.172 73.6094 219.172 71.2188V68.6094H220.609V71.1562ZM228.391 67.3281V81.3281H226.969V67.3281H228.391ZM225.484 67.5938V80.6406H224.078V73.4844H221.906V72.25H224.078V67.5938H225.484ZM242.984 78.3438V79.5781H230.172V78.3438H233.234V74.6875C232.086 74.0547 231.391 73.0469 231.391 71.7969C231.391 69.5938 233.547 68.1406 236.547 68.1406C239.562 68.1406 241.719 69.5938 241.719 71.7969C241.719 73.0312 241.047 74.0234 239.922 74.6562V78.3438H242.984ZM236.547 69.3281C234.344 69.3281 232.828 70.2812 232.828 71.7969C232.828 73.2969 234.344 74.2812 236.547 74.2812C238.734 74.2812 240.281 73.2969 240.281 71.7969C240.281 70.2812 238.734 69.3281 236.547 69.3281ZM234.703 78.3438H238.422V75.2188C237.852 75.3672 237.219 75.4375 236.547 75.4375C235.891 75.4375 235.266 75.3672 234.703 75.2344V78.3438ZM245.594 80.1094C244.984 80.1094 244.469 79.6094 244.484 79C244.469 78.3906 244.984 77.8906 245.594 77.8906C246.188 77.8906 246.703 78.3906 246.703 79C246.703 79.6094 246.188 80.1094 245.594 80.1094ZM39.9453 97.2656C38.9766 97.2656 38.1797 96.4688 38.1797 95.4844C38.1797 94.5156 38.9766 93.7188 39.9453 93.7188C40.9297 93.7188 41.7266 94.5156 41.7266 95.4844C41.7266 96.4688 40.9297 97.2656 39.9453 97.2656ZM63.6562 88.2031V89.4375C63.6562 90.7656 63.6562 92.2031 63.2656 94.2031H65.2812V95.4219H59.6094V101.344H58.1094V95.4219H52.5156V94.2031H61.7656C62.1875 92.2109 62.1875 90.7422 62.1875 89.4375V89.4219H54.0781V88.2031H63.6562ZM70.5312 91.625C70.5312 93.8281 71.5469 96.0781 73.4844 97.1094L72.6562 98.2031C71.3047 97.4844 70.3594 96.1406 69.8594 94.5469C69.3516 96.2578 68.4141 97.7266 67.0625 98.5312L66.1875 97.4062C68.125 96.2812 69.125 93.8906 69.1406 91.625V91.0625H66.6094V89.8438H69.1406V87.8281H70.5312V89.8438H73.0156V91.0625H70.5312V91.625ZM78.3594 87.3281V101.328H76.9375V87.3281H78.3594ZM75.5156 87.625V100.625H74.1094V94.0156H72.0938V92.7812H74.1094V87.625H75.5156ZM85.1875 89.8125C85.1875 91.5781 86.4531 93.3125 88.5625 94.0312L87.7969 95.1875C86.2266 94.6406 85.0625 93.5234 84.4531 92.1406C83.8438 93.6797 82.6172 94.9141 80.9531 95.5L80.1875 94.3281C82.3438 93.5938 83.6719 91.7188 83.6719 89.8281V89.4375H80.6406V88.2344H88.1875V89.4375H85.1875V89.8125ZM91.8438 96.4062V101.328H90.3594V97.6094H82.3594V96.4062H91.8438ZM91.8438 87.3281V95.7031H90.3594V92.1094H87.7656V90.8906H90.3594V87.3281H91.8438ZM105.609 87.3438V97.5156H104.125V87.3438H105.609ZM106.031 99.8281V101.031H96.4531V96.4844H97.9531V99.8281H106.031ZM98.0156 88.2812C100.125 88.2812 101.734 89.7188 101.734 91.75C101.734 93.8125 100.125 95.2344 98.0156 95.2344C95.9062 95.2344 94.2812 93.8125 94.2812 91.75C94.2812 89.7188 95.9062 88.2812 98.0156 88.2812ZM98.0156 89.5781C96.7031 89.5781 95.7344 90.4688 95.7344 91.75C95.7344 93.0625 96.7031 93.9375 98.0156 93.9375C99.2969 93.9375 100.281 93.0625 100.281 91.75C100.281 90.4688 99.2969 89.5781 98.0156 89.5781ZM119.281 88.75C119.281 92.875 117.906 96.5938 112.766 99.0938L111.969 97.9375C114.477 96.7188 116.039 95.2109 116.922 93.4219L112.25 93.8594L112.047 92.5625L117.391 92.2188C117.609 91.5078 117.75 90.75 117.812 89.9531H112.75V88.75H119.281ZM123.375 87.3281V101.328H121.875V87.3281H123.375ZM137.266 87.3438V101.328H135.766V97.9844H132.672V96.8594H135.766V87.3438H137.266ZM125.5 94.625C128.156 94.6094 131.688 94.5938 134.75 94.1719L134.828 95.2656C133.5 95.5 132.117 95.6406 130.766 95.7188V100.891H129.281V95.7969C128 95.8516 126.781 95.8594 125.703 95.8594L125.5 94.625ZM130.109 87.9844C132.172 87.9844 133.656 89.125 133.656 90.7812C133.656 92.4688 132.172 93.5625 130.109 93.5625C128 93.5625 126.531 92.4688 126.531 90.7812C126.531 89.125 128 87.9844 130.109 87.9844ZM130.109 89.125C128.812 89.125 127.922 89.7969 127.938 90.7812C127.922 91.7812 128.812 92.4219 130.109 92.4219C131.359 92.4219 132.25 91.7812 132.25 90.7812C132.25 89.7969 131.359 89.125 130.109 89.125ZM150.734 93.9688V95.1875H140.984V88.5781H150.609V89.7969H142.453V93.9688H150.734ZM152.203 98.25V99.4844H139.391V98.25H152.203ZM166.016 93.75V94.8906H153.203V93.75H166.016ZM164.438 95.875V98.9531H156.219V100.109H164.875V101.156H154.734V97.9688H162.969V96.9375H154.719V95.875H164.438ZM164.406 87.6875V90.7188H156.312V91.7812H164.641V92.8281H154.844V89.7344H162.922V88.7344H154.812V87.6875H164.406ZM175.812 90.8906C175.797 93.375 177.234 95.9062 179.328 96.9219L178.406 98.1094C176.883 97.3203 175.703 95.75 175.094 93.875C174.461 95.875 173.234 97.5469 171.641 98.375L170.719 97.1719C172.875 96.1406 174.328 93.4531 174.328 90.8906V88.5H175.812V90.8906ZM181.859 87.3281V92.9062H184.109V94.1719H181.859V101.328H180.375V87.3281H181.859ZM197.547 94.1562V95.3594H184.781V94.1562H187.844V92.2656C186.766 91.8281 186.156 91.125 186.156 90.2031C186.156 88.5469 188.078 87.5781 191.156 87.5781C194.219 87.5781 196.156 88.5469 196.156 90.2031C196.156 91.125 195.539 91.8359 194.453 92.2656V94.1562H197.547ZM191.156 96.3125C194.172 96.3125 195.984 97.2031 195.984 98.7969C195.984 100.422 194.172 101.297 191.156 101.297C188.109 101.297 186.297 100.422 186.297 98.7969C186.297 97.2031 188.109 96.3125 191.156 96.3125ZM191.156 97.4531C189.016 97.4531 187.797 97.9375 187.797 98.7969C187.797 99.6719 189.016 100.172 191.156 100.156C193.266 100.172 194.5 99.6719 194.5 98.7969C194.5 97.9375 193.266 97.4531 191.156 97.4531ZM191.156 88.7188C188.984 88.7188 187.672 89.2656 187.688 90.2031C187.672 91.1406 188.984 91.6719 191.156 91.6719C193.328 91.6719 194.625 91.1406 194.625 90.2031C194.625 89.2656 193.328 88.7188 191.156 88.7188ZM189.344 94.1562H192.984V92.6562C192.438 92.75 191.82 92.7969 191.156 92.7969C190.5 92.7969 189.891 92.75 189.344 92.6719V94.1562ZM205.531 89.6406V90.8438H198.578V89.6406H201.328V87.7344H202.797V89.6406H205.531ZM202.062 91.6875C203.844 91.6875 205.094 93.0156 205.109 94.9062C205.094 96.8125 203.844 98.1562 202.062 98.1562C200.312 98.1562 199.016 96.8125 199.031 94.9062C199.016 93.0156 200.312 91.6875 202.062 91.6875ZM202.062 92.9219C201.047 92.9219 200.344 93.75 200.344 94.9062C200.344 96.0938 201.047 96.8906 202.062 96.8906C203.062 96.8906 203.797 96.0938 203.797 94.9062C203.797 93.75 203.062 92.9219 202.062 92.9219ZM210.594 87.3281V101.328H209.188V94.375H207.578V100.672H206.172V87.6406H207.578V93.1562H209.188V87.3281H210.594ZM229.156 98.3594V99.5938H216.344V98.3594H221.984V95.4844H217.812V88.2812H219.297V90.6875H226.172V88.2812H227.641V95.4844H223.453V98.3594H229.156ZM219.297 94.2812H226.172V91.8906H219.297V94.2812ZM234.438 91.1562C234.438 93.3906 235.375 95.7812 237.25 96.9219L236.422 98.0625C235.109 97.2734 234.219 95.875 233.75 94.25C233.227 96.0312 232.266 97.5469 230.906 98.375L229.984 97.2656C231.969 96.0781 233 93.6094 233 91.2188V88.6094H234.438V91.1562ZM242.219 87.3281V101.328H240.797V87.3281H242.219ZM239.312 87.5938V100.641H237.906V93.4844H235.734V92.25H237.906V87.5938H239.312ZM256.812 98.3438V99.5781H244V98.3438H247.062V94.6875C245.914 94.0547 245.219 93.0469 245.219 91.7969C245.219 89.5938 247.375 88.1406 250.375 88.1406C253.391 88.1406 255.547 89.5938 255.547 91.7969C255.547 93.0312 254.875 94.0234 253.75 94.6562V98.3438H256.812ZM250.375 89.3281C248.172 89.3281 246.656 90.2812 246.656 91.7969C246.656 93.2969 248.172 94.2812 250.375 94.2812C252.562 94.2812 254.109 93.2969 254.109 91.7969C254.109 90.2812 252.562 89.3281 250.375 89.3281ZM248.531 98.3438H252.25V95.2188C251.68 95.3672 251.047 95.4375 250.375 95.4375C249.719 95.4375 249.094 95.3672 248.531 95.2344V98.3438ZM260.406 88.6875L260.266 96.7344H258.719L258.578 88.6875H260.406ZM259.5 100.109C258.891 100.109 258.375 99.6094 258.391 99C258.375 98.3906 258.891 97.8906 259.5 97.8906C260.094 97.8906 260.609 98.3906 260.609 99C260.609 99.6094 260.094 100.109 259.5 100.109ZM39.9453 117.266C38.9766 117.266 38.1797 116.469 38.1797 115.484C38.1797 114.516 38.9766 113.719 39.9453 113.719C40.9297 113.719 41.7266 114.516 41.7266 115.484C41.7266 116.469 40.9297 117.266 39.9453 117.266ZM60.0625 108.75C60.0625 112.875 58.6875 116.594 53.5469 119.094L52.75 117.938C55.2578 116.719 56.8203 115.211 57.7031 113.422L53.0312 113.859L52.8281 112.562L58.1719 112.219C58.3906 111.508 58.5312 110.75 58.5938 109.953H53.5312V108.75H60.0625ZM64.1562 107.328V121.328H62.6562V107.328H64.1562ZM78.0469 107.344V121.328H76.5469V117.984H73.4531V116.859H76.5469V107.344H78.0469ZM66.2812 114.625C68.9375 114.609 72.4688 114.594 75.5312 114.172L75.6094 115.266C74.2812 115.5 72.8984 115.641 71.5469 115.719V120.891H70.0625V115.797C68.7812 115.852 67.5625 115.859 66.4844 115.859L66.2812 114.625ZM70.8906 107.984C72.9531 107.984 74.4375 109.125 74.4375 110.781C74.4375 112.469 72.9531 113.562 70.8906 113.562C68.7812 113.562 67.3125 112.469 67.3125 110.781C67.3125 109.125 68.7812 107.984 70.8906 107.984ZM70.8906 109.125C69.5938 109.125 68.7031 109.797 68.7188 110.781C68.7031 111.781 69.5938 112.422 70.8906 112.422C72.1406 112.422 73.0312 111.781 73.0312 110.781C73.0312 109.797 72.1406 109.125 70.8906 109.125ZM91.5156 113.969V115.188H81.7656V108.578H91.3906V109.797H83.2344V113.969H91.5156ZM92.9844 118.25V119.484H80.1719V118.25H92.9844ZM106.797 113.75V114.891H93.9844V113.75H106.797ZM105.219 115.875V118.953H97V120.109H105.656V121.156H95.5156V117.969H103.75V116.938H95.5V115.875H105.219ZM105.188 107.688V110.719H97.0938V111.781H105.422V112.828H95.625V109.734H103.703V108.734H95.5938V107.688H105.188ZM124.547 118.359V119.578H111.734V118.359H117.391V115.047H118.875V118.359H124.547ZM118.891 109.875C118.891 112.016 121.312 113.922 123.984 114.344L123.391 115.516C121.133 115.086 119.047 113.773 118.141 111.938C117.227 113.797 115.156 115.148 112.938 115.578L112.328 114.406C114.938 113.969 117.344 112.016 117.344 109.875V109.75H112.797V108.531H123.438V109.75H118.891V109.875ZM136.562 107.328V110.844H138.594V112.094H136.562V115.484H135.078V107.328H136.562ZM129.078 116.062V117.422H135.078V116.062H136.562V121.156H127.609V116.062H129.078ZM129.078 119.969H135.078V118.578H129.078V119.969ZM133.922 108.703V109.891H125.578V108.703H129.016V107.203H130.5V108.703H133.922ZM129.75 110.469C131.766 110.469 133.141 111.422 133.141 112.922C133.141 114.406 131.766 115.391 129.75 115.375C127.703 115.391 126.344 114.406 126.344 112.922C126.344 111.422 127.703 110.469 129.75 110.469ZM129.75 111.578C128.562 111.562 127.766 112.109 127.781 112.922C127.766 113.75 128.562 114.281 129.75 114.281C130.938 114.281 131.734 113.75 131.75 112.922C131.734 112.109 130.938 111.562 129.75 111.578ZM146.312 109.641V110.844H139.359V109.641H142.109V107.734H143.578V109.641H146.312ZM142.844 111.688C144.625 111.688 145.875 113.016 145.891 114.906C145.875 116.812 144.625 118.156 142.844 118.156C141.094 118.156 139.797 116.812 139.812 114.906C139.797 113.016 141.094 111.688 142.844 111.688ZM142.844 112.922C141.828 112.922 141.125 113.75 141.125 114.906C141.125 116.094 141.828 116.891 142.844 116.891C143.844 116.891 144.578 116.094 144.578 114.906C144.578 113.75 143.844 112.922 142.844 112.922ZM151.375 107.328V121.328H149.969V114.375H148.359V120.672H146.953V107.641H148.359V113.156H149.969V107.328H151.375ZM162.547 108.828V113.812H159V116.688C160.523 116.68 161.977 116.625 163.703 116.312L163.828 117.531C161.891 117.875 160.297 117.922 158.531 117.938H157.562V112.625H161.125V110.031H157.547V108.828H162.547ZM169.141 107.328V121.328H167.719V107.328H169.141ZM166.266 107.641V120.609H164.859V113.484H163.203V112.281H164.859V107.641H166.266ZM176.094 110.891C176.078 113.453 177.625 116.016 179.797 116.984L178.906 118.156C177.297 117.391 176.023 115.82 175.375 113.906C174.719 115.953 173.43 117.648 171.75 118.469L170.844 117.219C173.047 116.234 174.594 113.562 174.594 110.891V108.5H176.094V110.891ZM182.547 107.328V121.359H181.062V107.328H182.547ZM196.422 107.328V121.328H194.922V107.328H196.422ZM193.094 108.766V109.984H191.641V116.484C192.367 116.438 193.086 116.375 193.781 116.297L193.859 117.391C190.828 117.875 187.5 117.922 184.922 117.938L184.75 116.703L186.594 116.688V109.984H185.125V108.766H193.094ZM188.031 116.656C188.734 116.641 189.461 116.617 190.188 116.578V109.984H188.031V116.656ZM211.406 113.75V114.891H198.594V113.75H211.406ZM209.828 115.875V118.953H201.609V120.109H210.266V121.156H200.125V117.969H208.359V116.938H200.109V115.875H209.828ZM209.797 107.688V110.719H201.703V111.781H210.031V112.828H200.234V109.734H208.312V108.734H200.203V107.688H209.797ZM223.578 108.203C223.578 111.766 221.141 114.297 217.078 115.438L216.469 114.281C219.695 113.375 221.703 111.625 222 109.422H217.203V108.203H223.578ZM228.016 107.344V115.266H226.531V112.078H223.641V110.844H226.531V107.344H228.016ZM228.016 115.844V121.141H218.859V115.844H228.016ZM220.312 117.031V119.953H226.547V117.031H220.312ZM234.453 109.969C234.453 111.547 235.422 113.125 237.234 113.828L236.438 114.969C235.156 114.453 234.25 113.484 233.75 112.312C233.227 113.617 232.273 114.742 230.922 115.328L230.109 114.188C232 113.359 233.016 111.547 233.016 109.969V108.172H234.453V109.969ZM242.109 107.344V115.797H240.703V112.141H239.062V115.719H237.688V107.578H239.062V110.906H240.703V107.344H242.109ZM242.109 116.531V121.328H240.641V117.734H232.594V116.531H242.109ZM250.922 109.641V110.844H243.969V109.641H246.719V107.734H248.188V109.641H250.922ZM247.453 111.688C249.234 111.688 250.484 113.016 250.5 114.906C250.484 116.812 249.234 118.156 247.453 118.156C245.703 118.156 244.406 116.812 244.422 114.906C244.406 113.016 245.703 111.688 247.453 111.688ZM247.453 112.922C246.438 112.922 245.734 113.75 245.734 114.906C245.734 116.094 246.438 116.891 247.453 116.891C248.453 116.891 249.188 116.094 249.188 114.906C249.188 113.75 248.453 112.922 247.453 112.922ZM255.984 107.328V121.328H254.578V114.375H252.969V120.672H251.562V107.641H252.969V113.156H254.578V107.328H255.984ZM274.547 118.359V119.594H261.734V118.359H267.375V115.484H263.203V108.281H264.688V110.688H271.562V108.281H273.031V115.484H268.844V118.359H274.547ZM264.688 114.281H271.562V111.891H264.688V114.281ZM279.828 111.156C279.828 113.391 280.766 115.781 282.641 116.922L281.812 118.062C280.5 117.273 279.609 115.875 279.141 114.25C278.617 116.031 277.656 117.547 276.297 118.375L275.375 117.266C277.359 116.078 278.391 113.609 278.391 111.219V108.609H279.828V111.156ZM287.609 107.328V121.328H286.188V107.328H287.609ZM284.703 107.594V120.641H283.297V113.484H281.125V112.25H283.297V107.594H284.703ZM302.203 118.344V119.578H289.391V118.344H292.453V114.688C291.305 114.055 290.609 113.047 290.609 111.797C290.609 109.594 292.766 108.141 295.766 108.141C298.781 108.141 300.938 109.594 300.938 111.797C300.938 113.031 300.266 114.023 299.141 114.656V118.344H302.203ZM295.766 109.328C293.562 109.328 292.047 110.281 292.047 111.797C292.047 113.297 293.562 114.281 295.766 114.281C297.953 114.281 299.5 113.297 299.5 111.797C299.5 110.281 297.953 109.328 295.766 109.328ZM293.922 118.344H297.641V115.219C297.07 115.367 296.438 115.438 295.766 115.438C295.109 115.438 294.484 115.367 293.922 115.234V118.344ZM304.812 120.109C304.203 120.109 303.688 119.609 303.703 119C303.688 118.391 304.203 117.891 304.812 117.891C305.406 117.891 305.922 118.391 305.922 119C305.922 119.609 305.406 120.109 304.812 120.109Z" fill="#787774"/>
</svg>
