<svg width="16" height="16" viewBox="0 0 16 16" fill="none" xmlns="http://www.w3.org/2000/svg">
<path fill-rule="evenodd" clip-rule="evenodd" d="M3.95083 0.487171C4.72731 0.165541 5.55954 0 6.4 0C7.24046 0 8.07269 0.165541 8.84917 0.487171C9.62566 0.808801 10.3312 1.28022 10.9255 1.87452C11.5198 2.46881 11.9912 3.17434 12.3128 3.95083C12.6345 4.72731 12.8 5.55954 12.8 6.4C12.8 7.24046 12.6345 8.07269 12.3128 8.84917C12.0938 9.37804 11.8052 9.874 11.4557 10.3243L15.7657 14.6343C16.0781 14.9467 16.0781 15.4533 15.7657 15.7657C15.4533 16.0781 14.9467 16.0781 14.6343 15.7657L10.3243 11.4557C9.874 11.8052 9.37804 12.0938 8.84917 12.3128C8.07269 12.6345 7.24046 12.8 6.4 12.8C5.55954 12.8 4.72731 12.6345 3.95083 12.3128C3.17434 11.9912 2.46881 11.5198 1.87452 10.9255C1.28022 10.3312 0.808801 9.62566 0.487171 8.84917C0.165541 8.07269 0 7.24046 0 6.4C0 5.55954 0.165541 4.72731 0.487171 3.95083C0.808801 3.17434 1.28022 2.46881 1.87452 1.87452C2.46881 1.28022 3.17434 0.808801 3.95083 0.487171ZM6.4 1.6C5.76965 1.6 5.14548 1.72416 4.56312 1.96538C3.98076 2.2066 3.45161 2.56017 3.00589 3.00589C2.56017 3.45161 2.2066 3.98076 1.96538 4.56312C1.72416 5.14548 1.6 5.76966 1.6 6.4C1.6 7.03034 1.72416 7.65452 1.96538 8.23688C2.2066 8.81924 2.56017 9.34839 3.00589 9.79411C3.45161 10.2398 3.98076 10.5934 4.56312 10.8346C5.14548 11.0758 5.76965 11.2 6.4 11.2C7.03035 11.2 7.65452 11.0758 8.23688 10.8346C8.81924 10.5934 9.34839 10.2398 9.79411 9.79411C10.2398 9.34839 10.5934 8.81924 10.8346 8.23688C11.0758 7.65452 11.2 7.03035 11.2 6.4C11.2 5.76965 11.0758 5.14548 10.8346 4.56312C10.5934 3.98076 10.2398 3.45161 9.79411 3.00589C9.34839 2.56017 8.81924 2.2066 8.23688 1.96538C7.65452 1.72416 7.03034 1.6 6.4 1.6Z" fill="#B1B1B1"/>
</svg>
