<svg width="20" height="20" viewBox="0 0 20 20" fill="none" xmlns="http://www.w3.org/2000/svg">
<path d="M16.0728 4.78252C16.3091 4.54632 16.3091 4.16336 16.0728 3.92715C15.8366 3.69095 15.4537 3.69095 15.2175 3.92715L10 9.14463L4.78252 3.92715C4.54632 3.69095 4.16336 3.69095 3.92715 3.92715C3.69095 4.16336 3.69095 4.54632 3.92715 4.78252L9.14463 10L3.92715 15.2175C3.69095 15.4537 3.69095 15.8366 3.92715 16.0728C4.16336 16.3091 4.54632 16.3091 4.78252 16.0728L10 10.8554L15.2175 16.0728C15.4537 16.3091 15.8366 16.3091 16.0728 16.0728C16.3091 15.8366 16.3091 15.4537 16.0728 15.2175L10.8554 10L16.0728 4.78252Z" fill="#121211"/>
</svg>
