<svg width="22" height="22" viewBox="0 0 22 22" fill="none" xmlns="http://www.w3.org/2000/svg">
<g id="Icon/trashcan">
<g id="Vector">
<path fill-rule="evenodd" clip-rule="evenodd" d="M3.4375 6.41675C3.4375 6.03705 3.7453 5.72925 4.125 5.72925H17.875C18.2547 5.72925 18.5625 6.03705 18.5625 6.41675C18.5625 6.79644 18.2547 7.10425 17.875 7.10425H4.125C3.7453 7.10425 3.4375 6.79644 3.4375 6.41675Z" fill="#FF9143"/>
<path fill-rule="evenodd" clip-rule="evenodd" d="M4.97428 7.56589C5.35215 7.52868 5.68864 7.80483 5.72586 8.1827L6.47462 15.7856C6.57859 16.8413 7.4664 17.6459 8.52719 17.6459H13.4728C14.5336 17.6459 15.4214 16.8413 15.5254 15.7856L16.2741 8.1827C16.3114 7.80483 16.6478 7.52868 17.0257 7.56589C17.4036 7.60311 17.6797 7.9396 17.6425 8.31746L16.8938 15.9203C16.7205 17.6798 15.2408 19.0209 13.4728 19.0209H8.52719C6.7592 19.0209 5.27953 17.6798 5.10624 15.9203L4.35748 8.31746C4.32026 7.9396 4.59642 7.60311 4.97428 7.56589Z" fill="#FF9143"/>
<path fill-rule="evenodd" clip-rule="evenodd" d="M8.68318 9.53404C8.98659 9.5196 9.24426 9.75385 9.2587 10.0573L9.47686 14.6406C9.49131 14.944 9.25705 15.2017 8.95364 15.2161C8.65022 15.2306 8.39255 14.9963 8.37811 14.6929L8.15995 10.1096C8.14551 9.80615 8.37976 9.54848 8.68318 9.53404Z" fill="#FF9143"/>
<path fill-rule="evenodd" clip-rule="evenodd" d="M13.3168 9.53404C13.0134 9.5196 12.7557 9.75385 12.7413 10.0573L12.5231 14.6406C12.5087 14.944 12.743 15.2017 13.0464 15.2161C13.3498 15.2306 13.6075 14.9963 13.6219 14.6929L13.8401 10.1096C13.8545 9.80615 13.6202 9.54848 13.3168 9.53404Z" fill="#FF9143"/>
<path fill-rule="evenodd" clip-rule="evenodd" d="M9.2423 5.01891C9.00436 5.30971 8.5761 5.35583 8.28155 5.12083C7.98475 4.88403 7.9361 4.45145 8.1729 4.15465L8.71032 4.58341C8.1729 4.15465 8.1729 4.15465 8.1729 4.15465L8.17381 4.15352L8.17478 4.15231L8.17695 4.14962L8.18217 4.14324L8.19616 4.12659C8.20707 4.11382 8.22116 4.09778 8.23847 4.07893C8.27306 4.04127 8.3207 3.99224 8.38164 3.9358C8.50332 3.82309 8.67953 3.67945 8.91235 3.53778C9.38148 3.2523 10.074 2.97925 10.9917 2.97925C11.9162 2.97925 12.6124 3.25142 13.0841 3.53691C13.3182 3.67856 13.4952 3.82226 13.6174 3.93515C13.6786 3.99168 13.7264 4.04081 13.7612 4.07858C13.7786 4.09748 13.7927 4.11358 13.8037 4.12641L13.8177 4.14315L13.823 4.14958L13.8252 4.15228L13.8262 4.15351L13.8271 4.15465C14.0639 4.45146 14.0152 4.88403 13.7184 5.12083C13.4239 5.3558 12.9957 5.30972 12.7578 5.01902C12.7565 5.01754 12.7536 5.0143 12.7492 5.00948C12.7378 4.99712 12.7163 4.97463 12.6845 4.94522C12.6206 4.88624 12.5168 4.80077 12.3722 4.71326C12.0866 4.54041 11.6338 4.35425 10.9917 4.35425C10.3594 4.35425 9.91118 4.53953 9.62714 4.71239C9.48337 4.79987 9.37987 4.8854 9.31598 4.94457C9.28414 4.97407 9.26253 4.99665 9.25107 5.00912C9.24649 5.01411 9.24357 5.01744 9.2423 5.01891Z" fill="#FF9143"/>
</g>
</g>
</svg>
