
<svg width="20" height="20" viewBox="0 0 20 20" fill="none" xmlns="http://www.w3.org/2000/svg">
<g id="Icon/trashcan">
<g id="Vector">
<path fill-rule="evenodd" clip-rule="evenodd" d="M3.125 5.83301C3.125 5.48783 3.40482 5.20801 3.75 5.20801H16.25C16.5952 5.20801 16.875 5.48783 16.875 5.83301C16.875 6.17819 16.5952 6.45801 16.25 6.45801H3.75C3.40482 6.45801 3.125 6.17819 3.125 5.83301Z" fill="#E80018"/>
<path fill-rule="evenodd" clip-rule="evenodd" d="M4.52208 6.87768C4.86559 6.84385 5.17149 7.0949 5.20532 7.43842L5.88602 14.3501C5.98054 15.3098 6.78763 16.0413 7.75199 16.0413H12.248C13.2124 16.0413 14.0195 15.3098 14.114 14.3501L14.7947 7.43842C14.8285 7.0949 15.1344 6.84385 15.4779 6.87768C15.8214 6.91152 16.0725 7.21742 16.0387 7.56093L15.358 14.4726C15.2004 16.0722 13.8553 17.2913 12.248 17.2913H7.75199C6.14473 17.2913 4.79957 16.0722 4.64204 14.4726L3.96134 7.56093C3.92751 7.21742 4.17856 6.91152 4.52208 6.87768Z" fill="#E80018"/>
<path fill-rule="evenodd" clip-rule="evenodd" d="M7.8938 8.66691C8.16963 8.65378 8.40387 8.86674 8.417 9.14257L8.61533 13.3092C8.62846 13.5851 8.4155 13.8193 8.13967 13.8324C7.86384 13.8456 7.62959 13.6326 7.61646 13.3568L7.41813 9.19011C7.40501 8.91428 7.61797 8.68004 7.8938 8.66691Z" fill="#E80018"/>
<path fill-rule="evenodd" clip-rule="evenodd" d="M12.1062 8.66691C11.8304 8.65378 11.5961 8.86674 11.583 9.14257L11.3847 13.3092C11.3715 13.5851 11.5845 13.8193 11.8603 13.8324C12.1362 13.8456 12.3704 13.6326 12.3835 13.3568L12.5819 9.19011C12.595 8.91428 12.382 8.68004 12.1062 8.66691Z" fill="#E80018"/>
<path fill-rule="evenodd" clip-rule="evenodd" d="M8.40209 4.56224C8.18578 4.82661 7.79646 4.86854 7.52868 4.6549C7.25886 4.43963 7.21464 4.04638 7.42991 3.77655L7.91847 4.16634C7.42991 3.77655 7.42991 3.77655 7.42991 3.77655L7.43073 3.77553L7.43162 3.77442L7.43359 3.77198L7.43834 3.76618L7.45106 3.75105C7.46097 3.73944 7.47378 3.72485 7.48952 3.70772C7.52097 3.67348 7.56427 3.62891 7.61967 3.5776C7.73029 3.47514 7.89048 3.34456 8.10214 3.21576C8.52862 2.95623 9.15816 2.70801 9.99244 2.70801C10.8329 2.70801 11.4658 2.95543 11.8947 3.21497C12.1074 3.34375 12.2683 3.47438 12.3794 3.57701C12.4351 3.6284 12.4786 3.67306 12.5101 3.7074C12.526 3.72458 12.5388 3.73922 12.5488 3.75088L12.5616 3.7661L12.5664 3.77194L12.5684 3.7744L12.5693 3.77552L12.5701 3.77655C12.7854 4.04638 12.7411 4.43963 12.4713 4.6549C12.2036 4.86851 11.8143 4.82662 11.598 4.56234C11.5968 4.561 11.5942 4.55805 11.5902 4.55367C11.5799 4.54243 11.5603 4.52199 11.5313 4.49526C11.4733 4.44163 11.3789 4.36394 11.2475 4.28438C10.9878 4.12725 10.5762 3.95801 9.99244 3.95801C9.41761 3.95801 9.01017 4.12645 8.75194 4.28359C8.62124 4.36312 8.52715 4.44087 8.46908 4.49467C8.44013 4.52148 8.42048 4.54201 8.41007 4.55335C8.4059 4.55788 8.40325 4.56091 8.40209 4.56224Z" fill="#E80018"/>
</g>
</g>
</svg>
