
<svg width="24" height="24" viewBox="0 0 24 24" fill="none" xmlns="http://www.w3.org/2000/svg">
<g id="Icon/X">
<path id="Union" d="M19.2874 5.73903C19.5709 5.45558 19.5709 4.99603 19.2874 4.71258C19.004 4.42914 18.5444 4.42914 18.261 4.71258L12 10.9736L5.73903 4.71258C5.45558 4.42914 4.99603 4.42914 4.71258 4.71258C4.42914 4.99603 4.42914 5.45558 4.71258 5.73903L10.9736 12L4.71258 18.261C4.42914 18.5444 4.42914 19.004 4.71258 19.2874C4.99603 19.5709 5.45558 19.5709 5.73903 19.2874L12 13.0264L18.261 19.2874C18.5444 19.5709 19.004 19.5709 19.2874 19.2874C19.5709 19.004 19.5709 18.5444 19.2874 18.261L13.0264 12L19.2874 5.73903Z" fill="#91908D"/>
</g>
</svg>
