
<svg width="240" height="240" viewBox="0 0 240 240" fill="none" xmlns="http://www.w3.org/2000/svg">
<rect x="0.5" y="0.5" width="239" height="239" rx="19.5" fill="#F6F5F4"/>
<rect x="0.5" y="0.5" width="239" height="239" rx="19.5" stroke="#BABABA" stroke-dasharray="8 8"/>
<rect x="98.959" y="83.459" width="42.0833" height="42.0833" rx="6.375" stroke="#91908D" stroke-width="3.25"/>
<path d="M100 109.833L104.461 106.308C106.155 104.97 108.606 105.217 109.998 106.867L110.213 107.122C111.518 108.669 113.773 108.997 115.465 107.886L126.257 100.802C127.736 99.8315 129.677 99.9475 131.03 101.088L140 108.647" stroke="#91908D" stroke-width="3.25" stroke-linecap="round" stroke-linejoin="round"/>
<circle cx="109.334" cy="93.834" r="2.66667" fill="#91908D" stroke="#91908D" stroke-width="2.66667"/>
<rect x="59.5" y="141" width="121" height="30" rx="11.5" stroke="#FF9143"/>
<path d="M84.7559 148.244V164.029H83.0859V148.244H84.7559ZM76.3359 149.422C78.6738 149.422 80.3965 151.566 80.3965 154.941C80.3965 158.334 78.6738 160.479 76.3359 160.479C73.9629 160.479 72.2578 158.334 72.2578 154.941C72.2578 151.566 73.9629 149.422 76.3359 149.422ZM76.3359 150.916C74.877 150.916 73.875 152.463 73.875 154.941C73.875 157.438 74.877 158.984 76.3359 158.984C77.7773 158.984 78.7793 157.438 78.7793 154.941C78.7793 152.463 77.7773 150.916 76.3359 150.916ZM95.5312 149.756V160.109H88.1484V149.756H95.5312ZM89.8008 151.074V158.756H93.9141V151.074H89.8008ZM100.312 148.244V164.029H98.6426V148.244H100.312ZM108.627 152.885C108.627 155.521 110.35 158.246 112.775 159.283L111.861 160.584C110.007 159.767 108.53 158.035 107.801 155.926C107.071 158.176 105.586 160.092 103.758 160.988L102.791 159.67C105.164 158.562 106.922 155.592 106.939 152.885V151.215H103.336V149.826H112.213V151.215H108.627V152.885ZM115.869 148.244V163.994H114.199V148.244H115.869ZM127.137 148.965C129.211 148.947 130.811 150.151 131.162 151.918H134.238V148.244H135.908V156.699H134.238V153.289H131.18C130.837 155.1 129.229 156.312 127.137 156.312C124.729 156.312 123.006 154.801 123.006 152.621C123.006 150.477 124.729 148.947 127.137 148.965ZM127.137 150.354C125.643 150.354 124.605 151.268 124.605 152.621C124.605 153.975 125.643 154.906 127.137 154.906C128.596 154.906 129.633 153.975 129.633 152.621C129.633 151.268 128.596 150.354 127.137 150.354ZM127.295 157.455V159.283H134.238V157.455H135.908V163.801H125.643V157.455H127.295ZM127.295 162.43H134.238V160.602H127.295V162.43ZM152.748 160.707V162.113H138.334V160.707H144.68V157.947H140.092V152.938H149.338V150.723H140.057V149.352H150.99V154.273H141.744V156.576H151.359V157.947H146.332V160.707H152.748ZM166.652 155.715V157.086H155.684V149.65H166.512V151.021H157.336V155.715H166.652ZM168.305 160.531V161.92H153.891V160.531H168.305Z" fill="#FF9143"/>
</svg>
