<svg xmlns="http://www.w3.org/2000/svg" width="20" height="20" viewBox="0 0 20 20" fill="none">
<path fill-rule="evenodd" clip-rule="evenodd" d="M6.84649 16.8415C6.9705 16.8007 7.0832 16.7314 7.1755 16.6391L17.0888 6.72578C18.0651 5.74947 18.0651 4.16655 17.0888 3.19024C16.1125 2.21393 14.5296 2.21393 13.5533 3.19024L13.3972 3.34634L13.3843 3.33344L12.5004 4.21733L12.5133 4.23022L3.63997 13.1036C3.54767 13.1959 3.47834 13.3086 3.43757 13.4326L2.28331 16.9439C2.06985 17.5932 2.68587 18.2092 3.3352 17.9958L6.84649 16.8415ZM5.30377 13.2075L13.3972 5.1141L15.165 6.88187L7.07153 14.9753L5.30377 13.2075ZM4.50787 14.1794L3.72836 16.5507L6.09966 15.7712L4.50787 14.1794ZM14.4372 4.07412L14.2811 4.23022L16.0488 5.99799L16.2049 5.84189C16.6931 5.35374 16.6931 4.56228 16.2049 4.07412C15.7168 3.58597 14.9253 3.58597 14.4372 4.07412Z" fill="#787774"/>
</svg>