
<svg width="24" height="24" viewBox="0 0 24 24" fill="none" xmlns="http://www.w3.org/2000/svg">
<circle cx="12" cy="12" r="10" fill="#FF9143"/>
<path fill-rule="evenodd" clip-rule="evenodd" d="M12.0943 6.25C12.5086 6.25 12.8443 6.58579 12.8443 7V11.25H17C17.4142 11.25 17.75 11.5858 17.75 12C17.75 12.4142 17.4142 12.75 17 12.75H12.8443V17C12.8443 17.4142 12.5086 17.75 12.0943 17.75C11.6801 17.75 11.3443 17.4142 11.3443 17V12.75H7C6.58579 12.75 6.25 12.4142 6.25 12C6.25 11.5858 6.58579 11.25 7 11.25H11.3443V7C11.3443 6.58579 11.6801 6.25 12.0943 6.25Z" fill="white"/>
</svg>
