
<svg width="159" height="36" viewBox="0 0 159 36" fill="none" xmlns="http://www.w3.org/2000/svg">
<rect x="0.5" y="0.5" width="158" height="35" rx="17.5" stroke="#FF9143"/>
<path d="M32.5083 11.326V25.326H31.0718V18.1602H29.2873V24.6077H27.895V11.6133H29.2873V16.9282H31.0718V11.326H32.5083ZM21.1713 21.768V12.9779H22.6575V20.4641C23.9503 20.442 25.3591 20.3425 26.9448 20.0331L27.1105 21.326C25.1878 21.674 23.5856 21.768 22.0773 21.768H21.1713ZM45.2535 11.326V16.9061H47.4248V18.1492H45.2535V25.3094H43.7674V11.326H45.2535ZM34.353 21.5801C37.8668 19.8287 39.7674 17.2983 40.0823 14.0331H35.0546V12.8066H41.5906C41.5795 16.8453 39.795 20.4586 35.1817 22.7293L34.353 21.5801ZM56.9658 13.8398C56.9658 15.6298 58.2034 17.3315 60.347 18.0497L59.5901 19.1989C58.0045 18.6519 56.8498 17.558 56.2421 16.1878C55.6288 17.6961 54.4133 18.884 52.7669 19.4641L51.9713 18.3149C54.1537 17.5691 55.4741 15.7569 55.4852 13.8343V13.453H52.4023V12.2541H59.9879V13.453H56.9658V13.8398ZM53.8277 21.6575V20.4586H63.0818V25.326H61.5956V21.6575H53.8277ZM61.5956 19.7624V11.326H63.0818V14.9227H65.1095V16.1768H63.0818V19.7624H61.5956ZM70.8823 13.4309C70.8713 15.3812 72.142 17.1326 74.2636 17.8232L73.4569 18.9834C71.9155 18.4254 70.7829 17.3481 70.1752 15.9448C69.5674 17.547 68.3464 18.7956 66.6503 19.4088L65.8547 18.2155C68.0923 17.453 69.3906 15.5912 69.4017 13.4917V12.105H70.8823V13.4309ZM68.1586 22.6575C68.1475 20.9613 69.9486 19.9779 72.8879 19.9779C75.8216 19.9779 77.6171 20.9613 77.6227 22.6575C77.6171 24.3481 75.8216 25.3039 72.8879 25.3039C69.9486 25.3039 68.1475 24.3481 68.1586 22.6575ZM69.6282 22.6575C69.6171 23.5912 70.8381 24.1326 72.8879 24.1326C74.9321 24.1326 76.1475 23.5912 76.1531 22.6575C76.1475 21.6906 74.9321 21.1436 72.8879 21.1436C70.8381 21.1436 69.6171 21.6906 69.6282 22.6575ZM73.1475 15.3978V14.1768H76.0978V11.326H77.5785V19.5912H76.0978V15.3978H73.1475ZM90.7381 11.337V15.8398H92.7657V17.0773H90.7381V21.8177H89.2519V11.337H90.7381ZM79.7547 14.1657V12.9724H83.1911V11.3315H84.6663V12.9724H88.0862V14.1657H79.7547ZM80.5171 17.4917C80.5116 15.884 81.8928 14.8398 83.9259 14.8398C85.9315 14.8398 87.3127 15.884 87.3182 17.4917C87.3127 19.0718 85.9315 20.105 83.9259 20.105C81.8928 20.105 80.5116 19.0718 80.5171 17.4917ZM81.8652 25.0387V20.9834H83.3403V23.8232H91.3348V25.0387H81.8652ZM81.948 17.4917C81.937 18.3978 82.7326 18.9558 83.9259 18.9503C85.1083 18.9558 85.9038 18.3978 85.9149 17.4917C85.9038 16.5635 85.1083 15.9889 83.9259 15.9889C82.7326 15.9889 81.937 16.5635 81.948 17.4917ZM102.898 12.8287V17.8177H99.3454V20.6906C100.881 20.6796 102.323 20.6188 104.053 20.3149L104.169 21.5304C102.229 21.884 100.633 21.9227 98.8647 21.9282H97.9145V16.6243H101.472V14.0387H97.8924V12.8287H102.898ZM103.55 17.4917V16.2818H105.207V11.6409H106.605V24.6022H105.207V17.4917H103.55ZM108.069 25.326V11.326H109.478V25.326H108.069ZM116.439 14.8895C116.428 17.4475 117.969 20.0221 120.14 20.9779L119.245 22.1602C117.638 21.3923 116.367 19.8177 115.709 17.9006C115.063 19.9503 113.776 21.6464 112.102 22.4586L111.185 21.221C113.389 20.2376 114.936 17.5635 114.947 14.8895V12.4917H116.439V14.8895ZM121.406 25.3536V11.326H122.897V25.3536H121.406ZM136.764 11.326V25.326H135.272V11.326H136.764ZM125.101 20.6961C125.676 20.6961 126.294 20.6961 126.941 20.6851V13.9779H125.471V12.7624H133.444V13.9779H131.98V20.4917C132.709 20.442 133.433 20.3757 134.123 20.2928L134.201 21.3978C131.173 21.8785 127.841 21.9282 125.261 21.9392L125.101 20.6961ZM128.377 20.6575C129.079 20.6409 129.803 20.6188 130.527 20.5801V13.9779H128.377V20.6575Z" fill="#FF9143"/>
</svg>
