
<svg width="24" height="24" viewBox="0 0 24 24" fill="none" xmlns="http://www.w3.org/2000/svg">
<g id="Icon/trashcan">
<g id="Vector">
<path fill-rule="evenodd" clip-rule="evenodd" d="M3.75 7C3.75 6.58579 4.08579 6.25 4.5 6.25H19.5C19.9142 6.25 20.25 6.58579 20.25 7C20.25 7.41421 19.9142 7.75 19.5 7.75H4.5C4.08579 7.75 3.75 7.41421 3.75 7Z" fill="#E80018"/>
<path fill-rule="evenodd" clip-rule="evenodd" d="M5.42649 8.25361C5.83871 8.21301 6.20579 8.51427 6.24639 8.92649L7.06323 17.2205C7.17665 18.3722 8.14516 19.25 9.30239 19.25H14.6976C15.8548 19.25 16.8234 18.3722 16.9368 17.2205L17.7536 8.92649C17.7942 8.51427 18.1613 8.21301 18.5735 8.25361C18.9857 8.29421 19.287 8.66129 19.2464 9.07351L18.4296 17.3675C18.2405 19.287 16.6263 20.75 14.6976 20.75H9.30239C7.37367 20.75 5.75948 19.287 5.57045 17.3675L4.75361 9.07351C4.71301 8.66129 5.01427 8.29421 5.42649 8.25361Z" fill="#E80018"/>
<path fill-rule="evenodd" clip-rule="evenodd" d="M9.47256 10.4007C9.80355 10.3849 10.0847 10.6405 10.1004 10.9715L10.3384 15.9715C10.3542 16.3025 10.0986 16.5836 9.7676 16.5993C9.43661 16.6151 9.15551 16.3595 9.13975 16.0285L8.90176 11.0285C8.88601 10.6975 9.14156 10.4164 9.47256 10.4007Z" fill="#E80018"/>
<path fill-rule="evenodd" clip-rule="evenodd" d="M14.5274 10.4007C14.1964 10.3849 13.9153 10.6405 13.8996 10.9715L13.6616 15.9715C13.6458 16.3025 13.9014 16.5836 14.2324 16.5993C14.5634 16.6151 14.8445 16.3595 14.8602 16.0285L15.0982 11.0285C15.114 10.6975 14.8584 10.4164 14.5274 10.4007Z" fill="#E80018"/>
<path fill-rule="evenodd" clip-rule="evenodd" d="M10.0825 5.47508C9.82294 5.79232 9.35575 5.84264 9.03442 5.58627C8.71063 5.32794 8.65757 4.85604 8.9159 4.53225L9.50217 5C8.9159 4.53225 8.9159 4.53225 8.9159 4.53225L8.91688 4.53102L8.91794 4.5297L8.92031 4.52677L8.92601 4.51981L8.94127 4.50165C8.95316 4.48772 8.96854 4.47021 8.98742 4.44965C9.02516 4.40857 9.07713 4.35509 9.1436 4.29351C9.27635 4.17056 9.46858 4.01386 9.72256 3.8593C10.2343 3.54787 10.9898 3.25 11.9909 3.25C12.9995 3.25 13.759 3.54691 14.2736 3.85836C14.5289 4.01289 14.722 4.16965 14.8553 4.2928C14.9221 4.35447 14.9743 4.40806 15.0122 4.44927C15.0311 4.46989 15.0466 4.48746 15.0586 4.50145L15.0739 4.51971L15.0796 4.52672L15.082 4.52968L15.0831 4.53101L15.0841 4.53226C15.3424 4.85605 15.2894 5.32795 14.9656 5.58627C14.6443 5.8426 14.1772 5.79234 13.9176 5.4752C13.9162 5.47359 13.9131 5.47005 13.9082 5.46479C13.8958 5.45131 13.8723 5.42678 13.8376 5.3947C13.7679 5.33035 13.6547 5.23711 13.497 5.14164C13.1854 4.95309 12.6914 4.75 11.9909 4.75C11.3011 4.75 10.8122 4.95213 10.5023 5.1407C10.3455 5.23614 10.2326 5.32944 10.1629 5.39399C10.1282 5.42616 10.1046 5.4508 10.0921 5.46441C10.0871 5.46985 10.0839 5.47348 10.0825 5.47508Z" fill="#E80018"/>
</g>
</g>
</svg>
