<svg width="40" height="40" viewBox="0 0 40 40" fill="none" xmlns="http://www.w3.org/2000/svg">
<g id="Icon/hat">
<path id="Union" fill-rule="evenodd" clip-rule="evenodd" d="M25.6599 11.9217C25.1487 12.112 24.5792 11.8547 24.3862 11.3461L23.6882 9.50661C23.1203 8.01023 21.6694 6.95405 19.9783 6.95405C18.2902 6.95405 16.8414 8.00648 16.2714 9.49879L15.575 11.3223C15.382 11.8275 14.8169 12.0842 14.3073 11.8979L12.4685 11.2256C12.0466 11.0713 11.588 10.9858 11.1027 10.9858C8.91359 10.9858 7.139 12.7533 7.139 14.9336C7.139 16.9114 8.60207 18.5542 10.5084 18.8378L12.1974 19.0891C12.6827 19.1613 13.0419 19.5765 13.0419 20.0652V27.6147H16.2173L15.415 23.7818C15.3368 23.4083 15.5774 23.0423 15.9524 22.9644C16.3275 22.8866 16.6949 23.1263 16.773 23.4998L17.6344 27.6147H19.2781V23.4762C19.2781 23.0946 19.5886 22.7853 19.9717 22.7853C20.3548 22.7853 20.6654 23.0946 20.6654 23.4762V27.6147H22.3958L23.2571 23.4998C23.3353 23.1262 23.7027 22.8866 24.0777 22.9644C24.4527 23.0423 24.6934 23.4083 24.6152 23.7818L23.8129 27.6147H26.9147V20.0607C26.9147 19.5696 27.2772 19.1532 27.7653 19.0837L29.4665 18.8413C31.3846 18.5681 32.8602 16.9199 32.8602 14.9336C32.8602 12.7533 31.0856 10.9858 28.8965 10.9858C28.4031 10.9858 27.9372 11.0742 27.5094 11.2334L25.6599 11.9217ZM13.0419 32.6989V29.5887H26.9147V32.6989H13.0419ZM29.8874 21.7724C33.2489 21.2935 35.8329 18.4141 35.8329 14.9336C35.8329 11.118 32.7274 8.02487 28.8965 8.02487C28.0425 8.02487 27.2245 8.17861 26.4689 8.45981C25.4784 5.84942 22.946 3.99316 19.9783 3.99316C17.0159 3.99316 14.4872 5.8429 13.4929 8.44604C12.7478 8.17359 11.9427 8.02487 11.1027 8.02487C7.27179 8.02487 4.16626 11.118 4.16626 14.9336C4.16626 18.3994 6.72848 21.2691 10.0692 21.7662V33.6859C10.0692 34.7761 10.9565 35.6598 12.051 35.6598H27.9056C29.0002 35.6598 29.8874 34.7761 29.8874 33.6859V21.7724Z" fill="#FF9143"/>
</g>
</svg>
