<svg width="28" height="24" viewBox="0 0 28 24" fill="none" xmlns="http://www.w3.org/2000/svg">
<g id="Group 66">
<g id="Union">
<mask id="path-1-inside-1_2904_4475" fill="white">
<path fill-rule="evenodd" clip-rule="evenodd" d="M27.3331 13.3503C27.3331 18.2794 21.2245 21.8246 16.4108 22.8852C15.6342 23.0563 14.8273 23.1465 13.9993 23.1465C13.6069 23.1465 13.2193 23.1263 12.8374 23.0868C10.9053 22.8868 8.86638 23.1467 6.92403 23.1467V23.1467C3.46756 23.1467 0.665527 20.101 0.665527 16.344V16.344C0.665527 12.6179 2.66586 8.82731 4.75519 5.74209C6.76098 2.78024 10.1528 0.833618 13.9993 0.833618C16.7415 0.833618 19.2526 1.82294 21.1952 3.46413C24.1384 5.95071 27.3331 9.49726 27.3331 13.3503V13.3503V13.3503Z"/>
</mask>
<path fill-rule="evenodd" clip-rule="evenodd" d="M27.3331 13.3503C27.3331 18.2794 21.2245 21.8246 16.4108 22.8852C15.6342 23.0563 14.8273 23.1465 13.9993 23.1465C13.6069 23.1465 13.2193 23.1263 12.8374 23.0868C10.9053 22.8868 8.86638 23.1467 6.92403 23.1467V23.1467C3.46756 23.1467 0.665527 20.101 0.665527 16.344V16.344C0.665527 12.6179 2.66586 8.82731 4.75519 5.74209C6.76098 2.78024 10.1528 0.833618 13.9993 0.833618C16.7415 0.833618 19.2526 1.82294 21.1952 3.46413C24.1384 5.95071 27.3331 9.49726 27.3331 13.3503V13.3503V13.3503Z" fill="#F2F2F2"/>
<path d="M12.8374 23.0868L12.7859 23.5841L12.8374 23.0868ZM13.9993 23.6465C14.8637 23.6465 15.7067 23.5524 16.5184 23.3735L16.3032 22.397C15.5617 22.5603 14.7909 22.6465 13.9993 22.6465V23.6465ZM12.7859 23.5841C13.1849 23.6254 13.5897 23.6465 13.9993 23.6465V22.6465C13.6242 22.6465 13.2537 22.6272 12.8888 22.5894L12.7859 23.5841ZM0.165527 16.344C0.165527 20.3371 3.15298 23.6467 6.92403 23.6467V22.6467C3.78213 22.6467 1.16553 19.8649 1.16553 16.344H0.165527ZM13.9993 0.333618C9.97998 0.333618 6.43603 2.36839 4.34119 5.46173L5.16919 6.02246C7.08593 3.1921 10.3257 1.33362 13.9993 1.33362V0.333618ZM21.5179 3.08219C19.4884 1.36763 16.864 0.333618 13.9993 0.333618V1.33362C16.619 1.33362 19.0168 2.27826 20.8725 3.84607L21.5179 3.08219ZM1.16553 16.344C1.16553 12.7773 3.08912 9.09399 5.16919 6.02246L4.34119 5.46173C2.24259 8.56062 0.165527 12.4584 0.165527 16.344H1.16553ZM20.8725 3.84607C22.3261 5.07417 23.825 6.55041 24.9572 8.18008C26.0909 9.81181 26.8331 11.5625 26.8331 13.3503H27.8331C27.8331 11.285 26.9779 9.33594 25.7784 7.6095C24.5775 5.88101 23.0074 4.34067 21.5179 3.08219L20.8725 3.84607ZM12.8888 22.5894C11.8858 22.4856 10.8638 22.502 9.86447 22.5421C8.85329 22.5828 7.88193 22.6467 6.92403 22.6467V23.6467C7.90848 23.6467 8.92777 23.5806 9.90465 23.5413C10.8934 23.5016 11.8569 23.488 12.7859 23.5841L12.8888 22.5894ZM16.5184 23.3735C18.9861 22.8298 21.7865 21.6509 23.9816 19.965C26.1701 18.2842 27.8331 16.0359 27.8331 13.3503H26.8331C26.8331 15.5938 25.4418 17.5827 23.3725 19.1719C21.3099 20.756 18.6492 21.88 16.3032 22.397L16.5184 23.3735Z" fill="#DEDCD7" mask="url(#path-1-inside-1_2904_4475)"/>
</g>
<circle id="Ellipse 72" cx="12.9118" cy="10.9014" r="6.2585" fill="#F6BA85"/>
<circle id="Ellipse 89" cx="10.4935" cy="8.11326" r="0.823103" fill="#FFFADC"/>
</g>
</svg>
