<svg width="28" height="24" viewBox="0 0 28 24" fill="none" xmlns="http://www.w3.org/2000/svg">
<g id="Group 67">
<path id="Polygon 6" d="M16.3659 2.0928L26.6887 19.3764C27.7858 21.2134 26.4623 23.5455 24.3226 23.5455H3.67707C1.53737 23.5455 0.213852 21.2134 1.31101 19.3764L11.6338 2.09279C12.7031 0.3024 15.2966 0.302403 16.3659 2.0928Z" fill="#EBEBEB" stroke="#DEDCD7" stroke-width="0.5"/>
<ellipse id="Ellipse 106" cx="11.6319" cy="5.4422" rx="0.601189" ry="0.901784" transform="rotate(-21.2156 11.6319 5.4422)" fill="#D6D6D6"/>
<ellipse id="Ellipse 107" cx="0.60119" cy="0.901785" rx="0.60119" ry="0.901785" transform="matrix(-0.932226 -0.361878 -0.361878 0.932226 4.35107 19.5651)" fill="#D6D6D6"/>
<ellipse id="Ellipse 108" cx="12.6786" cy="4.93891" rx="0.601189" ry="0.901785" transform="rotate(10.9022 12.6786 4.93891)" fill="#D6D6D6"/>
<ellipse id="Ellipse 109" cx="5.11688" cy="19.0702" rx="0.60119" ry="0.901785" transform="rotate(-9.18907 5.11688 19.0702)" fill="#D6D6D6"/>
<ellipse id="Ellipse 110" cx="22.5524" cy="20.2726" rx="0.601189" ry="0.901785" transform="rotate(-9.18907 22.5524 20.2726)" fill="#D6D6D6"/>
<ellipse id="Ellipse 111" cx="23.101" cy="19.6033" rx="0.560801" ry="0.841201" transform="rotate(8.93818 23.101 19.6033)" fill="#D6D6D6"/>
<ellipse id="Ellipse 112" cx="20.7484" cy="11.8558" rx="0.60119" ry="0.901784" transform="rotate(11.4595 20.7484 11.8558)" fill="#D6D6D6"/>
<path id="Rectangle 122" d="M9.7915 11.9012C9.7915 11.6636 9.98408 11.4711 10.2216 11.4711V11.4711L10.8297 11.6124L11.2808 11.4711H18.3093C18.5855 11.4711 18.8093 11.6949 18.8093 11.9711V15.901L18.5384 16.4963L18.6909 16.8361L18.5384 17.5311L18.8093 17.8011V23.88H9.7915V22.4658L10.0255 22.0974L9.7915 21.6321V14.9285L10.0255 14.5043L9.7915 14.0223V11.9012Z" fill="#394A37"/>
</g>
</svg>
