<svg width="32" height="33" viewBox="0 0 32 33" fill="none" xmlns="http://www.w3.org/2000/svg">
<g id="Frame 950">
<path id="Vector 272" d="M21.5996 6.89995L23.9511 4.54848C24.4197 4.07985 25.1795 4.07985 25.6481 4.54848L27.9511 6.85142C28.4197 7.32005 28.4197 8.07985 27.9511 8.54848L25.5996 10.9" stroke="#3A3A3A" stroke-width="0.96"/>
<path id="Vector 273" d="M10.4004 26.1L8.04892 28.4515C7.58029 28.9201 6.82049 28.9201 6.35186 28.4515L4.04892 26.1486C3.58029 25.6799 3.58029 24.9201 4.04892 24.4515L6.40039 22.1" stroke="#3A3A3A" stroke-width="0.96"/>
<circle id="Ellipse 139" cx="16.0002" cy="16.5" r="12.2" fill="#3A3A3A" stroke="#4E4E4E" stroke-width="1.2"/>
<path id="Union" fill-rule="evenodd" clip-rule="evenodd" d="M5.98885 17.6452C5.98885 21.1596 9.58976 24.7609 12.8882 25.9739C13.5561 26.2195 14.282 26.3542 15.041 26.3542C15.7479 26.3542 16.4261 26.2373 17.0554 26.0229C17.3933 25.9078 17.7494 25.8526 18.1063 25.8526C21.9671 25.8526 26.0801 22.061 26.678 18.2468C26.7323 17.9006 26.7607 17.5431 26.7607 17.1773C26.7607 15.3772 26.0724 13.7764 25.0041 12.7571C24.8091 12.571 24.6951 12.3131 24.6951 12.0436C24.6951 8.94958 22.2259 6.44141 19.18 6.44141C18.6955 6.44141 18.2255 6.50489 17.7778 6.6241C16.1737 7.0512 14.3334 7.25546 12.6735 7.25546C9.71546 7.25546 7.31752 9.76364 7.31752 12.8576C7.31752 13.7469 7.02168 14.6373 6.57927 15.4087C6.20439 16.0624 5.98885 16.8275 5.98885 17.6452Z" fill="#A8957E"/>
<g id="Rectangle 33258" filter="url(#filter0_i_2904_4148)">
<rect width="5.825" height="6.08003" rx="0.84" transform="matrix(0.981251 0.192735 0.192735 -0.981251 12.3965 26.5579)" fill="#FEF4E3"/>
</g>
<g id="Rectangle 33257" filter="url(#filter1_i_2904_4148)">
<rect width="6.54883" height="6.28906" rx="0.84" transform="matrix(1 0 0 -1 7.86523 25.7906)" fill="#FEF4E3"/>
</g>
<g id="Group 74">
<g id="Union_2" filter="url(#filter2_i_2904_4148)">
<path fill-rule="evenodd" clip-rule="evenodd" d="M20.4192 7.00469L20.4205 7.00402L18.6213 3.62495L17.819 6.19023L17.8188 6.19016L16.4355 10.6132L19.0363 11.4266L20.4192 7.00469Z" fill="#8CD25F"/>
</g>
<g id="Union_3" filter="url(#filter3_i_2904_4148)">
<path fill-rule="evenodd" clip-rule="evenodd" d="M21.5914 10.4589L21.5918 10.4589L19.9303 7.59112L19.1266 9.299L19.126 9.2987L17.7405 12.2429L20.2061 13.4032L21.5916 10.459L21.5914 10.4589Z" fill="#64964B"/>
</g>
<g id="Subtract" filter="url(#filter4_i_2904_4148)">
<path fill-rule="evenodd" clip-rule="evenodd" d="M22.3194 8.90032L22.3178 8.90058L22.3192 8.90124L19.1812 15.5693L19.1804 15.5689L21.8035 9.995L21.8021 9.99432L21.8037 9.99405L20.1226 7.11773L20.6377 6.02307L22.3194 8.90032Z" fill="#64964B"/>
</g>
<g id="Subtract_2" filter="url(#filter5_i_2904_4148)">
<path fill-rule="evenodd" clip-rule="evenodd" d="M23.0674 7.31462L23.0658 7.31489L23.0672 7.31557L19.9293 13.9836L19.9283 13.9832L22.5512 8.40938L22.5498 8.4087L22.5514 8.40843L20.8704 5.53237L21.3857 4.43738L23.0674 7.31462Z" fill="#64964B"/>
</g>
<g id="Union_4" filter="url(#filter6_i_2904_4148)">
<path fill-rule="evenodd" clip-rule="evenodd" d="M24.5065 9.95709L24.5074 9.95679L23.1855 6.36401L20.8965 11.2283L20.8975 11.2279L20.0682 12.9902L22.5338 14.1505L24.5071 9.95736L24.5065 9.95709Z" fill="#8CD25F"/>
</g>
</g>
<g id="Group 78">
<g id="Group 75">
<path id="Rectangle 33253" d="M15.5314 4.52943C15.7127 4.48384 15.8887 4.62028 15.8897 4.80717L15.8921 5.25283C15.8933 5.48531 15.9509 5.71402 16.0597 5.91943L16.2747 6.32507C16.3836 6.53048 16.4411 6.7592 16.4424 6.99168L16.4449 7.45078C16.4461 7.68326 16.5036 7.91198 16.6125 8.11738L16.8275 8.52303C16.9364 8.72843 16.9939 8.95715 16.9952 9.18963L16.9976 9.64873C16.9989 9.88121 17.0564 10.1099 17.1653 10.3153L17.3803 10.721C17.4892 10.9264 17.5467 11.1551 17.5479 11.3876L17.5504 11.8467C17.5517 12.0792 17.6092 12.3079 17.7181 12.5133L17.9268 12.9071C18.0143 13.0722 17.9238 13.2756 17.7425 13.3212L14.3139 14.1837C14.1975 14.213 14.0751 14.167 14.0068 14.0683L13.7391 13.6816C13.5408 13.395 13.4531 13.0463 13.4923 12.7001L13.5068 12.5715C13.546 12.2252 13.4583 11.8765 13.26 11.59L13.1863 11.4836C12.988 11.1971 12.9003 10.8484 12.9395 10.5021L12.9541 10.3735C12.9932 10.0273 12.9055 9.67855 12.7072 9.39203L12.6336 9.28566C12.4352 8.99914 12.3475 8.65041 12.3867 8.30415L12.4013 8.17559C12.4405 7.82933 12.3528 7.4806 12.1544 7.19408L12.0808 7.08771C11.8825 6.80119 11.7948 6.45246 11.834 6.1062L11.8868 5.6388C11.9003 5.51954 11.9864 5.42116 12.1028 5.39188L15.5314 4.52943Z" fill="#FA5046"/>
<path id="Intersect" fill-rule="evenodd" clip-rule="evenodd" d="M11.824 6.17893L15.8888 5.15648L15.8893 5.25066C15.8905 5.48318 15.9481 5.71193 16.057 5.91737L16.1167 6.03001L12.0545 7.0518C11.886 6.79285 11.8053 6.48676 11.824 6.17893Z" fill="#FF695F"/>
<path id="Intersect_2" fill-rule="evenodd" clip-rule="evenodd" d="M12.3738 8.37731L16.4385 7.35485L16.4391 7.44896C16.4403 7.68148 16.4978 7.91023 16.6067 8.11567L16.6665 8.22837L12.6043 9.25016C12.4358 8.99122 12.3551 8.68513 12.3738 8.37731Z" fill="#FF695F"/>
<path id="Intersect_3" fill-rule="evenodd" clip-rule="evenodd" d="M12.9275 10.571L16.9923 9.54857L16.9928 9.64273C16.994 9.87525 17.0516 10.104 17.1605 10.3094L17.2202 10.4221L13.158 11.4439C12.9895 11.1849 12.9088 10.8789 12.9275 10.571Z" fill="#FF695F"/>
<path id="Intersect_4" fill-rule="evenodd" clip-rule="evenodd" d="M13.4773 12.7648L17.5421 11.7423L17.5426 11.8364C17.5438 12.0689 17.6013 12.2977 17.7102 12.5031L17.77 12.6158L13.7079 13.6376C13.5393 13.3787 13.4586 13.0726 13.4773 12.7648Z" fill="#FF695F"/>
</g>
<g id="Group 77">
<path id="Rectangle 33253_2" d="M8.6017 8.30869C8.72968 8.17209 8.95192 8.19197 9.05363 8.34912L9.29356 8.71984C9.42121 8.91707 9.59518 9.08008 9.80029 9.19463L10.195 9.4151C10.4001 9.52965 10.5741 9.69266 10.7017 9.88989L10.9474 10.2695C11.0751 10.4667 11.249 10.6297 11.4541 10.7443L11.8489 10.9647C12.054 11.0793 12.2279 11.2423 12.3556 11.4395L12.6013 11.8191C12.7289 12.0163 12.9029 12.1793 13.108 12.2939L13.5027 12.5143C13.7078 12.6289 13.8818 12.7919 14.0094 12.9891L14.2551 13.3687C14.3828 13.566 14.5567 13.729 14.7618 13.8435L15.1474 14.0588C15.3108 14.1501 15.3451 14.3706 15.2171 14.5072L12.7695 17.1197C12.6877 17.207 12.5604 17.2346 12.4498 17.1891L12.018 17.0115C11.6924 16.8776 11.4272 16.6291 11.2724 16.3129L11.22 16.2058C11.0652 15.8897 10.8 15.6411 10.4744 15.5072L10.3641 15.4619C10.0386 15.328 9.77335 15.0795 9.61856 14.7633L9.56613 14.6562C9.41135 14.34 9.14612 14.0915 8.82056 13.9576L8.71028 13.9123C8.38473 13.7784 8.1195 13.5298 7.96472 13.2137L7.91228 13.1066C7.7575 12.7904 7.49227 12.5419 7.16672 12.408L7.05644 12.3626C6.73089 12.2287 6.46565 11.9802 6.31087 11.664L6.10558 11.2447C6.05297 11.1373 6.07227 11.0085 6.15407 10.9212L8.6017 8.30869Z" fill="#FA5046"/>
<path id="Intersect_5" fill-rule="evenodd" clip-rule="evenodd" d="M6.34169 11.7365L9.23842 8.64465L9.28728 8.72015C9.41495 8.91742 9.58894 9.08046 9.79409 9.19502L9.90288 9.25578L7.00804 12.3456C6.72611 12.2191 6.4926 12.0054 6.34169 11.7365Z" fill="#FF695F"/>
<path id="Intersect_6" fill-rule="evenodd" clip-rule="evenodd" d="M7.998 13.2878L10.8947 10.196L10.9437 10.2716C11.0713 10.4689 11.2453 10.6319 11.4505 10.7465L11.5591 10.8072L8.66428 13.897C8.38237 13.7705 8.14888 13.5567 7.998 13.2878Z" fill="#FF695F"/>
<path id="Intersect_7" fill-rule="evenodd" clip-rule="evenodd" d="M9.64839 14.833L12.5451 11.7412L12.594 11.8168C12.7217 12.0141 12.8957 12.1771 13.1009 12.2917L13.2095 12.3523L10.3147 15.4421C10.0328 15.3157 9.79927 15.1019 9.64839 14.833Z" fill="#FF695F"/>
<path id="Intersect_8" fill-rule="evenodd" clip-rule="evenodd" d="M11.2988 16.38L14.1955 13.2882L14.2444 13.3638C14.3721 13.561 14.5461 13.7241 14.7512 13.8386L14.8599 13.8993L11.9651 16.9891C11.6832 16.8626 11.4497 16.6489 11.2988 16.38Z" fill="#FF695F"/>
</g>
<g id="Group 76">
<path id="Rectangle 33253_3" d="M10.4626 5.98349C10.5901 5.84739 10.8114 5.86654 10.9136 6.02253L11.1608 6.39965C11.2865 6.59146 11.4562 6.75047 11.6557 6.86345L12.063 7.09402C12.2626 7.207 12.4323 7.366 12.558 7.55781L12.8146 7.94928C12.9403 8.14109 13.11 8.3001 13.3096 8.41308L13.7169 8.64365C13.9165 8.75662 14.0862 8.91563 14.2119 9.10744L14.4684 9.49891C14.5942 9.69072 14.7639 9.84973 14.9634 9.9627L15.3707 10.1933C15.5703 10.3062 15.74 10.4653 15.8657 10.6571L16.1223 11.0485C16.248 11.2403 16.4177 11.3994 16.6173 11.5123L17.0097 11.7345C17.172 11.8263 17.2055 12.0459 17.0779 12.182L14.6996 14.7205C14.6172 14.8084 14.4888 14.8358 14.3778 14.789L13.9401 14.6048C13.6231 14.4714 13.3644 14.2289 13.2106 13.9213L13.147 13.7939C12.9932 13.4863 12.7345 13.2438 12.4175 13.1104L12.2863 13.0552C11.9693 12.9218 11.7105 12.6793 11.5568 12.3717L11.4931 12.2443C11.3394 11.9367 11.0806 11.6942 10.7636 11.5608L10.6324 11.5056C10.3154 11.3721 10.0567 11.1297 9.90292 10.822L9.83927 10.6947C9.68553 10.387 9.42676 10.1446 9.10978 10.0112L8.97856 9.95593C8.66158 9.82252 8.40281 9.58006 8.24907 9.27241L8.0368 8.84764C7.98293 8.73984 8.00186 8.60991 8.08425 8.52197L10.4626 5.98349Z" fill="#FF8F82"/>
<path id="Intersect_9" fill-rule="evenodd" clip-rule="evenodd" d="M8.28071 9.33552L11.1067 6.31919L11.1605 6.40122C11.2862 6.59307 11.4559 6.7521 11.6556 6.86509L11.771 6.93046L8.94705 9.94465C8.66512 9.81817 8.43162 9.60446 8.28071 9.33552Z" fill="#FF695F"/>
<path id="Intersect_10" fill-rule="evenodd" clip-rule="evenodd" d="M9.93793 10.8856L12.764 7.86923L12.8177 7.95127C12.9434 8.14312 13.1132 8.30215 13.3128 8.41514L13.4283 8.48051L10.6043 11.4947C10.3223 11.3682 10.0888 11.1545 9.93793 10.8856Z" fill="#FF695F"/>
<path id="Intersect_11" fill-rule="evenodd" clip-rule="evenodd" d="M11.5873 12.4322L14.4134 9.41587L14.4671 9.4979C14.5929 9.68975 14.7626 9.84878 14.9622 9.96177L15.0777 10.0271L12.2537 13.0413C11.9718 12.9148 11.7383 12.7011 11.5873 12.4322Z" fill="#FF695F"/>
<path id="Intersect_12" fill-rule="evenodd" clip-rule="evenodd" d="M13.2368 13.9777L16.0628 10.9614L16.1165 11.0434C16.2423 11.2353 16.412 11.3943 16.6116 11.5073L16.7271 11.5727L13.9031 14.5869C13.6212 14.4604 13.3877 14.2467 13.2368 13.9777Z" fill="#FF695F"/>
</g>
</g>
<g id="Group 74_2">
<rect id="Rectangle 33247" x="19.208" y="13.5979" width="6.71625" height="4.41184" rx="0.6048" transform="rotate(-27.1216 19.208 13.5979)" fill="#D28B53"/>
<path id="Subtract_3" fill-rule="evenodd" clip-rule="evenodd" d="M20.4147 13.7205L19.9466 13.2175L20.7458 12.8081L21.0472 13.1319C21.8569 14.002 22.4117 15.078 22.6509 16.2422L22.7524 16.7365L21.9543 17.1453L21.8045 16.4161C21.5972 15.4071 21.1164 14.4746 20.4147 13.7205Z" fill="#E4A777"/>
<path id="Subtract_4" fill-rule="evenodd" clip-rule="evenodd" d="M22.1876 12.8123L21.7196 12.3094L22.5188 11.9L22.8201 12.2237C23.6298 13.0938 24.1846 14.1698 24.4238 15.3341L24.5258 15.8305L23.7277 16.2392L23.5775 15.5079C23.3702 14.499 22.8894 13.5664 22.1876 12.8123Z" fill="#E4A777"/>
<path id="Subtract_5" fill-rule="evenodd" clip-rule="evenodd" d="M23.8718 11.9487L23.4037 11.4457L24.203 11.0363L24.5043 11.3601C25.3139 12.2302 25.8687 13.3062 26.1079 14.4704L26.2095 14.965L25.4115 15.3738L25.2616 14.6443C25.0543 13.6353 24.5735 12.7027 23.8718 11.9487Z" fill="#E4A777"/>
</g>
<g id="Group 84">
<rect id="Rectangle 33247_2" x="20.9717" y="15.8248" width="6.71625" height="4.41184" rx="0.6048" transform="rotate(-9.74326 20.9717 15.8248)" fill="#D28B53"/>
<path id="Subtract_6" fill-rule="evenodd" clip-rule="evenodd" d="M22.0865 16.3018L21.7903 15.6824L22.6753 15.5304L22.866 15.929C23.3788 17.0012 23.5869 18.1938 23.4674 19.3763L23.4166 19.8799L22.5328 20.0317L22.6078 19.2895C22.7113 18.2646 22.531 17.231 22.0865 16.3018Z" fill="#E4A777"/>
<path id="Subtract_7" fill-rule="evenodd" clip-rule="evenodd" d="M24.0505 15.9641L23.7542 15.3447L24.6393 15.1928L24.8299 15.5913C25.3427 16.6635 25.5508 17.8561 25.4314 19.0387L25.3805 19.5426L24.4967 19.6943L24.5717 18.9518C24.6753 17.927 24.4949 16.8934 24.0505 15.9641Z" fill="#E4A777"/>
<path id="Subtract_8" fill-rule="evenodd" clip-rule="evenodd" d="M25.9157 15.6442L25.6194 15.0248L26.5044 14.8728L26.6951 15.2714C27.2079 16.3436 27.416 17.5362 27.2966 18.7187L27.2457 19.2225L26.362 19.3743L26.4369 18.6319C26.5405 17.6071 26.3601 16.5735 25.9157 15.6442Z" fill="#E4A777"/>
</g>
<g id="Group 79">
<rect id="Rectangle 33247_3" x="20.8818" y="16.9012" width="6.71625" height="4.19662" rx="0.6048" transform="rotate(12.0618 20.8818 16.9012)" fill="#D28B53"/>
<path id="Subtract_9" fill-rule="evenodd" clip-rule="evenodd" d="M21.7298 17.5755L21.6901 17.074L22.5718 17.2624L22.5911 17.5073C22.6895 18.7505 22.4271 19.9956 21.8353 21.0934L21.6887 21.3655L20.8085 21.1774L21.0748 20.6834C21.5877 19.732 21.8151 18.6529 21.7298 17.5755Z" fill="#E4A777"/>
<path id="Subtract_10" fill-rule="evenodd" clip-rule="evenodd" d="M23.68 17.9926L23.6403 17.4911L24.5219 17.6795L24.5413 17.9244C24.6397 19.1676 24.3773 20.4127 23.7855 21.5104L23.6389 21.7825L22.7587 21.5945L23.025 21.1005C23.5378 20.1491 23.7653 19.07 23.68 17.9926Z" fill="#E4A777"/>
<path id="Subtract_11" fill-rule="evenodd" clip-rule="evenodd" d="M25.5318 18.3881L25.4921 17.8866L26.3737 18.075L26.3931 18.3199C26.4915 19.5631 26.2291 20.8083 25.6373 21.906L25.4903 22.1788L24.6101 21.9907L24.8768 21.496C25.3896 20.5447 25.6171 19.4655 25.5318 18.3881Z" fill="#E4A777"/>
</g>
<g id="Group 81">
<g id="Group 79_2">
<path id="Vector 287" d="M6.22603 15.1241C7.24475 15.055 8.27706 15.1339 9.28837 15.1966C10.1893 15.2525 11.0903 15.3278 11.9966 15.3168C13.3376 15.3005 14.6741 15.2364 16.0114 15.2994C16.8275 15.3379 17.7341 15.4834 18.5641 15.3263" stroke="#E8DFC6" stroke-width="0.576013" stroke-linecap="round"/>
<path id="Vector 277" d="M5.31295 14.3679C6.33166 14.2988 7.36397 14.3777 8.37529 14.4404C9.27624 14.4963 10.1773 14.5716 11.0835 14.5606C12.4245 14.5443 13.761 14.4801 15.0983 14.5432C15.9144 14.5817 16.821 14.7272 17.651 14.5701" stroke="#E8DFC6" stroke-width="0.576013" stroke-linecap="round"/>
<path id="Vector 286" d="M5.4731 14.8804C6.49182 14.8112 7.52413 14.8902 8.53544 14.9529C9.4364 15.0087 10.3374 15.0841 11.2437 15.073C12.5847 15.0567 13.9212 14.9926 15.2584 15.0557C16.0745 15.0941 16.9812 15.2397 17.8111 15.0826" stroke="#F6F0DF" stroke-width="0.576013" stroke-linecap="round"/>
<path id="Vector 274" d="M6.18657 13.5616C6.27246 13.1898 6.33322 13.0344 6.70466 12.9847C6.94695 12.9522 7.21112 13.0657 6.8626 13.2787C6.69138 13.3833 6.3068 13.5371 6.17161 13.3062C6.10566 13.1935 6.32841 13.1104 6.38429 13.0787" stroke="#F0E7CF" stroke-width="0.576013" stroke-linecap="round"/>
<path id="Vector 275" d="M6.8263 13.2666C9.94646 14.2742 13.2722 14.2762 16.5092 14.7075" stroke="#F0E7CF" stroke-width="0.576013" stroke-linecap="round"/>
<path id="Vector 276" d="M4.73918 14.5521C4.5965 14.5266 4.49307 14.9337 4.66279 15.0185C4.85254 15.1133 5.09044 14.6532 4.9171 14.5184" stroke="#F6F0DF" stroke-width="0.576013" stroke-linecap="round"/>
<path id="Vector 278" d="M4.7195 15.7768C4.66415 15.8829 4.43959 16.1695 4.61568 16.2419C4.69844 16.276 4.83297 16.3225 4.90384 16.2261C4.98634 16.1139 4.84729 15.9547 4.75516 15.925" stroke="#EBE5D6" stroke-width="0.576013" stroke-linecap="round"/>
<path id="Vector 279" d="M4.71895 15.7769C5.62775 15.9733 6.55297 15.8756 7.48471 15.8195C9.75935 15.6826 12.0294 15.5034 14.304 15.4445C15.1933 15.4215 16.1812 15.4993 17.0622 15.2517C17.1862 15.2169 17.2659 15.1808 17.3858 15.2195" stroke="#F1EBD9" stroke-width="0.576013" stroke-linecap="round"/>
<g id="Vector 280 (Stroke)" filter="url(#filter7_i_2904_4148)">
<path fill-rule="evenodd" clip-rule="evenodd" d="M17.1241 15.1088C17.2256 15.117 17.4043 15.1327 17.564 15.2054C17.616 15.229 17.6911 15.2773 17.7441 15.3723C17.8004 15.4734 17.8064 15.5817 17.7915 15.6676C17.7678 15.8047 17.6904 15.8951 17.6703 15.9187L17.6698 15.9192C17.6116 15.9873 17.5375 16.0435 17.4916 16.0767C17.4374 16.1159 17.3806 16.1524 17.3344 16.1804C17.2984 16.2022 17.2411 16.2359 17.1964 16.2543C17.0502 16.3147 16.9076 16.3154 16.8283 16.3151C16.8034 16.315 16.783 16.3148 16.7659 16.3147C16.7109 16.3142 16.6908 16.3141 16.6701 16.318C16.5889 16.3333 16.5042 16.3576 16.4003 16.3883C16.3944 16.39 16.3885 16.3918 16.3824 16.3936C16.2881 16.4214 16.1768 16.4543 16.0632 16.478C15.9547 16.5006 15.841 16.54 15.7029 16.5908C15.6883 16.5962 15.6734 16.6017 15.6581 16.6073C15.5374 16.652 15.3967 16.7041 15.2541 16.7421C14.8993 16.8366 14.5436 16.8669 14.208 16.8786C14.051 16.8841 13.8944 16.8856 13.7436 16.887L13.7121 16.8873C13.55 16.8889 13.3946 16.8908 13.2423 16.8973C12.0577 16.9481 10.8849 17.0247 9.70737 17.1017C8.80502 17.1606 7.89993 17.2197 6.98472 17.2676C6.70277 17.2823 6.42172 17.3081 6.13149 17.3347C5.99375 17.3474 5.85396 17.3602 5.71101 17.3721C5.27563 17.4085 4.82502 17.4349 4.37811 17.4103C4.37521 17.4102 4.36858 17.4099 4.35965 17.4095C4.33311 17.4085 4.28631 17.4066 4.25732 17.4043C4.21037 17.4006 4.13317 17.3924 4.05507 17.3627C3.97534 17.3323 3.85158 17.2627 3.7831 17.1054C3.71458 16.9481 3.73915 16.79 3.77435 16.681C3.81217 16.5639 3.85913 16.4549 3.89759 16.366L3.90192 16.356C3.94095 16.2659 3.97134 16.1957 3.99575 16.1251C4.07133 15.9064 4.29487 15.7859 4.49506 15.8559C4.68124 15.9211 4.78164 16.1281 4.73398 16.3327C5.33262 16.1635 5.91822 16.1375 6.48373 16.1124L6.48628 16.1123C6.66095 16.1046 6.8395 16.095 7.01997 16.0853C7.13542 16.079 7.25166 16.0728 7.36815 16.067C7.37465 16.0633 7.38139 16.0594 7.38841 16.0555C7.47348 16.0074 7.58704 15.9474 7.72677 15.9112C8.24386 15.7771 8.79773 15.7848 9.27648 15.7915C9.38934 15.7931 9.49801 15.7946 9.60105 15.7942C10.3691 15.7911 11.0982 15.701 11.8568 15.5155C13.0776 15.2169 14.2641 15.0733 15.5056 15.0751C15.5947 15.0752 15.6851 15.075 15.7765 15.0748C16.2146 15.0738 16.675 15.0727 17.1241 15.1088Z" fill="#F0E7CF"/>
</g>
<path id="Vector 281" d="M10.8584 16.9396C13.1274 16.7117 15.3912 16.9823 17.6404 16.4286C17.7793 16.3944 17.4495 16.3775 17.433 16.2375" stroke="#EBE5D6" stroke-width="0.576013" stroke-linecap="round"/>
<path id="Vector 282" d="M4.43152 18.0981C4.912 18.0696 5.39438 17.9761 5.87573 17.9366C7.09382 17.8366 8.31112 17.7998 9.5291 17.7595C11.7876 17.6848 14.0223 17.5769 16.2709 17.2507C16.5889 17.2045 16.9071 17.1543 17.2243 17.1003C17.4164 17.0676 17.9854 17.098 17.8032 17.0392" stroke="#F1EBD9" stroke-width="0.576013" stroke-linecap="round"/>
<path id="Vector 283" d="M5.14671 17.5544C5.4853 17.5738 5.83491 17.5131 6.17478 17.489C7.07636 17.4251 7.97757 17.4069 8.87892 17.3775C10.0566 17.3391 11.2346 17.3926 12.411 17.3029" stroke="#F7F0DF" stroke-width="0.576013" stroke-linecap="round"/>
<g id="Union_5" filter="url(#filter8_i_2904_4148)">
<path fill-rule="evenodd" clip-rule="evenodd" d="M16.142 17.7396C16.3007 17.7289 16.4207 17.5916 16.41 17.4329C16.3994 17.2742 16.262 17.1542 16.1033 17.1649C14.1089 17.2991 12.1268 17.4662 10.1508 17.8021C9.6404 17.8888 9.12423 17.958 8.60171 18.028L8.60169 18.028C8.43806 18.0499 8.27379 18.0719 8.10889 18.0946C7.42128 18.1891 6.72739 18.2943 6.04881 18.4505C5.9873 18.4646 5.93496 18.4975 5.89643 18.5417C5.89213 18.5403 5.88788 18.5389 5.88368 18.5375C5.73232 18.4887 5.56999 18.5717 5.52111 18.7231C5.47223 18.8745 5.55531 19.0368 5.70667 19.0857C5.71727 19.0891 5.72473 19.0918 5.72976 19.0938L5.73573 19.1043C5.81205 19.2438 5.98705 19.2951 6.12661 19.2188C6.21478 19.1705 6.26771 19.0829 6.27548 18.9898C6.89715 18.8515 7.53694 18.7546 8.1873 18.6652C8.34779 18.6432 8.50921 18.6216 8.67114 18.5999C9.19585 18.5296 9.72594 18.4586 10.2473 18.37C12.1936 18.0392 14.152 17.8735 16.142 17.7396Z" fill="#F6F0DF"/>
</g>
<g id="Union_6" filter="url(#filter9_i_2904_4148)">
<path fill-rule="evenodd" clip-rule="evenodd" d="M16.5821 14.2967C16.7367 14.296 16.8543 14.4277 16.8447 14.5908C16.8351 14.7538 16.702 14.8866 16.5473 14.8873C14.5552 14.8959 12.577 14.8706 10.6105 14.6761C10.1021 14.6258 9.58717 14.5935 9.06626 14.5609C8.90321 14.5506 8.73956 14.5404 8.57535 14.5295C7.89017 14.4842 7.1995 14.4287 6.52592 14.3211C6.46525 14.3114 6.41349 14.2814 6.37536 14.2386C6.36923 14.2411 6.36317 14.2435 6.35719 14.2458C6.20902 14.3037 6.0522 14.227 6.00693 14.0745C5.96165 13.922 6.04507 13.7515 6.19324 13.6937C6.21061 13.6869 6.22072 13.6821 6.22603 13.6794C6.22813 13.6762 6.23122 13.6713 6.23539 13.6638C6.31664 13.5196 6.48945 13.4645 6.62137 13.5407C6.69902 13.5855 6.7452 13.6658 6.75348 13.7538C7.36852 13.8466 8.00269 13.8975 8.64716 13.9401C8.80723 13.9507 8.96819 13.9608 9.12963 13.9709L9.12969 13.9709C9.65264 14.0036 10.1806 14.0367 10.6993 14.088C12.6379 14.2798 14.5939 14.3053 16.5821 14.2967Z" fill="#F1EBD9"/>
</g>
</g>
</g>
<g id="Group 82">
<g id="Group 79_3">
<path id="Vector 287_2" d="M6.41348 19.3015C7.21648 19.0097 8.06399 18.8355 8.89096 18.6529C9.62767 18.4903 10.3689 18.3435 11.0946 18.125C12.1686 17.8018 13.2282 17.4406 14.3171 17.183C14.9817 17.0258 15.7434 16.9349 16.3747 16.615" stroke="#E8DFC6" stroke-width="0.576013" stroke-linecap="round"/>
<path id="Vector 277_2" d="M5.51016 18.8953C6.31316 18.6035 7.16067 18.4293 7.98764 18.2467C8.72435 18.084 9.46553 17.9372 10.1913 17.7188C11.2653 17.3955 12.3248 17.0344 13.4138 16.7768C14.0784 16.6196 14.8401 16.5287 15.4714 16.2088" stroke="#E8DFC6" stroke-width="0.576013" stroke-linecap="round"/>
<path id="Vector 286_2" d="M5.7543 19.2781C6.5573 18.9863 7.40481 18.8121 8.23178 18.6295C8.96849 18.4668 9.70968 18.32 10.4355 18.1016C11.5095 17.7784 12.569 17.4172 13.658 17.1596C14.3225 17.0024 15.0842 16.9115 15.7155 16.5916" stroke="#F6F0DF" stroke-width="0.576013" stroke-linecap="round"/>
<path id="Vector 274_2" d="M6.02994 18.0369C6.01462 17.7139 6.02819 17.5731 6.31542 17.4468C6.50278 17.3643 6.74081 17.3958 6.50905 17.65C6.39519 17.7749 6.12099 17.9891 5.95997 17.8321C5.88142 17.7555 6.04157 17.6362 6.07928 17.5974" stroke="#F0E7CF" stroke-width="0.576013" stroke-linecap="round"/>
<path id="Vector 275_2" d="M6.4755 17.6498C9.21156 17.7503 11.8847 16.9833 14.5839 16.5869" stroke="#F0E7CF" stroke-width="0.576013" stroke-linecap="round"/>
<path id="Vector 276_2" d="M5.08932 19.1798C4.96888 19.192 4.97811 19.5478 5.13374 19.5777C5.30774 19.6112 5.39456 19.1811 5.22467 19.1112" stroke="#F6F0DF" stroke-width="0.576013" stroke-linecap="round"/>
<path id="Vector 278_2" d="M5.35318 20.1819C5.33279 20.2812 5.21733 20.5668 5.37527 20.5851C5.4495 20.5938 5.56817 20.6006 5.60326 20.5057C5.64411 20.3951 5.49625 20.2974 5.41546 20.2945" stroke="#EBE5D6" stroke-width="0.576013" stroke-linecap="round"/>
<path id="Vector 279_2" d="M5.35368 20.1822C6.12858 20.1322 6.84995 19.8387 7.58602 19.5777C9.38297 18.9404 11.1667 18.2697 12.9812 17.696C13.6907 17.4717 14.5022 17.3068 15.1541 16.9014C15.2459 16.8443 15.3017 16.7965 15.4069 16.8003" stroke="#F1EBD9" stroke-width="0.576013" stroke-linecap="round"/>
<g id="Vector 280 (Stroke)_2" filter="url(#filter10_i_2904_4148)">
<path fill-rule="evenodd" clip-rule="evenodd" d="M15.1679 16.7707C15.2512 16.7539 15.3985 16.7254 15.5433 16.7477C15.5905 16.755 15.6618 16.777 15.7259 16.8422C15.7941 16.9116 15.8234 16.9986 15.831 17.072C15.843 17.1893 15.8014 17.2809 15.7905 17.3048L15.7903 17.3053C15.7589 17.3743 15.7121 17.4373 15.6827 17.4749C15.6481 17.5194 15.6107 17.5623 15.5799 17.5958C15.556 17.6219 15.5176 17.6626 15.4858 17.688C15.382 17.7709 15.2676 17.8045 15.2038 17.8226C15.1838 17.8283 15.1673 17.8328 15.1536 17.8367C15.1092 17.849 15.093 17.8535 15.0773 17.8615C15.0155 17.8928 14.9529 17.9322 14.8764 17.9811C14.8721 17.9839 14.8677 17.9867 14.8632 17.9896C14.7938 18.0341 14.7118 18.0867 14.6258 18.1322C14.5438 18.1757 14.4613 18.2341 14.3619 18.3074C14.3514 18.3152 14.3406 18.3232 14.3296 18.3313C14.2428 18.3956 14.1416 18.4706 14.0355 18.5345C13.7719 18.6936 13.4929 18.8005 13.2258 18.8876C13.1009 18.9283 12.9754 18.9658 12.8546 19.0018L12.8293 19.0093C12.6993 19.0481 12.5749 19.0855 12.454 19.126C11.5135 19.4412 10.5884 19.7747 9.65953 20.1096C8.94773 20.3662 8.23378 20.6236 7.50912 20.8741C7.28588 20.9512 7.06587 21.0372 6.83867 21.126C6.73085 21.1682 6.62141 21.2109 6.50924 21.2537C6.16759 21.3839 5.81144 21.5096 5.44672 21.5929C5.44436 21.5934 5.43897 21.5947 5.43171 21.5965C5.41014 21.6017 5.3721 21.611 5.34829 21.6159C5.30972 21.6237 5.24582 21.6348 5.17631 21.6287C5.10536 21.6224 4.99009 21.5942 4.89939 21.4818C4.80863 21.3693 4.79252 21.2348 4.79608 21.1378C4.79991 21.0335 4.81292 20.9338 4.82367 20.8524L4.82488 20.8433C4.8358 20.7608 4.8443 20.6965 4.84789 20.6333C4.85902 20.4375 5.01133 20.2876 5.1881 20.2984C5.3525 20.3085 5.48015 20.4541 5.48826 20.6319C5.93097 20.3556 6.39569 20.1991 6.84447 20.048L6.8465 20.0473C6.98511 20.0007 7.12643 19.9515 7.26925 19.9019C7.36063 19.8702 7.45262 19.8382 7.54492 19.8065C7.54929 19.802 7.55385 19.7973 7.55859 19.7925C7.61605 19.7336 7.6937 19.6585 7.79778 19.5966C8.18291 19.3678 8.62979 19.2461 9.01605 19.1409C9.1071 19.1161 9.19478 19.0923 9.27749 19.0681C9.89403 18.8881 10.4595 18.6461 11.0271 18.3195C11.9404 17.7939 12.8614 17.4027 13.8595 17.1172C13.9312 17.0967 14.0038 17.0757 14.0771 17.0544C14.429 16.9523 14.7988 16.845 15.1679 16.7707Z" fill="#F0E7CF"/>
</g>
<path id="Vector 281_2" d="M10.5512 19.7116C12.323 19.0014 14.2036 18.6989 15.8855 17.7276C15.9894 17.6676 15.7205 17.7301 15.6755 17.6198" stroke="#EBE5D6" stroke-width="0.576013" stroke-linecap="round"/>
<path id="Vector 282_2" d="M5.64754 22.1416C6.02721 22.0073 6.39368 21.8196 6.77154 21.6762C7.72776 21.3131 8.69769 21.0018 9.66737 20.6875C11.4654 20.1046 13.2369 19.5002 14.97 18.7145C15.2151 18.6034 15.4594 18.489 15.7021 18.3716C15.849 18.3006 16.3132 18.1938 16.1534 18.188" stroke="#F1EBD9" stroke-width="0.576013" stroke-linecap="round"/>
<path id="Vector 283_2" d="M6.09795 21.5327C6.37445 21.4703 6.64164 21.34 6.9093 21.2418C7.61936 20.9813 8.33948 20.7582 9.05717 20.5259C9.9949 20.2224 10.9537 19.9938 11.8788 19.6489" stroke="#F7F0DF" stroke-width="0.576013" stroke-linecap="round"/>
<g id="Union_7" filter="url(#filter11_i_2904_4148)">
<path fill-rule="evenodd" clip-rule="evenodd" d="M14.9933 19.1852C15.1428 19.1309 15.22 18.9657 15.1658 18.8162C15.1116 18.6667 14.9464 18.5894 14.7969 18.6437C13.2241 19.2141 11.6672 19.8092 10.153 20.5408C9.76342 20.7291 9.36539 20.9043 8.96153 21.082L8.96151 21.0821C8.83485 21.1378 8.70761 21.1938 8.57987 21.2506C8.04845 21.4866 7.51301 21.7335 7.0011 22.0188C6.95549 22.0442 6.91948 22.0802 6.89442 22.122C6.74401 22.1263 6.62076 22.2467 6.61516 22.3993C6.60933 22.5582 6.73345 22.6918 6.89241 22.6977L6.89258 22.6977C7.00368 22.8058 7.18134 22.8067 7.29353 22.6981C7.35806 22.6357 7.38714 22.5505 7.38035 22.4675C7.839 22.2179 8.32083 21.9959 8.81371 21.777C8.93734 21.722 9.06194 21.6672 9.18702 21.6122C9.59292 21.4335 10.0039 21.2526 10.4036 21.0595C11.8904 20.3411 13.4248 19.7541 14.9933 19.1852Z" fill="#F6F0DF"/>
</g>
<g id="Union_8" filter="url(#filter12_i_2904_4148)">
<path fill-rule="evenodd" clip-rule="evenodd" d="M14.5397 16.1888C14.6874 16.1456 14.8349 16.2407 14.8693 16.4012C14.9036 16.5617 14.8117 16.7267 14.6641 16.7699C13.0647 17.2374 11.4675 17.6745 9.84081 17.9707C9.42163 18.0471 9.00153 18.1395 8.57567 18.2333L8.57547 18.2333C8.44205 18.2627 8.30807 18.2922 8.17338 18.3213C7.61223 18.4428 7.043 18.5575 6.47526 18.6256C6.42462 18.6317 6.37616 18.6224 6.33367 18.6011C6.20843 18.6906 6.04338 18.6583 5.96103 18.5261C5.87689 18.3912 5.91093 18.2032 6.03706 18.1063L6.04515 18.0999C6.0845 17.9395 6.2335 17.839 6.37933 17.8751C6.45466 17.8938 6.5145 17.9453 6.54972 18.0129C7.05493 17.9466 7.56625 17.8434 8.08491 17.7311C8.21559 17.7028 8.34699 17.6739 8.47887 17.6449L8.479 17.6449L8.47904 17.6448C8.90688 17.5507 9.3397 17.4554 9.76901 17.3772C11.3682 17.0859 12.9442 16.6552 14.5397 16.1888Z" fill="#F1EBD9"/>
</g>
</g>
</g>
<g id="Group 66">
<path id="Union_9" fill-rule="evenodd" clip-rule="evenodd" d="M21.9628 17.4323C21.6139 19.6534 18.7138 21.0175 16.4698 21.1567C16.1456 21.1769 15.8155 21.1623 15.4833 21.1101C15.3154 21.0837 15.1509 21.0484 14.9903 21.0045C14.1709 20.781 13.2651 20.7627 12.4261 20.6309C10.933 20.3964 9.94636 18.7814 10.2224 17.0239C10.4933 15.2993 11.6195 13.6722 12.7603 12.3508C13.8445 11.095 15.4569 10.4103 17.1229 10.672C18.3047 10.8576 19.3148 11.4882 20.033 12.3844C21.1507 13.7789 22.2401 15.6668 21.9628 17.4323Z" fill="#F5FCFC"/>
<ellipse id="Ellipse 72" cx="15.9599" cy="15.9186" rx="2.50367" ry="2.5034" transform="rotate(8.92692 15.9599 15.9186)" fill="#FFCB1E"/>
<ellipse id="Ellipse 89" cx="15.1736" cy="14.6661" rx="0.329276" ry="0.329241" transform="rotate(8.92692 15.1736 14.6661)" fill="#FFFADC"/>
</g>
<g id="Group 32">
<g id="Group 27">
<path id="Rectangle 105" d="M20.1126 18.6566C20.1082 18.0783 20.56 17.579 21.0627 17.2929C21.1001 17.2716 21.1395 17.2501 21.1811 17.2285C21.2003 17.2186 21.2191 17.209 21.2377 17.1998C21.773 16.9335 22.4773 16.8278 22.9639 17.1753C23.291 17.4089 23.5949 17.6683 23.5403 18.0613C23.5089 18.2874 23.2788 18.4797 23.1062 18.5943C23.0223 18.6501 22.9196 18.5839 22.9252 18.4833C22.9381 18.2537 22.7317 18.0752 22.5097 18.135C22.2747 18.1984 21.9925 18.2876 21.7868 18.3944C21.5811 18.5013 21.3459 18.6809 21.159 18.8367C20.9824 18.984 21.0098 19.2555 21.205 19.377C21.2906 19.4302 21.2856 19.5523 21.1918 19.5889C20.9988 19.6642 20.7091 19.7419 20.506 19.6376C20.1531 19.4563 20.1156 19.0586 20.1126 18.6566Z" fill="#E8E3D1"/>
<path id="Subtract_12" fill-rule="evenodd" clip-rule="evenodd" d="M21.2683 19.4653C21.2749 19.4693 21.2833 19.4641 21.2807 19.4569C21.273 19.4362 21.2579 19.4174 21.2353 19.4046L21.2177 19.3948C21.0343 19.2915 21.0068 19.0405 21.1707 18.9084C21.3627 18.7536 21.609 18.5701 21.8214 18.4597C22.0339 18.3493 22.3256 18.2533 22.5627 18.1853C22.765 18.1272 22.9545 18.2939 22.9336 18.5034L22.9316 18.5234C22.929 18.5492 22.9357 18.5724 22.9482 18.5906C22.9526 18.597 22.9618 18.5929 22.9623 18.5853C22.9635 18.5692 22.9673 18.5534 22.972 18.538C23.0416 18.3096 22.8839 18.0283 22.6326 18.0468C22.3321 18.077 21.992 18.1854 21.7455 18.3134C21.4989 18.4415 21.2147 18.6575 21.0173 18.8859C20.8577 19.081 20.9971 19.3717 21.224 19.446C21.2394 19.4511 21.2544 19.457 21.2683 19.4653Z" fill="#705D50"/>
</g>
<path id="Rectangle 108" d="M21.4637 19.0575C21.3203 18.7654 21.4255 18.4082 21.7142 18.2582C22.0029 18.1082 22.3558 18.2275 22.5123 18.5127C22.5279 18.5412 22.5432 18.5686 22.558 18.5942C22.6141 18.692 22.6922 18.8077 22.764 18.9092C22.8593 19.0439 22.8172 19.234 22.6708 19.31C22.6484 19.3217 22.6245 19.33 22.5998 19.3356C22.5362 19.3499 22.4054 19.3827 22.3212 19.4265C22.237 19.4702 22.1349 19.5584 22.0866 19.6022C22.0679 19.6191 22.0474 19.6339 22.0249 19.6456C21.8786 19.7216 21.6987 19.6468 21.6434 19.4914C21.6016 19.3742 21.5518 19.2438 21.5041 19.1417C21.4916 19.1149 21.478 19.0866 21.4637 19.0575Z" fill="#E8E3D1"/>
</g>
<g id="Group 75_2" filter="url(#filter13_i_2904_4148)">
<ellipse id="Ellipse 105" cx="18.7493" cy="24.287" rx="2.83621" ry="2.83621" fill="#916548"/>
<path id="Star 2" d="M18.1899 22.4466C18.1907 22.3886 18.2672 22.3681 18.297 22.4179L19.1377 23.828C19.1479 23.8451 19.1664 23.8558 19.1864 23.8561L20.8278 23.8791C20.8859 23.8799 20.9064 23.9565 20.8565 23.9862L19.4465 24.8269C19.4293 24.8372 19.4187 24.8556 19.4184 24.8756L19.3953 26.517C19.3945 26.5751 19.318 26.5956 19.2883 26.5457L18.4476 25.1357C18.4373 25.1185 18.4189 25.1079 18.3989 25.1076L16.7574 25.0845C16.6993 25.0837 16.6788 25.0072 16.7287 24.9775L18.1388 24.1368C18.1559 24.1265 18.1666 24.1081 18.1668 24.0881L18.1899 22.4466Z" fill="#FDF8E7"/>
</g>
<g id="Group 83" filter="url(#filter14_i_2904_4148)">
<ellipse id="Ellipse 105_2" cx="22.4243" cy="21.8612" rx="2.42041" ry="2.42041" fill="#916548"/>
<path id="Star 2_2" d="M23.0709 20.3531C23.1077 20.3082 23.1804 20.3397 23.1726 20.3973L23.0097 21.6045C23.007 21.6243 23.0148 21.6441 23.0303 21.6568L23.973 22.4283C24.018 22.4651 23.9864 22.5377 23.9288 22.5299L22.7216 22.367C22.7018 22.3644 22.682 22.3722 22.6693 22.3876L21.8979 23.3304C21.8611 23.3753 21.7884 23.3437 21.7962 23.2862L21.9591 22.079C21.9618 22.0591 21.954 22.0393 21.9385 22.0267L20.9958 21.2552C20.9508 21.2184 20.9824 21.1458 21.04 21.1535L22.2472 21.3164C22.267 21.3191 22.2868 21.3113 22.2995 21.2958L23.0709 20.3531Z" fill="#FDF8E7"/>
</g>
<g id="Group 80">
<g id="Group 27_2">
<path id="Rectangle 105_2" d="M18.2767 19.3204C18.7585 18.8779 19.5202 18.8782 20.1415 19.0828C20.1878 19.098 20.2357 19.1148 20.2854 19.1333C20.3083 19.1418 20.3306 19.1503 20.3524 19.1589C20.982 19.4059 21.605 19.9166 21.6827 20.5884C21.7349 21.04 21.7479 21.4917 21.3768 21.7441C21.1633 21.8893 20.8274 21.8422 20.6003 21.7844C20.4899 21.7563 20.4674 21.62 20.5561 21.5484C20.7584 21.385 20.7516 21.0764 20.533 20.9355C20.3016 20.7864 20.0126 20.6174 19.7669 20.5259C19.5212 20.4345 19.1921 20.3734 18.9195 20.3349C18.662 20.2985 18.4551 20.5274 18.5013 20.7834C18.5215 20.8955 18.4154 20.984 18.3135 20.9331C18.1039 20.8283 17.8189 20.6442 17.7523 20.3948C17.6367 19.9612 17.9418 19.6279 18.2767 19.3204Z" fill="#E8E3D1"/>
<path id="Subtract_13" fill-rule="evenodd" clip-rule="evenodd" d="M18.473 20.9047C18.4744 20.9116 18.4832 20.914 18.4865 20.9077C18.4982 20.8855 18.5026 20.8583 18.4961 20.8295L18.4911 20.8073C18.4386 20.5751 18.6283 20.3616 18.8634 20.3988C19.139 20.4424 19.4798 20.5098 19.7335 20.6043C19.9873 20.6987 20.2892 20.8706 20.5262 21.0178C20.7284 21.1435 20.7323 21.429 20.5407 21.5703L20.5224 21.5838C20.4987 21.6013 20.4843 21.6247 20.4786 21.6492C20.4763 21.6592 20.4885 21.6643 20.4966 21.658C20.5109 21.6468 20.527 21.638 20.5436 21.6302C20.788 21.5154 20.9043 21.1697 20.6981 20.9728C20.4448 20.7437 20.0958 20.5406 19.8013 20.431C19.5069 20.3214 19.11 20.2468 18.7686 20.2545C18.4839 20.2686 18.3458 20.6062 18.4556 20.8529C18.463 20.8696 18.4695 20.8868 18.473 20.9047Z" fill="#705D50"/>
</g>
<path id="Rectangle 108_2" d="M18.9701 20.7594C19.1063 20.4176 19.4859 20.2348 19.8307 20.3632C20.1756 20.4915 20.3432 20.8781 20.2227 21.2257C20.2107 21.2604 20.1993 21.2941 20.189 21.3259C20.1495 21.4471 20.1117 21.6004 20.0811 21.7377C20.0404 21.9198 19.8489 22.0287 19.6741 21.9636C19.6473 21.9537 19.6222 21.9399 19.5988 21.9235C19.5386 21.881 19.4118 21.7962 19.3112 21.7587C19.2106 21.7213 19.0592 21.7026 18.9858 21.6952C18.9574 21.6924 18.9294 21.6864 18.9026 21.6764C18.7278 21.6113 18.6541 21.4037 18.7424 21.2394C18.8091 21.1155 18.8807 20.9748 18.9301 20.8573C18.9431 20.8264 18.9565 20.7935 18.9701 20.7594Z" fill="#E8E3D1"/>
</g>
<g id="Group 34">
<g id="Group 27_3">
<path id="Rectangle 105_3" d="M24.8864 17.7717C25.1546 18.0574 25.1595 18.5136 25.0411 18.8872C25.0323 18.915 25.0225 18.9438 25.0118 18.9737C25.0068 18.9875 25.0019 19.0009 24.9969 19.014C24.8531 19.3928 24.5513 19.7694 24.1494 19.8204C23.8792 19.8547 23.6087 19.8654 23.455 19.6448C23.3666 19.5179 23.3926 19.3163 23.4258 19.1799C23.4419 19.1136 23.5234 19.0992 23.5669 19.1519C23.6661 19.272 23.8509 19.2659 23.9338 19.134C24.0216 18.9944 24.1209 18.8202 24.1741 18.6724C24.2273 18.5246 24.2617 18.327 24.2829 18.1635C24.303 18.009 24.1645 17.8865 24.0115 17.9159C23.9444 17.9288 23.8907 17.8658 23.9206 17.8044C23.9819 17.6781 24.0903 17.5062 24.2393 17.4647C24.4983 17.3925 24.6999 17.5731 24.8864 17.7717Z" fill="#E8E3D1"/>
<path id="Subtract_14" fill-rule="evenodd" clip-rule="evenodd" d="M23.9379 17.901C23.9329 17.902 23.9311 17.9083 23.9356 17.9107C23.949 17.9175 23.9653 17.92 23.9825 17.9159L23.9958 17.9128C24.1346 17.8798 24.2637 17.992 24.243 18.1331C24.2187 18.2984 24.1806 18.503 24.1257 18.6557C24.0708 18.8083 23.9698 18.9903 23.8832 19.1332C23.8092 19.2552 23.6383 19.2594 23.5523 19.1456L23.5441 19.1347C23.5334 19.1206 23.5193 19.1121 23.5046 19.1089C23.4994 19.1078 23.4967 19.114 23.5 19.1182C23.5068 19.1267 23.5122 19.1363 23.517 19.1461C23.5874 19.2918 23.7953 19.3592 23.9118 19.2343C24.0473 19.0811 24.1667 18.8707 24.2304 18.6936C24.2941 18.5164 24.3362 18.2782 24.3293 18.0738C24.319 17.9033 24.1158 17.8228 23.9688 17.8902C23.9588 17.8948 23.9486 17.8987 23.9379 17.901Z" fill="#705D50"/>
</g>
</g>
</g>
<defs>
<filter id="filter0_i_2904_4148" x="12.542" y="20.7378" width="6.5957" height="6.79675" filterUnits="userSpaceOnUse" color-interpolation-filters="sRGB">
<feFlood flood-opacity="0" result="BackgroundImageFix"/>
<feBlend mode="normal" in="SourceGraphic" in2="BackgroundImageFix" result="shape"/>
<feColorMatrix in="SourceAlpha" type="matrix" values="0 0 0 0 0 0 0 0 0 0 0 0 0 0 0 0 0 0 127 0" result="hardAlpha"/>
<feOffset dx="-0.72" dy="-0.72"/>
<feComposite in2="hardAlpha" operator="arithmetic" k2="-1" k3="1"/>
<feColorMatrix type="matrix" values="0 0 0 0 0.988235 0 0 0 0 0.898039 0 0 0 0 0.733333 0 0 0 1 0"/>
<feBlend mode="normal" in2="shape" result="effect1_innerShadow_2904_4148"/>
</filter>
<filter id="filter1_i_2904_4148" x="7.86523" y="19.5016" width="6.54883" height="6.28906" filterUnits="userSpaceOnUse" color-interpolation-filters="sRGB">
<feFlood flood-opacity="0" result="BackgroundImageFix"/>
<feBlend mode="normal" in="SourceGraphic" in2="BackgroundImageFix" result="shape"/>
<feColorMatrix in="SourceAlpha" type="matrix" values="0 0 0 0 0 0 0 0 0 0 0 0 0 0 0 0 0 0 127 0" result="hardAlpha"/>
<feOffset dx="-0.72" dy="-0.72"/>
<feComposite in2="hardAlpha" operator="arithmetic" k2="-1" k3="1"/>
<feColorMatrix type="matrix" values="0 0 0 0 0.988235 0 0 0 0 0.898039 0 0 0 0 0.733333 0 0 0 1 0"/>
<feBlend mode="normal" in2="shape" result="effect1_innerShadow_2904_4148"/>
</filter>
<filter id="filter2_i_2904_4148" x="16.4355" y="3.625" width="3.98535" height="7.80164" filterUnits="userSpaceOnUse" color-interpolation-filters="sRGB">
<feFlood flood-opacity="0" result="BackgroundImageFix"/>
<feBlend mode="normal" in="SourceGraphic" in2="BackgroundImageFix" result="shape"/>
<feColorMatrix in="SourceAlpha" type="matrix" values="0 0 0 0 0 0 0 0 0 0 0 0 0 0 0 0 0 0 127 0" result="hardAlpha"/>
<feOffset dx="-0.24" dy="-0.36"/>
<feComposite in2="hardAlpha" operator="arithmetic" k2="-1" k3="1"/>
<feColorMatrix type="matrix" values="0 0 0 0 0.455698 0 0 0 0 0.683333 0 0 0 0 0.350208 0 0 0 1 0"/>
<feBlend mode="normal" in2="shape" result="effect1_innerShadow_2904_4148"/>
</filter>
<filter id="filter3_i_2904_4148" x="17.7402" y="7.59106" width="3.85156" height="5.81213" filterUnits="userSpaceOnUse" color-interpolation-filters="sRGB">
<feFlood flood-opacity="0" result="BackgroundImageFix"/>
<feBlend mode="normal" in="SourceGraphic" in2="BackgroundImageFix" result="shape"/>
<feColorMatrix in="SourceAlpha" type="matrix" values="0 0 0 0 0 0 0 0 0 0 0 0 0 0 0 0 0 0 127 0" result="hardAlpha"/>
<feOffset dx="-0.24" dy="-0.36"/>
<feComposite in2="hardAlpha" operator="arithmetic" k2="-1" k3="1"/>
<feColorMatrix type="matrix" values="0 0 0 0 0 0 0 0 0 0 0 0 0 0 0 0 0 0 0.25 0"/>
<feBlend mode="normal" in2="shape" result="effect1_innerShadow_2904_4148"/>
</filter>
<filter id="filter4_i_2904_4148" x="19.1807" y="6.02307" width="3.13867" height="9.54626" filterUnits="userSpaceOnUse" color-interpolation-filters="sRGB">
<feFlood flood-opacity="0" result="BackgroundImageFix"/>
<feBlend mode="normal" in="SourceGraphic" in2="BackgroundImageFix" result="shape"/>
<feColorMatrix in="SourceAlpha" type="matrix" values="0 0 0 0 0 0 0 0 0 0 0 0 0 0 0 0 0 0 127 0" result="hardAlpha"/>
<feOffset dx="-0.24" dy="-0.36"/>
<feComposite in2="hardAlpha" operator="arithmetic" k2="-1" k3="1"/>
<feColorMatrix type="matrix" values="0 0 0 0 0 0 0 0 0 0 0 0 0 0 0 0 0 0 0.25 0"/>
<feBlend mode="normal" in2="shape" result="effect1_innerShadow_2904_4148"/>
</filter>
<filter id="filter5_i_2904_4148" x="19.9287" y="4.43738" width="3.13867" height="9.54626" filterUnits="userSpaceOnUse" color-interpolation-filters="sRGB">
<feFlood flood-opacity="0" result="BackgroundImageFix"/>
<feBlend mode="normal" in="SourceGraphic" in2="BackgroundImageFix" result="shape"/>
<feColorMatrix in="SourceAlpha" type="matrix" values="0 0 0 0 0 0 0 0 0 0 0 0 0 0 0 0 0 0 127 0" result="hardAlpha"/>
<feOffset dx="-0.24" dy="-0.36"/>
<feComposite in2="hardAlpha" operator="arithmetic" k2="-1" k3="1"/>
<feColorMatrix type="matrix" values="0 0 0 0 0 0 0 0 0 0 0 0 0 0 0 0 0 0 0.25 0"/>
<feBlend mode="normal" in2="shape" result="effect1_innerShadow_2904_4148"/>
</filter>
<filter id="filter6_i_2904_4148" x="20.0684" y="6.36401" width="4.43945" height="7.7865" filterUnits="userSpaceOnUse" color-interpolation-filters="sRGB">
<feFlood flood-opacity="0" result="BackgroundImageFix"/>
<feBlend mode="normal" in="SourceGraphic" in2="BackgroundImageFix" result="shape"/>
<feColorMatrix in="SourceAlpha" type="matrix" values="0 0 0 0 0 0 0 0 0 0 0 0 0 0 0 0 0 0 127 0" result="hardAlpha"/>
<feOffset dx="-0.24" dy="-0.36"/>
<feComposite in2="hardAlpha" operator="arithmetic" k2="-1" k3="1"/>
<feColorMatrix type="matrix" values="0 0 0 0 0.455698 0 0 0 0 0.683333 0 0 0 0 0.350208 0 0 0 1 0"/>
<feBlend mode="normal" in2="shape" result="effect1_innerShadow_2904_4148"/>
</filter>
<filter id="filter7_i_2904_4148" x="3.73926" y="15.0745" width="14.0596" height="2.34546" filterUnits="userSpaceOnUse" color-interpolation-filters="sRGB">
<feFlood flood-opacity="0" result="BackgroundImageFix"/>
<feBlend mode="normal" in="SourceGraphic" in2="BackgroundImageFix" result="shape"/>
<feColorMatrix in="SourceAlpha" type="matrix" values="0 0 0 0 0 0 0 0 0 0 0 0 0 0 0 0 0 0 127 0" result="hardAlpha"/>
<feOffset dy="0.100802"/>
<feComposite in2="hardAlpha" operator="arithmetic" k2="-1" k3="1"/>
<feColorMatrix type="matrix" values="0 0 0 0 0.862745 0 0 0 0 0.819608 0 0 0 0 0.678431 0 0 0 1 0"/>
<feBlend mode="normal" in2="shape" result="effect1_innerShadow_2904_4148"/>
</filter>
<filter id="filter8_i_2904_4148" x="5.50684" y="17.1642" width="10.9043" height="2.08997" filterUnits="userSpaceOnUse" color-interpolation-filters="sRGB">
<feFlood flood-opacity="0" result="BackgroundImageFix"/>
<feBlend mode="normal" in="SourceGraphic" in2="BackgroundImageFix" result="shape"/>
<feColorMatrix in="SourceAlpha" type="matrix" values="0 0 0 0 0 0 0 0 0 0 0 0 0 0 0 0 0 0 127 0" result="hardAlpha"/>
<feOffset dy="0.100802"/>
<feComposite in2="hardAlpha" operator="arithmetic" k2="-1" k3="1"/>
<feColorMatrix type="matrix" values="0 0 0 0 0.862745 0 0 0 0 0.819608 0 0 0 0 0.678431 0 0 0 0.7 0"/>
<feBlend mode="normal" in2="shape" result="effect1_innerShadow_2904_4148"/>
</filter>
<filter id="filter9_i_2904_4148" x="5.99414" y="13.5065" width="10.8516" height="1.3822" filterUnits="userSpaceOnUse" color-interpolation-filters="sRGB">
<feFlood flood-opacity="0" result="BackgroundImageFix"/>
<feBlend mode="normal" in="SourceGraphic" in2="BackgroundImageFix" result="shape"/>
<feColorMatrix in="SourceAlpha" type="matrix" values="0 0 0 0 0 0 0 0 0 0 0 0 0 0 0 0 0 0 127 0" result="hardAlpha"/>
<feOffset dy="0.100802"/>
<feComposite in2="hardAlpha" operator="arithmetic" k2="-1" k3="1"/>
<feColorMatrix type="matrix" values="0 0 0 0 0.862745 0 0 0 0 0.819608 0 0 0 0 0.678431 0 0 0 0.7 0"/>
<feBlend mode="normal" in2="shape" result="effect1_innerShadow_2904_4148"/>
</filter>
<filter id="filter10_i_2904_4148" x="4.7959" y="16.7395" width="11.0371" height="4.89099" filterUnits="userSpaceOnUse" color-interpolation-filters="sRGB">
<feFlood flood-opacity="0" result="BackgroundImageFix"/>
<feBlend mode="normal" in="SourceGraphic" in2="BackgroundImageFix" result="shape"/>
<feColorMatrix in="SourceAlpha" type="matrix" values="0 0 0 0 0 0 0 0 0 0 0 0 0 0 0 0 0 0 127 0" result="hardAlpha"/>
<feOffset dy="0.100802"/>
<feComposite in2="hardAlpha" operator="arithmetic" k2="-1" k3="1"/>
<feColorMatrix type="matrix" values="0 0 0 0 0.862745 0 0 0 0 0.819608 0 0 0 0 0.678431 0 0 0 1 0"/>
<feBlend mode="normal" in2="shape" result="effect1_innerShadow_2904_4148"/>
</filter>
<filter id="filter11_i_2904_4148" x="6.61523" y="18.6263" width="8.56836" height="4.15283" filterUnits="userSpaceOnUse" color-interpolation-filters="sRGB">
<feFlood flood-opacity="0" result="BackgroundImageFix"/>
<feBlend mode="normal" in="SourceGraphic" in2="BackgroundImageFix" result="shape"/>
<feColorMatrix in="SourceAlpha" type="matrix" values="0 0 0 0 0 0 0 0 0 0 0 0 0 0 0 0 0 0 127 0" result="hardAlpha"/>
<feOffset dy="0.100802"/>
<feComposite in2="hardAlpha" operator="arithmetic" k2="-1" k3="1"/>
<feColorMatrix type="matrix" values="0 0 0 0 0.862745 0 0 0 0 0.819608 0 0 0 0 0.678431 0 0 0 0.7 0"/>
<feBlend mode="normal" in2="shape" result="effect1_innerShadow_2904_4148"/>
</filter>
<filter id="filter12_i_2904_4148" x="5.91504" y="16.1785" width="8.96191" height="2.47314" filterUnits="userSpaceOnUse" color-interpolation-filters="sRGB">
<feFlood flood-opacity="0" result="BackgroundImageFix"/>
<feBlend mode="normal" in="SourceGraphic" in2="BackgroundImageFix" result="shape"/>
<feColorMatrix in="SourceAlpha" type="matrix" values="0 0 0 0 0 0 0 0 0 0 0 0 0 0 0 0 0 0 127 0" result="hardAlpha"/>
<feOffset dy="0.100802"/>
<feComposite in2="hardAlpha" operator="arithmetic" k2="-1" k3="1"/>
<feColorMatrix type="matrix" values="0 0 0 0 0.862745 0 0 0 0 0.819608 0 0 0 0 0.678431 0 0 0 0.7 0"/>
<feBlend mode="normal" in2="shape" result="effect1_innerShadow_2904_4148"/>
</filter>
<filter id="filter13_i_2904_4148" x="15.9131" y="21.4508" width="5.67285" height="5.67249" filterUnits="userSpaceOnUse" color-interpolation-filters="sRGB">
<feFlood flood-opacity="0" result="BackgroundImageFix"/>
<feBlend mode="normal" in="SourceGraphic" in2="BackgroundImageFix" result="shape"/>
<feColorMatrix in="SourceAlpha" type="matrix" values="0 0 0 0 0 0 0 0 0 0 0 0 0 0 0 0 0 0 127 0" result="hardAlpha"/>
<feOffset dx="-0.432" dy="-0.432"/>
<feComposite in2="hardAlpha" operator="arithmetic" k2="-1" k3="1"/>
<feColorMatrix type="matrix" values="0 0 0 0 0 0 0 0 0 0 0 0 0 0 0 0 0 0 0.25 0"/>
<feBlend mode="normal" in2="shape" result="effect1_innerShadow_2904_4148"/>
</filter>
<filter id="filter14_i_2904_4148" x="20.0039" y="19.4408" width="4.84082" height="4.84082" filterUnits="userSpaceOnUse" color-interpolation-filters="sRGB">
<feFlood flood-opacity="0" result="BackgroundImageFix"/>
<feBlend mode="normal" in="SourceGraphic" in2="BackgroundImageFix" result="shape"/>
<feColorMatrix in="SourceAlpha" type="matrix" values="0 0 0 0 0 0 0 0 0 0 0 0 0 0 0 0 0 0 127 0" result="hardAlpha"/>
<feOffset dx="-0.432" dy="-0.432"/>
<feComposite in2="hardAlpha" operator="arithmetic" k2="-1" k3="1"/>
<feColorMatrix type="matrix" values="0 0 0 0 0 0 0 0 0 0 0 0 0 0 0 0 0 0 0.25 0"/>
<feBlend mode="normal" in2="shape" result="effect1_innerShadow_2904_4148"/>
</filter>
</defs>
</svg>
