<svg width="28" height="27" viewBox="0 0 28 27" fill="none" xmlns="http://www.w3.org/2000/svg">
<g id="Group 68">
<path id="Ellipse 71" d="M26.3327 13.4998C26.3327 20.3113 20.8109 25.8332 13.9993 25.8332C7.18784 25.8332 1.66602 20.3113 1.66602 13.4998C1.66602 6.68832 7.18784 1.1665 13.9993 1.1665C20.8109 1.1665 26.3327 6.68832 26.3327 13.4998Z" fill="white" stroke="url(#paint0_linear_2904_1395)" stroke-width="2"/>
<circle id="Ellipse 72" cx="13.9982" cy="13.5002" r="9.76378" fill="#C7D7CD"/>
<path id="Union" fill-rule="evenodd" clip-rule="evenodd" d="M23.3461 14.7743C23.3461 17.8547 20.0486 20.9082 17.144 21.934C16.5411 22.147 15.8854 22.2638 15.1997 22.2638C14.5648 22.2638 13.9557 22.1636 13.3903 21.9797C13.0854 21.8806 12.7655 21.8328 12.4448 21.8328C9.01925 21.8328 5.24377 18.6233 4.72217 15.2377C4.67887 14.9566 4.65625 14.667 4.65625 14.3711C4.65625 12.8152 5.2817 11.4324 6.25094 10.5564C6.42057 10.4031 6.51953 10.1847 6.51953 9.95605C6.51953 7.29501 8.74079 5.13782 11.4808 5.13782C11.9105 5.13782 12.3274 5.19085 12.7249 5.29056C14.1794 5.65531 15.8312 5.83757 17.3307 5.83757C19.9918 5.83757 22.149 7.99477 22.149 10.6558C22.149 11.4166 22.4062 12.1794 22.802 12.8292C23.1472 13.3961 23.3461 14.0619 23.3461 14.7743Z" fill="#FFEDC3"/>
<g id="Union_2" filter="url(#filter0_i_2904_1395)">
<path fill-rule="evenodd" clip-rule="evenodd" d="M5.33038 14.7164C5.33038 17.6064 8.36614 20.5138 11.0857 21.4915C11.6444 21.6924 12.2518 21.8025 12.8869 21.8025C13.4766 21.8025 14.0424 21.7076 14.5675 21.5332C14.8501 21.4394 15.1472 21.3943 15.445 21.3943C18.642 21.3943 22.1145 18.3362 22.6053 15.1772C22.6477 14.9042 22.6699 14.6227 22.6699 14.3349C22.6699 12.8691 22.0946 11.5656 21.2018 10.7363C21.0411 10.587 20.9473 10.3772 20.9473 10.1578C20.9473 7.64012 18.8863 5.59912 16.3441 5.59912C15.9432 5.59912 15.5542 5.64988 15.1834 5.74526C13.837 6.09162 12.3007 6.26152 10.9104 6.26152C8.44145 6.26152 6.43996 8.30252 6.43996 10.8202C6.43996 11.5419 6.19768 12.265 5.82958 12.8857C5.51273 13.42 5.33038 14.0465 5.33038 14.7164Z" fill="#F96F50"/>
</g>
<g id="Group 32">
<g id="Group 27">
<path id="Rectangle 105" d="M8.51978 9.61339C8.5154 9.03506 8.96726 8.53582 9.46988 8.24972C9.50732 8.22841 9.54677 8.20691 9.58834 8.18532C9.6075 8.17537 9.62635 8.16579 9.64489 8.15657C10.1802 7.8903 10.8845 7.78462 11.3711 8.13208C11.6983 8.36568 12.0021 8.62505 11.9475 9.01804C11.9161 9.24414 11.686 9.4365 11.5134 9.55112C11.4295 9.60686 11.3268 9.5407 11.3325 9.4401C11.3453 9.21053 11.1389 9.03201 10.9169 9.09183C10.6819 9.15514 10.3997 9.24434 10.194 9.3512C9.98833 9.45806 9.75311 9.63766 9.5662 9.79352C9.38962 9.94078 9.41701 10.2123 9.61223 10.3338C9.69778 10.387 9.69288 10.5091 9.59901 10.5457C9.40602 10.621 9.11632 10.6987 8.91327 10.5944C8.56035 10.4131 8.52282 10.0154 8.51978 9.61339Z" fill="#E8E3D1"/>
<path id="Subtract" fill-rule="evenodd" clip-rule="evenodd" d="M9.67405 10.4231C9.68034 10.4269 9.68845 10.4219 9.68593 10.415C9.6783 10.3941 9.66311 10.3751 9.64037 10.3623L9.62285 10.3524C9.43943 10.2491 9.41195 9.99821 9.5758 9.86607C9.76779 9.71124 10.0141 9.52774 10.2265 9.41737C10.439 9.30699 10.7307 9.21098 10.9678 9.14292C11.1701 9.08482 11.3596 9.25159 11.3387 9.46104L11.3367 9.48106C11.3341 9.50701 11.3409 9.53035 11.3536 9.54861C11.3581 9.55513 11.3675 9.55094 11.3681 9.54303C11.3693 9.52693 11.373 9.51117 11.3777 9.49573C11.4474 9.26735 11.2897 8.98606 11.0383 9.00454C10.7379 9.03477 10.3978 9.14312 10.1512 9.2712C9.90471 9.39928 9.62051 9.61526 9.42305 9.84369C9.26343 10.0387 9.4029 10.3295 9.62981 10.4038C9.64514 10.4088 9.66021 10.4148 9.67405 10.4231Z" fill="#705D50"/>
</g>
<path id="Rectangle 108" d="M9.87139 10.0151C9.72802 9.72309 9.83326 9.36579 10.122 9.21581C10.4107 9.06583 10.7635 9.18514 10.92 9.47036C10.9356 9.49882 10.951 9.52623 10.9657 9.55189C11.0218 9.64963 11.0999 9.76534 11.1717 9.86687C11.267 10.0015 11.2249 10.1916 11.0785 10.2677C11.0561 10.2793 11.0322 10.2876 11.0075 10.2932C10.944 10.3076 10.8131 10.3404 10.7289 10.3841C10.6447 10.4279 10.5426 10.5161 10.4943 10.5598C10.4756 10.5768 10.4551 10.5916 10.4326 10.6032C10.2863 10.6793 10.1065 10.6044 10.0511 10.4491C10.0093 10.3319 9.95956 10.2015 9.91185 10.0994C9.89932 10.0726 9.88571 10.0443 9.87139 10.0151Z" fill="#E8E3D1"/>
</g>
<g id="Group 33">
<g id="Group 27_2">
<path id="Rectangle 105_2" d="M18.41 19.1758C18.76 19.0725 19.0005 18.7194 19.0397 18.3566C19.0405 18.3494 19.0412 18.3422 19.0419 18.3348C19.076 17.9725 18.9115 17.5726 18.5922 17.398C18.5876 17.3955 18.583 17.393 18.5783 17.3906C18.3346 17.2653 18.0807 17.1572 17.8399 17.2632C17.7134 17.3189 17.6515 17.4557 17.6216 17.5651C17.6019 17.6369 17.6719 17.6916 17.742 17.6667C17.8944 17.6124 18.0606 17.6997 18.0871 17.8593C18.1081 17.986 18.1238 18.1315 18.1129 18.2473C18.102 18.3631 18.0594 18.5031 18.0151 18.6236C17.9592 18.7754 17.7797 18.8302 17.6401 18.7484C17.5758 18.7108 17.4969 18.7515 17.5028 18.8257C17.5118 18.9388 17.547 19.0847 17.6608 19.163C17.8776 19.3121 18.1473 19.2534 18.41 19.1758Z" fill="#E8E3D1"/>
<path id="Subtract_2" fill-rule="evenodd" clip-rule="evenodd" d="M17.558 18.7303C17.5541 18.728 17.555 18.722 17.5596 18.722C17.5753 18.7219 17.592 18.7261 17.6067 18.7355L17.618 18.7427C17.7366 18.8184 17.9078 18.7834 17.9481 18.6715C17.9953 18.5405 18.046 18.3753 18.0586 18.2423C18.0711 18.1093 18.0521 17.9376 18.0302 17.8C18.0115 17.6826 17.8499 17.6162 17.7192 17.6684L17.7067 17.6734C17.6905 17.6799 17.6734 17.6809 17.658 17.6778C17.6537 17.677 17.6538 17.6712 17.6579 17.6697C17.6681 17.6659 17.6776 17.6606 17.6868 17.6548C17.8163 17.5739 18.0429 17.6013 18.101 17.7363C18.1653 17.8996 18.1897 18.0991 18.1752 18.2534C18.1607 18.4078 18.0994 18.5992 18.0057 18.7476C17.9234 18.8694 17.6957 18.854 17.5836 18.7503C17.5756 18.7429 17.5673 18.7359 17.558 18.7303Z" fill="#705D50"/>
</g>
<path id="Rectangle 108_2" d="M17.8604 18.5536C18.0416 18.5697 18.2041 18.4385 18.2212 18.2574C18.2382 18.0763 18.1031 17.9171 17.9221 17.899C17.8677 17.8936 17.8136 17.8877 17.7663 17.8817C17.6706 17.8695 17.549 17.8457 17.4519 17.8251C17.3635 17.8063 17.2774 17.8681 17.2689 17.958C17.2673 17.9757 17.2688 17.9935 17.2728 18.0109C17.2813 18.0486 17.295 18.1193 17.2902 18.1697C17.2855 18.2201 17.2589 18.287 17.2434 18.3224C17.2363 18.3387 17.2314 18.3559 17.2298 18.3736C17.2213 18.4635 17.2944 18.5403 17.3847 18.5384C17.4839 18.5363 17.6079 18.5356 17.7042 18.5415C17.7518 18.5444 17.8059 18.5487 17.8604 18.5536Z" fill="#E8E3D1"/>
</g>
<g id="Group 34">
<g id="Group 27_3">
<path id="Rectangle 105_3" d="M21.446 14.8179C21.7142 15.1036 21.7191 15.5599 21.6007 15.9334C21.5918 15.9613 21.5821 15.9901 21.5714 16.02C21.5664 16.0337 21.5614 16.0472 21.5565 16.0603C21.4126 16.439 21.1109 16.8156 20.709 16.8667C20.4387 16.9009 20.1683 16.9117 20.0146 16.6911C19.9262 16.5642 19.9522 16.3626 19.9853 16.2262C20.0014 16.1598 20.083 16.1455 20.1264 16.1981C20.2257 16.3183 20.4105 16.3121 20.4934 16.1802C20.5812 16.0406 20.6805 15.8664 20.7337 15.7186C20.7868 15.5708 20.8212 15.3733 20.8425 15.2097C20.8626 15.0552 20.7241 14.9328 20.5711 14.9622C20.504 14.975 20.4503 14.9121 20.4801 14.8507C20.5415 14.7244 20.6499 14.5525 20.7989 14.511C21.0579 14.4388 21.2595 14.6194 21.446 14.8179Z" fill="#E8E3D1"/>
<path id="Subtract_3" fill-rule="evenodd" clip-rule="evenodd" d="M20.4989 14.9468C20.4937 14.9479 20.4918 14.9545 20.4966 14.9569C20.5098 14.9633 20.5257 14.9656 20.5424 14.9616L20.5557 14.9584C20.6944 14.9254 20.8235 15.0376 20.8028 15.1787C20.7785 15.3441 20.7404 15.5487 20.6855 15.7013C20.6306 15.854 20.5297 16.036 20.443 16.1789C20.3691 16.3009 20.1981 16.3051 20.1122 16.1913L20.104 16.1804C20.0936 16.1667 20.0799 16.1583 20.0656 16.1548C20.0605 16.1536 20.0578 16.1598 20.061 16.1639C20.0679 16.1725 20.0732 16.1821 20.078 16.1919C20.1484 16.3376 20.3563 16.4049 20.4728 16.2801C20.6084 16.1269 20.7277 15.9165 20.7915 15.7393C20.8552 15.5622 20.8972 15.324 20.8903 15.1195C20.88 14.9491 20.6769 14.8686 20.5298 14.936C20.5199 14.9406 20.5096 14.9445 20.4989 14.9468Z" fill="#705D50"/>
</g>
</g>
<g id="Group 35">
<g id="Group 27_4">
<path id="Rectangle 105_4" d="M10.1468 18.6855C10.2132 18.3445 10.5411 18.1135 10.8516 17.9576C10.8928 17.9369 10.9377 17.9156 10.9863 17.894C11.0176 17.8801 11.0476 17.8673 11.0763 17.8556C11.4121 17.7185 11.8259 17.6145 12.1365 17.8016C12.3214 17.913 12.4885 18.0388 12.4112 18.248C12.3631 18.3782 12.1697 18.4961 12.0458 18.5603C12.0029 18.5825 11.9572 18.5434 11.9699 18.4968C12.0001 18.3853 11.9023 18.2825 11.7904 18.3113C11.6248 18.3539 11.4084 18.4164 11.2497 18.4869C11.091 18.5574 10.8996 18.6761 10.757 18.7704C10.6607 18.8341 10.6714 18.9756 10.7743 19.0279C10.8174 19.0498 10.8158 19.1099 10.7706 19.1268C10.6398 19.1757 10.4228 19.2402 10.2939 19.1886C10.0868 19.1058 10.1055 18.8974 10.1468 18.6855Z" fill="#E8E3D1"/>
<path id="Subtract_4" fill-rule="evenodd" clip-rule="evenodd" d="M10.7902 19.0652C10.7953 19.0677 10.8016 19.0653 10.8023 19.0597C10.8041 19.0454 10.7969 19.0322 10.7795 19.0254L10.7697 19.0216C10.6664 18.9813 10.6803 18.8602 10.8005 18.7864C10.9413 18.6999 11.1201 18.5964 11.2684 18.5306C11.4166 18.4647 11.6133 18.4014 11.7718 18.3549C11.9072 18.3151 12.0064 18.3861 11.967 18.4897L11.9633 18.4996C11.9566 18.5171 11.9616 18.5312 11.9735 18.5395C11.9784 18.5429 11.9847 18.5396 11.9864 18.5338C11.9866 18.5329 11.9871 18.5319 11.9876 18.5311C12.0678 18.4058 11.9976 18.2538 11.8293 18.2732C11.6332 18.3 11.4032 18.3694 11.2311 18.4458C11.0591 18.5222 10.8534 18.6464 10.7021 18.7739C10.5749 18.8859 10.6406 19.0399 10.7874 19.0643C10.7884 19.0645 10.7893 19.0648 10.7902 19.0652Z" fill="#705D50"/>
</g>
</g>
<path id="Rectangle 116" d="M11.5782 8.92665C11.6047 8.96918 11.6509 8.99513 11.701 8.99385C11.8586 8.98985 12.2123 8.97199 12.4311 8.8927C12.7048 8.79354 12.8593 8.7269 13.1065 8.57323C13.3538 8.41956 13.4819 8.31052 13.6919 8.109C13.8599 7.94785 14.0325 7.63863 14.1058 7.49906C14.1291 7.45473 14.1263 7.40178 14.0999 7.35925C14.0492 7.27764 13.9344 7.26649 13.8678 7.33575C13.7554 7.45264 13.5912 7.61873 13.4586 7.73364C13.2386 7.92428 13.1114 8.02973 12.8642 8.1834C12.617 8.33707 12.4661 8.40447 12.1978 8.51734C12.0361 8.58537 11.8145 8.65912 11.6599 8.70817C11.5683 8.73723 11.5275 8.84504 11.5782 8.92665Z" fill="#618E2A"/>
<path id="Rectangle 117" d="M10.7677 18.2215C10.744 18.2596 10.7026 18.2828 10.6578 18.2817C10.5168 18.2781 10.2003 18.2621 10.0045 18.1911C9.75955 18.1024 9.6213 18.0428 9.40007 17.9053C9.17883 17.7678 9.06417 17.6702 8.8762 17.4898C8.7259 17.3456 8.57148 17.0689 8.50584 16.944C8.48499 16.9044 8.48749 16.857 8.51115 16.8189C8.55654 16.7459 8.6592 16.7359 8.7188 16.7979C8.81938 16.9025 8.96634 17.0511 9.08499 17.154C9.28184 17.3246 9.39567 17.4189 9.6169 17.5564C9.83814 17.6939 9.97313 17.7542 10.2132 17.8553C10.358 17.9161 10.5563 17.9821 10.6946 18.026C10.7766 18.052 10.813 18.1485 10.7677 18.2215Z" fill="#618E2A"/>
<path id="Rectangle 118" d="M19.6308 16.1192C19.6273 16.0745 19.6012 16.0349 19.5609 16.0153C19.434 15.9537 19.1456 15.8224 18.939 15.7954C18.6807 15.7616 18.5305 15.751 18.2709 15.7715C18.0112 15.7919 17.8645 15.8259 17.6147 15.8996C17.4149 15.9586 17.1506 16.1334 17.0349 16.2141C16.9981 16.2398 16.9786 16.283 16.9821 16.3277C16.9888 16.4134 17.0754 16.4694 17.1568 16.4418C17.2942 16.3951 17.4931 16.3307 17.6457 16.2939C17.8989 16.2329 18.0434 16.2014 18.3031 16.1809C18.5628 16.1605 18.7104 16.169 18.9701 16.1897C19.1266 16.2021 19.333 16.2347 19.476 16.2593C19.5608 16.2738 19.6375 16.2049 19.6308 16.1192Z" fill="#618E2A"/>
<path id="Rectangle 119" d="M19.2903 10.5528C19.3 10.5203 19.2915 10.4853 19.2673 10.4616C19.1889 10.385 19.0064 10.2146 18.8579 10.1379C18.6731 10.0423 18.5632 9.99282 18.3629 9.93312C18.1626 9.87343 18.0436 9.8547 17.8365 9.83344C17.6703 9.81638 17.4243 9.85901 17.3168 9.88022C17.2835 9.88679 17.2572 9.91147 17.2476 9.94395C17.2302 10.0023 17.2721 10.0617 17.3328 10.0656C17.4485 10.073 17.625 10.0864 17.7554 10.1059C17.9615 10.1366 18.0783 10.1563 18.2786 10.216C18.4788 10.2757 18.5874 10.3231 18.7767 10.4103C18.8964 10.4654 19.0515 10.5508 19.1524 10.6079C19.2054 10.6379 19.2729 10.6112 19.2903 10.5528Z" fill="#618E2A"/>
<path id="Rectangle 120" d="M14.0827 16.7611C14.106 16.7856 14.1407 16.7958 14.1733 16.7866C14.2788 16.7569 14.5175 16.6837 14.658 16.5933C14.8331 16.4807 14.9308 16.4102 15.0824 16.2664C15.2341 16.1226 15.3097 16.0288 15.4314 15.8599C15.5291 15.7244 15.6149 15.4899 15.6502 15.3861C15.6611 15.354 15.6528 15.3189 15.6295 15.2943C15.5876 15.2502 15.5152 15.2569 15.4815 15.3076C15.4174 15.4041 15.3177 15.5504 15.2358 15.6537C15.1063 15.8171 15.0309 15.9084 14.8793 16.0522C14.7277 16.196 14.6325 16.2664 14.4624 16.387C14.355 16.4633 14.2036 16.5551 14.1038 16.614C14.0514 16.645 14.0408 16.7169 14.0827 16.7611Z" fill="#618E2A"/>
</g>
<defs>
<filter id="filter0_i_2904_1395" x="5.33057" y="5.59912" width="17.3394" height="16.2034" filterUnits="userSpaceOnUse" color-interpolation-filters="sRGB">
<feFlood flood-opacity="0" result="BackgroundImageFix"/>
<feBlend mode="normal" in="SourceGraphic" in2="BackgroundImageFix" result="shape"/>
<feColorMatrix in="SourceAlpha" type="matrix" values="0 0 0 0 0 0 0 0 0 0 0 0 0 0 0 0 0 0 127 0" result="hardAlpha"/>
<feOffset dx="-3" dy="-4"/>
<feComposite in2="hardAlpha" operator="arithmetic" k2="-1" k3="1"/>
<feColorMatrix type="matrix" values="0 0 0 0 0.713997 0 0 0 0 0.0640901 0 0 0 0 0.0640901 0 0 0 0.25 0"/>
<feBlend mode="normal" in2="shape" result="effect1_innerShadow_2904_1395"/>
</filter>
<linearGradient id="paint0_linear_2904_1395" x1="6.09162" y1="0.166504" x2="22.9334" y2="25.4903" gradientUnits="userSpaceOnUse">
<stop offset="0.6" stop-color="#AFE4C3"/>
<stop offset="0.6" stop-color="#ABC8AF"/>
</linearGradient>
</defs>
</svg>
