<svg width="32" height="31" viewBox="0 0 32 31" fill="none" xmlns="http://www.w3.org/2000/svg">
<g id="Group 112">
<circle id="Ellipse 139" cx="16.0005" cy="15.5" r="12.1" transform="rotate(13.6982 16.0005 15.5)" fill="#F1F1F1" stroke="#4F788C" stroke-width="1.4"/>
<ellipse id="Ellipse 140" cx="16.0011" cy="15.5001" rx="9.35312" ry="9.35313" transform="rotate(13.6982 16.0011 15.5001)" fill="#D6D6D6"/>
<ellipse id="Ellipse 149" cx="0.270722" cy="0.406922" rx="0.270722" ry="0.406922" transform="matrix(0.996932 0.0782752 -0.0789596 0.996878 18.3193 10.7432)" fill="#E5E5E5"/>
<ellipse id="Ellipse 150" cx="0.270784" cy="0.406829" rx="0.270784" ry="0.406829" transform="matrix(-0.819594 -0.572945 -0.571741 0.820434 19.2559 11.4153)" fill="#E5E5E5"/>
<ellipse id="Ellipse 152" cx="0.270784" cy="0.406829" rx="0.270784" ry="0.406829" transform="matrix(-0.951148 0.308735 0.31013 0.950694 18.7529 19.7812)" fill="#E5E5E5"/>
<ellipse id="Ellipse 151" cx="0.270784" cy="0.406829" rx="0.270784" ry="0.406829" transform="matrix(-0.566101 -0.824336 -0.823504 0.567311 19.3223 21.2499)" fill="#E5E5E5"/>
<path id="Subtract" fill-rule="evenodd" clip-rule="evenodd" d="M13.1702 23.7015C13.3725 23.7669 13.5787 23.8254 13.7886 23.8765C14.7167 24.1027 15.1694 24.0441 15.9666 23.9409C16.0652 23.9281 16.1691 23.9146 16.2799 23.9009C17.6516 24.0132 18.6199 23.6018 19.3421 23.2949C19.3627 23.2862 19.3832 23.2775 19.4034 23.2689C19.5226 23.2184 19.6214 23.1801 19.7112 23.1454C19.9265 23.062 20.0891 22.9991 20.3528 22.8361C21.444 22.1619 22.2497 21.334 22.954 20.2284C23.6233 19.561 23.7891 18.8355 23.9708 18.0403C23.999 17.917 24.0276 17.7919 24.0585 17.6652C24.2658 16.8147 24.486 15.8392 24.4498 15.005C24.4094 14.0739 24.2158 13.1763 23.8657 12.3646C23.6197 11.7942 23.2459 11.3316 22.856 10.8489C22.7479 10.7151 22.6385 10.5797 22.5303 10.4401C22.4071 10.2813 22.2914 10.0991 22.1739 9.91395C21.9686 9.59081 21.7577 9.25867 21.4915 9.02585C20.4843 8.14479 19.2561 7.48624 17.8661 7.14744C17.6563 7.09629 17.4463 7.0533 17.2366 7.01828L13.1702 23.7015Z" fill="#F7F7F7"/>
<g id="Vector" filter="url(#filter0_i_2904_3454)">
<path d="M14.9628 24.8109C13.9835 24.8319 13.1958 23.9072 13.3646 22.9348L14.2968 17.5649C14.4349 16.769 15.1707 16.2584 15.9682 16.405L16.8399 16.5652C17.6172 16.708 18.1897 17.4275 18.1566 18.2199L17.9404 23.3958C17.9081 24.1674 17.3111 24.7607 16.5504 24.777L14.9628 24.8109Z" fill="#FB9778"/>
<path d="M14.9667 24.8204C14.9677 24.8204 14.9687 24.8204 14.9697 24.8204L15.1347 24.8169C15.3017 24.6926 15.5133 24.537 15.7924 24.3341C16.0391 24.1548 16.3049 23.9915 16.5778 23.8293L16.769 23.7162C16.98 23.5917 17.1935 23.4657 17.4024 23.3323C17.5977 23.2076 17.7897 23.076 17.9736 22.932L17.979 22.803C17.7786 22.9651 17.5666 23.1117 17.3493 23.2505C17.1417 23.383 16.9301 23.5079 16.7193 23.6322L16.527 23.746C16.2537 23.9084 15.985 24.0734 15.7349 24.2553C15.3907 24.5055 15.149 24.6839 14.9667 24.8204Z" fill="#EEDCC3"/>
<path d="M14.2624 24.6629C14.4707 24.5016 14.7541 24.286 15.4023 23.8147C15.6473 23.6366 15.9117 23.4742 16.1844 23.3121L16.375 23.1993C16.5862 23.0747 16.8005 22.9482 17.0102 22.8144C17.3627 22.5893 17.7064 22.3407 18.011 22.0366L18.0234 21.7403C17.6983 22.1036 17.3116 22.3904 16.9039 22.6507C16.697 22.7828 16.4863 22.9072 16.2757 23.0314L16.0828 23.1456C15.8093 23.3081 15.5392 23.4739 15.2873 23.657C14.6174 24.144 14.3356 24.3592 14.1235 24.5235L14.0797 24.5575C14.1381 24.5965 14.1991 24.6318 14.2624 24.6629Z" fill="#EEDCC3"/>
<path d="M13.6145 24.0873C13.9396 23.9719 14.3566 23.7345 14.8166 23.4214C15.2907 23.0986 15.816 22.6917 16.342 22.2451C16.6062 22.0208 16.8184 21.8537 17.0159 21.6981C17.3471 21.4373 17.6372 21.2088 18.0628 20.7971L18.0747 20.5124C17.5727 21.0112 17.2668 21.252 16.9039 21.5377C16.7056 21.6938 16.4903 21.8633 16.2167 22.0955C15.6941 22.5392 15.1738 22.9421 14.706 23.2606C14.2367 23.5801 13.8254 23.8108 13.5198 23.9146L13.5317 23.9462C13.557 23.9946 13.5846 24.0417 13.6145 24.0873Z" fill="#EEDCC3"/>
<path d="M13.4125 23.6516C14.5809 23.0175 16.7143 21.4823 18.1275 19.2488L18.162 18.4233C16.8656 20.8355 14.6127 22.5261 13.3489 23.2411C13.3518 23.3819 13.3738 23.5197 13.4125 23.6516Z" fill="#EEDCC3"/>
<path d="M17.9939 17.4215C18.0319 17.4957 18.0644 17.5728 18.0908 17.6524C17.5231 18.7169 16.798 19.718 16.0337 20.4706C15.1195 21.3708 14.1563 22.1228 13.4342 22.5828L13.4797 22.3205C14.1688 21.8637 15.0533 21.1623 15.8989 20.3297C16.6807 19.5599 17.4239 18.5214 17.9939 17.4215Z" fill="#EEDCC3"/>
<path d="M17.8282 17.1615C17.8604 17.2029 17.8906 17.2458 17.9187 17.2901C17.6266 17.8828 17.33 18.2106 16.9999 18.492C16.8786 18.5954 16.7562 18.6901 16.6295 18.7881C16.3959 18.9689 16.1476 19.161 15.8643 19.4399C15.2249 20.0694 14.8097 20.4797 14.4542 20.8309C14.1569 21.1247 13.9005 21.378 13.5904 21.6831L13.6477 21.3531C13.8772 21.1269 14.0853 20.9213 14.3192 20.6902C14.6743 20.3394 15.0893 19.9294 15.7295 19.299C16.0188 19.0142 16.284 18.8086 16.5232 18.6233C16.6473 18.527 16.7645 18.4362 16.8744 18.3426C17.1991 18.0658 17.4889 17.7441 17.7793 17.1354L17.8282 17.1615Z" fill="#EEDCC3"/>
<path d="M17.2666 16.7001C17.3246 16.7289 17.3806 16.7612 17.4344 16.7966C17.1479 17.2803 16.7571 17.6618 16.3476 18.0069C16.1811 18.1471 16.0129 18.2804 15.8471 18.4119C15.5101 18.6791 15.1827 18.9386 14.8994 19.2329C14.3268 19.8276 14.1112 20.1044 13.9559 20.3178L13.8951 20.4021C13.8594 20.4517 13.8248 20.5 13.787 20.5504L13.8621 20.1178C14.0202 19.9066 14.2522 19.6242 14.7613 19.0953C15.0527 18.7927 15.3959 18.5204 15.7383 18.2489C15.9019 18.1191 16.0653 17.9895 16.2228 17.8568C16.6243 17.5185 16.9957 17.1542 17.2666 16.7001Z" fill="#EEDCC3"/>
<path d="M16.469 16.4916L16.704 16.5348C16.5572 16.6816 16.4029 16.8194 16.2458 16.9518C16.0793 17.092 15.9111 17.2253 15.7453 17.3568C15.4083 17.624 15.0809 17.8835 14.7975 18.1778C14.4287 18.5609 14.2081 18.812 14.0562 18.9993L14.122 18.6205C14.2573 18.4663 14.4303 18.2782 14.6595 18.0402C14.9508 17.7376 15.2941 17.4653 15.6365 17.1937C15.8001 17.064 15.9635 16.9344 16.121 16.8017C16.2402 16.7012 16.3569 16.5984 16.469 16.4916Z" fill="#EEDCC3"/>
</g>
<g id="Vector_2" filter="url(#filter1_i_2904_3454)">
<path d="M10.7625 23.3108C9.88403 22.8774 9.61201 21.6936 10.2105 20.9089L13.5158 16.5752C14.0057 15.9329 14.894 15.8195 15.5339 16.3176L16.2333 16.862C16.8569 17.3474 17.0327 18.2499 16.6377 18.9376L14.0571 23.4295C13.6724 24.0992 12.8689 24.35 12.1866 24.0134L10.7625 23.3108Z" fill="#FB9778"/>
<path d="M10.7616 23.321C10.7625 23.3215 10.7633 23.3219 10.7642 23.3223L10.9122 23.3954C11.1178 23.3622 11.3772 23.3219 11.7185 23.2707C12.0202 23.2254 12.3313 23.2032 12.6482 23.1853L12.8701 23.1732C13.1147 23.1601 13.3622 23.1469 13.6092 23.125C13.8399 23.1045 14.0711 23.0763 14.3006 23.0334L14.3649 22.9215C14.1124 22.9728 13.8566 23.0051 13.5998 23.0279C13.3545 23.0496 13.1091 23.0627 12.8648 23.0758L12.6416 23.088C12.3242 23.106 12.0097 23.1283 11.7039 23.1742C11.283 23.2373 10.9863 23.284 10.7616 23.321Z" fill="#EEDCC3"/>
<path d="M10.2095 22.8562C10.4687 22.8093 10.8196 22.7488 11.6122 22.6299C11.9118 22.5849 12.2212 22.5628 12.5379 22.5449L12.7591 22.5328C13.0039 22.5197 13.2525 22.5065 13.5003 22.4845C13.9168 22.4475 14.3365 22.3856 14.747 22.2563L14.8948 21.9992C14.4387 22.1715 13.9633 22.2475 13.4815 22.2903C13.237 22.312 12.9927 22.325 12.7485 22.3381L12.5247 22.3503C12.2071 22.3683 11.8909 22.3907 11.5829 22.4369C10.7639 22.5598 10.4145 22.6206 10.1506 22.6685L10.0961 22.6785C10.1299 22.74 10.1677 22.7994 10.2095 22.8562Z" fill="#EEDCC3"/>
<path d="M9.90035 22.0466C10.242 22.0942 10.7214 22.0761 11.2741 22.0106C11.8437 21.9431 12.4974 21.8245 13.1702 21.6711C13.5081 21.594 13.7734 21.5437 14.0205 21.4969C14.4347 21.4183 14.7975 21.3495 15.365 21.1807L15.507 20.9336C14.8314 21.1445 14.4489 21.2169 13.9951 21.3028C13.7472 21.3498 13.478 21.4008 13.1281 21.4806C12.4597 21.633 11.8122 21.7503 11.2502 21.8169C10.6864 21.8837 10.215 21.8986 9.896 21.8497L9.89196 21.8832C9.89207 21.9378 9.89488 21.9923 9.90035 22.0466Z" fill="#EEDCC3"/>
<path d="M9.92227 21.5668C11.2514 21.5436 13.8525 21.1662 16.137 19.837L16.5485 19.1206C14.2853 20.6622 11.5064 21.1223 10.0553 21.1733C9.99279 21.2996 9.94875 21.432 9.92227 21.5668Z" fill="#EEDCC3"/>
<path d="M16.8618 18.1543C16.8613 18.2376 16.8545 18.3211 16.8412 18.4038C15.8463 19.0862 14.741 19.6397 13.7157 19.9546C12.4892 20.3312 11.2877 20.5538 10.4347 20.6287L10.5962 20.417C11.4183 20.3297 12.5267 20.1158 13.6611 19.7674C14.7099 19.4453 15.8485 18.867 16.8618 18.1543Z" fill="#EEDCC3"/>
<path d="M16.8348 17.8472C16.8442 17.8987 16.8512 17.9508 16.8557 18.003C16.3231 18.394 15.9087 18.548 15.486 18.6452C15.3306 18.6809 15.1783 18.7084 15.0207 18.7369C14.73 18.7895 14.4211 18.8453 14.041 18.962C13.1833 19.2254 12.6256 19.3977 12.1482 19.5452C11.7488 19.6686 11.4044 19.775 10.9885 19.9026L11.1916 19.6363C11.4997 19.5415 11.7791 19.4552 12.0934 19.3581C12.5702 19.2108 13.1276 19.0386 13.9865 18.7748C14.3746 18.6556 14.7047 18.5957 15.0024 18.5416C15.157 18.5136 15.3029 18.4871 15.4435 18.4547C15.8594 18.3591 16.265 18.2074 16.8035 17.8014L16.8348 17.8472Z" fill="#EEDCC3"/>
<path d="M16.5495 17.1786C16.5877 17.2309 16.6225 17.2854 16.6538 17.3417C16.1765 17.6386 15.6537 17.7966 15.1311 17.9138C14.9188 17.9614 14.708 18.002 14.5002 18.0421C14.078 18.1236 13.6678 18.2027 13.2806 18.3331C12.4981 18.5964 12.1792 18.7425 11.9429 18.8601L11.8501 18.9068C11.7955 18.9344 11.7425 18.9612 11.6857 18.9884L11.9519 18.6393C12.1897 18.525 12.5258 18.3815 13.2216 18.1473C13.6197 18.0133 14.0499 17.9302 14.479 17.8473C14.684 17.8077 14.8888 17.7681 15.0897 17.7231C15.6021 17.6082 16.0996 17.4564 16.5495 17.1786Z" fill="#EEDCC3"/>
<path d="M15.9381 16.6256L16.1267 16.7724C15.9287 16.8349 15.7282 16.8858 15.5278 16.9308C15.3154 16.9784 15.1046 17.019 14.8968 17.0591C14.4746 17.1406 14.0644 17.2197 13.6772 17.35C13.1732 17.5197 12.8615 17.6406 12.6404 17.7367L12.8735 17.431C13.0648 17.3567 13.3051 17.2697 13.6182 17.1643C14.0163 17.0302 14.4465 16.9472 14.8756 16.8643C15.0806 16.8247 15.2854 16.7851 15.4863 16.7401C15.6385 16.706 15.7894 16.6686 15.9381 16.6256Z" fill="#EEDCC3"/>
</g>
<g id="Vector_3" filter="url(#filter2_i_2904_3454)">
<path d="M7.7189 19.8464C7.07882 19.1271 7.27223 17.9576 8.11134 17.4735L12.7452 14.8001C13.432 14.4039 14.2851 14.6337 14.6833 15.3222L15.1185 16.0747C15.5066 16.7457 15.3304 17.6255 14.7132 18.0981L10.6818 21.1851C10.0807 21.6454 9.25376 21.5712 8.7566 21.0126L7.7189 19.8464Z" fill="#FB9778"/>
<path d="M7.71425 19.8553C7.7149 19.856 7.71554 19.8568 7.71618 19.8575L7.82404 19.9787C8.02403 20.0257 8.2759 20.0862 8.60645 20.1676C8.89871 20.2396 9.191 20.3359 9.48696 20.4381L9.69395 20.5102C9.92215 20.5898 10.153 20.6704 10.3866 20.743C10.6048 20.8108 10.8263 20.8718 11.0518 20.9189L11.1523 20.8419C10.9026 20.7938 10.6571 20.7273 10.4142 20.6519C10.1822 20.5798 9.95335 20.4999 9.72542 20.4203L9.51721 20.3479C9.22082 20.2455 8.92542 20.1481 8.62911 20.0751C8.22145 19.9747 7.93321 19.906 7.71425 19.8553Z" fill="#EEDCC3"/>
<path d="M7.38377 19.2296C7.63788 19.2842 7.98072 19.3608 8.7485 19.5499C9.03873 19.6213 9.32946 19.7171 9.62522 19.8193L9.8316 19.8911C10.0599 19.9708 10.2917 20.0517 10.5261 20.1245C10.9201 20.2469 11.3263 20.3479 11.7492 20.3848L11.98 20.2081C11.4995 20.1931 11.0371 20.0838 10.5814 19.9423C10.3502 19.8705 10.1223 19.7909 9.89454 19.7114L9.68571 19.6388C9.38911 19.5363 9.09215 19.4383 8.79381 19.3649C8.00042 19.1695 7.65885 19.0938 7.40008 19.0383L7.34657 19.0269C7.35446 19.0951 7.36683 19.1628 7.38377 19.2296Z" fill="#EEDCC3"/>
<path d="M7.40371 18.3838C7.69777 18.5545 8.14215 18.7174 8.67102 18.8649C9.21605 19.0169 9.85701 19.1543 10.5284 19.2675C10.8656 19.3243 11.1265 19.3781 11.3694 19.4281C11.7768 19.5121 12.1336 19.5857 12.7146 19.6456L12.9364 19.4757C12.2411 19.4135 11.865 19.3358 11.4187 19.2437C11.1749 19.1933 10.9101 19.1387 10.561 19.0799C9.89406 18.9675 9.25926 18.8313 8.72147 18.6813C8.18192 18.5308 7.74614 18.368 7.47321 18.2046L7.45702 18.2333C7.43673 18.2826 7.41895 18.3328 7.40371 18.3838Z" fill="#EEDCC3"/>
<path d="M7.60272 17.9593C8.82455 18.4352 11.3395 19.0671 13.9206 18.7221L14.5636 18.2298C11.9225 18.7743 9.21449 18.1505 7.87095 17.654C7.76681 17.7445 7.67721 17.8475 7.60272 17.9593Z" fill="#EEDCC3"/>
<path d="M15.21 17.4753C15.1785 17.5503 15.1412 17.623 15.0981 17.6926C13.9354 17.9363 12.7201 18.0223 11.6667 17.9231C10.4067 17.8043 9.22695 17.5559 8.42049 17.3046L8.64685 17.174C9.42983 17.4027 10.5213 17.624 11.6868 17.7338C12.7642 17.8353 14.0192 17.7394 15.21 17.4753Z" fill="#EEDCC3"/>
<path d="M15.3 17.1882C15.2893 17.2382 15.2763 17.2877 15.2609 17.3366C14.6289 17.4901 14.1932 17.4741 13.7711 17.4038C13.6159 17.3779 13.4667 17.3458 13.3122 17.3126C13.0272 17.2513 12.7244 17.1862 12.334 17.1494C11.4529 17.0663 10.8795 17.0133 10.3887 16.9679C9.97813 16.9299 9.6241 16.8971 9.19688 16.8567L9.48166 16.6924C9.79816 16.7221 10.0854 16.7487 10.4085 16.7786C10.8987 16.8239 11.4717 16.877 12.3541 16.9601C12.7528 16.9977 13.0765 17.0671 13.3684 17.1296C13.5199 17.1621 13.6629 17.1927 13.8034 17.2161C14.2187 17.2853 14.6455 17.3001 15.2885 17.1352L15.3 17.1882Z" fill="#EEDCC3"/>
<path d="M15.2891 16.4784C15.3044 16.5399 15.3158 16.6021 15.3234 16.6646C14.7769 16.7539 14.2408 16.701 13.7201 16.6114C13.5085 16.5749 13.301 16.5328 13.0963 16.4913C12.6806 16.4069 12.2766 16.325 11.8746 16.2978C11.0621 16.2428 10.7165 16.2554 10.457 16.2731L10.3548 16.2805C10.2947 16.285 10.2363 16.2894 10.1743 16.2927L10.5476 16.0774C10.8073 16.0631 11.1676 16.0593 11.8901 16.1081C12.3035 16.1361 12.7271 16.222 13.1497 16.3076C13.3516 16.3485 13.5532 16.3894 13.7534 16.4239C14.264 16.5118 14.7748 16.5609 15.2891 16.4784Z" fill="#EEDCC3"/>
<path d="M14.9374 15.7511L15.0547 15.954C14.8507 15.9363 14.6487 15.9073 14.4489 15.8729C14.2373 15.8365 14.0298 15.7944 13.8251 15.7529C13.4093 15.6685 13.0054 15.5865 12.6034 15.5594C12.0801 15.524 11.7505 15.5166 11.5128 15.5205L11.8396 15.3319C12.0419 15.3364 12.2937 15.3477 12.6189 15.3697C13.0323 15.3977 13.4559 15.4835 13.8785 15.5692C14.0804 15.6101 14.282 15.651 14.4822 15.6854C14.6339 15.7116 14.7856 15.7343 14.9374 15.7511Z" fill="#EEDCC3"/>
</g>
<g id="Group 88" filter="url(#filter3_i_2904_3454)">
<path id="Rectangle 33261" d="M6.95336 16.4481C6.92931 17.044 7.4512 17.5285 8.04372 17.4602L14.9489 16.6643C15.457 16.6057 15.8209 16.1579 15.7755 15.6469L15.5929 13.5938C15.5512 13.1242 15.175 12.7469 14.7048 12.7031L8.12204 12.0892C7.58094 12.0388 7.11495 12.4445 7.09313 12.9851L6.95336 16.4481Z" fill="#FB9778"/>
<path id="Intersect" fill-rule="evenodd" clip-rule="evenodd" d="M8.03549 17.4689C8.693 16.3838 10.3419 13.9765 12.7589 12.524L14.113 12.6495C11.4118 13.8126 9.38776 16.1367 8.53569 17.4112L8.04076 17.4683C8.039 17.4685 8.03725 17.4687 8.03549 17.4689ZM9.23088 17.3311C9.76378 16.6212 10.6178 15.6798 11.6183 14.7973C12.5153 14.0061 13.6994 13.2781 14.9231 12.7501C15.0057 12.7775 15.0835 12.8157 15.1548 12.8629C13.8934 13.3884 12.6654 14.1338 11.7481 14.9429C10.8225 15.7593 10.0271 16.6234 9.5002 17.3001L9.23088 17.3311ZM10.1536 17.2248C10.4956 16.9229 10.7772 16.6753 11.1055 16.3867C11.4942 16.045 11.9482 15.6459 12.6451 15.0312C12.9539 14.7588 13.1716 14.517 13.3764 14.2895L13.3764 14.2895C13.4875 14.1662 13.5947 14.047 13.7107 13.9294C13.9957 13.6406 14.6399 13.2132 15.2437 12.929C15.3064 12.9814 15.3625 13.0414 15.4106 13.1076C14.7766 13.3679 14.1563 13.7556 13.85 14.0661C13.7449 14.1725 13.6421 14.2866 13.5331 14.4075L13.533 14.4075C13.3231 14.6404 13.0902 14.8986 12.7749 15.1767C12.077 15.7923 11.6235 16.191 11.2353 16.5323L11.2352 16.5324C10.9764 16.7599 10.7466 16.9619 10.4927 17.1857L10.1536 17.2248ZM11.3126 17.0912C11.3725 17.0518 11.429 17.0165 11.4874 16.9801L11.4874 16.9801C11.517 16.9616 11.5471 16.9428 11.5784 16.923C11.8088 16.7772 12.109 16.5738 12.7644 16.0251C13.0888 15.7536 13.382 15.4352 13.6839 15.1075L13.6839 15.1075C13.8325 14.9461 13.9832 14.7825 14.1407 14.6212C14.5575 14.1942 15.0147 13.7916 15.5852 13.5269C15.5888 13.5494 15.5917 13.5721 15.5937 13.595L15.6059 13.7324C15.0956 13.9828 14.6755 14.3525 14.2807 14.7571C14.1317 14.9098 13.9852 15.0687 13.8386 15.2278C13.5317 15.5608 13.224 15.8947 12.8905 16.1738C12.2951 16.6723 11.987 16.891 11.757 17.0399L11.3126 17.0912ZM12.9047 16.9077C13.1096 16.7637 13.3869 16.5522 13.8175 16.1917C14.1419 15.9201 14.4352 15.6017 14.7371 15.274L14.7371 15.274L14.7371 15.274L14.7371 15.274L14.7371 15.274C14.8857 15.1126 15.0364 14.9491 15.1939 14.7877C15.343 14.6348 15.4974 14.4851 15.6603 14.3438L15.6818 14.5856C15.5627 14.6941 15.4472 14.8074 15.3338 14.9236C15.1848 15.0763 15.0384 15.2352 14.8917 15.3943L14.8917 15.3943L14.8917 15.3943L14.8917 15.3943L14.8917 15.3943L14.8917 15.3943C14.5848 15.7273 14.2772 16.0612 13.9437 16.3404C13.6756 16.5648 13.4657 16.7325 13.2951 16.8627L12.9047 16.9077ZM11.421 12.4001C11.0355 12.8091 10.7975 13.1038 10.525 13.4414L10.525 13.4414C10.3407 13.6696 10.1407 13.9174 9.86852 14.2333C9.3486 14.8369 8.8721 15.4353 8.49013 15.9707C8.10691 16.5078 7.82324 16.9755 7.68413 17.3188L7.49801 17.2547C7.64766 16.8853 7.94444 16.3996 8.3303 15.8588C8.71741 15.3162 9.19861 14.712 9.72195 14.1045C9.98479 13.7994 10.182 13.5552 10.3657 13.3278L10.3657 13.3278C10.6167 13.0171 10.8423 12.7378 11.1753 12.3773L11.421 12.4001ZM10.3266 12.2987C9.97731 12.638 9.68503 13.0252 9.4139 13.4299C9.26109 13.6579 9.11608 13.8898 8.97111 14.1215C8.92683 14.1924 8.88255 14.2632 8.83805 14.3338C8.64861 14.6348 8.456 14.9323 8.24671 15.2109C7.69013 15.9517 7.44525 16.2639 7.25848 16.4988L7.18731 16.5881L7.18731 16.5881C7.12628 16.6647 7.06835 16.7374 7.00273 16.8211C6.97456 16.7428 6.95617 16.66 6.94909 16.5741C6.97793 16.5378 7.00628 16.5023 7.03528 16.4659L7.1063 16.3767C7.29159 16.1437 7.53522 15.8331 8.09088 15.0935C8.29448 14.8225 8.48313 14.5313 8.67204 14.2313C8.71577 14.1618 8.75955 14.0918 8.80354 14.0215C8.94886 13.7891 9.09636 13.5533 9.25126 13.3221C9.49589 12.957 9.76164 12.5994 10.0742 12.2753L10.3266 12.2987ZM9.64312 12.2354C9.3404 12.5406 9.08844 12.8858 8.8566 13.2446C8.71808 13.459 8.58723 13.6774 8.45689 13.895L8.45687 13.895C8.41715 13.9613 8.37749 14.0275 8.33767 14.0935C8.16748 14.3755 7.99483 14.653 7.80548 14.9116C7.35649 15.525 7.12992 15.8235 6.96557 16.0359L6.97325 15.8661C7.13096 15.6603 7.35069 15.3678 7.72699 14.8537C7.91374 14.5986 8.08462 14.3242 8.25457 14.0425C8.29405 13.9771 8.3335 13.9112 8.37309 13.8452C8.50358 13.6273 8.63556 13.407 8.77502 13.1912C8.99442 12.8516 9.23357 12.5211 9.51822 12.2238L9.64312 12.2354Z" fill="#FDD4B3"/>
</g>
<g id="Group 89" filter="url(#filter4_i_2904_3454)">
<path id="Rectangle 33261_2" d="M7.78668 11.4313C7.4524 11.9304 7.66254 12.5805 8.22572 12.7895L14.3286 15.0551C14.8113 15.2343 15.37 15.0157 15.598 14.5583L16.4316 12.8862C16.6412 12.4659 16.505 11.9733 16.11 11.7232L10.9602 8.46254C10.5051 8.17441 9.87676 8.31101 9.57331 8.76403L7.78668 11.4313Z" fill="#FBA186"/>
<path id="Intersect_2" fill-rule="evenodd" clip-rule="evenodd" d="M12.0187 9.13848C11.6311 9.25858 11.2652 9.425 10.9114 9.60719C10.6863 9.72311 10.4653 9.84585 10.2467 9.96721L10.2466 9.96728L10.2466 9.9673C10.1803 10.0041 10.1143 10.0407 10.0485 10.0771C9.76487 10.2334 9.48408 10.3836 9.19957 10.5112C8.61883 10.7718 8.28684 10.9161 8.05083 11.0162L7.95963 11.1509C8.20461 11.0483 8.54416 10.9026 9.23672 10.5919C9.52517 10.4625 9.80894 10.3106 10.0929 10.154C10.1594 10.1174 10.2258 10.0805 10.2923 10.0436L10.2923 10.0436L10.2924 10.0435L10.2924 10.0435L10.2924 10.0435C10.5107 9.92231 10.7298 9.80062 10.9534 9.6855C11.3272 9.49297 11.7113 9.32004 12.118 9.20127L12.0187 9.13848ZM12.4606 9.41792C12.036 9.54784 11.6341 9.72497 11.2463 9.91719C11.0005 10.039 10.7587 10.1677 10.5204 10.2946C10.4483 10.333 10.3765 10.3712 10.305 10.409C9.99626 10.5722 9.69217 10.7284 9.38556 10.8618C8.5488 11.2257 8.18876 11.3741 7.91654 11.4844L7.81226 11.5266C7.77111 11.5432 7.73086 11.5594 7.68993 11.5761C7.65802 11.6477 7.63602 11.7212 7.62344 11.795C7.71392 11.7577 7.7945 11.7252 7.87915 11.691L7.98363 11.6487C8.25805 11.5376 8.61994 11.3884 9.4581 11.0238C9.77328 10.8867 10.0839 10.7271 10.3935 10.5633C10.4662 10.5249 10.5388 10.4862 10.6114 10.4476C10.8491 10.3211 11.0869 10.1945 11.3293 10.0743C11.7592 9.8613 12.1982 9.6714 12.6613 9.54478L12.4606 9.41792ZM13.3388 9.97317C12.8784 10.1241 12.549 10.2548 12.1826 10.4002C11.9146 10.5066 11.6267 10.6209 11.2532 10.7567C10.5096 11.027 9.80309 11.3126 9.2065 11.5884C8.61184 11.8633 8.11963 12.1315 7.80934 12.3678L7.93394 12.4995C8.22237 12.2798 8.6945 12.0208 9.2851 11.7478C9.87377 11.4757 10.5735 11.1927 11.3122 10.9241C11.6989 10.7835 11.991 10.6675 12.2599 10.5607C12.6579 10.4026 13.0054 10.2646 13.5341 10.0967L13.3388 9.97317ZM14.5972 10.7689C11.8403 10.9178 9.2533 12.1693 8.15842 12.7706C8.17714 12.7789 8.19629 12.7867 8.21587 12.794L8.60577 12.9387C9.95766 12.2668 12.8199 11.2417 15.6733 11.4493L14.5972 10.7689ZM16.2879 11.8749C15.0004 11.7835 13.6485 11.8698 12.5045 12.1285C11.2207 12.4188 10.0309 12.8199 9.22807 13.1697L9.47011 13.2596C10.2515 12.9342 11.3533 12.571 12.541 12.3024C13.7096 12.0381 15.1052 11.9563 16.4218 12.0651C16.3862 11.9969 16.3414 11.933 16.2879 11.8749ZM16.5166 12.3748C16.5083 12.301 16.4907 12.2286 16.4643 12.1594C15.8205 12.1355 15.0803 12.2072 14.7015 12.3188C14.5452 12.3648 14.3954 12.4158 14.2404 12.4687C13.9545 12.5662 13.6506 12.6697 13.2548 12.7592C12.3616 12.9612 11.7803 13.0917 11.2827 13.2035C10.8622 13.2979 10.5015 13.3789 10.0628 13.4782L10.0631 13.4797L10.3654 13.5919C10.6918 13.5182 10.9867 13.452 11.3191 13.3774C11.8161 13.2658 12.3968 13.1354 13.2914 12.9331C13.6955 12.8417 14.0204 12.7312 14.3133 12.6316L14.3133 12.6316C14.4654 12.5799 14.6089 12.5311 14.7504 12.4894C15.1579 12.3694 15.8605 12.319 16.5166 12.3748ZM16.3831 12.9682L16.4218 12.8906C16.4364 12.8614 16.4493 12.8317 16.4606 12.8018C16.4619 12.7985 16.4631 12.7952 16.4644 12.7919C15.8559 12.7653 15.2736 12.8967 14.713 13.0648C14.4999 13.1287 14.2914 13.1974 14.0858 13.265C13.6682 13.4025 13.2625 13.5361 12.854 13.6183C12.0287 13.7843 11.6745 13.8214 11.4078 13.8415C11.3717 13.8442 11.337 13.8466 11.3028 13.849C11.2354 13.8537 11.1701 13.8582 11.1 13.8646L11.4995 14.0129C11.7674 13.9901 12.1358 13.944 12.8859 13.7931C13.3059 13.7086 13.7314 13.5686 14.1559 13.429L14.1559 13.429C14.3587 13.3623 14.5613 13.2956 14.7629 13.2352C15.295 13.0756 15.831 12.9548 16.3831 12.9682ZM16.0196 13.6974L16.1224 13.4912C15.9185 13.5361 15.7175 13.591 15.5192 13.6505C15.3061 13.7144 15.0976 13.783 14.892 13.8507L14.892 13.8507C14.4744 13.9882 14.0687 14.1217 13.6602 14.2039C13.116 14.3134 12.7766 14.3668 12.5321 14.3963L12.8832 14.5266C13.0922 14.4937 13.3532 14.4469 13.6921 14.3787C14.1121 14.2943 14.5376 14.1543 14.9621 14.0146C15.1649 13.9479 15.3675 13.8813 15.5691 13.8208C15.7188 13.7759 15.8689 13.734 16.0196 13.6974Z" fill="#EEDCC3"/>
</g>
<g id="Group 90" filter="url(#filter5_i_2904_3454)">
<path id="Rectangle 33261_3" d="M14.0608 6.03269C14.5922 5.77272 15.2876 6.03594 15.5137 6.58261L18.0813 12.7906C18.2753 13.2597 18.0439 13.7584 17.5557 13.9231L15.6873 14.5536C15.2388 14.7049 14.7119 14.5259 14.4436 14.1311L10.7814 8.74213C10.4729 8.28821 10.6162 7.71785 11.0978 7.48223L14.0608 6.03269Z" fill="#FBA186"/>
<path id="Intersect_3" fill-rule="evenodd" clip-rule="evenodd" d="M11.5478 9.86952C11.6763 9.50889 11.856 9.17439 12.053 8.85332C12.1783 8.64916 12.3111 8.44971 12.4425 8.25249L12.4425 8.25249L12.4425 8.25248C12.4823 8.19265 12.522 8.13302 12.5614 8.07354C12.7306 7.81748 12.893 7.56344 13.0307 7.30329C13.3109 6.77383 13.4663 6.46997 13.5741 6.25364L13.7212 6.18074C13.6108 6.40541 13.4537 6.71667 13.1195 7.34815C12.9799 7.61191 12.8157 7.86864 12.6462 8.12506C12.6066 8.18504 12.5667 8.24498 12.5267 8.30499L12.5267 8.30506C12.3955 8.50204 12.2638 8.69981 12.1393 8.90258C11.9311 9.24185 11.7445 9.59311 11.6176 9.97235L11.5478 9.86952ZM11.8588 10.3277C11.9979 9.93198 12.1891 9.56348 12.3971 9.21025C12.5287 8.98684 12.668 8.76796 12.8051 8.55232L12.8052 8.55228L12.8052 8.55226C12.8467 8.48701 12.888 8.42206 12.9289 8.35736C13.1054 8.07782 13.2742 7.80197 13.418 7.52114C13.8103 6.75474 13.9701 6.42405 14.0888 6.17381L14.1342 6.07795C14.1526 6.03896 14.1707 6.00086 14.1891 5.96206C14.2682 5.93716 14.3495 5.92251 14.4313 5.9174C14.3895 6.00396 14.3533 6.08041 14.3153 6.16087L14.2698 6.25692C14.1501 6.50918 13.9895 6.84156 13.5965 7.60925C13.4487 7.89792 13.2762 8.17966 13.0991 8.46C13.0575 8.52585 13.0157 8.59155 12.9739 8.65727C12.8371 8.87237 12.7002 9.08756 12.5704 9.30795C12.3398 9.69943 12.1349 10.1023 11.9999 10.5356L11.8588 10.3277ZM12.4753 11.236C12.6371 10.8084 12.7778 10.5051 12.9344 10.1677C13.0489 9.92111 13.1718 9.65623 13.3177 9.31116C13.608 8.6241 13.9155 7.97459 14.2131 7.42998C14.5097 6.88714 14.7998 6.44237 15.0566 6.16952L15.2023 6.30445C14.9636 6.55808 14.6833 6.9845 14.3887 7.52364C14.0951 8.06101 13.7905 8.70426 13.502 9.38682C13.351 9.74409 13.2262 10.0128 13.1112 10.2603C12.941 10.6267 12.7925 10.9465 12.6126 11.4383L12.4753 11.236ZM13.3592 12.5383C13.4986 9.89434 14.8512 7.53787 15.5016 6.54944C15.505 6.55702 15.5083 6.56465 15.5114 6.57233L15.6889 7.00152C14.9629 8.23091 13.8626 10.8772 14.1155 13.6526L13.3592 12.5383ZM14.5894 14.3024C14.4765 13.0469 14.5593 11.748 14.8342 10.6703C15.1416 9.46541 15.5712 8.36334 15.9481 7.6281L16.0488 7.87167C15.6986 8.58885 15.3098 9.61027 15.0254 10.725C14.7444 11.8264 14.667 13.1687 14.7996 14.4549C14.7241 14.4126 14.6533 14.3615 14.5894 14.3024ZM15.1391 14.5789C15.0577 14.5632 14.9779 14.5385 14.9017 14.5054C14.8682 13.8787 14.9407 13.1656 15.0607 12.8104C15.1099 12.6648 15.1647 12.526 15.2213 12.3824C15.3258 12.1175 15.4369 11.836 15.5318 11.4642C15.7458 10.6252 15.884 10.0791 16.0024 9.61163L16.0024 9.61159C16.1024 9.21662 16.1882 8.87774 16.2935 8.46569L16.2946 8.46602L16.4207 8.77094C16.3427 9.07727 16.2726 9.35418 16.1936 9.66615C16.0754 10.1331 15.9373 10.6786 15.7229 11.5189C15.6261 11.8986 15.5076 12.1995 15.4008 12.471L15.4008 12.471L15.4008 12.471L15.4008 12.471L15.4008 12.471L15.4008 12.471L15.4008 12.471L15.4008 12.471C15.3453 12.6119 15.293 12.7448 15.2485 12.8767C15.1195 13.2586 15.0704 13.9364 15.1391 14.5789ZM15.7888 14.5084L15.6786 14.5456C15.6514 14.5548 15.6239 14.5628 15.5962 14.5695C15.5605 13.9776 15.7 13.4289 15.8803 12.9054C15.9486 12.707 16.0222 12.5136 16.0947 12.3229L16.0947 12.3228C16.242 11.9354 16.3851 11.559 16.4718 11.1742C16.6469 10.3966 16.6847 10.0591 16.7044 9.80414C16.707 9.76963 16.7094 9.73645 16.7117 9.7038L16.7117 9.7037C16.7162 9.63973 16.7206 9.57773 16.727 9.51144L16.8932 9.9134C16.8704 10.1691 16.8229 10.5193 16.664 11.2245C16.5749 11.6202 16.4249 12.015 16.2753 12.4088L16.2753 12.4088C16.2038 12.5969 16.1324 12.7849 16.0677 12.9726C15.8968 13.4689 15.7687 13.9733 15.7888 14.5084ZM16.5856 14.2395L16.3602 14.3156C16.4078 14.1233 16.4665 13.9349 16.5303 13.7496C16.5986 13.5512 16.6722 13.3578 16.7447 13.1671C16.892 12.7796 17.0351 12.4032 17.1218 12.0184C17.2371 11.5064 17.2929 11.1852 17.3231 10.9528L17.4692 11.306C17.4349 11.5038 17.3858 11.75 17.314 12.0688C17.2249 12.4644 17.0749 12.8592 16.9253 13.253L16.9253 13.2531C16.8538 13.4412 16.7824 13.6291 16.7177 13.8168C16.6695 13.9569 16.6247 14.0976 16.5856 14.2395Z" fill="#EEDCC3"/>
</g>
<g id="Group 91" filter="url(#filter6_i_2904_3454)">
<path id="Rectangle 33261_4" d="M14.2889 6.01428C13.6897 5.99124 13.2363 6.51207 13.3416 7.10241L14.4544 13.3434C14.5447 13.8495 15.0161 14.2114 15.5255 14.1656L17.317 14.0045C17.7852 13.9624 18.1403 13.5873 18.1555 13.1188L18.3484 7.158C18.3658 6.61845 17.9299 6.15426 17.3861 6.13335L14.2889 6.01428Z" fill="#FB9778"/>
<path id="Intersect_4" fill-rule="evenodd" clip-rule="evenodd" d="M18.3092 8.38227C18.012 8.11475 17.6853 7.89081 17.3511 7.68563C17.1414 7.55691 16.928 7.43513 16.717 7.31471L16.717 7.3147L16.717 7.3147L16.7169 7.31468C16.6529 7.27815 16.5891 7.24174 16.5257 7.2053C16.2528 7.04847 15.9866 6.89076 15.7375 6.71834C15.2292 6.36652 14.9425 6.16293 14.7407 6.01692L14.5817 6.01004C14.79 6.16225 15.0817 6.37146 15.6878 6.79102C15.9404 6.96584 16.2095 7.12518 16.4828 7.28225C16.5467 7.31895 16.6108 7.35552 16.675 7.39213L16.6752 7.39227L16.6752 7.39229L16.6753 7.39231C16.886 7.51257 17.0976 7.63332 17.3058 7.76116C17.6588 7.97789 18 8.21373 18.3055 8.49817L18.3092 8.38227ZM18.2929 8.89556C17.969 8.6022 17.6154 8.3536 17.2559 8.12503C17.031 7.98204 16.8021 7.8459 16.5767 7.71178L16.5764 7.71161C16.5083 7.67107 16.4404 7.63072 16.3731 7.59041C16.0819 7.41606 15.799 7.24193 15.5341 7.05395C14.8111 6.54092 14.507 6.31595 14.2786 6.14486L14.1913 6.07928L14.1912 6.07927C14.1595 6.05547 14.1285 6.03214 14.097 6.00855C14.0223 6.02049 13.951 6.04111 13.884 6.06929C13.9551 6.12197 14.0189 6.16988 14.0857 6.22007L14.0857 6.22008L14.1733 6.28579C14.4034 6.45826 14.7092 6.68437 15.4333 7.19826C15.7057 7.39149 15.9947 7.56927 16.2868 7.74412C16.355 7.785 16.4234 7.82567 16.4918 7.86635L16.492 7.86646L16.4921 7.86656L16.4925 7.86675L16.4928 7.86693C16.7177 8.00072 16.9426 8.13456 17.1645 8.27561C17.5627 8.5288 17.9455 8.80203 18.2855 9.12969L18.2929 8.89556ZM18.2606 9.91413C17.9 9.60198 17.6239 9.39199 17.3164 9.15811C17.0934 8.98853 16.854 8.80639 16.5538 8.56365C15.9561 8.08034 15.364 7.636 14.8348 7.27862C14.3073 6.9224 13.8364 6.6485 13.4827 6.51055L13.4334 6.68281C13.7622 6.81104 14.2155 7.07283 14.7393 7.42662C15.2615 7.77925 15.848 8.21925 16.4418 8.69941C16.7526 8.95073 16.9956 9.13548 17.2194 9.30562C17.5531 9.5593 17.8441 9.78052 18.2534 10.1416L18.2606 9.91413ZM18.2139 11.3844C16.7237 9.15138 14.3838 7.62751 13.3252 7.01552C13.3277 7.04087 13.3312 7.0664 13.3358 7.09205L13.4044 7.47667C14.6485 8.26759 16.9368 10.1408 18.174 12.6412L18.2139 11.3844ZM18.0179 13.5722C18.058 13.5087 18.0906 13.4398 18.1143 13.3668C17.5512 12.2375 16.8043 11.1454 16.0149 10.3181C15.1366 9.39748 14.2119 8.6113 13.5189 8.11888L13.5634 8.36821C14.2247 8.85477 15.0739 9.58682 15.8863 10.4383C16.6915 11.2822 17.4552 12.4113 18.0179 13.5722ZM17.8025 13.8078C17.8608 13.7631 17.9134 13.7116 17.9592 13.6544C17.6595 13.1019 17.23 12.517 16.947 12.2568C16.8305 12.1496 16.713 12.0506 16.5913 11.948C16.367 11.7588 16.1286 11.5578 15.8564 11.2725C15.2421 10.6286 14.8432 10.2092 14.5016 9.85005L14.5015 9.8499C14.2157 9.5495 13.9702 9.29132 13.6723 8.97933L13.7283 9.29301C13.9483 9.52378 14.1478 9.73353 14.3721 9.96931L14.3722 9.96945L14.3726 9.96987L14.3727 9.96996L14.3729 9.9702C14.7141 10.3289 15.1126 10.7479 15.7278 11.3927C16.0058 11.6841 16.2604 11.8991 16.49 12.0931L16.49 12.0931C16.6093 12.1938 16.7217 12.2887 16.8272 12.3858C17.1314 12.6655 17.5235 13.2289 17.8025 13.8078ZM17.2366 14.0017L17.3207 13.9941C17.3564 13.9909 17.3914 13.9857 17.4257 13.9788C17.1459 13.4545 16.7452 13.034 16.3241 12.6508C16.1643 12.5053 16.0028 12.3661 15.8435 12.2288C15.52 11.95 15.2057 11.6791 14.9334 11.3794C14.3832 10.7739 14.1759 10.4965 14.0265 10.2835C14.0062 10.2547 13.987 10.2269 13.968 10.1995L13.968 10.1995L13.968 10.1995L13.968 10.1994L13.968 10.1994C13.9334 10.1496 13.8999 10.1013 13.8634 10.0506L13.9367 10.4618C14.0888 10.673 14.3118 10.9572 14.8016 11.4963C15.0816 11.8045 15.4112 12.0886 15.74 12.3721C15.897 12.5075 16.0539 12.6427 16.2051 12.7804C16.6048 13.1443 16.9736 13.5314 17.2366 14.0017ZM16.4389 14.0734L16.6639 14.0532C16.5239 13.9046 16.3769 13.7637 16.2273 13.6274C16.0674 13.482 15.9059 13.3428 15.7467 13.2055C15.4231 12.9267 15.1088 12.6558 14.8365 12.3561C14.4843 11.9685 14.2726 11.7154 14.1267 11.5275L14.1908 11.8872C14.3206 12.0425 14.4861 12.2323 14.7048 12.473C14.9847 12.7811 15.3143 13.0653 15.6431 13.3487C15.8002 13.4842 15.957 13.6194 16.1082 13.7571C16.2215 13.8602 16.3323 13.9652 16.4389 14.0734Z" fill="#F7CEBC"/>
</g>
<ellipse id="Ellipse 159" cx="0.270722" cy="0.406922" rx="0.270722" ry="0.406922" transform="matrix(0.996932 0.0782752 -0.0789596 0.996878 18.3193 10.7432)" fill="#E5E5E5"/>
<ellipse id="Ellipse 160" cx="0.270784" cy="0.406829" rx="0.270784" ry="0.406829" transform="matrix(-0.819594 -0.572945 -0.571741 0.820434 19.2559 11.4153)" fill="#E5E5E5"/>
<ellipse id="Ellipse 162" cx="0.270784" cy="0.406828" rx="0.270784" ry="0.406828" transform="matrix(-0.609625 -0.79269 -0.791794 0.610789 22.7461 18.7511)" fill="#E5E5E5"/>
<ellipse id="Ellipse 142" cx="0.3328" cy="0.499201" rx="0.3328" ry="0.499201" transform="matrix(-0.820014 -0.572343 -0.572342 0.820015 22.9453 20.8375)" fill="#F7F7F7"/>
<ellipse id="Ellipse 143" cx="0.332801" cy="0.4992" rx="0.332801" ry="0.4992" transform="matrix(-0.204756 -0.978813 -0.978813 0.204757 24.043 19.3889)" fill="#F7F7F7"/>
<ellipse id="Ellipse 146" cx="0.3328" cy="0.4992" rx="0.3328" ry="0.4992" transform="matrix(-0.760202 -0.649686 -0.649686 0.760203 22.4141 21.3721)" fill="#F7F7F7"/>
<ellipse id="Ellipse 147" cx="0.293479" cy="0.440218" rx="0.293479" ry="0.440218" transform="matrix(-0.527989 -0.849251 -0.849251 0.52799 18.9062 23.6559)" fill="#F7F7F7"/>
<ellipse id="Ellipse 144" cx="0.288016" cy="0.432024" rx="0.288016" ry="0.432024" transform="matrix(0.492907 -0.870082 -0.870081 -0.492908 24.1309 12.6509)" fill="#F7F7F7"/>
<ellipse id="Ellipse 145" cx="0.381984" cy="0.572976" rx="0.381984" ry="0.572976" transform="matrix(0.492907 -0.870082 -0.870082 -0.492908 20.2373 8.80383)" fill="#F7F7F7"/>
<ellipse id="Ellipse 154" cx="0.381984" cy="0.572976" rx="0.381984" ry="0.572976" transform="matrix(0.99742 0.0717821 0.071782 -0.99742 18.8926 8.4762)" fill="#F7F7F7"/>
<ellipse id="Ellipse 157" cx="0.381985" cy="0.572976" rx="0.381985" ry="0.572976" transform="matrix(0.99742 0.071782 0.0717822 -0.99742 22.0469 11.2241)" fill="#F7F7F7"/>
<ellipse id="Ellipse 163" cx="0.270784" cy="0.406829" rx="0.270784" ry="0.406829" transform="matrix(-0.986333 -0.164761 -0.163313 0.986574 22.7363 17.5511)" fill="#E5E5E5"/>
<g id="Group 97" filter="url(#filter7_d_2904_3454)">
<path id="Rectangle 33273" d="M14.6006 18.4072C14.6006 18.4072 15.991 18.7931 17.2649 18.7639C18.5388 18.7347 19.9101 18.2856 19.9101 18.2856L19.912 18.3654C19.912 18.3654 18.8164 19.2661 17.2772 19.3014C15.7381 19.3366 14.6024 18.487 14.6024 18.487L14.6006 18.4072Z" fill="#E5EBE3"/>
<path id="Rectangle 33276" d="M18.6914 16.7948C18.6914 16.7948 17.2794 16.4976 16.1618 15.8855C15.0442 15.2734 14.0333 14.2436 14.0333 14.2436L13.995 14.3136C13.995 14.3136 14.5532 15.6175 15.9035 16.357C17.2538 17.0966 18.6531 16.8648 18.6531 16.8648L18.6914 16.7948Z" fill="#E5EBE3"/>
<path id="Rectangle 33274" d="M12.2744 14.3745C12.2744 14.3745 12.4423 16.0009 12.7961 16.9536C13.1499 17.9064 14.0843 19.2481 14.0843 19.2481L14.011 19.2753C14.011 19.2753 12.8848 18.0087 12.5298 17.0525C12.1747 16.0964 12.2012 14.4017 12.2012 14.4017L12.2744 14.3745Z" fill="#E5EBE3"/>
<path id="Rectangle 33275" d="M20.6885 15.3507C20.6885 15.3507 19.8069 16.815 18.7039 17.8162C17.6009 18.8174 16.0584 19.5536 16.0584 19.5536L16.1215 19.6232C16.1215 19.6232 17.6133 19.2677 18.9336 18.0693C20.2539 16.8708 20.7516 15.4203 20.7516 15.4203L20.6885 15.3507Z" fill="#E5EBE3"/>
<path id="Ellipse 168 (Stroke)" fill-rule="evenodd" clip-rule="evenodd" d="M15.3267 19.1415C17.1533 19.5867 18.6905 18.3926 19.1357 16.566C19.5809 14.7395 18.7656 12.972 16.939 12.5268C15.1124 12.0816 13.1077 13.1617 12.6625 14.9883C12.2173 16.8149 13.5002 18.6963 15.3267 19.1415ZM15.2525 19.446C17.2473 19.9322 19.2585 18.7093 19.7447 16.7145C20.2309 14.7197 19.008 12.7085 17.0132 12.2223C15.0185 11.7361 13.0072 12.959 12.521 14.9538C12.0348 16.9486 13.2577 18.9598 15.2525 19.446Z" fill="#E5EBE3"/>
<path id="Ellipse 168 (Stroke)_2" fill-rule="evenodd" clip-rule="evenodd" d="M15.8346 18.0043C17.6611 18.4495 19.1983 17.2554 19.6435 15.4288C20.0887 13.6022 19.2734 11.8348 17.4468 11.3896C15.6202 10.9444 13.6155 12.0245 13.1703 13.8511C12.7251 15.6777 14.008 17.559 15.8346 18.0043ZM15.7603 18.3088C17.7551 18.795 19.7663 17.5721 20.2525 15.5773C20.7388 13.5825 19.5158 11.5713 17.521 11.0851C15.5263 10.5989 13.515 11.8218 13.0288 13.8166C12.5426 15.8113 13.7656 17.8226 15.7603 18.3088Z" fill="#E5EBE3"/>
<path id="Ellipse 168 (Stroke)_3" fill-rule="evenodd" clip-rule="evenodd" d="M14.0667 16.2519C12.7319 15.9266 12.1361 14.635 12.4614 13.3002C12.7868 11.9654 13.91 11.0929 15.2448 11.4182C16.5796 11.7435 17.5171 13.1184 17.1917 14.4532C16.8664 15.788 15.4015 16.5773 14.0667 16.2519ZM14.0124 16.4745C12.5547 16.1192 11.6611 14.6494 12.0164 13.1917C12.3717 11.734 13.8414 10.8404 15.2991 11.1957C16.7568 11.551 17.6504 13.0207 17.2951 14.4784C16.9399 15.9361 15.4701 16.8298 14.0124 16.4745Z" fill="#E5EBE3"/>
<path id="Ellipse 168 (Stroke)_4" fill-rule="evenodd" clip-rule="evenodd" d="M15.117 17.9218C13.9431 18.6356 12.6086 18.1436 11.8948 16.9697C11.181 15.7958 11.3583 14.3845 12.5321 13.6707C13.706 12.957 15.3411 13.2662 16.0549 14.4401C16.7687 15.614 16.2909 17.208 15.117 17.9218ZM15.236 18.1175C13.954 18.897 12.2829 18.4897 11.5033 17.2077C10.7238 15.9257 11.1312 14.2545 12.4131 13.475C13.6951 12.6955 15.3663 13.1029 16.1458 14.3848C16.9253 15.6668 16.518 17.338 15.236 18.1175Z" fill="#E5EBE3"/>
<path id="Ellipse 169 (Stroke)" fill-rule="evenodd" clip-rule="evenodd" d="M14.785 17.8965C16.4592 18.3045 18.2505 17.4318 18.6586 15.7576C19.0667 14.0833 17.937 12.2416 16.2628 11.8335C14.5885 11.4254 13.0344 12.4845 12.6263 14.1587C12.2182 15.833 13.1107 17.4884 14.785 17.8965ZM14.7108 18.201C16.5532 18.6501 18.4108 17.5205 18.8599 15.6781C19.309 13.8357 18.1794 11.978 16.337 11.5289C14.4946 11.0799 12.6369 12.2094 12.1879 14.0518C11.7388 15.8943 12.8683 17.7519 14.7108 18.201Z" fill="#E5EBE3"/>
<path id="Ellipse 169 (Stroke)_2" fill-rule="evenodd" clip-rule="evenodd" d="M16.994 19.9397C18.6682 20.3478 20.4595 19.475 20.8676 17.8008C21.2757 16.1266 20.146 14.2848 18.4718 13.8767C16.7975 13.4686 15.2433 14.5277 14.8353 16.2019C14.4272 17.8762 15.3197 19.5316 16.994 19.9397ZM16.9197 20.2442C18.7622 20.6933 20.6198 19.5637 21.0689 17.7213C21.518 15.8789 20.3884 14.0212 18.546 13.5722C16.7036 13.1231 14.8459 14.2526 14.3968 16.0951C13.9478 17.9375 15.0773 19.7951 16.9197 20.2442Z" fill="#E5EBE3"/>
</g>
<g id="Group 95" filter="url(#filter8_d_2904_3454)">
<g id="Group 92">
<g id="Rectangle 33265" filter="url(#filter9_d_2904_3454)">
<path d="M13.2927 12.7149C13.9392 12.5645 14.4393 12.6864 14.9441 13.1175C15.1115 13.2604 15.2669 13.5039 15.3729 13.6941C15.4617 13.8535 15.4138 14.0499 15.2617 14.1506C15.08 14.2707 14.83 14.4154 14.6156 14.4652C13.9691 14.6156 13.469 14.4938 12.9642 14.0627C12.7968 13.9198 12.6414 13.6763 12.5354 13.4861C12.4466 13.3267 12.4945 13.1303 12.6467 13.0296C12.8283 12.9095 13.0783 12.7648 13.2927 12.7149Z" fill="#4E994B"/>
<path d="M13.3154 12.8123C13.627 12.7399 13.8974 12.7343 14.1479 12.7953C14.3984 12.8564 14.6358 12.9857 14.8792 13.1935C15.0319 13.3239 15.1801 13.5535 15.2855 13.7428C15.3489 13.8565 15.3151 13.9953 15.2065 14.0671C15.0257 14.1867 14.7885 14.3223 14.5929 14.3678C14.2813 14.4403 14.0109 14.4459 13.7604 14.3849C13.51 14.3238 13.2725 14.1944 13.0292 13.9867C12.8764 13.8563 12.7283 13.6267 12.6228 13.4374C12.5594 13.3237 12.5933 13.1849 12.7018 13.113C12.8826 12.9935 13.1198 12.8578 13.3154 12.8123Z" stroke="#4E994B" stroke-width="0.2"/>
</g>
<path id="Rectangle 33266" d="M13.7819 17.928C14.0017 17.9279 14.1815 17.9661 14.337 18.0445C14.4926 18.1229 14.6302 18.2448 14.7607 18.4215C14.8244 18.5076 14.8783 18.6375 14.9193 18.7632C14.9588 18.8844 14.8952 19.0106 14.7742 19.0509C14.6489 19.0926 14.5123 19.1265 14.4053 19.1266C14.1855 19.1268 14.0057 19.0886 13.8502 19.0102C13.6946 18.9317 13.557 18.8099 13.4265 18.6332C13.3629 18.5471 13.3089 18.4171 13.2679 18.2915C13.2284 18.1703 13.292 18.0441 13.413 18.0038C13.5383 17.962 13.6749 17.9281 13.7819 17.928Z" fill="#4E994B" stroke="#4E994B" stroke-width="0.2"/>
<path id="Vector 297" d="M13.9778 13.6105C14.478 13.8908 18.4881 15.0156 20.6496 13.147" stroke="#97C096" stroke-width="0.1" stroke-linecap="round"/>
<path id="Vector 298" d="M14.2512 18.5666C14.6234 18.8249 17.6519 19.7816 19.3833 17.8393" stroke="#97C096" stroke-width="0.1" stroke-linecap="round"/>
</g>
<g id="Group 93">
<g id="Rectangle 33265_2" filter="url(#filter10_d_2904_3454)">
<path d="M16.6337 17.6864C16.2617 17.1118 15.8033 16.8441 15.12 16.8024C14.8901 16.7884 14.5954 16.86 14.3796 16.9261C14.2051 16.9795 14.1032 17.154 14.1424 17.3322C14.1909 17.5527 14.2733 17.8446 14.3985 18.0379C14.7705 18.6125 15.2289 18.8802 15.9122 18.9219C16.1421 18.9359 16.4368 18.8643 16.6526 18.7982C16.8271 18.7448 16.929 18.5703 16.8898 18.3921C16.8413 18.1716 16.7589 17.8797 16.6337 17.6864Z" fill="#4E994B"/>
<path d="M16.5498 17.7408C16.3702 17.4635 16.1732 17.2653 15.9431 17.1309C15.713 16.9965 15.4436 16.9224 15.1139 16.9022C14.9035 16.8894 14.6237 16.9559 14.4088 17.0217C14.2842 17.0599 14.212 17.1834 14.24 17.3108C14.2883 17.5302 14.3679 17.8066 14.4824 17.9835C14.662 18.2608 14.859 18.459 15.0891 18.5934C15.3192 18.7278 15.5886 18.802 15.9183 18.8221C16.1287 18.8349 16.4085 18.7684 16.6234 18.7026C16.748 18.6645 16.8202 18.5409 16.7922 18.4136C16.7439 18.1941 16.6643 17.9177 16.5498 17.7408Z" stroke="#4E994B" stroke-width="0.2"/>
</g>
<path id="Vector 297_2" d="M15.6252 17.9287C15.1976 17.8163 12.3704 16.2931 12.1717 14.099" stroke="#97C096" stroke-width="0.2" stroke-linecap="round"/>
</g>
<g id="Group 94">
<path id="Rectangle 33265_3" d="M19.6582 17.9007C19.3712 18.0642 19.1051 18.1495 18.839 18.163C18.5728 18.1764 18.2995 18.1183 17.9975 17.9844C17.8048 17.899 17.587 17.7113 17.4265 17.554C17.3334 17.4627 17.3262 17.3198 17.4096 17.2196C17.5535 17.047 17.7513 16.8383 17.9344 16.7339C18.2214 16.5703 18.4875 16.485 18.7536 16.4715C19.0198 16.4581 19.2931 16.5162 19.5951 16.6501C19.7878 16.7355 20.0056 16.9233 20.1661 17.0806C20.2592 17.1718 20.2664 17.3147 20.183 17.4149C20.0391 17.5875 19.8413 17.7963 19.6582 17.9007Z" fill="#4E994B" stroke="#4E994B" stroke-width="0.2"/>
<path id="Rectangle 33266_2" d="M19.5655 15.2381C19.4738 15.5554 19.3425 15.8021 19.1611 15.9972C18.9796 16.1924 18.7432 16.3413 18.4333 16.4558C18.2356 16.5289 17.9485 16.5461 17.7238 16.5453C17.5935 16.5447 17.4886 16.4473 17.4787 16.3173C17.4614 16.0932 17.4577 15.8057 17.5163 15.6032C17.608 15.2858 17.7393 15.0392 17.9208 14.844C18.1022 14.6489 18.3387 14.5 18.6485 14.3854C18.8462 14.3123 19.1333 14.2951 19.358 14.296C19.4883 14.2965 19.5932 14.394 19.6031 14.524C19.6204 14.748 19.6241 15.0356 19.5655 15.2381Z" fill="#4E994B" stroke="#4E994B" stroke-width="0.2"/>
<path id="Rectangle 33267" d="M17.5165 12.4776C17.4593 12.6757 17.3779 12.8275 17.267 12.9469C17.156 13.0662 17.0105 13.1583 16.8171 13.2298C16.728 13.2628 16.6049 13.2778 16.4855 13.2827C16.3587 13.2879 16.2555 13.1919 16.2514 13.065C16.2476 12.9455 16.2536 12.8217 16.28 12.7305C16.3373 12.5323 16.4186 12.3805 16.5295 12.2612C16.6405 12.1418 16.786 12.0497 16.9794 11.9782C17.0685 11.9453 17.1916 11.9303 17.311 11.9254C17.4378 11.9202 17.5411 12.0162 17.5451 12.143C17.5489 12.2625 17.5429 12.3864 17.5165 12.4776Z" fill="#4E994B" stroke="#4E994B" stroke-width="0.2"/>
<path id="Rectangle 33268" d="M12.8017 14.9172C12.7614 15.1194 12.7637 15.2916 12.8073 15.4486C12.8509 15.6057 12.9377 15.7544 13.0766 15.9069C13.1405 15.9771 13.2429 16.0471 13.3467 16.1064C13.4568 16.1693 13.5927 16.1316 13.6546 16.0209C13.713 15.9165 13.7646 15.8038 13.7832 15.7107C13.8235 15.5084 13.8212 15.3362 13.7776 15.1792C13.734 15.0222 13.6472 14.8735 13.5084 14.721C13.4445 14.6507 13.3421 14.5808 13.2383 14.5215C13.1281 14.4585 12.9922 14.4962 12.9303 14.607C12.8719 14.7113 12.8203 14.8241 12.8017 14.9172Z" fill="#4E994B" stroke="#4E994B" stroke-width="0.2"/>
<path id="Rectangle 33272" d="M12.0736 17.1029C12.1698 17.2853 12.2802 17.4175 12.413 17.5119C12.5459 17.6063 12.707 17.667 12.9109 17.6978C13.0048 17.7121 13.1284 17.7018 13.2464 17.6824C13.3716 17.6618 13.4532 17.5469 13.4315 17.4219C13.411 17.3041 13.38 17.184 13.3357 17.1C13.2395 16.9176 13.1291 16.7854 12.9963 16.691C12.8635 16.5966 12.7023 16.5359 12.4984 16.505C12.4045 16.4908 12.2809 16.5011 12.163 16.5205C12.0378 16.5411 11.9561 16.656 11.9778 16.781C11.9983 16.8988 12.0293 17.0189 12.0736 17.1029Z" fill="#4E994B" stroke="#4E994B" stroke-width="0.2"/>
<path id="Rectangle 33269" d="M17.6748 12.8709C17.6345 13.0732 17.6368 13.2454 17.6804 13.4024C17.724 13.5594 17.8108 13.7081 17.9496 13.8606C18.0135 13.9309 18.1159 14.0008 18.2197 14.0601C18.3299 14.1231 18.4657 14.0854 18.5277 13.9746C18.5861 13.8703 18.6377 13.7575 18.6563 13.6644C18.6966 13.4622 18.6942 13.29 18.6506 13.133C18.607 12.9759 18.5203 12.8272 18.3814 12.6747C18.3175 12.6045 18.2151 12.5345 18.1113 12.4752C18.0011 12.4123 17.8653 12.45 17.8033 12.5607C17.745 12.6651 17.6933 12.7778 17.6748 12.8709Z" fill="#4E994B" stroke="#4E994B" stroke-width="0.2"/>
<g id="Rectangle 33270" filter="url(#filter11_d_2904_3454)">
<path d="M14.4032 12.3055C14.8492 11.9773 15.2726 11.9061 15.8014 12.0703C15.9607 12.1197 16.1396 12.2359 16.2789 12.3399C16.4251 12.4491 16.4588 12.6494 16.3564 12.8004C16.2588 12.9443 16.1277 13.1126 15.9934 13.2115C15.5474 13.5396 15.124 13.6108 14.5951 13.4467C14.4359 13.3972 14.2569 13.281 14.1176 13.177C13.9714 13.0678 13.9377 12.8675 14.0402 12.7165C14.1378 12.5727 14.2689 12.4043 14.4032 12.3055Z" fill="#4E994B"/>
<path d="M14.4624 12.386C14.6758 12.229 14.8789 12.137 15.0878 12.1019C15.2968 12.0667 15.5188 12.0872 15.7718 12.1658C15.9137 12.2098 16.0812 12.3171 16.2191 12.4201C16.3224 12.4972 16.346 12.6375 16.2736 12.7443C16.177 12.8866 16.0539 13.0428 15.9341 13.1309C15.7207 13.2879 15.5177 13.3799 15.3087 13.4151C15.0998 13.4502 14.8778 13.4297 14.6248 13.3512C14.4828 13.3071 14.3153 13.1998 14.1775 13.0969C14.0741 13.0197 14.0505 12.8794 14.1229 12.7727C14.2195 12.6303 14.3427 12.4741 14.4624 12.386Z" stroke="#4E994B" stroke-width="0.2"/>
</g>
<path id="Vector 297_3" d="M18.9253 17.3085C18.494 17.2115 15.283 17.263 14.0969 19.1196" stroke="#C6D99C" stroke-width="0.12" stroke-linecap="round"/>
<path id="Vector 298_2" d="M18.6269 15.3252C17.9014 16.2358 16.8208 16.9972 15.1808 16.9331" stroke="#C6D99C" stroke-width="0.16" stroke-linecap="round"/>
<path id="Vector 299" d="M16.9521 12.5428C16.2879 13.3729 15.3787 14.131 14.1634 14.3005" stroke="#C6D99C" stroke-width="0.08" stroke-linecap="round"/>
<g id="Vector 300" filter="url(#filter12_d_2904_3454)">
<path d="M13.253 15.2328C13.4607 16.2754 13.9191 17.3668 14.9201 18.0765" stroke="#C6D99C" stroke-width="0.08" stroke-linecap="round"/>
</g>
<path id="Vector 304" d="M12.6231 17.0626C13.4417 17.7409 14.4856 18.2991 15.71 18.2189" stroke="#C6D99C" stroke-width="0.08" stroke-linecap="round"/>
<path id="Vector 301" d="M18.1456 13.1885C18.3533 14.2311 18.8117 15.3225 19.8127 16.0322" stroke="#C6D99C" stroke-width="0.08" stroke-linecap="round"/>
<path id="Vector 302" d="M15.0977 12.7785C16.4079 12.4567 17.9089 12.3968 19.2629 13.1658" stroke="#C6D99C" stroke-width="0.08" stroke-linecap="round"/>
</g>
</g>
<g id="Group 96">
<g id="Ellipse 72" filter="url(#filter13_di_2904_3454)">
<ellipse cx="16.4004" cy="15.5954" rx="2.3908" ry="2.39054" transform="rotate(22.6251 16.4004 15.5954)" fill="#FFCB1E"/>
</g>
<ellipse id="Ellipse 166" cx="15.7153" cy="14.253" rx="0.314641" ry="0.314608" transform="rotate(22.6251 15.7153 14.253)" fill="#FFF8E1"/>
</g>
</g>
<defs>
<filter id="filter0_i_2904_3454" x="13.3418" y="16.3799" width="4.82031" height="8.44055" filterUnits="userSpaceOnUse" color-interpolation-filters="sRGB">
<feFlood flood-opacity="0" result="BackgroundImageFix"/>
<feBlend mode="normal" in="SourceGraphic" in2="BackgroundImageFix" result="shape"/>
<feColorMatrix in="SourceAlpha" type="matrix" values="0 0 0 0 0 0 0 0 0 0 0 0 0 0 0 0 0 0 127 0" result="hardAlpha"/>
<feOffset dx="0.24" dy="-0.48"/>
<feComposite in2="hardAlpha" operator="arithmetic" k2="-1" k3="1"/>
<feColorMatrix type="matrix" values="0 0 0 0 0.450635 0 0 0 0 0.0946581 0 0 0 0 0.0914252 0 0 0 0.1 0"/>
<feBlend mode="normal" in2="shape" result="effect1_innerShadow_2904_3454"/>
</filter>
<filter id="filter1_i_2904_3454" x="9.89062" y="16.0074" width="6.9707" height="8.15491" filterUnits="userSpaceOnUse" color-interpolation-filters="sRGB">
<feFlood flood-opacity="0" result="BackgroundImageFix"/>
<feBlend mode="normal" in="SourceGraphic" in2="BackgroundImageFix" result="shape"/>
<feColorMatrix in="SourceAlpha" type="matrix" values="0 0 0 0 0 0 0 0 0 0 0 0 0 0 0 0 0 0 127 0" result="hardAlpha"/>
<feOffset dx="0.24" dy="-0.48"/>
<feComposite in2="hardAlpha" operator="arithmetic" k2="-1" k3="1"/>
<feColorMatrix type="matrix" values="0 0 0 0 0.450635 0 0 0 0 0.0946581 0 0 0 0 0.0914252 0 0 0 0.1 0"/>
<feBlend mode="normal" in2="shape" result="effect1_innerShadow_2904_3454"/>
</filter>
<filter id="filter2_i_2904_3454" x="7.33887" y="14.6063" width="7.98535" height="6.88025" filterUnits="userSpaceOnUse" color-interpolation-filters="sRGB">
<feFlood flood-opacity="0" result="BackgroundImageFix"/>
<feBlend mode="normal" in="SourceGraphic" in2="BackgroundImageFix" result="shape"/>
<feColorMatrix in="SourceAlpha" type="matrix" values="0 0 0 0 0 0 0 0 0 0 0 0 0 0 0 0 0 0 127 0" result="hardAlpha"/>
<feOffset dx="-0.12" dy="-0.48"/>
<feComposite in2="hardAlpha" operator="arithmetic" k2="-1" k3="1"/>
<feColorMatrix type="matrix" values="0 0 0 0 0.450635 0 0 0 0 0.0946581 0 0 0 0 0.0914252 0 0 0 0.1 0"/>
<feBlend mode="normal" in2="shape" result="effect1_innerShadow_2904_3454"/>
</filter>
<filter id="filter3_i_2904_3454" x="6.94922" y="12.085" width="8.83008" height="5.38391" filterUnits="userSpaceOnUse" color-interpolation-filters="sRGB">
<feFlood flood-opacity="0" result="BackgroundImageFix"/>
<feBlend mode="normal" in="SourceGraphic" in2="BackgroundImageFix" result="shape"/>
<feColorMatrix in="SourceAlpha" type="matrix" values="0 0 0 0 0 0 0 0 0 0 0 0 0 0 0 0 0 0 127 0" result="hardAlpha"/>
<feOffset dx="0.24" dy="-0.48"/>
<feComposite in2="hardAlpha" operator="arithmetic" k2="-1" k3="1"/>
<feColorMatrix type="matrix" values="0 0 0 0 0.450635 0 0 0 0 0.0946581 0 0 0 0 0.0914252 0 0 0 0.1 0"/>
<feBlend mode="normal" in2="shape" result="effect1_innerShadow_2904_3454"/>
</filter>
<filter id="filter4_i_2904_3454" x="7.62305" y="8.3114" width="8.90625" height="6.80615" filterUnits="userSpaceOnUse" color-interpolation-filters="sRGB">
<feFlood flood-opacity="0" result="BackgroundImageFix"/>
<feBlend mode="normal" in="SourceGraphic" in2="BackgroundImageFix" result="shape"/>
<feColorMatrix in="SourceAlpha" type="matrix" values="0 0 0 0 0 0 0 0 0 0 0 0 0 0 0 0 0 0 127 0" result="hardAlpha"/>
<feOffset dx="0.12" dy="-0.24"/>
<feComposite in2="hardAlpha" operator="arithmetic" k2="-1" k3="1"/>
<feColorMatrix type="matrix" values="0 0 0 0 0.450635 0 0 0 0 0.0946581 0 0 0 0 0.0914252 0 0 0 0.1 0"/>
<feBlend mode="normal" in2="shape" result="effect1_innerShadow_2904_3454"/>
</filter>
<filter id="filter5_i_2904_3454" x="10.6182" y="5.91736" width="7.53125" height="8.6897" filterUnits="userSpaceOnUse" color-interpolation-filters="sRGB">
<feFlood flood-opacity="0" result="BackgroundImageFix"/>
<feBlend mode="normal" in="SourceGraphic" in2="BackgroundImageFix" result="shape"/>
<feColorMatrix in="SourceAlpha" type="matrix" values="0 0 0 0 0 0 0 0 0 0 0 0 0 0 0 0 0 0 127 0" result="hardAlpha"/>
<feOffset dx="0.12" dy="-0.24"/>
<feComposite in2="hardAlpha" operator="arithmetic" k2="-1" k3="1"/>
<feColorMatrix type="matrix" values="0 0 0 0 0.450635 0 0 0 0 0.0946581 0 0 0 0 0.0914252 0 0 0 0.1 0"/>
<feBlend mode="normal" in2="shape" result="effect1_innerShadow_2904_3454"/>
</filter>
<filter id="filter6_i_2904_3454" x="13.3252" y="6.00854" width="5.02344" height="8.16089" filterUnits="userSpaceOnUse" color-interpolation-filters="sRGB">
<feFlood flood-opacity="0" result="BackgroundImageFix"/>
<feBlend mode="normal" in="SourceGraphic" in2="BackgroundImageFix" result="shape"/>
<feColorMatrix in="SourceAlpha" type="matrix" values="0 0 0 0 0 0 0 0 0 0 0 0 0 0 0 0 0 0 127 0" result="hardAlpha"/>
<feOffset dx="0.12" dy="-0.24"/>
<feComposite in2="hardAlpha" operator="arithmetic" k2="-1" k3="1"/>
<feColorMatrix type="matrix" values="0 0 0 0 0.450635 0 0 0 0 0.0946581 0 0 0 0 0.0914252 0 0 0 0.1 0"/>
<feBlend mode="normal" in2="shape" result="effect1_innerShadow_2904_3454"/>
</filter>
<filter id="filter7_d_2904_3454" x="11.1074" y="10.9785" width="10.0596" height="9.56414" filterUnits="userSpaceOnUse" color-interpolation-filters="sRGB">
<feFlood flood-opacity="0" result="BackgroundImageFix"/>
<feColorMatrix in="SourceAlpha" type="matrix" values="0 0 0 0 0 0 0 0 0 0 0 0 0 0 0 0 0 0 127 0" result="hardAlpha"/>
<feOffset dy="0.2"/>
<feComposite in2="hardAlpha" operator="out"/>
<feColorMatrix type="matrix" values="0 0 0 0 0.667395 0 0 0 0 0.709277 0 0 0 0 0.698932 0 0 0 0.25 0"/>
<feBlend mode="normal" in2="BackgroundImageFix" result="effect1_dropShadow_2904_3454"/>
<feBlend mode="normal" in="SourceGraphic" in2="effect1_dropShadow_2904_3454" result="shape"/>
</filter>
<filter id="filter8_d_2904_3454" x="11.874" y="11.8252" width="8.8252" height="7.56137" filterUnits="userSpaceOnUse" color-interpolation-filters="sRGB">
<feFlood flood-opacity="0" result="BackgroundImageFix"/>
<feColorMatrix in="SourceAlpha" type="matrix" values="0 0 0 0 0 0 0 0 0 0 0 0 0 0 0 0 0 0 127 0" result="hardAlpha"/>
<feOffset dy="0.16"/>
<feComposite in2="hardAlpha" operator="out"/>
<feColorMatrix type="matrix" values="0 0 0 0 0.571077 0 0 0 0 0.548198 0 0 0 0 0.374965 0 0 0 0.25 0"/>
<feBlend mode="normal" in2="BackgroundImageFix" result="effect1_dropShadow_2904_3454"/>
<feBlend mode="normal" in="SourceGraphic" in2="effect1_dropShadow_2904_3454" result="shape"/>
</filter>
<filter id="filter9_d_2904_3454" x="12.4912" y="12.6534" width="2.92578" height="2.03329" filterUnits="userSpaceOnUse" color-interpolation-filters="sRGB">
<feFlood flood-opacity="0" result="BackgroundImageFix"/>
<feColorMatrix in="SourceAlpha" type="matrix" values="0 0 0 0 0 0 0 0 0 0 0 0 0 0 0 0 0 0 127 0" result="hardAlpha"/>
<feOffset dy="0.16"/>
<feComposite in2="hardAlpha" operator="out"/>
<feColorMatrix type="matrix" values="0 0 0 0 0.211765 0 0 0 0 0.262745 0 0 0 0 0.4 0 0 0 0.25 0"/>
<feBlend mode="normal" in2="BackgroundImageFix" result="effect1_dropShadow_2904_3454"/>
<feBlend mode="normal" in="SourceGraphic" in2="effect1_dropShadow_2904_3454" result="shape"/>
</filter>
<filter id="filter10_d_2904_3454" x="14.1338" y="16.8007" width="2.76465" height="2.28305" filterUnits="userSpaceOnUse" color-interpolation-filters="sRGB">
<feFlood flood-opacity="0" result="BackgroundImageFix"/>
<feColorMatrix in="SourceAlpha" type="matrix" values="0 0 0 0 0 0 0 0 0 0 0 0 0 0 0 0 0 0 127 0" result="hardAlpha"/>
<feOffset dy="0.16"/>
<feComposite in2="hardAlpha" operator="out"/>
<feColorMatrix type="matrix" values="0 0 0 0 0.211765 0 0 0 0 0.262745 0 0 0 0 0.4 0 0 0 0.25 0"/>
<feBlend mode="normal" in2="BackgroundImageFix" result="effect1_dropShadow_2904_3454"/>
<feBlend mode="normal" in="SourceGraphic" in2="effect1_dropShadow_2904_3454" result="shape"/>
</filter>
<filter id="filter11_d_2904_3454" x="13.9814" y="11.9852" width="2.43359" height="1.64639" filterUnits="userSpaceOnUse" color-interpolation-filters="sRGB">
<feFlood flood-opacity="0" result="BackgroundImageFix"/>
<feColorMatrix in="SourceAlpha" type="matrix" values="0 0 0 0 0 0 0 0 0 0 0 0 0 0 0 0 0 0 127 0" result="hardAlpha"/>
<feOffset dy="0.1"/>
<feComposite in2="hardAlpha" operator="out"/>
<feColorMatrix type="matrix" values="0 0 0 0 0.211932 0 0 0 0 0.262322 0 0 0 0 0.400895 0 0 0 0.25 0"/>
<feBlend mode="normal" in2="BackgroundImageFix" result="effect1_dropShadow_2904_3454"/>
<feBlend mode="normal" in="SourceGraphic" in2="effect1_dropShadow_2904_3454" result="shape"/>
</filter>
<filter id="filter12_d_2904_3454" x="13.2129" y="15.1927" width="1.74707" height="3.02383" filterUnits="userSpaceOnUse" color-interpolation-filters="sRGB">
<feFlood flood-opacity="0" result="BackgroundImageFix"/>
<feColorMatrix in="SourceAlpha" type="matrix" values="0 0 0 0 0 0 0 0 0 0 0 0 0 0 0 0 0 0 127 0" result="hardAlpha"/>
<feOffset dy="0.1"/>
<feComposite in2="hardAlpha" operator="out"/>
<feColorMatrix type="matrix" values="0 0 0 0 0.211932 0 0 0 0 0.262322 0 0 0 0 0.400895 0 0 0 0.25 0"/>
<feBlend mode="normal" in2="BackgroundImageFix" result="effect1_dropShadow_2904_3454"/>
<feBlend mode="normal" in="SourceGraphic" in2="effect1_dropShadow_2904_3454" result="shape"/>
</filter>
<filter id="filter13_di_2904_3454" x="14.0088" y="13.2042" width="4.7832" height="4.98235" filterUnits="userSpaceOnUse" color-interpolation-filters="sRGB">
<feFlood flood-opacity="0" result="BackgroundImageFix"/>
<feColorMatrix in="SourceAlpha" type="matrix" values="0 0 0 0 0 0 0 0 0 0 0 0 0 0 0 0 0 0 127 0" result="hardAlpha"/>
<feOffset dy="0.2"/>
<feComposite in2="hardAlpha" operator="out"/>
<feColorMatrix type="matrix" values="0 0 0 0 0.211765 0 0 0 0 0.262745 0 0 0 0 0.4 0 0 0 0.25 0"/>
<feBlend mode="normal" in2="BackgroundImageFix" result="effect1_dropShadow_2904_3454"/>
<feBlend mode="normal" in="SourceGraphic" in2="effect1_dropShadow_2904_3454" result="shape"/>
<feColorMatrix in="SourceAlpha" type="matrix" values="0 0 0 0 0 0 0 0 0 0 0 0 0 0 0 0 0 0 127 0" result="hardAlpha"/>
<feOffset dy="-0.3"/>
<feComposite in2="hardAlpha" operator="arithmetic" k2="-1" k3="1"/>
<feColorMatrix type="matrix" values="0 0 0 0 0.652474 0 0 0 0 0.253779 0 0 0 0 0.253779 0 0 0 0.25 0"/>
<feBlend mode="normal" in2="shape" result="effect2_innerShadow_2904_3454"/>
</filter>
</defs>
</svg>
