<?xml version="1.0" encoding="UTF-8"?>
<svg id="_레이어_2" data-name="레이어_2" xmlns="http://www.w3.org/2000/svg" viewBox="0 0 256.31 330.11">
  <defs>
    <style>
      .cls-1 {
        fill: #ff7571;
      }

      .cls-2 {
        fill: #ffda6a;
      }

      .cls-3 {
        fill: #fff3d7;
      }
    </style>
  </defs>
  <g id="_레이어_1-2" data-name="레이어_1">
    <g>
      <g>
        <path class="cls-1" d="M187.9,329.57l18.26-34.85c2.02-3.86,6.41-5.86,10.65-4.84l38.25,9.19c.81.19,1.49-.63,1.15-1.39l-61.98-136.54c-.23-.5-.82-.73-1.33-.5l-68.29,31c-.5.23-.73.82-.5,1.33l61.98,136.54c.34.76,1.41.79,1.8.05Z"/>
        <path class="cls-1" d="M68.43,329.57l-18.26-34.85c-2.02-3.86-6.41-5.86-10.65-4.84l-38.25,9.19c-.81.19-1.49-.63-1.15-1.39l61.98-136.54c.23-.5.82-.73,1.33-.5l68.29,31c.5.23.73.82.5,1.33l-61.98,136.54c-.34.76-1.41.79-1.8.05Z"/>
      </g>
      <path class="cls-2" d="M0,159.18l16.43-36.2c4.61-10.16,6.8-21.25,6.39-32.4l-1.47-39.73,38.55-9.72c10.82-2.73,20.85-7.93,29.31-15.21L119.37,0l31.64,24.08c8.88,6.76,19.21,11.36,30.17,13.44l39.06,7.41.9,39.75c.25,11.15,3.1,22.1,8.3,31.96l18.56,35.16-30.51,25.49c-8.56,7.15-15.35,16.2-19.81,26.42l-15.92,36.43-38.95-7.97c-10.93-2.24-22.23-1.9-33.01.98l-38.41,10.27-18.06-35.42c-5.07-9.94-12.38-18.57-21.35-25.19L0,159.18Z"/>
      <circle class="cls-3" cx="123.67" cy="127.36" r="94"/>
      <path class="cls-2" d="M128.06,55.56l19.24,29.11c3.89,5.89,9.78,10.17,16.58,12.05l33.63,9.3c3.64,1.01,5.07,5.4,2.72,8.36l-21.74,27.29c-4.4,5.52-6.65,12.44-6.33,19.49l1.55,34.86c.17,3.77-3.57,6.49-7.11,5.16l-32.68-12.25c-6.61-2.48-13.89-2.48-20.49,0l-32.68,12.25c-3.54,1.33-7.28-1.39-7.11-5.16l1.55-34.86c.31-7.05-1.94-13.97-6.33-19.49l-21.74-27.29c-2.35-2.95-.92-7.35,2.72-8.36l33.63-9.3c6.8-1.88,12.69-6.16,16.58-12.05l19.24-29.11c2.08-3.15,6.71-3.15,8.79,0Z"/>
    </g>
  </g>
</svg>