<svg width="24" height="24" viewBox="0 0 24 24" fill="none" xmlns="http://www.w3.org/2000/svg">
<path d="M12.5095 12.2551V8.66015C12.5095 8.2427 12.1673 7.90429 11.7452 7.90429C11.3231 7.90429 10.981 8.2427 10.981 8.66015V12.6769C10.9804 12.7092 10.9819 12.7414 10.9854 12.7734C11.0101 12.9961 11.1343 13.2051 11.3394 13.332C11.3494 13.3382 11.3596 13.3442 11.3699 13.35L14.0106 14.8578C14.3762 15.0665 14.8436 14.9427 15.0547 14.5812C15.2657 14.2196 15.1405 13.7574 14.7749 13.5486L12.5095 12.2551Z" fill="#121211"/>
<path fill-rule="evenodd" clip-rule="evenodd" d="M17.9178 17.2231C18.9959 15.9201 19.6428 14.2545 19.6428 12.4395C19.6428 8.26495 16.221 4.88085 12 4.88085C7.77902 4.88085 4.35724 8.26495 4.35724 12.4395C4.35724 14.2545 5.00409 15.9201 6.08225 17.2231L4.32633 18.9597C4.02786 19.2548 4.02786 19.7334 4.32633 20.0286C4.6248 20.3238 5.10871 20.3238 5.40718 20.0286L7.1631 18.292C8.48061 19.3583 10.1648 19.998 12 19.998C13.8352 19.998 15.5194 19.3583 16.8369 18.292L18.5928 20.0286C18.8913 20.3238 19.3752 20.3238 19.6737 20.0286C19.9721 19.7334 19.9721 19.2548 19.6737 18.9597L17.9178 17.2231ZM12 18.4863C15.3768 18.4863 18.1142 15.779 18.1142 12.4395C18.1142 9.09985 15.3768 6.39257 12 6.39257C8.62322 6.39257 5.88579 9.09985 5.88579 12.4395C5.88579 15.779 8.62322 18.4863 12 18.4863Z" fill="#121211"/>
<path d="M3.98801 8.04304C4.17811 8.23104 4.49759 8.19979 4.65646 7.98532C4.94003 7.60252 5.40702 7.01366 5.97851 6.44846C6.55 5.88327 7.14541 5.42142 7.53248 5.14097C7.74934 4.98385 7.78094 4.66788 7.59085 4.47989C6.60089 3.50083 4.98691 3.50967 3.99695 4.48873C3.00699 5.46778 2.99806 7.06399 3.98801 8.04304Z" fill="#121211"/>
<path d="M20.012 8.04304C19.8219 8.23104 19.5024 8.19979 19.3435 7.98532C19.06 7.60252 18.593 7.01366 18.0215 6.44846C17.45 5.88327 16.8546 5.42142 16.4675 5.14097C16.2507 4.98385 16.2191 4.66788 16.4092 4.47989C17.3991 3.50083 19.0131 3.50967 20.003 4.48873C20.993 5.46778 21.0019 7.06399 20.012 8.04304Z" fill="#121211"/>
</svg>
