<svg width="21" height="20" viewBox="0 0 21 20" fill="none" xmlns="http://www.w3.org/2000/svg">
<path d="M16.4732 4.78252C16.7094 4.54632 16.7094 4.16336 16.4732 3.92715C16.237 3.69095 15.8541 3.69095 15.6179 3.92715L10.4004 9.14463L5.18292 3.92715C4.94671 3.69095 4.56375 3.69095 4.32754 3.92715C4.09134 4.16336 4.09134 4.54632 4.32754 4.78252L9.54502 10L4.32754 15.2175C4.09134 15.4537 4.09134 15.8366 4.32754 16.0728C4.56375 16.3091 4.94671 16.3091 5.18291 16.0728L10.4004 10.8554L15.6179 16.0728C15.8541 16.3091 16.237 16.3091 16.4732 16.0728C16.7094 15.8366 16.7094 15.4537 16.4732 15.2175L11.2558 10L16.4732 4.78252Z" fill="#91908D"/>
</svg>
