<svg width="21" height="20" viewBox="0 0 21 20" fill="none" xmlns="http://www.w3.org/2000/svg">
<path d="M6.95543 6.88436V3.75033C6.95543 3.29009 7.32852 2.91699 7.78876 2.91699C8.249 2.91699 8.62209 3.29009 8.62209 3.75033V6.88436H9.24158V3.75057C9.24158 3.29033 9.61467 2.91724 10.0749 2.91724C10.5351 2.91724 10.9082 3.29033 10.9082 3.75057V6.88436H10.9128C10.9127 8.32541 9.94317 9.53924 8.62292 9.90514V16.2494C8.62292 16.7096 8.24982 17.0827 7.78958 17.0827C7.32934 17.0827 6.95625 16.7096 6.95625 16.2494L6.95625 9.90524C5.63582 9.53945 4.66615 8.32553 4.66602 6.88436H4.67357C4.67343 6.87785 4.67337 6.87133 4.67339 6.86479L4.6805 3.74863C4.68155 3.28839 5.0555 2.91621 5.51573 2.91733C5.97597 2.91846 6.34821 3.29247 6.34716 3.7527L6.34005 6.86886C6.34004 6.87404 6.33998 6.8792 6.33987 6.88436H6.95543Z" fill="#C4C3BE"/>
<path d="M16.3301 2.9165C15.8376 2.9165 15.35 2.99975 14.895 3.16149C14.44 3.32323 14.0266 3.56029 13.6784 3.85914C13.3302 4.158 13.054 4.51279 12.8655 4.90326C12.6841 5.27912 12.5875 5.68097 12.5805 6.08747L12.5801 6.13487V11.5523H14.6208L14.6208 16.2501C14.6208 16.7104 15.0034 17.0835 15.4754 17.0835C15.9474 17.0835 16.3301 16.7104 16.3301 16.2501V2.9165Z" fill="#C4C3BE"/>
</svg>
