<svg width="24" height="24" viewBox="0 0 24 24" fill="none" xmlns="http://www.w3.org/2000/svg">
<path fill-rule="evenodd" clip-rule="evenodd" d="M13.7132 14.7133C12.6917 15.5191 11.402 16 10 16C6.68629 16 4 13.3137 4 10C4 6.68629 6.68629 4 10 4C13.3137 4 16 6.68629 16 10C16 11.371 15.5401 12.6347 14.7663 13.6451L20.4246 19.3034C20.7175 19.5963 20.7175 20.0712 20.4246 20.3641C20.1317 20.657 19.6569 20.657 19.364 20.3641L13.7132 14.7133ZM14.5 10C14.5 12.4853 12.4853 14.5 10 14.5C7.51472 14.5 5.5 12.4853 5.5 10C5.5 7.51472 7.51472 5.5 10 5.5C12.4853 5.5 14.5 7.51472 14.5 10Z" fill="#FF9143"/>
</svg>
