<svg width="20" height="20" viewBox="0 0 20 20" fill="none" xmlns="http://www.w3.org/2000/svg">
<path d="M6.45616 6.88452V3.75049C6.45616 3.29025 6.82926 2.91715 7.28949 2.91715C7.74973 2.91715 8.12283 3.29025 8.12283 3.75049V6.88452H8.74231V3.75073C8.74231 3.29049 9.1154 2.9174 9.57564 2.9174C10.0359 2.9174 10.409 3.29049 10.409 3.75073V6.88452H10.4135C10.4134 8.32557 9.44391 9.5394 8.12365 9.9053V16.2495C8.12365 16.7098 7.75055 17.0828 7.29031 17.0828C6.83008 17.0828 6.45698 16.7098 6.45698 16.2495L6.45698 9.9054C5.13655 9.53961 4.16688 8.32569 4.16675 6.88452H4.1743C4.17417 6.87801 4.17411 6.87149 4.17412 6.86495L4.18123 3.74879C4.18228 3.28855 4.55623 2.91637 5.01647 2.91749C5.4767 2.91862 5.84895 3.29263 5.84789 3.75286L5.84078 6.86902C5.84077 6.8742 5.84071 6.87936 5.84061 6.88452H6.45616Z" fill="#121211"/>
<path d="M15.8301 2.91651C15.3376 2.91651 14.85 2.99976 14.395 3.1615C13.94 3.32323 13.5266 3.5603 13.1784 3.85915C12.8302 4.158 12.554 4.51279 12.3655 4.90326C12.1841 5.27913 12.0875 5.68097 12.0805 6.08748L12.0801 6.13488V11.5523H14.1208L14.1208 16.2502C14.1208 16.7104 14.5034 17.0835 14.9754 17.0835C15.4474 17.0835 15.8301 16.7104 15.8301 16.2502V2.91651Z" fill="#121211"/>
</svg>
